<svg width="24" height="24" viewBox="0 0 24 24" fill="none" xmlns="http://www.w3.org/2000/svg">
<g clip-path="url(#clip0_1862_1681)">
<path d="M18.2103 11.1281C18.6266 10.7849 21.0303 9.29806 22.3466 8.04556C23.3741 7.06681 23.7716 4.51119 22.191 3.26806C20.136 1.65369 18.1635 3.34869 18.1635 3.34869C18.1635 3.34869 17.991 2.39056 16.791 1.82806C15.2797 1.11931 13.3653 0.854936 11.6047 0.877436C9.89847 0.898061 8.32722 1.10431 6.93222 1.78869C5.68347 2.40181 5.60847 3.27556 5.60847 3.27556C5.60847 3.27556 3.96972 1.70994 1.9616 2.98119C-0.0446547 4.25431 0.53097 6.80431 1.4966 7.87493C2.75472 9.26993 4.26597 9.98056 4.95222 10.4943C5.6366 11.0081 6.29285 11.4974 6.29285 11.9381C6.29285 12.3787 6.09785 12.4762 6.02285 12.4518C5.94972 12.4274 5.82035 11.9981 5.48472 12.1818C5.02722 12.4349 5.16597 13.4549 6.12035 13.5524C7.04472 13.6481 7.22097 12.6712 7.22097 12.6712L7.36722 11.7168L8.8841 12.7687L10.5472 14.1393L10.4985 15.3131C10.4985 15.3131 10.4253 16.2187 9.98472 17.0024C9.5441 17.7862 8.83535 18.5681 8.83535 18.5681L8.81285 19.2768L14.9797 19.1306L14.7847 18.4462C14.7847 18.4462 13.9897 17.5724 13.5116 16.6349C13.1703 15.9637 13.116 15.2868 13.116 15.2868L13.101 13.6031L16.3016 11.6418C16.3016 11.6418 16.6447 11.9118 16.596 12.0093C16.5472 12.1068 16.536 13.1062 17.3047 13.4774C18.0641 13.8449 18.6753 13.3799 18.6022 12.7424C18.5291 12.1068 18.1372 12.3262 18.0153 12.4237C17.8935 12.5212 17.6235 12.5456 17.5503 12.1781C17.4753 11.8143 17.7941 11.4712 18.2103 11.1281ZM2.45472 7.66681L1.7216 5.43556L2.60847 4.27494L3.60222 3.98431C3.60222 3.98431 4.87159 4.93119 4.91659 5.00806C4.9616 5.08494 5.7266 6.65806 5.7266 6.65806L6.73534 10.3106L2.45472 7.66681ZM16.866 10.6012C16.881 10.5243 17.8128 6.68806 17.8128 6.68806C17.8128 6.64306 18.4691 6.33744 18.4691 6.27556C18.4691 6.21369 19.6616 4.27306 19.6616 4.27306L21.6491 4.34994L22.0616 6.32056L21.0678 7.95556C21.0697 7.95743 16.851 10.6762 16.866 10.6012Z" fill="#FEC417"/>
<path d="M22.4852 5.74503C22.3389 3.99753 20.6102 3.5794 19.8996 3.83253C19.1889 4.08565 18.7277 4.56003 18.5702 5.23503C18.4427 5.78065 18.3152 6.1444 18.1689 6.20065C18.0077 6.26065 17.8596 6.23628 17.8596 6.23628C17.8596 6.23628 17.8333 5.05503 17.8408 4.57878C17.8596 3.59628 18.1596 3.34503 18.1596 3.34503C18.1596 3.34503 18.0958 3.01315 17.9683 2.8294C17.8408 2.64753 17.6046 2.41128 17.6046 2.41128C17.6046 2.41128 17.6589 2.88378 17.4227 2.9944C17.1864 3.10503 16.9314 2.94003 16.9314 2.94003L17.1677 3.92253C17.1677 3.92253 16.7852 8.82003 16.7496 8.92878C16.7139 9.03753 15.2758 11.5313 15.2758 11.5313C15.2758 11.5313 14.4377 12.315 14.0383 12.4969C13.6371 12.6788 13.2921 13.1532 11.7452 13.17C10.1983 13.1888 8.86894 11.9682 8.86894 11.9682L7.53957 10.6932L6.55707 7.79815L6.41082 4.84878L6.47269 3.77628L6.51582 3.32815L6.44644 3.10128C6.44644 3.10128 6.31894 3.22878 6.08269 3.1744C5.84644 3.12003 5.75457 2.81065 5.75457 2.81065C5.75457 2.81065 5.66269 2.9569 5.64582 3.03003C5.62707 3.10315 5.60832 3.2719 5.60832 3.2719C5.60832 3.2719 5.86332 3.54003 5.91769 3.92253C5.97207 4.30503 5.89894 5.8894 5.62707 5.8519C5.35332 5.81628 5.44332 4.4869 4.40644 3.9769C3.50832 3.5344 2.16769 3.66753 1.62019 4.77753C1.07457 5.88753 1.47394 7.19815 3.18582 8.41878C4.89769 9.6394 6.72019 10.665 7.00894 11.6438C7.35394 12.8082 6.57207 13.5 6.57207 13.5C6.57207 13.5 7.14019 13.4213 7.41957 12.8119C7.50957 12.615 7.54332 12.3282 7.55644 12.1575C8.20332 13.0013 9.06394 13.7157 10.2039 14.0607C10.6352 14.2088 11.1208 14.2838 11.7958 14.2838C11.8933 14.2838 11.9889 14.28 12.0846 14.2763C12.8739 14.2482 13.5489 14.1 14.2033 13.7757C15.0864 13.3669 15.7708 12.7425 16.2996 12.0338C16.2846 12.2025 16.3877 12.6225 16.5846 12.9544C16.9296 13.5375 17.5127 13.5732 17.5127 13.5732C17.5127 13.5732 16.7121 13.1007 16.8752 11.9719C17.0383 10.8432 17.7846 10.4419 18.9133 9.7144C20.0458 8.98503 22.6296 7.49253 22.4852 5.74503ZM3.98832 8.2219C3.48019 7.86378 2.58957 7.38565 2.22207 6.65628C1.73269 5.68315 2.13019 4.50753 3.06019 4.36315C4.99144 4.0594 5.02707 6.45753 5.15457 6.74815C5.28207 7.03878 5.64582 7.05753 5.64582 7.05753C5.64582 7.05753 5.65894 7.21878 5.71144 7.53003C5.71332 7.5394 5.71519 7.5469 5.71519 7.55628L5.72082 7.5844C5.75644 7.79628 5.80707 8.06065 5.87832 8.36253L5.88394 8.38503C5.92332 8.55565 5.96457 8.7169 6.00769 8.86503C6.09394 9.17628 6.19894 9.5119 6.32832 9.8569C6.14082 9.7294 5.06644 8.98503 3.98832 8.2219ZM21.4839 6.87378C21.0808 7.52628 20.2652 8.0119 19.6633 8.42065C18.8871 8.94753 17.7321 9.73878 17.4058 9.96003C17.4808 9.76128 17.5464 9.5644 17.6064 9.37128C17.7039 9.11628 17.8071 8.80503 17.8783 8.4694C18.0658 7.58815 18.0977 6.81753 18.0977 6.81753C18.0977 6.81753 18.4802 6.92628 18.7164 6.67128C18.9527 6.41628 19.0408 5.62503 19.2621 5.2519C19.6071 4.66878 20.2989 4.06878 21.3377 4.79628C21.9377 5.21815 21.9602 6.10128 21.4839 6.87378ZM11.3477 14.8707L12.4071 14.8575C12.4071 14.8575 12.4352 16.0144 12.6021 16.8769C12.7689 17.7413 12.9921 18.7013 12.9921 18.7013C12.9921 18.7013 10.8339 19.425 10.8471 18.645C10.8602 17.865 11.1808 16.3463 11.1808 16.3463C11.1808 16.3463 11.3758 14.5369 11.3477 14.8707Z" fill="#FFA828"/>
<path d="M9.57047 2.8482C9.57047 2.8482 10.7498 2.71507 11.8467 2.73195C12.9436 2.74882 14.0723 2.96445 14.0723 2.96445C14.0723 2.96445 14.0067 6.6357 13.8061 8.69632C13.6073 10.7569 12.8273 12.3001 12.6192 12.7369C12.4186 13.1607 12.2723 13.3876 12.2723 13.3876L11.2148 13.2638L9.38672 9.59257L9.57047 2.8482Z" fill="#FFA828"/>
<path d="M8.15848 3.39753C8.15848 3.39753 8.49036 3.23065 8.97223 3.04878C9.40911 2.88378 9.80286 2.83315 9.80286 2.83315C9.80286 2.83315 9.81411 5.2669 9.85348 7.00315C9.88723 8.48253 10.4347 10.9069 10.701 11.5557C10.9672 12.2044 11.4472 13.1944 11.4472 13.1944C11.4472 13.1944 10.4816 13.0557 9.88723 12.3019C9.57411 11.9044 8.10973 8.8294 8.05911 6.80253C8.00848 4.77565 8.20723 3.3469 8.15848 3.39753Z" fill="#FFEFAB"/>
<path d="M7.60921 3.67869C7.57546 3.77807 7.31109 5.87244 7.72546 7.81494C8.13984 9.75744 8.75296 11.0868 9.15796 11.6137C9.51796 12.0806 9.75234 12.3018 9.88546 12.3018C10.0186 12.3018 9.33796 10.6912 9.02109 9.42744C8.70609 8.16557 8.53921 6.65244 8.50546 5.90619C8.47171 5.15807 8.43984 3.23057 8.43984 3.23057C8.43984 3.23057 8.07421 3.39744 7.99171 3.44619C7.90921 3.49682 7.60921 3.67869 7.60921 3.67869Z" fill="#FFFCFD"/>
<path d="M10.001 18.5644C10.001 18.5644 10.7154 17.4019 10.8654 16.5206C11.0154 15.6394 11.0979 14.8594 11.0979 14.8594L11.5404 14.8781C11.5404 14.8781 11.4972 16.155 11.4466 17.0194C11.396 17.8837 11.2479 18.7313 11.2479 18.7313L10.001 18.5644Z" fill="#FFEFAB"/>
<path d="M10.5512 14.1394C10.5512 14.1394 10.883 13.815 11.7962 13.815C12.7093 13.815 13.1012 14.1657 13.1012 14.1657L13.1255 15.2925C13.1255 15.2925 12.518 15.1032 11.7793 15.0938C11.1643 15.0863 10.5024 15.315 10.5024 15.315L10.5512 14.1394ZM6.56304 2.94754C6.71679 2.80504 8.19054 1.69879 11.6799 1.66879C15.4337 1.63504 16.8418 2.72254 16.9299 2.78254C17.0293 2.84817 17.1455 3.14817 17.0968 3.28129C17.0462 3.41442 16.9468 3.46317 16.6655 3.34692C16.3824 3.23067 14.9874 2.21254 11.6312 2.31754C8.40804 2.41692 7.04117 3.39754 6.89679 3.48004C6.78054 3.54567 6.56492 3.56254 6.46554 3.42942C6.36429 3.29817 6.46367 3.04129 6.56304 2.94754ZM17.0968 3.72942C16.6655 3.76317 16.9637 7.23567 16.0505 9.41067C15.0718 11.7375 13.823 12.4013 13.8737 12.5344C13.9243 12.6675 15.1468 12.2982 15.9174 11.205C16.6318 10.1925 17.063 9.29442 17.2637 8.09817C17.4605 6.90192 17.5768 3.69192 17.0968 3.72942ZM6.47117 4.12692C6.36242 4.12129 6.47304 5.85379 6.29679 6.61504C6.22929 6.90754 6.06429 6.96754 6.04742 7.03317C6.03054 7.09879 6.40929 9.32817 7.04492 10.3069C7.65992 11.2538 8.87304 12.4332 9.07179 12.2344C9.27054 12.0357 8.19054 11.37 7.46117 9.92442C7.04117 9.09567 6.61367 7.84692 6.59679 6.41817C6.58554 5.47317 6.70367 4.14004 6.47117 4.12692Z" fill="#D1701C"/>
<path d="M16.2684 21.1332L16.2666 18.4538H7.66594C7.69219 18.4538 7.67156 20.6326 7.66781 21.1426H6.44531V23.0832H17.3672V21.1426L16.2684 21.1332Z" fill="#865C50"/>
<path d="M10.4236 19.8618C10.2117 19.8524 9.96797 19.8955 9.95859 20.158C9.94922 20.4205 9.94922 21.1799 9.94922 21.3243C9.94922 21.4687 10.0673 21.5943 10.3636 21.6037C10.6598 21.613 13.4405 21.6037 13.6355 21.6037C13.8305 21.6037 13.9317 21.4349 13.9392 21.2662C13.9486 21.0974 13.9298 20.3868 13.9298 20.1937C13.9298 19.873 13.643 19.873 13.448 19.873C13.238 19.8693 10.4236 19.8618 10.4236 19.8618Z" fill="#FCC219"/>
<path d="M11.9374 9.84V6.0096C11.5822 6.2736 11.203 6.4464 10.7998 6.528V5.5128C11.2558 5.4024 11.6998 5.1648 12.1318 4.8H12.9886V9.84H11.9374Z" fill="white"/>
</g>
<defs>
<clipPath id="clip0_1862_1681">
<rect width="24" height="24" fill="white"/>
</clipPath>
</defs>
</svg>
