<svg width="24" height="24" viewBox="0 0 24 24" fill="none" xmlns="http://www.w3.org/2000/svg">
<g clip-path="url(#clip0_1862_1835)">
<path d="M18.2103 11.1282C18.6266 10.7851 21.0303 9.2982 22.3466 8.0457C23.3741 7.06696 23.7716 4.51133 22.191 3.26821C20.136 1.65383 18.1635 3.34883 18.1635 3.34883C18.1635 3.34883 17.991 2.39071 16.791 1.82821C15.2797 1.11946 13.3653 0.855081 11.6047 0.877581C9.89847 0.898206 8.32722 1.10446 6.93222 1.78883C5.68347 2.40196 5.60847 3.27571 5.60847 3.27571C5.60847 3.27571 3.96972 1.71008 1.9616 2.98133C-0.0446547 4.25446 0.53097 6.80445 1.4966 7.87508C2.75472 9.27008 4.26597 9.98071 4.95222 10.4945C5.6366 11.0082 6.29285 11.4976 6.29285 11.9382C6.29285 12.3788 6.09785 12.4763 6.02285 12.452C5.94972 12.4276 5.82035 11.9982 5.48472 12.182C5.02722 12.4351 5.16597 13.4551 6.12035 13.5526C7.04472 13.6482 7.22097 12.6713 7.22097 12.6713L7.36722 11.717L8.8841 12.7688L10.5472 14.1395L10.4985 15.3132C10.4985 15.3132 10.4253 16.2188 9.98472 17.0026C9.5441 17.7863 8.83535 18.5682 8.83535 18.5682L8.81285 19.277L14.9797 19.1307L14.7847 18.4463C14.7847 18.4463 13.9897 17.5726 13.5116 16.6351C13.1703 15.9638 13.116 15.287 13.116 15.287L13.101 13.6032L16.3016 11.642C16.3016 11.642 16.6447 11.912 16.596 12.0095C16.5472 12.107 16.536 13.1063 17.3047 13.4776C18.0641 13.8451 18.6753 13.3801 18.6022 12.7426C18.5291 12.107 18.1372 12.3263 18.0153 12.4238C17.8935 12.5213 17.6235 12.5457 17.5503 12.1782C17.4753 11.8145 17.7941 11.4713 18.2103 11.1282ZM2.45472 7.66695L1.7216 5.43571L2.60847 4.27508L3.60222 3.98446C3.60222 3.98446 4.87159 4.93133 4.91659 5.00821C4.9616 5.08508 5.7266 6.65821 5.7266 6.65821L6.73534 10.3107L2.45472 7.66695ZM16.866 10.6013C16.881 10.5245 17.8128 6.6882 17.8128 6.6882C17.8128 6.6432 18.4691 6.33758 18.4691 6.27571C18.4691 6.21383 19.6616 4.27321 19.6616 4.27321L21.6491 4.35008L22.0616 6.3207L21.0678 7.9557C21.0697 7.95758 16.851 10.6763 16.866 10.6013Z" fill="#BDBDBD"/>
<path d="M22.4852 5.74488C22.3389 3.99738 20.6102 3.57926 19.8996 3.83238C19.1889 4.08551 18.7277 4.55988 18.5702 5.23488C18.4427 5.78051 18.3152 6.14426 18.1689 6.20051C18.0077 6.26051 17.8596 6.23613 17.8596 6.23613C17.8596 6.23613 17.8333 5.05488 17.8408 4.57863C17.8596 3.59613 18.1596 3.34488 18.1596 3.34488C18.1596 3.34488 18.0958 3.01301 17.9683 2.82926C17.8408 2.64738 17.6046 2.41113 17.6046 2.41113C17.6046 2.41113 17.6589 2.88363 17.4227 2.99426C17.1864 3.10488 16.9314 2.93988 16.9314 2.93988L17.1677 3.92238C17.1677 3.92238 16.7852 8.81988 16.7496 8.92863C16.7139 9.03738 15.2758 11.5311 15.2758 11.5311C15.2758 11.5311 14.4377 12.3149 14.0383 12.4968C13.6371 12.6786 13.2921 13.153 11.7452 13.1699C10.1983 13.1886 8.86894 11.968 8.86894 11.968L7.53957 10.693L6.55707 7.79801L6.41082 4.84863L6.47269 3.77613L6.51582 3.32801L6.44644 3.10113C6.44644 3.10113 6.31894 3.22863 6.08269 3.17426C5.84644 3.11988 5.75457 2.81051 5.75457 2.81051C5.75457 2.81051 5.66269 2.95676 5.64582 3.02988C5.62707 3.10301 5.60832 3.27176 5.60832 3.27176C5.60832 3.27176 5.86332 3.53988 5.91769 3.92238C5.97207 4.30488 5.89894 5.88926 5.62707 5.85176C5.35332 5.81613 5.44332 4.48676 4.40644 3.97676C3.50832 3.53426 2.16769 3.66738 1.62019 4.77738C1.07457 5.88738 1.47394 7.19801 3.18582 8.41863C4.89769 9.63926 6.72019 10.6649 7.00894 11.6436C7.35394 12.808 6.57207 13.4999 6.57207 13.4999C6.57207 13.4999 7.14019 13.4211 7.41957 12.8118C7.50957 12.6149 7.54332 12.328 7.55644 12.1574C8.20332 13.0011 9.06394 13.7155 10.2039 14.0605C10.6352 14.2086 11.1208 14.2836 11.7958 14.2836C11.8933 14.2836 11.9889 14.2799 12.0846 14.2761C12.8739 14.248 13.5489 14.0999 14.2033 13.7755C15.0864 13.3668 15.7708 12.7424 16.2996 12.0336C16.2846 12.2024 16.3877 12.6224 16.5846 12.9543C16.9296 13.5374 17.5127 13.573 17.5127 13.573C17.5127 13.573 16.7121 13.1005 16.8752 11.9718C17.0383 10.843 17.7846 10.4418 18.9133 9.71426C20.0458 8.98488 22.6296 7.49238 22.4852 5.74488ZM3.98832 8.22176C3.48019 7.86363 2.58957 7.38551 2.22207 6.65613C1.73269 5.68301 2.13019 4.50738 3.06019 4.36301C4.99144 4.05926 5.02707 6.45738 5.15457 6.74801C5.28207 7.03863 5.64582 7.05738 5.64582 7.05738C5.64582 7.05738 5.65894 7.21863 5.71144 7.52988C5.71332 7.53926 5.71519 7.54676 5.71519 7.55613L5.72082 7.58426C5.75644 7.79613 5.80707 8.06051 5.87832 8.36238L5.88394 8.38488C5.92332 8.55551 5.96457 8.71676 6.00769 8.86488C6.09394 9.17613 6.19894 9.51176 6.32832 9.85676C6.14082 9.72926 5.06644 8.98488 3.98832 8.22176ZM21.4839 6.87363C21.0808 7.52613 20.2652 8.01176 19.6633 8.42051C18.8871 8.94738 17.7321 9.73863 17.4058 9.95988C17.4808 9.76113 17.5464 9.56426 17.6064 9.37113C17.7039 9.11613 17.8071 8.80488 17.8783 8.46926C18.0658 7.58801 18.0977 6.81738 18.0977 6.81738C18.0977 6.81738 18.4802 6.92613 18.7164 6.67113C18.9527 6.41613 19.0408 5.62488 19.2621 5.25176C19.6071 4.66863 20.2989 4.06863 21.3377 4.79613C21.9377 5.21801 21.9602 6.10113 21.4839 6.87363ZM11.3477 14.8705L12.4071 14.8574C12.4071 14.8574 12.4352 16.0143 12.6021 16.8768C12.7689 17.7411 12.9921 18.7011 12.9921 18.7011C12.9921 18.7011 10.8339 19.4249 10.8471 18.6449C10.8602 17.8649 11.1808 16.3461 11.1808 16.3461C11.1808 16.3461 11.3758 14.5368 11.3477 14.8705Z" fill="#E0E0E0"/>
<path d="M9.57047 2.8482C9.57047 2.8482 10.7498 2.71507 11.8467 2.73195C12.9436 2.74882 14.0723 2.96445 14.0723 2.96445C14.0723 2.96445 14.0067 6.6357 13.8061 8.69632C13.6073 10.7569 12.8273 12.3001 12.6192 12.7369C12.4186 13.1607 12.2723 13.3876 12.2723 13.3876L11.2148 13.2638L9.38672 9.59257L9.57047 2.8482Z" fill="#E0E0E0"/>
<path d="M8.15848 3.39738C8.15848 3.39738 8.49036 3.23051 8.97223 3.04863C9.40911 2.88363 9.80286 2.83301 9.80286 2.83301C9.80286 2.83301 9.81411 5.26676 9.85348 7.00301C9.88723 8.48238 10.4347 10.9068 10.701 11.5555C10.9672 12.2043 11.4472 13.1943 11.4472 13.1943C11.4472 13.1943 10.4816 13.0555 9.88723 12.3018C9.57411 11.9043 8.10973 8.82926 8.05911 6.80238C8.00848 4.77551 8.20723 3.34676 8.15848 3.39738Z" fill="#F5F5F5"/>
<path d="M7.60921 3.67869C7.57546 3.77806 7.31109 5.87244 7.72546 7.81494C8.13984 9.75744 8.75296 11.0868 9.15796 11.6137C9.51796 12.0806 9.75234 12.3018 9.88546 12.3018C10.0186 12.3018 9.33796 10.6912 9.02109 9.42743C8.70609 8.16556 8.53921 6.65244 8.50546 5.90619C8.47171 5.15806 8.43984 3.23056 8.43984 3.23056C8.43984 3.23056 8.07421 3.39744 7.99171 3.44619C7.90921 3.49681 7.60921 3.67869 7.60921 3.67869Z" fill="#FAFAFA"/>
<path d="M10.001 18.5644C10.001 18.5644 10.7154 17.4019 10.8654 16.5206C11.0154 15.6394 11.0979 14.8594 11.0979 14.8594L11.5404 14.8781C11.5404 14.8781 11.4972 16.155 11.4466 17.0194C11.396 17.8837 11.2479 18.7313 11.2479 18.7313L10.001 18.5644Z" fill="#F5F5F5"/>
<path d="M10.5512 14.1393C10.5512 14.1393 10.883 13.8149 11.7962 13.8149C12.7093 13.8149 13.1012 14.1655 13.1012 14.1655L13.1255 15.2924C13.1255 15.2924 12.518 15.103 11.7793 15.0936C11.1643 15.0861 10.5024 15.3149 10.5024 15.3149L10.5512 14.1393ZM6.56304 2.9474C6.71679 2.8049 8.19054 1.69865 11.6799 1.66865C15.4337 1.6349 16.8418 2.7224 16.9299 2.7824C17.0293 2.84802 17.1455 3.14802 17.0968 3.28115C17.0462 3.41427 16.9468 3.46302 16.6655 3.34677C16.3824 3.23052 14.9874 2.2124 11.6312 2.3174C8.40804 2.41677 7.04117 3.3974 6.89679 3.4799C6.78054 3.54552 6.56492 3.5624 6.46554 3.42927C6.36429 3.29802 6.46367 3.04115 6.56304 2.9474ZM17.0968 3.72927C16.6655 3.76302 16.9637 7.23552 16.0505 9.41052C15.0718 11.7374 13.823 12.4011 13.8737 12.5343C13.9243 12.6674 15.1468 12.298 15.9174 11.2049C16.6318 10.1924 17.063 9.29427 17.2637 8.09802C17.4605 6.90177 17.5768 3.69177 17.0968 3.72927ZM6.47117 4.12677C6.36242 4.12115 6.47304 5.85365 6.29679 6.6149C6.22929 6.9074 6.06429 6.9674 6.04742 7.03302C6.03054 7.09865 6.40929 9.32802 7.04492 10.3068C7.65992 11.2536 8.87304 12.433 9.07179 12.2343C9.27054 12.0355 8.19054 11.3699 7.46117 9.92427C7.04117 9.09552 6.61367 7.84677 6.59679 6.41802C6.58554 5.47302 6.70367 4.1399 6.47117 4.12677Z" fill="#9E9E9E"/>
<path d="M16.2684 21.1332L16.2666 18.4538H7.66594C7.69219 18.4538 7.67156 20.6326 7.66781 21.1426H6.44531V23.0832H17.3672V21.1426L16.2684 21.1332Z" fill="#9E9E9E"/>
<path d="M10.4236 19.8618C10.2117 19.8524 9.96797 19.8955 9.95859 20.158C9.94922 20.4205 9.94922 21.1799 9.94922 21.3243C9.94922 21.4687 10.0673 21.5943 10.3636 21.6037C10.6598 21.613 13.4405 21.6037 13.6355 21.6037C13.8305 21.6037 13.9317 21.4349 13.9392 21.2662C13.9486 21.0974 13.9298 20.3868 13.9298 20.1937C13.9298 19.873 13.643 19.873 13.448 19.873C13.238 19.8693 10.4236 19.8618 10.4236 19.8618Z" fill="#E0E0E0"/>
<path d="M10.2035 9.93744V9.03024L11.9459 7.58304C12.4499 7.17024 12.7019 6.80064 12.7019 6.47424C12.7019 6.27744 12.6371 6.11904 12.5075 5.99904C12.3779 5.87424 12.2099 5.81184 12.0035 5.81184C11.7587 5.81184 11.5691 5.90544 11.4347 6.09264C11.3051 6.27984 11.2523 6.52944 11.2763 6.84144L10.1963 6.76944C10.1435 6.23664 10.2947 5.78304 10.6499 5.40864C11.0099 5.02944 11.4611 4.83984 12.0035 4.83984C12.5507 4.83984 12.9923 4.99104 13.3283 5.29344C13.6691 5.59584 13.8395 5.98944 13.8395 6.47424C13.8395 6.79104 13.7411 7.09824 13.5443 7.39584C13.3475 7.68864 13.0331 8.00064 12.6011 8.33184L11.7947 8.95824H13.8323V9.93744H10.2035Z" fill="#616161"/>
</g>
<defs>
<clipPath id="clip0_1862_1835">
<rect width="24" height="24" fill="white"/>
</clipPath>
</defs>
</svg>
