<svg width="20" height="20" viewBox="0 0 20 20" fill="none" xmlns="http://www.w3.org/2000/svg">
<g id="figicon/line/download">
<path id="ideateicons" fill-rule="evenodd" clip-rule="evenodd" d="M10.0001 3.37963C10.3453 3.37963 10.6251 3.65945 10.6251 4.00463L10.6251 11.1397L13.0016 8.94085C13.2549 8.70642 13.6504 8.72178 13.8848 8.97514C14.1192 9.22851 14.1039 9.62394 13.8505 9.85836L10.4246 13.0282C10.185 13.2499 9.8152 13.2499 9.57563 13.0282L6.14971 9.85836C5.89635 9.62393 5.881 9.2285 6.11542 8.97514C6.34985 8.72178 6.74528 8.70642 6.99864 8.94085L9.3751 11.1397V4.00463C9.3751 3.65945 9.65493 3.37963 10.0001 3.37963ZM2.29175 7.66204C2.63693 7.66204 2.91675 7.94186 2.91675 8.28704C2.91675 12.1991 6.08806 15.3704 10.0001 15.3704C13.9121 15.3704 17.0834 12.1991 17.0834 8.28704C17.0834 7.94186 17.3632 7.66204 17.7084 7.66204C18.0536 7.66204 18.3334 7.94186 18.3334 8.28704C18.3334 12.8894 14.6025 16.6204 10.0001 16.6204C5.39771 16.6204 1.66675 12.8894 1.66675 8.28704C1.66675 7.94186 1.94657 7.66204 2.29175 7.66204Z" fill="#00A4E6"/>
</g>
</svg>
