<svg width="80" height="80" viewBox="0 0 80 80" fill="none" xmlns="http://www.w3.org/2000/svg">
<rect width="80" height="80" rx="40" fill="white" fill-opacity="0.1"/>
<path fill-rule="evenodd" clip-rule="evenodd" d="M34.0636 31.1013C32.2911 31.1013 30.8542 32.5382 30.8542 34.3108C30.8542 36.0833 32.2911 37.5203 34.0636 37.5203C35.8362 37.5203 37.2731 36.0833 37.2731 34.3108C37.2731 32.5382 35.8362 31.1013 34.0636 31.1013ZM28.3542 34.3108C28.3542 31.1575 30.9104 28.6013 34.0636 28.6013C37.2169 28.6013 39.7731 31.1575 39.7731 34.3108C39.7731 37.464 37.2169 40.0203 34.0636 40.0203C30.9104 40.0203 28.3542 37.464 28.3542 34.3108ZM46.3713 31.1013C44.5988 31.1013 43.1618 32.5382 43.1618 34.3108C43.1618 36.0833 44.5988 37.5203 46.3713 37.5203C48.1438 37.5203 49.5808 36.0833 49.5808 34.3108C49.5808 32.5382 48.1438 31.1013 46.3713 31.1013ZM40.6618 34.3108C40.6618 31.1575 43.2181 28.6013 46.3713 28.6013C49.5246 28.6013 52.0808 31.1575 52.0808 34.3108C52.0808 37.464 49.5246 40.0203 46.3713 40.0203C43.2181 40.0203 40.6618 37.464 40.6618 34.3108ZM33.8467 43.4223C30.1675 43.4223 27.0187 45.7066 25.747 48.9388C25.4943 49.5812 24.7686 49.8971 24.1262 49.6444C23.4838 49.3916 23.1679 48.666 23.4206 48.0235C25.0557 43.8675 29.1057 40.9223 33.8467 40.9223C36.1203 40.9223 38.2349 41.5997 40.0006 42.7631C41.7668 41.5997 43.8829 40.9224 46.1544 40.9224C50.8953 40.9224 54.9453 43.8675 56.5804 48.0236C56.8332 48.666 56.5173 49.3917 55.8749 49.6444C55.2324 49.8972 54.5068 49.5813 54.254 48.9388C52.9823 45.7066 49.8336 43.4224 46.1544 43.4224C44.6568 43.4224 43.2494 43.7999 42.0201 44.4652C42.9803 45.4897 43.75 46.6947 44.2728 48.0235C44.5255 48.666 44.2096 49.3916 43.5672 49.6444C42.9248 49.8971 42.1991 49.5812 41.9463 48.9388C40.6747 45.7066 37.5259 43.4223 33.8467 43.4223Z" fill="#6EFDEB"/>
</svg>
