<svg width="81" height="80" viewBox="0 0 81 80" fill="none" xmlns="http://www.w3.org/2000/svg">
<rect x="0.333496" width="80" height="80" rx="40" fill="#141518"/>
<path fill-rule="evenodd" clip-rule="evenodd" d="M38.3276 25.8333C35.8922 25.8333 33.918 27.8075 33.918 30.2429C33.918 32.6782 35.8922 34.6525 38.3276 34.6525C40.763 34.6525 42.7372 32.6782 42.7372 30.2429C42.7372 27.8075 40.763 25.8333 38.3276 25.8333ZM31.418 30.2429C31.418 26.4268 34.5115 23.3333 38.3276 23.3333C42.1437 23.3333 45.2372 26.4268 45.2372 30.2429C45.2372 34.0589 42.1437 37.1525 38.3276 37.1525C34.5115 37.1525 31.418 34.0589 31.418 30.2429ZM28.7346 43.752C27.8606 44.9807 27.3696 46.8099 27.4591 49.0622C27.5043 50.2 27.5297 50.4932 27.8225 51.0304C27.902 51.1763 28.0889 51.4184 28.3543 51.6735C28.6197 51.9286 28.869 52.1056 29.018 52.1793C29.5413 52.4382 30.0267 52.4643 31.7391 52.4643H39.654C40.3443 52.4643 40.904 53.024 40.904 53.7143C40.904 54.4047 40.3443 54.9643 39.654 54.9643H31.7391C31.6738 54.9643 31.6092 54.9644 31.5453 54.9644C30.1052 54.9655 29.0137 54.9663 27.9096 54.4202C27.4506 54.1931 26.9928 53.8324 26.622 53.476C26.2511 53.1196 25.8725 52.6765 25.6274 52.2268L26.725 51.6286L25.6274 52.2268C25.0394 51.148 25.0069 50.3244 24.9642 49.2408C24.9632 49.2145 24.9621 49.1881 24.9611 49.1615C24.8566 46.5328 25.4135 44.108 26.6974 42.3029C28.0119 40.455 30.0262 39.3538 32.5523 39.3538H43.3938C44.0841 39.3538 44.6438 39.9134 44.6438 40.6038C44.6438 41.2941 44.0841 41.8538 43.3938 41.8538H32.5523C30.8319 41.8538 29.5781 42.5661 28.7346 43.752ZM48.1687 44.0696C45.3805 44.0696 43.1201 46.3299 43.1201 49.1182C43.1201 51.9064 45.3805 54.1668 48.1687 54.1668C50.957 54.1668 53.2173 51.9064 53.2173 49.1182C53.2173 46.3299 50.957 44.0696 48.1687 44.0696ZM40.6201 49.1182C40.6201 44.9492 43.9998 41.5696 48.1687 41.5696C52.3377 41.5696 55.7173 44.9492 55.7173 49.1182C55.7173 53.2872 52.3377 56.6668 48.1687 56.6668C43.9998 56.6668 40.6201 53.2872 40.6201 49.1182ZM48.1665 45.7425C48.8569 45.7425 49.4165 46.3021 49.4165 46.9925V47.8682H50.2929C50.9833 47.8682 51.5429 48.4279 51.5429 49.1182C51.5429 49.8086 50.9833 50.3682 50.2929 50.3682H49.4165V51.244C49.4165 51.9344 48.8569 52.494 48.1665 52.494C47.4762 52.494 46.9165 51.9344 46.9165 51.244V50.3682H46.0413C45.351 50.3682 44.7913 49.8086 44.7913 49.1182C44.7913 48.4279 45.351 47.8682 46.0413 47.8682H46.9165V46.9925C46.9165 46.3021 47.4762 45.7425 48.1665 45.7425Z" fill="url(#paint0_linear_341_13826)"/>
<defs>
<linearGradient id="paint0_linear_341_13826" x1="24.9487" y1="23.3333" x2="61.1757" y2="31.0533" gradientUnits="userSpaceOnUse">
<stop offset="0.16" stop-color="#6EFDEB"/>
<stop offset="0.479167" stop-color="#34BCF6"/>
<stop offset="0.88" stop-color="#0083FF"/>
</linearGradient>
</defs>
</svg>
