<svg width="81" height="80" viewBox="0 0 81 80" fill="none" xmlns="http://www.w3.org/2000/svg">
<rect x="0.666992" width="80" height="80" rx="40" fill="#141518"/>
<path fill-rule="evenodd" clip-rule="evenodd" d="M28.6668 29.167C28.6668 26.4056 30.9054 24.167 33.6668 24.167H40.3335C43.0949 24.167 45.3335 26.4056 45.3335 29.167C45.3335 31.4728 43.7727 33.414 41.65 33.9919C41.876 34.5618 42.0002 35.1832 42.0002 35.8337C42.0002 36.7247 41.7671 37.5614 41.3585 38.2859C41.6768 38.4897 41.9705 38.7285 42.2342 38.9969C41.314 39.6395 40.5297 40.4631 39.9327 41.4162C39.627 41.0596 39.1733 40.8337 38.6668 40.8337H32.0002C31.0797 40.8337 30.3335 41.5799 30.3335 42.5003C30.3335 43.4208 31.0797 44.167 32.0002 44.167H38.6668C38.7237 44.167 38.7799 44.1641 38.8352 44.1586C38.7248 44.6997 38.6668 45.2599 38.6668 45.8337C38.6668 48.1942 39.6483 50.3254 41.2254 51.8417C40.3388 53.2393 38.7778 54.167 37.0002 54.167H30.3335C27.5721 54.167 25.3335 51.9284 25.3335 49.167C25.3335 47.3966 26.2537 45.8411 27.6418 44.9526C27.2333 44.2281 27.0002 43.3914 27.0002 42.5003C27.0002 41.6092 27.2333 40.7726 27.6418 40.048C26.2537 39.1596 25.3335 37.6041 25.3335 35.8337C25.3335 33.5279 26.8943 31.5866 29.017 31.0088C28.791 30.4388 28.6668 29.8174 28.6668 29.167ZM37.0002 34.167C37.9206 34.167 38.6668 34.9132 38.6668 35.8337C38.6668 36.7541 37.9206 37.5003 37.0002 37.5003H30.3335C29.413 37.5003 28.6668 36.7541 28.6668 35.8337C28.6668 34.9132 29.413 34.167 30.3335 34.167H37.0002ZM40.3335 30.8337H33.6668C32.7464 30.8337 32.0002 30.0875 32.0002 29.167C32.0002 28.2465 32.7464 27.5003 33.6668 27.5003H40.3335C41.254 27.5003 42.0002 28.2465 42.0002 29.167C42.0002 30.0875 41.254 30.8337 40.3335 30.8337ZM37.0002 47.5003C37.9206 47.5003 38.6668 48.2465 38.6668 49.167C38.6668 50.0875 37.9206 50.8337 37.0002 50.8337H30.3335C29.413 50.8337 28.6668 50.0875 28.6668 49.167C28.6668 48.2465 29.413 47.5003 30.3335 47.5003H37.0002Z" fill="url(#paint0_linear_341_13857)"/>
<path fill-rule="evenodd" clip-rule="evenodd" d="M47.0003 40.8336C44.2389 40.8336 42.0003 43.0722 42.0003 45.8336C42.0003 48.595 44.2389 50.8336 47.0003 50.8336C49.7617 50.8336 52.0003 48.595 52.0003 45.8336C52.0003 43.0722 49.7617 40.8336 47.0003 40.8336ZM38.667 45.8336C38.667 41.2312 42.398 37.5002 47.0003 37.5002C51.6027 37.5002 55.3337 41.2312 55.3337 45.8336C55.3337 50.4359 51.6027 54.1669 47.0003 54.1669C42.398 54.1669 38.667 50.4359 38.667 45.8336Z" fill="url(#paint1_linear_341_13857)"/>
<defs>
<linearGradient id="paint0_linear_341_13857" x1="25.3335" y1="24.167" x2="49.3812" y2="27.8682" gradientUnits="userSpaceOnUse">
<stop offset="0.16" stop-color="#6EFDEB"/>
<stop offset="0.479167" stop-color="#34BCF6"/>
<stop offset="0.88" stop-color="#0083FF"/>
</linearGradient>
<linearGradient id="paint1_linear_341_13857" x1="38.667" y1="37.5002" x2="58.1434" y2="41.9967" gradientUnits="userSpaceOnUse">
<stop offset="0.16" stop-color="#6EFDEB"/>
<stop offset="0.479167" stop-color="#34BCF6"/>
<stop offset="0.88" stop-color="#0083FF"/>
</linearGradient>
</defs>
</svg>
