<svg width="80" height="80" viewBox="0 0 80 80" fill="none" xmlns="http://www.w3.org/2000/svg">
<rect width="80" height="80" rx="40" fill="#141518"/>
<path d="M52 38.3337C52 36.953 53.1193 35.8337 54.5 35.8337V35.8337C55.8807 35.8337 57 36.953 57 38.3337V38.3337C57 39.7145 55.8807 40.8337 54.5 40.8337V40.8337C53.1193 40.8337 52 39.7145 52 38.3337V38.3337Z" fill="url(#paint0_linear_341_13819)"/>
<path fill-rule="evenodd" clip-rule="evenodd" d="M30.3013 42.1736L31.5262 48.2982C31.6273 48.8034 32.0709 49.1671 32.5861 49.1671C33.1831 49.1671 33.667 48.6832 33.667 48.0862V42.5004H37.0003V48.0862C37.0003 50.5241 35.024 52.5004 32.5861 52.5004C30.482 52.5004 28.6703 51.0152 28.2576 48.9519L27.0327 42.8273L30.3013 42.1736Z" fill="url(#paint1_linear_341_13819)"/>
<path fill-rule="evenodd" clip-rule="evenodd" d="M55.3337 31.6815C55.3337 27.1761 50.4435 24.3715 46.5547 26.6465L40.0576 30.4474C37.7597 31.7917 35.1455 32.5003 32.4833 32.5003H29.5003C26.2787 32.5003 23.667 35.1119 23.667 38.3336C23.667 41.5553 26.2787 44.1669 29.5003 44.1669H32.4765C35.1426 44.1669 37.7605 44.8775 40.0606 46.2255L46.5509 50.0291C50.4397 52.308 55.3337 49.5036 55.3337 44.9963V31.6815ZM48.2379 29.5236C49.9046 28.5486 52.0003 29.7506 52.0003 31.6815V44.9963C52.0003 46.928 49.9029 48.1299 48.2363 47.1532L41.746 43.3496C40.7625 42.7733 39.7315 42.2922 38.667 41.9104V34.7593C39.7295 34.3786 40.7588 33.8991 41.7408 33.3246L48.2379 29.5236ZM35.3337 35.6107C34.3942 35.7585 33.4413 35.8336 32.4833 35.8336H29.5003C28.1196 35.8336 27.0003 36.9529 27.0003 38.3336C27.0003 39.7143 28.1196 40.8336 29.5003 40.8336H32.4765C33.4368 40.8336 34.392 40.909 35.3337 41.0576V35.6107Z" fill="url(#paint2_linear_341_13819)"/>
<defs>
<linearGradient id="paint0_linear_341_13819" x1="52" y1="35.8337" x2="57.8429" y2="37.1827" gradientUnits="userSpaceOnUse">
<stop offset="0.16" stop-color="#6EFDEB"/>
<stop offset="0.479167" stop-color="#34BCF6"/>
<stop offset="0.88" stop-color="#0083FF"/>
</linearGradient>
<linearGradient id="paint1_linear_341_13819" x1="27.0327" y1="42.1736" x2="38.7212" y2="44.7782" gradientUnits="userSpaceOnUse">
<stop offset="0.16" stop-color="#6EFDEB"/>
<stop offset="0.479167" stop-color="#34BCF6"/>
<stop offset="0.88" stop-color="#0083FF"/>
</linearGradient>
<linearGradient id="paint2_linear_341_13819" x1="23.667" y1="25.8394" x2="59.5736" y2="36.34" gradientUnits="userSpaceOnUse">
<stop offset="0.16" stop-color="#6EFDEB"/>
<stop offset="0.479167" stop-color="#34BCF6"/>
<stop offset="0.88" stop-color="#0083FF"/>
</linearGradient>
</defs>
</svg>
