<svg width="80" height="80" viewBox="0 0 80 80" fill="none" xmlns="http://www.w3.org/2000/svg">
<rect width="80" height="80" rx="40" fill="white" fill-opacity="0.1"/>
<path fill-rule="evenodd" clip-rule="evenodd" d="M28.3333 29.167C28.3333 26.4056 30.5719 24.167 33.3333 24.167H40C42.7614 24.167 45 26.4056 45 29.167C45 31.4728 43.4392 33.414 41.3165 33.9919C41.5425 34.5618 41.6667 35.1832 41.6667 35.8337C41.6667 36.7247 41.4336 37.5614 41.025 38.2859C41.3433 38.4897 41.637 38.7285 41.9007 38.9969C40.9805 39.6395 40.1962 40.4631 39.5992 41.4162C39.2936 41.0596 38.8398 40.8337 38.3333 40.8337H31.6667C30.7462 40.8337 30 41.5799 30 42.5003C30 43.4208 30.7462 44.167 31.6667 44.167H38.3333C38.3902 44.167 38.4464 44.1641 38.5017 44.1586C38.3913 44.6997 38.3333 45.2599 38.3333 45.8337C38.3333 48.1942 39.3148 50.3254 40.8919 51.8417C40.0053 53.2393 38.4443 54.167 36.6667 54.167H30C27.2386 54.167 25 51.9284 25 49.167C25 47.3966 25.9202 45.8411 27.3083 44.9526C26.8998 44.2281 26.6667 43.3914 26.6667 42.5003C26.6667 41.6092 26.8998 40.7726 27.3083 40.048C25.9202 39.1596 25 37.6041 25 35.8337C25 33.5279 26.5608 31.5866 28.6835 31.0088C28.4575 30.4388 28.3333 29.8174 28.3333 29.167ZM36.6667 34.167C37.5871 34.167 38.3333 34.9132 38.3333 35.8337C38.3333 36.7541 37.5871 37.5003 36.6667 37.5003H30C29.0795 37.5003 28.3333 36.7541 28.3333 35.8337C28.3333 34.9132 29.0795 34.167 30 34.167H36.6667ZM40 30.8337H33.3333C32.4129 30.8337 31.6667 30.0875 31.6667 29.167C31.6667 28.2465 32.4129 27.5003 33.3333 27.5003H40C40.9205 27.5003 41.6667 28.2465 41.6667 29.167C41.6667 30.0875 40.9205 30.8337 40 30.8337ZM36.6667 47.5003C37.5871 47.5003 38.3333 48.2465 38.3333 49.167C38.3333 50.0875 37.5871 50.8337 36.6667 50.8337H30C29.0795 50.8337 28.3333 50.0875 28.3333 49.167C28.3333 48.2465 29.0795 47.5003 30 47.5003H36.6667Z" fill="#6EFDEB"/>
<path fill-rule="evenodd" clip-rule="evenodd" d="M46.6668 40.8336C43.9054 40.8336 41.6668 43.0722 41.6668 45.8336C41.6668 48.595 43.9054 50.8336 46.6668 50.8336C49.4283 50.8336 51.6668 48.595 51.6668 45.8336C51.6668 43.0722 49.4283 40.8336 46.6668 40.8336ZM38.3335 45.8336C38.3335 41.2312 42.0645 37.5002 46.6668 37.5002C51.2692 37.5002 55.0002 41.2312 55.0002 45.8336C55.0002 50.4359 51.2692 54.1669 46.6668 54.1669C42.0645 54.1669 38.3335 50.4359 38.3335 45.8336Z" fill="#6EFDEB"/>
</svg>
