<svg width="80" height="80" viewBox="0 0 80 80" fill="none" xmlns="http://www.w3.org/2000/svg">
<rect width="80" height="80" rx="40" fill="white" fill-opacity="0.1"/>
<path fill-rule="evenodd" clip-rule="evenodd" d="M40.9233 35.1532C40.3404 34.8677 39.6583 34.8677 39.0754 35.1532C38.5822 35.3948 38.3089 35.8232 38.157 36.0873C37.9974 36.3644 37.8312 36.725 37.6552 37.1065L36.7798 39.0045L34.7041 39.2506C34.2869 39.3001 33.8926 39.3468 33.5797 39.4128C33.2816 39.4758 32.7897 39.6033 32.4076 39.9977C31.9559 40.4638 31.7451 41.1126 31.8365 41.7552C31.9138 42.2989 32.2369 42.6911 32.441 42.9173C32.6554 43.1546 32.9469 43.4242 33.2554 43.7094L34.7899 45.1285L34.3826 47.1787C34.3007 47.5907 34.2233 47.9802 34.1894 48.2982C34.1572 48.6011 34.1264 49.1083 34.3834 49.5937C34.6872 50.1673 35.239 50.5682 35.8784 50.6798C36.4194 50.7743 36.8923 50.5883 37.1704 50.464C37.4624 50.3335 37.8088 50.1396 38.1754 49.9343L39.9993 48.9134L41.8233 49.9343C42.1899 50.1396 42.5363 50.3335 42.8283 50.464C43.1064 50.5883 43.5793 50.7743 44.1203 50.6798C44.7597 50.5682 45.3115 50.1673 45.6153 49.5937C45.8723 49.1083 45.8415 48.6011 45.8093 48.2982C45.7754 47.9801 45.698 47.5908 45.6161 47.1787L45.2087 45.1285L46.7433 43.7094C47.0518 43.4241 47.3433 43.1546 47.5576 42.9173C47.7618 42.6911 48.0848 42.2989 48.1622 41.7552C48.2536 41.1126 48.0428 40.4638 47.5911 39.9977C47.209 39.6033 46.7171 39.4758 46.419 39.4128C46.1061 39.3468 45.7118 39.3001 45.2946 39.2506L43.2189 39.0045L42.3435 37.1065C42.1675 36.725 42.0013 36.3644 41.8417 36.0873C41.6898 35.8232 41.4165 35.3948 40.9233 35.1532ZM39.9993 38.0429L40.9103 40.0176L40.9343 40.0702C41.0181 40.2549 41.1563 40.5595 41.3824 40.8079C41.5755 41.02 41.8099 41.1904 42.0714 41.3084C42.3775 41.4467 42.7098 41.484 42.9114 41.5067L42.9688 41.5132L45.1284 41.7694L43.5318 43.246L43.4892 43.285C43.3394 43.4218 43.0925 43.6474 42.9261 43.9392C42.784 44.1883 42.6945 44.464 42.663 44.7491C42.6261 45.083 42.6933 45.4106 42.734 45.6093L42.7455 45.6659L43.1693 47.7989L41.2716 46.7368L41.2213 46.7084C41.0449 46.6082 40.7541 46.443 40.4251 46.375C40.1443 46.3168 39.8544 46.3168 39.5735 46.375C39.2446 46.443 38.9538 46.6082 38.7774 46.7084L38.7271 46.7368L36.8294 47.7989L37.2532 45.6659L37.2647 45.6093C37.3054 45.4106 37.3726 45.083 37.3357 44.7491C37.3042 44.464 37.2147 44.1883 37.0726 43.9392C36.9062 43.6474 36.6592 43.4218 36.5095 43.285L36.4669 43.246L34.8703 41.7694L37.0299 41.5132L37.0873 41.5067C37.2889 41.484 37.6212 41.4467 37.9273 41.3084C38.1888 41.1904 38.4232 41.02 38.6163 40.8079C38.8424 40.5595 38.9806 40.2549 39.0644 40.0702L39.0884 40.0176L39.9993 38.0429Z" fill="#6EFDEB"/>
<path fill-rule="evenodd" clip-rule="evenodd" d="M31.9764 25.2538C31.9764 25.1094 32.1064 24.9997 32.2487 25.024C33.0347 25.1582 33.8232 25.2718 34.6135 25.3649L36.0328 30.6616C30.8514 32.3349 27.1035 37.1979 27.1035 42.9362C27.1035 50.0587 32.8774 55.8326 39.9999 55.8326C47.1223 55.8326 52.8962 50.0587 52.8962 42.9363C52.8962 37.1995 49.1504 32.3375 43.9711 30.6629L45.3908 25.3647C46.1807 25.2717 46.9688 25.1581 47.7542 25.024C47.8966 24.9997 48.0266 25.1094 48.0266 25.2538L48.0266 28.0889C48.0266 28.785 48.5908 29.3492 49.2869 29.3492C49.983 29.3492 50.5473 28.785 50.5473 28.0889L50.5473 25.2538C50.5473 23.5477 49.0118 22.2521 47.33 22.5393C42.4794 23.3674 37.5236 23.3674 32.673 22.5393C30.9912 22.2521 29.4557 23.5477 29.4557 25.2538L29.4557 28.0889C29.4557 28.785 30.02 29.3492 30.7161 29.3492C31.4121 29.3492 31.9764 28.785 31.9764 28.0889L31.9764 25.2538ZM38.4989 30.1263L37.2864 25.601C39.0953 25.7078 40.909 25.7078 42.7179 25.6009L41.5052 30.1268C41.0114 30.0694 40.5091 30.0399 39.9999 30.0399C39.4922 30.0399 38.9913 30.0692 38.4989 30.1263ZM29.6242 42.9362C29.6242 37.2059 34.2695 32.5606 39.9999 32.5606C45.7302 32.5606 50.3755 37.2059 50.3755 42.9363C50.3755 48.6666 45.7302 53.3119 39.9999 53.3119C34.2695 53.3119 29.6242 48.6666 29.6242 42.9362Z" fill="#6EFDEB"/>
</svg>
