<svg width="21" height="20" viewBox="0 0 21 20" fill="none" xmlns="http://www.w3.org/2000/svg">
<g id="mail-02">
<path id="Icon" d="M18.417 15L12.8813 10M8.11937 10L2.58369 15M2.16699 5.83334L8.97109 10.5962C9.52207 10.9819 9.79756 11.1747 10.0972 11.2494C10.3619 11.3154 10.6387 11.3154 10.9034 11.2494C11.2031 11.1747 11.4786 10.9819 12.0296 10.5962L18.8337 5.83334M6.16699 16.6667H14.8337C16.2338 16.6667 16.9339 16.6667 17.4686 16.3942C17.939 16.1545 18.3215 15.7721 18.5612 15.3017C18.8337 14.7669 18.8337 14.0668 18.8337 12.6667V7.33334C18.8337 5.93321 18.8337 5.23315 18.5612 4.69837C18.3215 4.22796 17.939 3.84551 17.4686 3.60583C16.9339 3.33334 16.2338 3.33334 14.8337 3.33334H6.16699C4.76686 3.33334 4.0668 3.33334 3.53202 3.60583C3.06161 3.84551 2.67916 4.22796 2.43948 4.69837C2.16699 5.23315 2.16699 5.93321 2.16699 7.33334V12.6667C2.16699 14.0668 2.16699 14.7669 2.43948 15.3017C2.67916 15.7721 3.06161 16.1545 3.53202 16.3942C4.0668 16.6667 4.76686 16.6667 6.16699 16.6667Z" stroke="#98A2B3" stroke-width="1.66667" stroke-linecap="round" stroke-linejoin="round"/>
</g>
</svg>
