<svg width="16" height="16" viewBox="0 0 16 16" fill="none" xmlns="http://www.w3.org/2000/svg">
<path d="M10.2131 7.85039C10.2872 7.90276 10.3147 7.93173 10.3221 7.9402C10.337 7.97869 10.337 8.02133 10.3221 8.05983C10.3147 8.0683 10.2872 8.09727 10.2131 8.14964C10.094 8.23378 9.92099 8.33426 9.64992 8.49076L7.51658 9.72244C7.24552 9.87894 7.07198 9.97855 6.93957 10.0396C6.85716 10.0776 6.81832 10.0869 6.80727 10.0891C6.76653 10.0827 6.7296 10.0614 6.70367 10.0293C6.70005 10.0187 6.6887 9.98037 6.68041 9.89C6.66709 9.74479 6.66658 9.5447 6.66658 9.23169L6.66659 6.76833C6.66659 6.45533 6.66709 6.25524 6.68041 6.11003C6.6887 6.01966 6.70005 5.98137 6.70367 5.9707C6.7296 5.93863 6.76653 5.91731 6.80727 5.91088C6.81832 5.91309 6.85716 5.9224 6.93957 5.96041C7.07198 6.02147 7.24552 6.12108 7.51659 6.27759L9.64992 7.50927C9.92099 7.66577 10.094 7.76625 10.2131 7.85039Z" fill="#6EFDEB"/>
<path fill-rule="evenodd" clip-rule="evenodd" d="M1.33325 7.99998C1.33325 4.31808 4.31802 1.33331 7.99992 1.33331C11.6818 1.33331 14.6666 4.31808 14.6666 7.99998C14.6666 11.6819 11.6818 14.6666 7.99992 14.6666C4.31802 14.6666 1.33325 11.6819 1.33325 7.99998ZM11.2324 8.47454C11.3669 8.17248 11.3669 7.82755 11.2324 7.52549C11.1323 7.30071 10.9535 7.14906 10.7901 7.03366C10.629 6.91978 10.4153 6.79643 10.1695 6.65456L7.99697 5.40023C7.75123 5.25834 7.53758 5.13498 7.35836 5.05232C7.17676 4.96857 6.956 4.88952 6.7113 4.91524C6.38247 4.9498 6.08375 5.12227 5.8894 5.38976C5.74478 5.58882 5.70286 5.81953 5.68459 6.01867C5.66656 6.2152 5.66657 6.4619 5.66658 6.74564L5.66658 9.25434C5.66657 9.53808 5.66656 9.78483 5.68459 9.98135C5.70286 10.1805 5.74477 10.4112 5.8894 10.6103C6.08375 10.8778 6.38247 11.0502 6.7113 11.0848C6.956 11.1105 7.17676 11.0315 7.35836 10.9477C7.53758 10.8651 7.75124 10.7417 7.99698 10.5998L10.1695 9.34546C10.4153 9.2036 10.629 9.08024 10.7901 8.96636C10.9535 8.85097 11.1323 8.69932 11.2324 8.47454Z" fill="#6EFDEB"/>
</svg>
