<svg width="168" height="33" viewBox="0 0 168 33" fill="none" xmlns="http://www.w3.org/2000/svg">
<g clip-path="url(#clip0_330_14604)">
<path d="M0.340332 0.538086H31.5432V31.741H0.340332V0.538086ZM34.1434 0.538086H65.3463V31.741H34.1434V0.538086ZM67.9466 0.538086H99.1494V31.741H67.9466V0.538086ZM101.75 0.538086H132.953V31.741H101.75V0.538086ZM135.553 0.538086H166.756V31.741H135.553V0.538086Z" fill="#00B67A"/>
<path d="M15.9435 21.5677L20.6889 20.365L22.6716 26.4756L15.9435 21.5677ZM26.8645 13.6694H18.5112L15.9435 5.80371L13.3757 13.6694H5.02246L11.7831 18.5449L9.21535 26.4106L15.976 21.5352L20.1364 18.5449L26.8645 13.6694ZM49.7466 21.5677L54.492 20.365L56.4747 26.4756L49.7466 21.5677ZM60.6676 13.6694H52.3143L49.7466 5.80371L47.1788 13.6694H38.8256L45.5862 18.5449L43.0185 26.4106L49.7791 21.5352L53.9395 18.5449L60.6676 13.6694ZM83.5497 21.5677L88.2951 20.365L90.2778 26.4756L83.5497 21.5677ZM94.4707 13.6694H86.1174L83.5497 5.80371L80.9819 13.6694H72.6287L79.3893 18.5449L76.8216 26.4106L83.5822 21.5352L87.7426 18.5449L94.4707 13.6694ZM117.353 21.5677L122.098 20.365L124.081 26.4756L117.353 21.5677ZM128.274 13.6694H119.921L117.353 5.80371L114.785 13.6694H106.432L113.192 18.5449L110.625 26.4106L117.385 21.5352L121.546 18.5449L128.274 13.6694ZM151.156 21.5677L155.901 20.365L157.884 26.4756L151.156 21.5677ZM162.077 13.6694H153.724L151.156 5.80371L148.588 13.6694H140.235L146.996 18.5449L144.428 26.4106L151.188 21.5352L155.349 18.5449L162.077 13.6694Z" fill="white"/>
</g>
<defs>
<clipPath id="clip0_330_14604">
<rect width="167.024" height="32" fill="white" transform="translate(0 0.0341797)"/>
</clipPath>
</defs>
</svg>
