<svg width="128" height="32" viewBox="0 0 128 32" fill="none" xmlns="http://www.w3.org/2000/svg">
<g clip-path="url(#clip0_330_14599)">
<path d="M33.4077 11.4888H46.2793V13.8903H41.2182V27.3903H38.4351V13.8903H33.3965V11.4888H33.4077ZM45.7294 15.8766H48.1085V18.0985H48.1534C48.2319 17.7843 48.3778 17.4813 48.591 17.1895C48.8042 16.8978 49.0623 16.6172 49.3653 16.3815C49.6683 16.1347 50.005 15.9439 50.3753 15.7868C50.7456 15.6409 51.1272 15.5623 51.5087 15.5623C51.8005 15.5623 52.0137 15.5736 52.1259 15.5848C52.2382 15.596 52.3504 15.6185 52.4738 15.6297V18.0761C52.2943 18.0424 52.1147 18.02 51.924 17.9975C51.7332 17.9751 51.5536 17.9638 51.3741 17.9638C50.9476 17.9638 50.5436 18.0536 50.1621 18.222C49.7806 18.3903 49.4551 18.6484 49.1746 18.9738C48.894 19.3105 48.6696 19.7145 48.5013 20.2082C48.3329 20.702 48.2544 21.2631 48.2544 21.9028V27.3791H45.7182V15.8766H45.7294ZM64.1334 27.3903H61.6422V25.7856H61.5973C61.2831 26.3691 60.823 26.8292 60.2058 27.1771C59.5886 27.525 58.9601 27.7045 58.3205 27.7045C56.8055 27.7045 55.7058 27.3342 55.0324 26.5823C54.3591 25.8304 54.0225 24.697 54.0225 23.1821V15.8766H56.5586V22.9352C56.5586 23.9452 56.7494 24.6634 57.1422 25.0786C57.5237 25.4938 58.0736 25.707 58.7694 25.707C59.308 25.707 59.7457 25.6284 60.1048 25.4601C60.4639 25.2918 60.7556 25.0786 60.9689 24.798C61.1933 24.5287 61.3504 24.192 61.4514 23.8105C61.5524 23.4289 61.5973 23.0137 61.5973 22.5649V15.8878H64.1334V27.3903ZM68.4539 23.6983C68.5325 24.4389 68.813 24.9551 69.2956 25.2581C69.7893 25.5499 70.3729 25.707 71.0574 25.707C71.2931 25.707 71.5624 25.6846 71.8654 25.6509C72.1684 25.6172 72.4601 25.5387 72.7183 25.4377C72.9876 25.3367 73.2008 25.1796 73.3804 24.9776C73.5487 24.7756 73.6272 24.5175 73.616 24.192C73.6048 23.8666 73.4813 23.5973 73.2569 23.3953C73.0325 23.1821 72.7519 23.025 72.404 22.8903C72.0562 22.7668 71.6634 22.6546 71.2145 22.5649C70.7656 22.4751 70.3168 22.3741 69.8567 22.2731C69.3853 22.1721 68.9252 22.0374 68.4876 21.8915C68.0499 21.7456 67.6571 21.5437 67.3093 21.2855C66.9614 21.0387 66.6808 20.7132 66.4788 20.3205C66.2656 19.9277 66.1646 19.4451 66.1646 18.8616C66.1646 18.2332 66.3217 17.717 66.6247 17.2905C66.9277 16.8641 67.3205 16.5274 67.7806 16.2693C68.2519 16.0112 68.7681 15.8317 69.3404 15.7195C69.9128 15.6185 70.4626 15.5623 70.9788 15.5623C71.5736 15.5623 72.1459 15.6297 72.6846 15.7531C73.2232 15.8766 73.717 16.0786 74.1547 16.3703C74.5923 16.6509 74.9514 17.0212 75.2432 17.4701C75.535 17.919 75.7145 18.4688 75.7931 19.1085H73.1447C73.0212 18.5025 72.7519 18.0873 72.3143 17.8853C71.8766 17.6721 71.3716 17.5711 70.8105 17.5711C70.631 17.5711 70.4177 17.5823 70.1709 17.616C69.924 17.6496 69.6995 17.7057 69.4751 17.7843C69.2619 17.8628 69.0823 17.9863 68.9252 18.1434C68.7793 18.3005 68.7008 18.5025 68.7008 18.7606C68.7008 19.0748 68.813 19.3217 69.0262 19.5125C69.2394 19.7032 69.52 19.8604 69.8679 19.995C70.2158 20.1185 70.6085 20.2307 71.0574 20.3205C71.5063 20.4102 71.9664 20.5112 72.4377 20.6122C72.8978 20.7132 73.3467 20.8479 73.7956 20.9938C74.2444 21.1397 74.6372 21.3417 74.9851 21.5998C75.333 21.8579 75.6135 22.1721 75.8267 22.5536C76.04 22.9352 76.1522 23.4177 76.1522 23.9788C76.1522 24.6634 75.9951 25.2357 75.6809 25.7182C75.3666 26.1895 74.9626 26.5823 74.4689 26.8741C73.9751 27.1659 73.414 27.3903 72.808 27.525C72.202 27.6596 71.5961 27.727 71.0013 27.727C70.2719 27.727 69.5985 27.6484 68.9813 27.4801C68.3641 27.3117 67.8255 27.0649 67.3766 26.7394C66.9277 26.4028 66.5686 25.9875 66.3105 25.4938C66.0524 25 65.9177 24.4053 65.8953 23.7207H68.4539V23.6983ZM76.8255 15.8766H78.7444V12.4202H81.2806V15.8766H83.5699V17.7731H81.2806V23.9227C81.2806 24.192 81.2918 24.4165 81.3143 24.6185C81.3367 24.8092 81.3928 24.9776 81.4714 25.1122C81.5499 25.2469 81.6734 25.3479 81.8417 25.4152C82.01 25.4826 82.2233 25.5162 82.515 25.5162C82.6946 25.5162 82.8741 25.5162 83.0537 25.505C83.2332 25.4938 83.4128 25.4713 83.5923 25.4265V27.3903C83.3118 27.424 83.0312 27.4464 82.7731 27.4801C82.5038 27.5137 82.2345 27.525 81.9539 27.525C81.2806 27.525 80.742 27.4576 80.338 27.3342C79.934 27.2107 79.6085 27.02 79.3841 26.7731C79.1484 26.5262 79.0026 26.2232 78.9128 25.8529C78.8342 25.4826 78.7781 25.0561 78.7669 24.5848V17.7955H76.8479V15.8766H76.8255ZM85.3654 15.8766H87.7669V17.4364H87.8118C88.1709 16.7631 88.6647 16.2918 89.3043 16C89.944 15.7082 90.6285 15.5623 91.3804 15.5623C92.2894 15.5623 93.0749 15.7195 93.7482 16.0449C94.4215 16.3591 94.9826 16.7968 95.4315 17.3579C95.8804 17.919 96.2058 18.5698 96.4303 19.3105C96.6547 20.0511 96.7669 20.8479 96.7669 21.6895C96.7669 22.4639 96.6659 23.2157 96.4639 23.9339C96.2619 24.6634 95.959 25.303 95.555 25.8641C95.151 26.4252 94.6348 26.8629 94.0063 27.1995C93.3779 27.5362 92.6485 27.7045 91.7956 27.7045C91.4253 27.7045 91.0549 27.6708 90.6846 27.6035C90.3143 27.5362 89.9552 27.424 89.6185 27.2781C89.2819 27.1322 88.9564 26.9414 88.6759 26.7058C88.3841 26.4701 88.1485 26.2008 87.9465 25.8978H87.9016V31.6434H85.3654V15.8766ZM94.2308 21.6446C94.2308 21.1284 94.1634 20.6235 94.0288 20.1297C93.8941 19.6359 93.6921 19.2095 93.4228 18.8279C93.1535 18.4464 92.8168 18.1434 92.424 17.919C92.02 17.6945 91.5599 17.5711 91.0437 17.5711C89.9776 17.5711 89.1697 17.9414 88.631 18.682C88.0923 19.4227 87.823 20.4102 87.823 21.6446C87.823 22.2282 87.8904 22.7668 88.0362 23.2606C88.1821 23.7544 88.3841 24.1808 88.6759 24.5399C88.9564 24.899 89.2931 25.1796 89.6859 25.3816C90.0786 25.5948 90.5387 25.6958 91.055 25.6958C91.6385 25.6958 92.121 25.5723 92.525 25.3367C92.929 25.101 93.2544 24.7868 93.5126 24.4165C93.7707 24.0349 93.9614 23.6085 94.0737 23.1259C94.1746 22.6434 94.2308 22.1496 94.2308 21.6446ZM98.7083 11.4888H101.244V13.8903H98.7083V11.4888ZM98.7083 15.8766H101.244V27.3903H98.7083V15.8766ZM103.511 11.4888H106.047V27.3903H103.511V11.4888ZM113.824 27.7045C112.904 27.7045 112.085 27.5474 111.367 27.2444C110.649 26.9414 110.043 26.515 109.538 25.9876C109.044 25.4489 108.662 24.8092 108.404 24.0686C108.146 23.3279 108.011 22.5087 108.011 21.6222C108.011 20.7469 108.146 19.9389 108.404 19.1983C108.662 18.4576 109.044 17.818 109.538 17.2793C110.031 16.7406 110.649 16.3254 111.367 16.0224C112.085 15.7195 112.904 15.5623 113.824 15.5623C114.745 15.5623 115.564 15.7195 116.282 16.0224C117 16.3254 117.606 16.7519 118.111 17.2793C118.605 17.818 118.986 18.4576 119.245 19.1983C119.503 19.9389 119.637 20.7469 119.637 21.6222C119.637 22.5087 119.503 23.3279 119.245 24.0686C118.986 24.8092 118.605 25.4489 118.111 25.9876C117.617 26.5262 117 26.9414 116.282 27.2444C115.564 27.5474 114.745 27.7045 113.824 27.7045ZM113.824 25.6958C114.385 25.6958 114.879 25.5723 115.294 25.3367C115.71 25.101 116.046 24.7868 116.316 24.4053C116.585 24.0237 116.776 23.5861 116.91 23.1035C117.034 22.621 117.101 22.1272 117.101 21.6222C117.101 21.1284 117.034 20.6459 116.91 20.1521C116.787 19.6584 116.585 19.2319 116.316 18.8504C116.046 18.4688 115.71 18.1658 115.294 17.9302C114.879 17.6945 114.385 17.5711 113.824 17.5711C113.263 17.5711 112.769 17.6945 112.354 17.9302C111.939 18.1658 111.602 18.4801 111.333 18.8504C111.064 19.2319 110.873 19.6584 110.738 20.1521C110.615 20.6459 110.548 21.1284 110.548 21.6222C110.548 22.1272 110.615 22.621 110.738 23.1035C110.862 23.5861 111.064 24.0237 111.333 24.4053C111.602 24.7868 111.939 25.101 112.354 25.3367C112.769 25.5836 113.263 25.6958 113.824 25.6958ZM120.378 15.8766H122.297V12.4202H124.833V15.8766H127.122V17.7731H124.833V23.9227C124.833 24.192 124.844 24.4165 124.867 24.6185C124.889 24.8092 124.945 24.9776 125.024 25.1122C125.102 25.2469 125.226 25.3479 125.394 25.4152C125.562 25.4826 125.776 25.5162 126.067 25.5162C126.247 25.5162 126.427 25.5162 126.606 25.505C126.786 25.4938 126.965 25.4713 127.145 25.4265V27.3903C126.864 27.424 126.584 27.4464 126.326 27.4801C126.056 27.5137 125.787 27.525 125.506 27.525C124.833 27.525 124.294 27.4576 123.89 27.3342C123.486 27.2107 123.161 27.02 122.937 26.7731C122.701 26.5262 122.555 26.2232 122.465 25.8529C122.387 25.4826 122.331 25.0561 122.319 24.5848V17.7955H120.4V15.8766H120.378Z" fill="white"/>
<path d="M30.4452 11.4892H18.8192L15.2282 0.424316L11.626 11.4892L0 11.478L9.41523 18.3234L5.81298 29.377L15.2282 22.5428L24.6322 29.377L21.0412 18.3234L30.4452 11.4892Z" fill="#00B67A"/>
<path d="M21.8495 20.8262L21.0415 18.3237L15.2285 22.5432L21.8495 20.8262Z" fill="#005128"/>
</g>
<defs>
<clipPath id="clip0_330_14599">
<rect width="127.122" height="31.2195" fill="white" transform="translate(0 0.424316)"/>
</clipPath>
</defs>
</svg>
