<svg width="24" height="25" viewBox="0 0 24 25" fill="none" xmlns="http://www.w3.org/2000/svg">
<g clip-path="url(#clip0_4255_44115)">
<path d="M9.84096 3.3926C10.2053 2.94431 10.3875 2.72017 10.5659 2.57428C11.4002 1.89191 12.5998 1.89191 13.4341 2.57428C13.6125 2.72017 13.7947 2.94431 14.159 3.3926C14.3305 3.60355 14.4162 3.70902 14.5078 3.79878C14.9255 4.20802 15.4853 4.43988 16.07 4.44586C16.1983 4.44717 16.3335 4.4332 16.6039 4.40528C17.1785 4.34594 17.4658 4.31627 17.6951 4.33924C18.7676 4.44668 19.6158 5.29492 19.7233 6.36739C19.7462 6.59667 19.7166 6.88399 19.6572 7.45863C19.6293 7.72903 19.6153 7.86423 19.6166 7.99248C19.6226 8.57721 19.8545 9.13697 20.2637 9.55466C20.3535 9.64627 20.459 9.732 20.6699 9.90346C21.1182 10.2678 21.3423 10.45 21.4882 10.6284C22.1706 11.4627 22.1706 12.6623 21.4882 13.4966C21.3423 13.675 21.1182 13.8572 20.6699 14.2215C20.459 14.393 20.3535 14.4787 20.2637 14.5703C19.8545 14.988 19.6226 15.5478 19.6166 16.1325C19.6153 16.2608 19.6293 16.396 19.6572 16.6664C19.7166 17.241 19.7462 17.5283 19.7233 17.7576C19.6158 18.8301 18.7676 19.6783 17.6951 19.7858C17.4658 19.8087 17.1785 19.7791 16.6039 19.7197C16.3335 19.6918 16.1983 19.6778 16.07 19.6791C15.4853 19.6851 14.9255 19.917 14.5078 20.3262C14.4162 20.416 14.3305 20.5215 14.159 20.7324C13.7947 21.1807 13.6125 21.4048 13.4341 21.5507C12.5998 22.2331 11.4002 22.2331 10.5659 21.5507C10.3875 21.4048 10.2053 21.1807 9.84096 20.7324C9.6695 20.5215 9.58377 20.416 9.49216 20.3262C9.07447 19.917 8.51471 19.6851 7.92998 19.6791C7.80173 19.6778 7.66653 19.6918 7.39613 19.7197C6.82149 19.7791 6.53417 19.8087 6.30489 19.7858C5.23242 19.6783 4.38418 18.8301 4.27674 17.7576C4.25377 17.5283 4.28344 17.241 4.34278 16.6664C4.3707 16.396 4.38467 16.2608 4.38336 16.1325C4.37738 15.5478 4.14552 14.988 3.73628 14.5703C3.64652 14.4787 3.54105 14.393 3.3301 14.2215C2.88181 13.8572 2.65767 13.675 2.51178 13.4966C1.82941 12.6623 1.82941 11.4627 2.51178 10.6284C2.65767 10.45 2.88181 10.2678 3.3301 9.90346C3.54105 9.732 3.64652 9.64627 3.73628 9.55466C4.14552 9.13697 4.37738 8.57721 4.38336 7.99248C4.38467 7.86423 4.3707 7.72903 4.34278 7.45863C4.28344 6.88399 4.25377 6.59667 4.27674 6.36739C4.38418 5.29492 5.23242 4.44668 6.30489 4.33924C6.53417 4.31627 6.82149 4.34594 7.39613 4.40528C7.66653 4.4332 7.80173 4.44717 7.92998 4.44586C8.51471 4.43988 9.07447 4.20802 9.49216 3.79878C9.58377 3.70902 9.6695 3.60355 9.84096 3.3926Z" fill="#353945"/>
<path d="M9 12.0625L11 14.0625L15 10.0625" stroke="white" stroke-width="1.5" stroke-linecap="round" stroke-linejoin="round"/>
</g>
<defs>
<clipPath id="clip0_4255_44115">
<rect width="24" height="24" fill="white" transform="translate(0 0.0625)"/>
</clipPath>
</defs>
</svg>
