<svg width="25" height="25" viewBox="0 0 25 25" fill="none" xmlns="http://www.w3.org/2000/svg">
<g clip-path="url(#clip0_4255_44144)">
<path d="M10.6046 3.3926C10.969 2.94431 11.1512 2.72017 11.3296 2.57428C12.1639 1.89191 13.3635 1.89191 14.1978 2.57428C14.3762 2.72017 14.5583 2.94431 14.9227 3.3926C15.0942 3.60355 15.1799 3.70902 15.2715 3.79878C15.6892 4.20802 16.249 4.43988 16.8337 4.44586C16.9619 4.44717 17.0971 4.4332 17.3675 4.40528C17.9422 4.34594 18.2295 4.31627 18.4588 4.33924C19.5312 4.44668 20.3795 5.29492 20.4869 6.36739C20.5099 6.59667 20.4802 6.88399 20.4209 7.45863C20.393 7.72903 20.379 7.86423 20.3803 7.99248C20.3863 8.57721 20.6182 9.13697 21.0274 9.55466C21.1171 9.64627 21.2226 9.732 21.4336 9.90346C21.8819 10.2678 22.106 10.45 22.2519 10.6284C22.9343 11.4627 22.9343 12.6623 22.2519 13.4966C22.106 13.675 21.8819 13.8572 21.4336 14.2215C21.2226 14.393 21.1171 14.4787 21.0274 14.5703C20.6182 14.988 20.3863 15.5478 20.3803 16.1325C20.379 16.2608 20.393 16.396 20.4209 16.6664C20.4802 17.241 20.5099 17.5283 20.4869 17.7576C20.3795 18.8301 19.5312 19.6783 18.4588 19.7858C18.2295 19.8087 17.9422 19.7791 17.3675 19.7197C17.0971 19.6918 16.9619 19.6778 16.8337 19.6791C16.249 19.6851 15.6892 19.917 15.2715 20.3262C15.1799 20.416 15.0942 20.5215 14.9227 20.7324C14.5583 21.1807 14.3762 21.4048 14.1978 21.5507C13.3635 22.2331 12.1639 22.2331 11.3296 21.5507C11.1512 21.4048 10.969 21.1807 10.6046 20.7324C10.4332 20.5215 10.3474 20.416 10.2558 20.3262C9.83814 19.917 9.27838 19.6851 8.69366 19.6791C8.56541 19.6778 8.4302 19.6918 8.1598 19.7197C7.58516 19.7791 7.29784 19.8087 7.06856 19.7858C5.9961 19.6783 5.14786 18.8301 5.04041 17.7576C5.01744 17.5283 5.04711 17.241 5.10645 16.6664C5.13438 16.396 5.14834 16.2608 5.14703 16.1325C5.14105 15.5478 4.90919 14.988 4.49996 14.5703C4.4102 14.4787 4.30472 14.393 4.09377 14.2215C3.64548 13.8572 3.42134 13.675 3.27545 13.4966C2.59308 12.6623 2.59308 11.4627 3.27545 10.6284C3.42134 10.45 3.64548 10.2678 4.09377 9.90346C4.30472 9.732 4.4102 9.64627 4.49996 9.55466C4.90919 9.13697 5.14105 8.57721 5.14703 7.99248C5.14834 7.86423 5.13438 7.72903 5.10645 7.45863C5.04711 6.88399 5.01744 6.59667 5.04041 6.36739C5.14786 5.29492 5.9961 4.44668 7.06856 4.33924C7.29784 4.31627 7.58516 4.34594 8.1598 4.40528C8.4302 4.4332 8.56541 4.44717 8.69366 4.44586C9.27838 4.43988 9.83814 4.20802 10.2558 3.79878C10.3474 3.70902 10.4332 3.60355 10.6046 3.3926Z" fill="url(#paint0_linear_4255_44144)"/>
<path d="M9.76367 12.0625L11.7637 14.0625L15.7637 10.0625" stroke="white" stroke-width="1.5" stroke-linecap="round" stroke-linejoin="round"/>
</g>
<defs>
<linearGradient id="paint0_linear_4255_44144" x1="12.7637" y1="2.0625" x2="12.7637" y2="22.0625" gradientUnits="userSpaceOnUse">
<stop stop-color="#0090FF"/>
<stop offset="0.9999" stop-color="#65B9FA"/>
<stop offset="1" stop-color="#ADC5D7"/>
</linearGradient>
<clipPath id="clip0_4255_44144">
<rect width="24" height="24" fill="white" transform="translate(0.763672 0.0625)"/>
</clipPath>
</defs>
</svg>
