<svg width="140" height="63" viewBox="0 0 140 63" fill="none" xmlns="http://www.w3.org/2000/svg">
<g clip-path="url(#clip0_1951_76088)">
<path d="M62.4896 18.8059V21.8472H60.6406V12.4648H67.7078C68.2465 12.4648 68.6987 12.5125 69.0639 12.6082C69.4291 12.7034 69.7211 12.8604 69.9403 13.0787C70.1595 13.297 70.3172 13.5882 70.4129 13.9513C70.5085 14.315 70.5568 14.7698 70.5568 15.3153V16.1606C70.5568 16.6427 70.509 17.0514 70.4129 17.3877C70.3167 17.724 70.1595 17.997 69.9403 18.2062C69.7211 18.4154 69.4286 18.5678 69.0639 18.663C68.6987 18.7583 68.2465 18.8064 67.7078 18.8064H62.4896V18.8059ZM68.7211 15.3148C68.7211 14.942 68.6458 14.6832 68.4952 14.5373C68.3447 14.392 68.0817 14.319 67.7078 14.319H62.4896V17.1284H67.7078C68.0822 17.1284 68.3447 17.0535 68.4952 16.9036C68.6458 16.7536 68.7211 16.5105 68.7211 16.1737V15.3148Z" fill="white"/>
<path d="M79.9379 21.8472L76.6785 18.779H73.7064V21.8472H71.8438V12.4648H79.5412C80.0432 12.4648 80.4659 12.5175 80.8082 12.6218C81.1506 12.7267 81.4268 12.8923 81.6368 13.1197C81.8469 13.3471 82 13.6469 82.0956 14.0197C82.1913 14.3925 82.2396 14.8427 82.2396 15.37V15.9428C82.2396 16.5156 82.1826 16.9841 82.0682 17.3472C81.9537 17.7109 81.7691 17.9975 81.5137 18.2062C81.2579 18.4154 80.9293 18.5587 80.5275 18.6357C80.1256 18.7132 79.6322 18.7517 79.0483 18.7517L82.5407 21.8472H79.9384H79.9379ZM80.4039 15.683C80.4039 15.2287 80.351 14.8898 80.2462 14.667C80.1414 14.4441 79.8876 14.3327 79.4863 14.3327H73.7064V17.2373H79.4863C79.8148 17.2373 80.0498 17.1553 80.1918 16.9917C80.3332 16.8281 80.4039 16.5414 80.4039 16.1327V15.6825V15.683Z" fill="white"/>
<path d="M86.5942 21.8467C86.0189 21.8467 85.5444 21.7971 85.17 21.6968C84.7956 21.597 84.494 21.4289 84.2661 21.1924C84.0377 20.9558 83.878 20.6423 83.787 20.2513C83.6954 19.8603 83.6501 19.3787 83.6501 18.8059V15.5057C83.6501 14.9329 83.6959 14.4512 83.787 14.0602C83.878 13.6692 84.0377 13.3557 84.2661 13.1192C84.494 12.8827 84.7956 12.7145 85.17 12.6148C85.5444 12.515 86.0189 12.4648 86.5942 12.4648H91.5658C92.1228 12.4648 92.5907 12.515 92.9697 12.6148C93.3486 12.715 93.6523 12.8832 93.8807 13.1192C94.1086 13.3557 94.2708 13.6692 94.3669 14.0602C94.4626 14.4512 94.5109 14.9329 94.5109 15.5057V18.8059C94.5109 19.3787 94.4631 19.8608 94.3669 20.2513C94.2708 20.6423 94.1091 20.9558 93.8807 21.1924C93.6523 21.4289 93.3486 21.597 92.9697 21.6968C92.5907 21.7971 92.1228 21.8467 91.5658 21.8467H86.5942ZM92.6614 15.5189C92.6614 15.0554 92.579 14.7394 92.4147 14.5713C92.2504 14.4031 91.9625 14.319 91.5521 14.319H86.5942C86.1832 14.319 85.8958 14.4031 85.7315 14.5713C85.5673 14.7394 85.4849 15.0554 85.4849 15.5189V18.819C85.4849 19.0556 85.5032 19.2485 85.5398 19.3984C85.5764 19.5484 85.638 19.6689 85.7244 19.7601C85.8109 19.8512 85.9253 19.9145 86.0668 19.951C86.2082 19.9875 86.3842 20.0057 86.5942 20.0057H91.5521C91.9717 20.0057 92.2616 19.9237 92.4219 19.7601C92.5816 19.5965 92.6614 19.283 92.6614 18.819V15.5189Z" fill="white"/>
<path d="M62.4896 46.798V50.5347H60.6406V41.1523H69.4881V43.007H62.4896V45.1616H69.3376V46.798H62.4896Z" fill="white"/>
<path d="M73.6377 50.5352C73.1173 50.5352 72.6763 50.4805 72.3162 50.3716C71.9556 50.2628 71.6631 50.0875 71.4398 49.8464C71.216 49.6059 71.0537 49.2989 70.9535 48.9257C70.8528 48.5529 70.803 48.0986 70.803 47.5617V41.1523H72.6382V47.5617C72.6382 47.9619 72.7135 48.2505 72.864 48.4278C73.0146 48.6051 73.2725 48.6937 73.6377 48.6937H78.2395C78.6047 48.6937 78.8626 48.6051 79.0131 48.4278C79.1637 48.2505 79.239 47.9619 79.239 47.5617V41.1523H81.0879V47.5617C81.0879 48.0981 81.0376 48.5529 80.9374 48.9257C80.8367 49.2984 80.6749 49.6054 80.4511 49.8464C80.2273 50.0875 79.9328 50.2622 79.5676 50.3716C79.2024 50.4805 78.7593 50.5352 78.239 50.5352H73.6372H73.6377Z" fill="white"/>
<path d="M91.1002 50.5347L84.4577 43.6204V50.5347H82.6912V41.1523H84.6769L91.1414 47.9436V41.1523H92.9217V50.5347H91.1002Z" fill="white"/>
<path d="M94.5103 50.5347V41.1523H102.44C103.015 41.1523 103.493 41.2025 103.871 41.3023C104.25 41.4025 104.552 41.5727 104.775 41.8138C104.999 42.0549 105.159 42.3684 105.255 42.7548C105.35 43.1413 105.398 43.6209 105.398 44.1937V47.4939C105.398 48.0667 105.351 48.5489 105.255 48.9393C105.158 49.3303 104.999 49.6438 104.775 49.8804C104.552 50.1169 104.25 50.285 103.871 50.3848C103.493 50.4851 103.015 50.5347 102.44 50.5347H94.5103ZM103.55 44.2069C103.55 43.7429 103.467 43.4274 103.303 43.2593C103.139 43.0911 102.851 43.007 102.44 43.007H96.3729V48.6937H102.44C102.86 48.6937 103.15 48.6122 103.31 48.4481C103.47 48.2845 103.55 47.971 103.55 47.507V44.2069Z" fill="white"/>
<path d="M64.3858 27.6954H60.6406V25.6797H70.3584V27.6954H66.6132V37.4384H64.3863V27.6954H64.3858Z" fill="white"/>
<path d="M82.184 37.4395H79.5355L76.0939 33.5088H73.9515V37.4395H71.7246V25.6641C73.5975 25.6641 75.4698 25.6808 77.3427 25.6808C80.1265 25.6975 81.594 27.5456 81.594 29.5781C81.594 31.1907 80.8519 32.82 78.6077 33.2738L82.1845 37.2886V37.44L82.184 37.4395ZM73.951 27.7467V31.5098H77.3422C78.7593 31.5098 79.3666 30.5692 79.3666 29.6282C79.3666 28.6872 78.7425 27.7467 77.3422 27.7467H73.951Z" fill="white"/>
<path d="M91.4801 35.2211H85.3056L84.2934 37.4384H81.8809L87.1785 25.6797H89.6078L94.9054 37.4384H92.4761L91.4807 35.2211H91.4801ZM88.3926 28.1487L86.1993 33.1547H90.5854L88.3921 28.1487H88.3926Z" fill="white"/>
<path d="M106.664 31.458C106.715 34.4315 104.892 37.4384 100.759 37.4384H96.1196V25.6797H100.759C104.808 25.6797 106.613 28.5524 106.664 31.4585V31.458ZM98.3297 35.3047H100.759C103.442 35.3047 104.504 33.3563 104.454 31.4408C104.404 29.6099 103.324 27.779 100.759 27.779H98.3297V35.3047Z" fill="white"/>
<path d="M116.938 37.4384H108.098V25.6797H116.938V27.8297H110.308V30.5342H116.702V32.6006H110.308V35.2545H116.938V37.4384Z" fill="white"/>
<path d="M129.136 37.4395H126.487L123.046 33.5088H120.903V37.4395H118.676V25.6641C120.549 25.6641 122.421 25.6808 124.294 25.6808C127.078 25.6975 128.546 27.5456 128.546 29.5781C128.546 31.1907 127.804 32.82 125.559 33.2738L129.136 37.2886V37.44L129.136 37.4395ZM120.903 27.7467V31.5098H124.294C125.711 31.5098 126.318 30.5692 126.318 29.6282C126.318 28.6872 125.694 27.7467 124.294 27.7467H120.903Z" fill="white"/>
<path d="M137.858 28.5198C137.453 27.8477 136.339 27.2095 135.057 27.2095C133.403 27.2095 132.611 27.8983 132.611 28.772C132.611 29.7966 133.826 30.0822 135.243 30.2504C137.706 30.5528 140 31.1909 140 33.9963C140 36.6167 137.672 37.7421 135.04 37.7421C132.628 37.7421 130.772 37.0032 129.895 34.8527L131.75 33.895C132.273 35.1885 133.64 35.7598 135.074 35.7598C136.508 35.7598 137.79 35.2726 137.79 33.9957C137.79 32.8871 136.626 32.4333 135.057 32.2656C132.645 31.98 130.418 31.3418 130.418 28.7041C130.418 26.2852 132.813 25.2941 134.989 25.2773C136.828 25.2773 138.735 25.798 139.629 27.6122L137.857 28.5193L137.858 28.5198Z" fill="white"/>
<path d="M27.3635 31.5196L27.3976 31.5L27.3635 31.4805V31.5196Z" fill="url(#paint0_linear_1951_76088)"/>
<path d="M20.1024 39.2188L3.06763 49.0124L27.3634 62.9799V51.7245L20.1024 39.2188Z" fill="#6EFDEB"/>
<path d="M36.2451 36.582L27.419 51.8207L27.3635 51.725V62.9803L27.3971 62.9996L54.7946 47.2498V47.2367L36.2451 36.582Z" fill="#5CBEBB"/>
<path d="M45.0672 21.3491L36.2451 36.5812L54.7947 47.2359V15.7617L45.0672 21.3491Z" fill="#577994"/>
<path d="M27.3971 0L27.3635 0.0192459V21.3123H45.0896L45.0672 21.3503L54.7946 15.7629V15.7503L27.3971 0Z" fill="#37516A"/>
<path d="M9.70509 21.3126H27.3635V0.0195312L0 15.7505V15.7632L9.72747 21.3506L9.70509 21.3126Z" fill="#1D2540"/>
<path d="M17.0327 33.9314L9.72747 21.3491L0 15.7617V43.724L17.0327 33.9314Z" fill="#0B142B"/>
</g>
<defs>
<linearGradient id="paint0_linear_1951_76088" x1="27.3635" y1="31.5" x2="27.3976" y2="31.5" gradientUnits="userSpaceOnUse">
<stop stop-color="#00A4E6"/>
<stop offset="1" stop-color="#0076BC"/>
</linearGradient>
<clipPath id="clip0_1951_76088">
<rect width="140" height="63" fill="white"/>
</clipPath>
</defs>
</svg>
