<svg width="1440" height="724" viewBox="0 0 1440 724" fill="none" xmlns="http://www.w3.org/2000/svg">
<mask id="mask0_2523_20355" style="mask-type:alpha" maskUnits="userSpaceOnUse" x="-330" y="-389" width="1956" height="1440">
<path d="M758.16 153.078C758.16 300.338 660.795 419.715 540.69 419.715C420.584 419.715 -329.822 -96.7821 -329.822 -244.042C-329.822 -391.302 748.365 -188.571 868.471 -188.571C988.577 -188.571 758.16 5.81781 758.16 153.078Z" fill="url(#paint0_linear_2523_20355)"/>
<path d="M842.626 784.103C842.626 931.363 745.261 1050.74 625.156 1050.74C505.05 1050.74 -164.041 1016.42 -164.041 869.155C-164.041 721.895 -114.583 373.071 5.52283 373.071C125.628 373.071 842.626 636.843 842.626 784.103Z" fill="url(#paint1_radial_2523_20355)"/>
<path d="M1089.32 153.482C1413.39 446.17 1263.69 299.082 1542.03 291.672C1585.7 300.083 1659.82 300.483 1607.01 234.792C1541 152.677 1562.27 94.6792 1479.77 5.21521C1397.27 -84.2488 1347.02 -175.143 1222.47 -317.433C1097.91 -459.723 1088.33 -342.429 947.908 -353.548C807.488 -364.667 871.534 -347.01 677.79 -140.553C484.046 65.9044 765.255 -139.207 1089.32 153.482Z" fill="#D9D9D9"/>
<path d="M783.375 613.864C349.695 664.922 558.971 649.163 381.212 863.482C346.123 890.797 296.998 946.309 381.212 949.839C486.48 954.252 516.107 1008.46 637.764 1005.31C759.421 1002.16 860.908 1024.22 1050.01 1024.22C1239.12 1024.22 1157.17 939.754 1258.03 841.419C1358.88 743.085 1303.41 779.645 1275.68 497.879C1247.94 216.114 1217.05 562.805 783.375 613.864Z" fill="#D9D9D9"/>
</mask>
<g mask="url(#mask0_2523_20355)">
<line x1="-32.2949" y1="458.797" x2="1479.28" y2="458.797" stroke="white" stroke-opacity="0.09" stroke-width="1.2607"/>
<line x1="-32.2949" y1="136.059" x2="1479.28" y2="136.059" stroke="white" stroke-opacity="0.09" stroke-width="1.2607"/>
<line x1="-32.2949" y1="297.427" x2="1479.28" y2="297.427" stroke="white" stroke-opacity="0.09" stroke-width="1.2607"/>
<line x1="-32.2949" y1="620.165" x2="1479.28" y2="620.165" stroke="white" stroke-opacity="0.09" stroke-width="1.2607"/>
<line x1="-32.2949" y1="378.112" x2="1479.28" y2="378.112" stroke="white" stroke-opacity="0.09" stroke-width="1.2607"/>
<line x1="-32.2949" y1="700.85" x2="1479.28" y2="700.85" stroke="white" stroke-opacity="0.09" stroke-width="1.2607"/>
<line x1="-32.2949" y1="55.374" x2="1479.28" y2="55.374" stroke="white" stroke-opacity="0.09" stroke-width="1.2607"/>
<line x1="-32.2949" y1="216.742" x2="1479.28" y2="216.742" stroke="white" stroke-opacity="0.09" stroke-width="1.2607"/>
<line x1="-32.2949" y1="539.482" x2="1479.28" y2="539.482" stroke="white" stroke-opacity="0.09" stroke-width="1.2607"/>
<line x1="14.98" y1="-215.045" x2="14.9799" y2="952.361" stroke="white" stroke-opacity="0.09" stroke-width="1.2607"/>
<line x1="660.46" y1="-215.045" x2="660.46" y2="952.361" stroke="white" stroke-opacity="0.09" stroke-width="1.2607"/>
<line x1="337.72" y1="-215.046" x2="337.72" y2="952.36" stroke="white" stroke-opacity="0.09" stroke-width="1.2607"/>
<line x1="983.197" y1="-215.045" x2="983.197" y2="952.361" stroke="white" stroke-opacity="0.09" stroke-width="1.2607"/>
<line x1="1305.94" y1="-215.045" x2="1305.94" y2="952.361" stroke="white" stroke-opacity="0.09" stroke-width="1.2607"/>
<line x1="176.351" y1="-215.045" x2="176.351" y2="952.361" stroke="white" stroke-opacity="0.09" stroke-width="1.2607"/>
<line x1="821.826" y1="-215.045" x2="821.826" y2="952.361" stroke="white" stroke-opacity="0.09" stroke-width="1.2607"/>
<line x1="499.091" y1="-215.045" x2="499.091" y2="952.361" stroke="white" stroke-opacity="0.09" stroke-width="1.2607"/>
<line x1="1144.57" y1="-215.046" x2="1144.57" y2="952.36" stroke="white" stroke-opacity="0.09" stroke-width="1.2607"/>
<line x1="95.6675" y1="-215.045" x2="95.6674" y2="952.361" stroke="white" stroke-opacity="0.09" stroke-width="1.2607"/>
<line x1="741.144" y1="-215.046" x2="741.144" y2="952.36" stroke="white" stroke-opacity="0.09" stroke-width="1.2607"/>
<line x1="418.404" y1="-215.045" x2="418.404" y2="952.361" stroke="white" stroke-opacity="0.09" stroke-width="1.2607"/>
<line x1="1063.88" y1="-215.045" x2="1063.88" y2="952.361" stroke="white" stroke-opacity="0.09" stroke-width="1.2607"/>
<line x1="1386.62" y1="-215.045" x2="1386.62" y2="952.361" stroke="white" stroke-opacity="0.09" stroke-width="1.2607"/>
<line x1="257.037" y1="-215.045" x2="257.037" y2="952.361" stroke="white" stroke-opacity="0.09" stroke-width="1.2607"/>
<line x1="902.513" y1="-215.045" x2="902.513" y2="952.361" stroke="white" stroke-opacity="0.09" stroke-width="1.2607"/>
<line x1="579.773" y1="-215.045" x2="579.773" y2="952.361" stroke="white" stroke-opacity="0.09" stroke-width="1.2607"/>
<line x1="1225.25" y1="-215.045" x2="1225.25" y2="952.361" stroke="white" stroke-opacity="0.09" stroke-width="1.2607"/>
<g opacity="0.7">
<rect x="821.885" y="620.109" width="80.2262" height="80.2262" fill="white" fill-opacity="0.36"/>
<rect x="418.463" y="620.109" width="80.2262" height="80.2262" fill="white" fill-opacity="0.25"/>
<rect x="1145.08" y="56.2329" width="80.2262" height="79.0801" fill="white" fill-opacity="0.11"/>
<rect x="498.688" y="-23.9932" width="80.2262" height="79.0801" fill="white" fill-opacity="0.31"/>
<rect x="1063.71" y="136.459" width="80.2262" height="79.0801" fill="white" fill-opacity="0.11"/>
<rect x="417.316" y="56.2329" width="80.2262" height="79.0801" fill="white" fill-opacity="0.31"/>
<rect x="1063.71" y="56.2329" width="80.2262" height="79.0801" fill="white" fill-opacity="0.11"/>
<rect x="417.316" y="-23.9932" width="80.2262" height="79.0801" fill="white" fill-opacity="0.31"/>
<rect x="338.236" y="620.109" width="80.2262" height="80.2262" fill="white" fill-opacity="0.25"/>
<rect x="338.236" y="700.335" width="80.2262" height="81.3723" fill="white" fill-opacity="0.25"/>
<rect x="176.637" y="539.883" width="80.2262" height="80.2262" fill="white" fill-opacity="0.25"/>
<rect x="176.639" y="-26.2854" width="81.3723" height="82.5184" fill="white" fill-opacity="0.24"/>
<rect x="95.2656" y="-26.2854" width="81.3723" height="82.5184" fill="white" fill-opacity="0.24"/>
<rect x="176.639" y="135.313" width="80.2262" height="81.3723" fill="white" fill-opacity="0.24"/>
<rect x="1145.08" y="539.883" width="80.2262" height="80.2262" fill="white" fill-opacity="0.26"/>
<rect x="1225.31" y="620.109" width="80.2262" height="80.2262" fill="white" fill-opacity="0.26"/>
</g>
</g>
<defs>
<linearGradient id="paint0_linear_2523_20355" x1="189.585" y1="-170.291" x2="644.067" y2="71.7629" gradientUnits="userSpaceOnUse">
<stop stop-color="white"/>
<stop offset="1" stop-color="white" stop-opacity="0"/>
</linearGradient>
<radialGradient id="paint1_radial_2523_20355" cx="0" cy="0" r="1" gradientUnits="userSpaceOnUse" gradientTransform="translate(154.915 790.362) rotate(-29.3932) scale(777.019 1335.47)">
<stop stop-color="white"/>
<stop offset="1" stop-color="white" stop-opacity="0"/>
</radialGradient>
</defs>
</svg>
