<svg width="16" height="16" viewBox="0 0 16 16" fill="none" xmlns="http://www.w3.org/2000/svg">
<path d="M10.0192 1.6598C9.43727 1.47647 8.93987 2.11247 9.24834 2.63913C9.73567 3.4698 9.99834 4.40714 9.99834 5.34713C9.99834 8.29246 7.61054 10.6805 4.665 10.6805C4.1104 10.6805 3.54947 10.5905 3.04 10.4305C2.45807 10.2471 1.9398 10.8831 2.24834 11.4098C3.43334 13.4311 5.59914 14.6805 7.99834 14.6805C11.6802 14.6805 14.665 11.6958 14.665 8.0138C14.665 5.0798 12.7713 2.52514 10.0192 1.6598ZM11.0817 3.6598C12.4577 4.63246 13.3317 6.2358 13.3317 8.0138C13.3317 10.9591 10.9439 13.3471 7.99834 13.3471C6.64627 13.3471 5.4104 12.8271 4.45667 11.9724C4.5278 11.9744 4.59414 12.0138 4.665 12.0138C8.34694 12.0138 11.3317 9.02913 11.3317 5.34713C11.3317 4.7758 11.2303 4.21047 11.0817 3.6598Z" fill="white"/>
</svg>
