<svg width="125" height="107" viewBox="0 0 125 107" fill="none" xmlns="http://www.w3.org/2000/svg">
<g id="18">
<g id="Group 740">
<path id="Vector" d="M52.3641 105.32C80.3641 105.32 103.064 82.6197 103.064 54.5197C103.064 26.4197 80.2641 3.71973 52.3641 3.71973C24.3641 3.71973 1.66406 26.4197 1.66406 54.5197C1.66406 82.6197 24.3641 105.32 52.3641 105.32Z" fill="#1C1D20" stroke="#3B3C3D" stroke-width="2" stroke-miterlimit="10"/>
</g>
<g id="Group 741">
<path id="Vector_2" d="M100.675 27.8367V86.6744C100.675 88.4007 99.236 89.8393 97.5097 89.8393H8.10236C6.37607 89.9112 4.9375 88.4726 4.9375 86.7463V27.8367C4.9375 26.0385 6.37607 24.6719 8.10236 24.6719H97.5097C99.3079 24.6719 100.675 26.1104 100.675 27.8367Z" fill="#262729" stroke="#3B3C3D" stroke-width="2" stroke-miterlimit="10"/>
<path id="Vector_3" d="M100.675 27.8367V32.3682H4.9375V27.8367C4.9375 26.0385 6.37607 24.6719 8.10236 24.6719H97.5097C99.3079 24.6719 100.675 26.1104 100.675 27.8367Z" fill="#262729" stroke="#3B3C3D" stroke-width="2" stroke-miterlimit="10"/>
<path id="Vector_4" d="M39.6067 55.1694C41.0765 55.1694 42.268 53.9779 42.268 52.508C42.268 51.0382 41.0765 49.8467 39.6067 49.8467C38.1368 49.8467 36.9453 51.0382 36.9453 52.508C36.9453 53.9779 38.1368 55.1694 39.6067 55.1694Z" fill="#D0D5DD"/>
<path id="Vector_5" d="M66.0754 55.1694C67.5453 55.1694 68.7368 53.9779 68.7368 52.508C68.7368 51.0382 67.5453 49.8467 66.0754 49.8467C64.6056 49.8467 63.4141 51.0382 63.4141 52.508C63.4141 53.9779 64.6056 55.1694 66.0754 55.1694Z" fill="#D0D5DD"/>
<path id="Vector_6" d="M57.1588 72.6477H48.8151C47.5203 72.6477 46.4414 71.5688 46.4414 70.274C46.4414 68.9793 47.5203 67.9004 48.8151 67.9004H57.0869C58.3816 67.9004 59.4605 68.9793 59.4605 70.274C59.5324 71.5688 58.4535 72.6477 57.1588 72.6477Z" fill="#D0D5DD"/>
<path id="Vector_7" d="M9.75942 28.7713C9.75942 29.091 9.50023 29.3502 9.18049 29.3502C8.86076 29.3502 8.60156 29.091 8.60156 28.7713C8.60156 28.4516 8.86076 28.1924 9.18049 28.1924C9.50023 28.1924 9.75942 28.4516 9.75942 28.7713Z" fill="#3E4450" stroke="#3B3C3D"/>
<path id="Vector_8" d="M13.1422 28.7713C13.1422 29.091 12.883 29.3502 12.5633 29.3502C12.2436 29.3502 11.9844 29.091 11.9844 28.7713C11.9844 28.4516 12.2436 28.1924 12.5633 28.1924C12.883 28.1924 13.1422 28.4516 13.1422 28.7713Z" fill="#3E4450" stroke="#3B3C3D"/>
<path id="Vector_9" d="M16.5954 28.7713C16.5954 29.091 16.3362 29.3502 16.0164 29.3502C15.6967 29.3502 15.4375 29.091 15.4375 28.7713C15.4375 28.4516 15.6967 28.1924 16.0164 28.1924C16.3362 28.1924 16.5954 28.4516 16.5954 28.7713Z" fill="#3E4450" stroke="#3B3C3D"/>
<path id="Vector_10" d="M96.7908 17.0471C96.0715 17.0471 95.4961 16.4717 95.4961 15.7524V1.29472C95.4961 0.57543 96.0715 0 96.7908 0C97.5101 0 98.0855 0.57543 98.0855 1.29472V15.7524C98.0855 16.4717 97.5101 17.0471 96.7908 17.0471Z" fill="#D0D5DD"/>
<path id="Vector_11" d="M107.293 28.1238C107.293 27.4045 107.868 26.8291 108.588 26.8291H123.045C123.765 26.8291 124.34 27.4045 124.34 28.1238C124.34 28.8431 123.765 29.4185 123.045 29.4185H108.588C107.868 29.4185 107.293 28.8431 107.293 28.1238Z" fill="#D0D5DD"/>
<path id="Vector_12" d="M106.139 18.7732C105.636 18.2697 105.636 17.4065 106.139 16.903L116.425 6.68915C116.929 6.18565 117.792 6.18565 118.295 6.68915C118.799 7.19265 118.799 8.05579 118.295 8.55929L108.081 18.7732C107.506 19.2767 106.643 19.2767 106.139 18.7732Z" fill="#D0D5DD"/>
</g>
</g>
</svg>
