<svg width="107" height="48" viewBox="0 0 107 48" fill="none" xmlns="http://www.w3.org/2000/svg">
<path d="M47.6106 14.3274V16.6446H46.2026V9.49609H51.5872C51.9975 9.49609 52.3419 9.53236 52.6204 9.60491C52.8989 9.67745 53.1215 9.79695 53.2881 9.96339C53.455 10.1298 53.5751 10.3515 53.6482 10.6283C53.7213 10.9051 53.7577 11.2515 53.7575 11.6675V12.3119C53.7575 12.679 53.721 12.9907 53.6482 13.2469C53.5868 13.4831 53.4624 13.6985 53.2881 13.8701C53.1212 14.0298 52.8987 14.1456 52.6204 14.2174C52.3421 14.2891 51.9977 14.3256 51.5872 14.3266L47.6106 14.3274ZM52.3584 11.6675C52.3584 11.3845 52.3011 11.187 52.1864 11.0751C52.0716 10.9632 51.8717 10.9078 51.5864 10.9088H47.6106V13.0493H51.5864C51.8706 13.0493 52.0706 12.9922 52.1864 12.878C52.3021 12.7638 52.3595 12.5784 52.3584 12.3219V11.6675Z" fill="white"/>
<path d="M60.9043 16.6446L58.4205 14.3065H56.156V16.6446H54.7368V9.49609H60.6016C60.984 9.49609 61.3057 9.53583 61.5666 9.61533C61.8075 9.68288 62.0256 9.81393 62.198 9.99465C62.3581 10.1678 62.4744 10.3964 62.5468 10.6804C62.6191 10.9644 62.6557 11.3073 62.6564 11.7091V12.1456C62.6564 12.5829 62.613 12.9396 62.5262 13.2156C62.4394 13.4917 62.2985 13.7103 62.1034 13.8716C61.9086 14.0314 61.6581 14.1406 61.3519 14.1992C60.9798 14.2633 60.6025 14.2928 60.2249 14.2872L62.8859 16.6461L60.9043 16.6446ZM61.2589 11.948C61.2589 11.6017 61.2189 11.3437 61.1388 11.1739C61.0587 11.0041 60.8657 10.9192 60.5598 10.9192H56.156V13.1327H60.5598C60.8101 13.1327 60.9893 13.0703 61.0973 12.9455C61.2053 12.8207 61.2592 12.6021 61.2589 12.2895V11.948Z" fill="white"/>
<path d="M65.976 16.6455C65.5368 16.6455 65.1751 16.6069 64.8909 16.5297C64.6067 16.4526 64.3771 16.3239 64.2022 16.1439C64.0283 15.9638 63.9067 15.7248 63.8372 15.4269C63.7677 15.129 63.7329 14.7619 63.7329 14.3256V11.8111C63.7329 11.3738 63.7677 11.0067 63.8372 10.7098C63.9067 10.413 64.0283 10.174 64.2022 9.99286C64.3764 9.81278 64.6059 9.68415 64.8909 9.60698C65.1759 9.5298 65.5376 9.49121 65.976 9.49121H69.765C70.1895 9.49121 70.5461 9.5298 70.8347 9.60698C71.1233 9.68415 71.3545 9.81278 71.5284 9.99286C71.7025 10.1729 71.826 10.4119 71.8989 10.7098C71.9717 11.0077 72.0083 11.3748 72.0085 11.8111V14.3256C72.0085 14.7629 71.972 15.13 71.8989 15.4269C71.8258 15.7237 71.7023 15.9627 71.5284 16.1439C71.3545 16.3239 71.1233 16.4526 70.8347 16.5297C70.5461 16.6069 70.1895 16.6455 69.765 16.6455H65.976ZM70.5987 11.8243C70.5987 11.4708 70.536 11.2301 70.4107 11.1023C70.2854 10.9744 70.0658 10.9101 69.7519 10.9093H65.9745C65.6613 10.9093 65.4417 10.9736 65.3156 11.1023C65.1896 11.2309 65.127 11.4716 65.1281 11.8243V14.3387C65.1248 14.4869 65.1387 14.6351 65.1695 14.7801C65.1912 14.8828 65.2399 14.9779 65.3106 15.0557C65.3818 15.128 65.4723 15.1785 65.5714 15.2011C65.7031 15.2315 65.8381 15.2455 65.9733 15.2428H69.7507C70.0706 15.2428 70.2915 15.1804 70.4134 15.0557C70.5354 14.9309 70.5962 14.6919 70.5959 14.3387L70.5987 11.8243Z" fill="white"/>
<path d="M47.6106 35.6558V38.5028H46.2026V31.3555H52.9436V32.7686H47.6106V34.4105H52.8297V35.6558H47.6106Z" fill="white"/>
<path d="M56.105 38.5044C55.7084 38.5044 55.3725 38.4627 55.0974 38.3794C54.8426 38.3085 54.6119 38.1704 54.4296 37.9796C54.2504 37.7794 54.1232 37.5385 54.0591 37.278C53.9816 36.9951 53.9429 36.6488 53.9429 36.2392V31.3555H55.3411V36.2392C55.3411 36.5441 55.3985 36.7639 55.5132 36.8987C55.6279 37.0335 55.8245 37.101 56.103 37.1013H59.6119C59.8901 37.1013 60.0866 37.0338 60.2013 36.8987C60.3161 36.7636 60.3735 36.5438 60.3738 36.2392V31.3555H61.7821V36.2392C61.7821 36.648 61.7434 36.9943 61.6659 37.278C61.602 37.5385 61.4749 37.7794 61.2958 37.9796C61.1119 38.1711 60.8792 38.3093 60.6226 38.3794C60.3443 38.4627 60.0069 38.5044 59.6103 38.5044H56.105Z" fill="white"/>
<path d="M69.4092 38.5044L64.3479 33.2363V38.5044H63.002V31.3555H64.5134L69.4387 36.5302V31.3555H70.7951V38.5044H69.4092Z" fill="white"/>
<path d="M72.0073 38.5044V31.3555H78.0492C78.4884 31.3555 78.8519 31.3941 79.1397 31.4712C79.4275 31.5484 79.6571 31.6782 79.8284 31.8606C79.9989 32.0443 80.1206 32.2833 80.1934 32.5776C80.2663 32.8719 80.3029 33.2373 80.3031 33.6739V36.1883C80.3031 36.6256 80.2666 36.9927 80.1934 37.2896C80.1203 37.5865 79.9986 37.8255 79.8284 38.0066C79.6579 38.1867 79.4283 38.3153 79.1397 38.3925C78.8511 38.4696 78.4876 38.5082 78.0492 38.5082L72.0073 38.5044ZM78.8944 33.6831C78.8944 33.3297 78.8317 33.0889 78.7064 32.9607C78.5811 32.8326 78.3615 32.7683 78.0476 32.7678H73.4265V37.1005H78.0492C78.3693 37.1005 78.5902 37.0383 78.7119 36.9138C78.8335 36.7893 78.8944 36.5503 78.8944 36.1968V33.6831Z" fill="white"/>
<path d="M49.0554 21.0997H46.2026V19.5635H53.6048V21.0993H50.7509V28.5225H49.0542L49.0554 21.0997Z" fill="white"/>
<path d="M62.6149 28.5236H60.597L57.9745 25.5287H56.3422V28.5236H54.6455V19.5518C56.0724 19.5518 57.499 19.5645 58.9259 19.5645C61.0465 19.5772 62.165 20.9853 62.165 22.5339C62.165 23.7625 61.5996 25.0035 59.8901 25.3508L62.6149 28.4097V28.5236ZM56.3422 21.1389V24.0056H58.9259C60.0056 24.0056 60.4683 23.289 60.4683 22.5725C60.4683 21.8559 59.9928 21.1389 58.9259 21.1389H56.3422Z" fill="white"/>
<path d="M69.698 26.8335H64.9936L64.2224 28.5229H62.3843L66.4202 19.5635H68.2715L72.3074 28.5225H70.4565L69.698 26.8335ZM67.3456 21.4454L65.6749 25.2595H69.0167L67.3456 21.4454Z" fill="white"/>
<path d="M81.2687 23.9668C81.3075 26.2323 79.9193 28.5229 76.7697 28.5229H73.2349V19.5635H76.7697C79.8549 19.5635 81.2304 21.7526 81.2687 23.9668ZM74.9188 26.8976H76.7697C78.8136 26.8976 79.6236 25.4131 79.5848 23.9541C79.5461 22.5587 78.7237 21.1637 76.7697 21.1637H74.9188V26.8976Z" fill="white"/>
<path d="M89.0966 28.5229H82.3618V19.5635H89.0974V21.2019H84.0449V23.2626H88.9168V24.8366H84.0449V26.859H89.0966V28.5229Z" fill="white"/>
<path d="M98.3895 28.5236H96.3716L93.7494 25.5287H92.1171V28.5236H90.4224V19.5518C91.8489 19.5518 93.2759 19.5645 94.7024 19.5645C96.8234 19.5772 97.9415 20.9853 97.9415 22.5339C97.9415 23.7625 97.3761 25.0035 95.6666 25.3508L98.3915 28.4097L98.3895 28.5236ZM92.1171 21.1389V24.0056H94.7005C95.7802 24.0056 96.2429 23.289 96.2429 22.5725C96.2429 21.8559 95.7674 21.1389 94.7005 21.1389H92.1171Z" fill="white"/>
<path d="M105.035 21.7273C104.725 21.2152 103.878 20.7286 102.901 20.7286C101.641 20.7286 101.037 21.2534 101.037 21.919C101.037 22.6997 101.963 22.9173 103.043 23.0454C104.919 23.277 106.668 23.762 106.668 25.901C106.668 27.8975 104.894 28.7565 102.889 28.7565C101.05 28.7565 99.6363 28.1935 98.9678 26.557L100.382 25.8226C100.781 26.8082 101.822 27.2435 102.915 27.2435C103.981 27.2435 104.984 26.8722 104.984 25.8994C104.984 25.0547 104.097 24.7094 102.902 24.5813C101.064 24.3636 99.3669 23.8774 99.3669 21.8677C99.3669 20.0247 101.192 19.2696 102.85 19.2568C104.251 19.2568 105.704 19.6535 106.385 21.0358L105.035 21.7273Z" fill="white"/>
<path d="M20.8486 24.0164L20.8761 24.0009L20.8486 23.9854V24.0164Z" fill="white"/>
<path d="M15.3158 29.8818L2.33691 37.3437L20.848 47.9856V39.4101L15.3158 29.8818Z" fill="white"/>
<path d="M27.6156 27.8721L20.8909 39.4826L20.8486 39.4096V47.9851L20.8746 47.9998L41.7486 35.9996V35.9899L27.6156 27.8721Z" fill="white"/>
<path d="M34.3373 16.2668L27.6157 27.8723L41.7487 35.9901V12.0098L34.3373 16.2668Z" fill="white"/>
<path d="M20.8746 0L20.8486 0.0146636V16.238H34.3542L34.3371 16.2669L41.7486 12.0099V12.0002L20.8746 0Z" fill="white"/>
<path d="M7.39437 16.238H20.8484V0.0146484L0 12.0002V12.0099L7.41142 16.2669L7.39437 16.238Z" fill="white"/>
<path d="M12.9773 25.8533L7.41142 16.2668L0 12.0098V33.3144L12.9773 25.8533Z" fill="white"/>
</svg>
