<svg width="40" height="40" viewBox="0 0 40 40" fill="none" xmlns="http://www.w3.org/2000/svg">
<rect width="40" height="40" rx="20" fill="white"/>
<path d="M20.4688 20.5092L20.4818 20.5016L20.4688 20.4941V20.5092Z" fill="url(#paint0_linear_1180_47545)"/>
<path d="M17.6806 23.4629L11.1406 27.2229L20.4682 32.5852V28.2641L17.6806 23.4629Z" fill="#6EFDEB"/>
<path d="M23.8786 22.4512L20.49 28.3016L20.4688 28.2649V32.586L20.4816 32.5934L31.0001 26.5467V26.5417L23.8786 22.4512Z" fill="#5CBEBB"/>
<path d="M27.2659 16.6002L23.8789 22.4481L31.0004 26.5386V14.4551L27.2659 16.6002Z" fill="#577994"/>
<path d="M20.4816 8.40625L20.4688 8.41364V16.5884H27.2741L27.2655 16.603L31.0001 14.4579V14.4531L20.4816 8.40625Z" fill="#37516A"/>
<path d="M13.6908 16.5869H20.4702V8.41211L9.96484 14.4515V14.4564L13.6994 16.6015L13.6908 16.5869Z" fill="#1D2540"/>
<path d="M16.504 21.4308L13.6994 16.6002L9.96484 14.4551V25.1903L16.504 21.4308Z" fill="#0B142B"/>
<defs>
<linearGradient id="paint0_linear_1180_47545" x1="20.4688" y1="20.5016" x2="20.4818" y2="20.5016" gradientUnits="userSpaceOnUse">
<stop stop-color="#00A4E6"/>
<stop offset="1" stop-color="#0076BC"/>
</linearGradient>
</defs>
</svg>
