<svg width="140" height="63" viewBox="0 0 140 63" fill="none" xmlns="http://www.w3.org/2000/svg">
<g id="Layer_1" clip-path="url(#clip0_622_131996)">
<g id="Group">
<g id="Group_2">
<path id="Vector" d="M62.4896 18.8059V21.8472H60.6406V12.4648H67.7078C68.2465 12.4648 68.6987 12.5125 69.0639 12.6082C69.4291 12.7034 69.7211 12.8604 69.9403 13.0787C70.1595 13.297 70.3172 13.5882 70.4129 13.9513C70.5085 14.315 70.5568 14.7698 70.5568 15.3153V16.1606C70.5568 16.6427 70.509 17.0514 70.4129 17.3877C70.3167 17.724 70.1595 17.997 69.9403 18.2062C69.7211 18.4154 69.4286 18.5678 69.0639 18.663C68.6987 18.7583 68.2465 18.8064 67.7078 18.8064H62.4896V18.8059ZM68.7211 15.3148C68.7211 14.942 68.6458 14.6832 68.4952 14.5373C68.3447 14.392 68.0817 14.319 67.7078 14.319H62.4896V17.1284H67.7078C68.0822 17.1284 68.3447 17.0535 68.4952 16.9036C68.6458 16.7536 68.7211 16.5105 68.7211 16.1737V15.3148Z" fill="white"/>
<path id="Vector_2" d="M79.9379 21.8472L76.6785 18.779H73.7064V21.8472H71.8438V12.4648H79.5412C80.0432 12.4648 80.4659 12.5175 80.8082 12.6218C81.1506 12.7267 81.4268 12.8923 81.6368 13.1197C81.8469 13.3471 82 13.6469 82.0956 14.0197C82.1913 14.3925 82.2396 14.8427 82.2396 15.37V15.9428C82.2396 16.5156 82.1826 16.9841 82.0682 17.3472C81.9537 17.7109 81.7691 17.9975 81.5137 18.2062C81.2579 18.4154 80.9293 18.5587 80.5275 18.6357C80.1256 18.7132 79.6322 18.7517 79.0483 18.7517L82.5407 21.8472H79.9384H79.9379ZM80.4039 15.683C80.4039 15.2287 80.351 14.8898 80.2462 14.667C80.1414 14.4441 79.8876 14.3327 79.4863 14.3327H73.7064V17.2373H79.4863C79.8148 17.2373 80.0498 17.1553 80.1918 16.9917C80.3332 16.8281 80.4039 16.5414 80.4039 16.1327V15.6825V15.683Z" fill="white"/>
<path id="Vector_3" d="M86.5945 21.8467C86.0192 21.8467 85.5446 21.7971 85.1702 21.6968C84.7959 21.597 84.4942 21.4289 84.2664 21.1924C84.038 20.9558 83.8783 20.6423 83.7872 20.2513C83.6957 19.8603 83.6504 19.3787 83.6504 18.8059V15.5057C83.6504 14.9329 83.6962 14.4512 83.7872 14.0602C83.8783 13.6692 84.038 13.3557 84.2664 13.1192C84.4942 12.8827 84.7959 12.7145 85.1702 12.6148C85.5446 12.515 86.0192 12.4648 86.5945 12.4648H91.566C92.123 12.4648 92.591 12.515 92.9699 12.6148C93.3489 12.715 93.6525 12.8832 93.8809 13.1192C94.1088 13.3557 94.2711 13.6692 94.3672 14.0602C94.4628 14.4512 94.5111 14.9329 94.5111 15.5057V18.8059C94.5111 19.3787 94.4633 19.8608 94.3672 20.2513C94.2711 20.6423 94.1093 20.9558 93.8809 21.1924C93.6525 21.4289 93.3489 21.597 92.9699 21.6968C92.591 21.7971 92.123 21.8467 91.566 21.8467H86.5945ZM92.6617 15.5189C92.6617 15.0554 92.5793 14.7394 92.415 14.5713C92.2507 14.4031 91.9628 14.319 91.5523 14.319H86.5945C86.1835 14.319 85.8961 14.4031 85.7318 14.5713C85.5675 14.7394 85.4851 15.0554 85.4851 15.5189V18.819C85.4851 19.0556 85.5034 19.2485 85.54 19.3984C85.5767 19.5484 85.6382 19.6689 85.7247 19.7601C85.8111 19.8512 85.9256 19.9145 86.067 19.951C86.2084 19.9875 86.3844 20.0057 86.5945 20.0057H91.5523C91.9719 20.0057 92.2619 19.9237 92.4221 19.7601C92.5818 19.5965 92.6617 19.283 92.6617 18.819V15.5189Z" fill="white"/>
</g>
<g id="Group_3">
<path id="Vector_4" d="M62.4896 46.7999V50.5367H60.6406V41.1543H69.4881V43.009H62.4896V45.1635H69.3376V46.7999H62.4896Z" fill="white"/>
<path id="Vector_5" d="M73.6375 50.5372C73.1171 50.5372 72.6761 50.4825 72.316 50.3736C71.9553 50.2647 71.6629 50.0895 71.4396 49.8484C71.2158 49.6078 71.0535 49.3009 70.9533 48.9276C70.8526 48.5549 70.8027 48.1006 70.8027 47.5637V41.1543H72.638V47.5637C72.638 47.9638 72.7132 48.2525 72.8638 48.4298C73.0144 48.607 73.2722 48.6957 73.6375 48.6957H78.2392C78.6045 48.6957 78.8623 48.607 79.0129 48.4298C79.1635 48.2525 79.2387 47.9638 79.2387 47.5637V41.1543H81.0877V47.5637C81.0877 48.1 81.0373 48.5549 80.9371 48.9276C80.8364 49.3004 80.6747 49.6073 80.4509 49.8484C80.2271 50.0895 79.9325 50.2642 79.5673 50.3736C79.2021 50.4825 78.7591 50.5372 78.2387 50.5372H73.6369H73.6375Z" fill="white"/>
<path id="Vector_6" d="M91.1005 50.5367L84.458 43.6223V50.5367H82.6914V41.1543H84.6772L91.1417 47.9456V41.1543H92.9219V50.5367H91.1005Z" fill="white"/>
<path id="Vector_7" d="M94.5098 50.5367V41.1543H102.44C103.015 41.1543 103.492 41.2044 103.871 41.3042C104.25 41.4045 104.551 41.5747 104.775 41.8157C104.999 42.0568 105.158 42.3703 105.254 42.7568C105.35 43.1432 105.398 43.6228 105.398 44.1957V47.4958C105.398 48.0686 105.35 48.5508 105.254 48.9413C105.158 49.3323 104.998 49.6458 104.775 49.8823C104.551 50.1188 104.249 50.287 103.871 50.3868C103.492 50.487 103.015 50.5367 102.44 50.5367H94.5098ZM103.549 44.2088C103.549 43.7449 103.467 43.4294 103.302 43.2612C103.138 43.0931 102.85 43.009 102.44 43.009H96.3725V48.6957H102.44C102.859 48.6957 103.149 48.6141 103.309 48.45C103.469 48.2864 103.549 47.9729 103.549 47.509V44.2088Z" fill="white"/>
</g>
<g id="Group_4">
<path id="Vector_8" d="M64.3858 27.6935H60.6406V25.6777H70.3584V27.6935H66.6132V37.4365H64.3863V27.6935H64.3858Z" fill="white"/>
<path id="Vector_9" d="M82.184 37.4376H79.5355L76.0939 33.5068H73.9515V37.4376H71.7246V25.6621C73.5975 25.6621 75.4698 25.6788 77.3427 25.6788C80.1265 25.6955 81.594 27.5437 81.594 29.5761C81.594 31.1887 80.8519 32.818 78.6077 33.2718L82.1845 37.2866V37.4381L82.184 37.4376ZM73.951 27.7447V31.5078H77.3422C78.7593 31.5078 79.3666 30.5673 79.3666 29.6263C79.3666 28.6852 78.7425 27.7447 77.3422 27.7447H73.951Z" fill="white"/>
<path id="Vector_10" d="M91.4801 35.2192H85.3056L84.2934 37.4365H81.8809L87.1785 25.6777H89.6078L94.9054 37.4365H92.4761L91.4807 35.2192H91.4801ZM88.3926 28.1468L86.1993 33.1528H90.5854L88.3921 28.1468H88.3926Z" fill="white"/>
<path id="Vector_11" d="M106.664 31.458C106.714 34.4315 104.892 37.4384 100.759 37.4384H96.1191V25.6797H100.759C104.807 25.6797 106.613 28.5524 106.664 31.4585V31.458ZM98.3292 35.3047H100.759C103.441 35.3047 104.504 33.3563 104.453 31.4408C104.403 29.6099 103.323 27.779 100.759 27.779H98.3292V35.3047Z" fill="white"/>
<path id="Vector_12" d="M116.938 37.4365H108.098V25.6777H116.938V27.8277H110.308V30.5323H116.702V32.5987H110.308V35.2526H116.938V37.4365Z" fill="white"/>
<path id="Vector_13" d="M129.135 37.4376H126.487L123.045 33.5068H120.903V37.4376H118.676V25.6621C120.549 25.6621 122.421 25.6788 124.294 25.6788C127.078 25.6955 128.545 27.5437 128.545 29.5761C128.545 31.1887 127.803 32.818 125.559 33.2718L129.136 37.2866V37.4381L129.135 37.4376ZM120.902 27.7447V31.5078H124.293C125.71 31.5078 126.318 30.5673 126.318 29.6263C126.318 28.6852 125.694 27.7447 124.293 27.7447H120.902Z" fill="white"/>
<path id="Vector_14" d="M137.857 28.5178C137.453 27.8457 136.339 27.2076 135.057 27.2076C133.403 27.2076 132.611 27.8964 132.611 28.77C132.611 29.7946 133.825 30.0803 135.243 30.2484C137.705 30.5508 140 31.189 140 33.9943C140 36.6148 137.672 37.7402 135.04 37.7402C132.628 37.7402 130.772 37.0012 129.895 34.8507L131.75 33.893C132.273 35.1865 133.64 35.7578 135.074 35.7578C136.508 35.7578 137.79 35.2706 137.79 33.9938C137.79 32.8851 136.626 32.4313 135.057 32.2637C132.644 31.978 130.417 31.3399 130.417 28.7022C130.417 26.2833 132.813 25.2921 134.989 25.2754C136.828 25.2754 138.734 25.796 139.629 27.6102L137.857 28.5173L137.857 28.5178Z" fill="white"/>
</g>
</g>
<g id="Group_5">
<path id="Vector_15" d="M27.3633 31.5196L27.3973 31.5L27.3633 31.4805V31.5196Z" fill="url(#paint0_linear_622_131996)"/>
<path id="Vector_16" d="M20.1031 39.2188L3.06836 49.0124L27.3641 62.9799V51.7245L20.1031 39.2188Z" fill="#6EFDEB"/>
<path id="Vector_17" d="M36.2449 36.582L27.4187 51.8207L27.3633 51.725V62.9803L27.3969 62.9996L54.7944 47.2498V47.2367L36.2449 36.582Z" fill="#5CBEBB"/>
<path id="Vector_18" d="M45.0662 21.3511L36.2441 36.5832L54.7937 47.2378V15.7637L45.0662 21.3511Z" fill="#577994"/>
<path id="Vector_19" d="M27.3969 0L27.3633 0.0192459V21.3123H45.0893L45.0669 21.3503L54.7944 15.7629V15.7503L27.3969 0Z" fill="#37516A"/>
<path id="Vector_20" d="M9.70509 21.3126H27.3635V0.0195312L0 15.7505V15.7632L9.72747 21.3506L9.70509 21.3126Z" fill="#1D2540"/>
<path id="Vector_21" d="M17.0327 33.9333L9.72747 21.3511L0 15.7637V43.726L17.0327 33.9333Z" fill="#0B142B"/>
</g>
</g>
<defs>
<linearGradient id="paint0_linear_622_131996" x1="27.3633" y1="31.5" x2="27.3973" y2="31.5" gradientUnits="userSpaceOnUse">
<stop stop-color="#00A4E6"/>
<stop offset="1" stop-color="#0076BC"/>
</linearGradient>
<clipPath id="clip0_622_131996">
<rect width="140" height="63" fill="white"/>
</clipPath>
</defs>
</svg>
