<svg width="16" height="16" viewBox="0 0 16 16" fill="none" xmlns="http://www.w3.org/2000/svg">
<path d="M8.00065 1.33333C7.63265 1.33333 7.33398 1.632 7.33398 2V3.33333C7.33398 3.70133 7.63265 4 8.00065 4C8.36865 4 8.66731 3.70133 8.66731 3.33333V2C8.66731 1.632 8.36865 1.33333 8.00065 1.33333ZM3.75065 3.08333C3.57998 3.08333 3.42265 3.16134 3.29265 3.292C3.03199 3.552 3.03199 3.96933 3.29265 4.22933L4.18799 5.146C4.44865 5.406 4.88664 5.40666 5.14664 5.146C5.40664 4.88533 5.40731 4.44734 5.14664 4.18734L4.22998 3.292C4.09931 3.16134 3.92132 3.08333 3.75065 3.08333ZM12.23 3.104C12.0593 3.104 11.902 3.16134 11.7713 3.292L10.8546 4.18734C10.5946 4.448 10.5946 4.88533 10.8546 5.146C11.1153 5.406 11.5526 5.406 11.8133 5.146L12.7086 4.22933C12.9693 3.96866 12.9693 3.552 12.7086 3.292C12.5786 3.16134 12.4006 3.104 12.23 3.104ZM2.00065 7.33334C1.63265 7.33334 1.33398 7.632 1.33398 8C1.33398 8.368 1.63265 8.66667 2.00065 8.66667H3.33398C3.70198 8.66667 4.00065 8.368 4.00065 8C4.00065 7.632 3.70198 7.33334 3.33398 7.33334H2.00065ZM12.6673 7.33334C12.2993 7.33334 12.0006 7.632 12.0006 8C12.0006 8.368 12.2993 8.66667 12.6673 8.66667H14.0006C14.3686 8.66667 14.6673 8.368 14.6673 8C14.6673 7.632 14.3686 7.33334 14.0006 7.33334H12.6673ZM4.66732 10.6667C4.49665 10.666 4.31865 10.724 4.18799 10.854L3.27132 11.7707C3.01065 12.0307 3.01199 12.4473 3.27132 12.708C3.53132 12.9693 3.96865 12.968 4.22998 12.708L5.14664 11.8127C5.40731 11.5527 5.40598 11.1153 5.14664 10.854C5.01664 10.724 4.83798 10.6673 4.66732 10.6667ZM11.334 10.6667C11.1633 10.6667 10.9846 10.724 10.8546 10.854C10.5946 11.1147 10.594 11.5527 10.8546 11.8127L11.7926 12.7293C12.0526 12.9893 12.47 12.99 12.73 12.7293C12.99 12.4687 12.9906 12.0307 12.73 11.7707L11.8133 10.854C11.6826 10.724 11.5046 10.6667 11.334 10.6667ZM8.00065 12C7.63265 12 7.33398 12.2987 7.33398 12.6667V14C7.33398 14.368 7.63265 14.6667 8.00065 14.6667C8.36865 14.6667 8.66731 14.368 8.66731 14V12.6667C8.66731 12.2987 8.36865 12 8.00065 12Z" fill="#DFDFDF"/>
<path fill-rule="evenodd" clip-rule="evenodd" d="M7.99935 10C9.10392 10 9.99935 9.10457 9.99935 8C9.99935 6.89543 9.10392 6 7.99935 6C6.89478 6 5.99935 6.89543 5.99935 8C5.99935 9.10457 6.89478 10 7.99935 10ZM7.99935 11.3333C9.8403 11.3333 11.3327 9.84095 11.3327 8C11.3327 6.15905 9.8403 4.66667 7.99935 4.66667C6.1584 4.66667 4.66602 6.15905 4.66602 8C4.66602 9.84095 6.1584 11.3333 7.99935 11.3333Z" fill="#161616"/>
</svg>
