<svg width="582" height="257" viewBox="0 0 582 257" fill="none" xmlns="http://www.w3.org/2000/svg">
<path d="M201.203 231.817C201.11 230.878 200.71 230.149 200.004 229.63C199.299 229.11 198.341 228.85 197.131 228.85C196.309 228.85 195.615 228.966 195.049 229.199C194.483 229.424 194.048 229.738 193.746 230.141C193.451 230.545 193.304 231.002 193.304 231.514C193.288 231.941 193.377 232.313 193.571 232.631C193.773 232.949 194.048 233.224 194.397 233.457C194.746 233.682 195.15 233.88 195.607 234.05C196.065 234.213 196.553 234.353 197.073 234.469L199.213 234.981C200.253 235.213 201.207 235.524 202.075 235.911C202.944 236.299 203.696 236.776 204.332 237.342C204.968 237.908 205.46 238.575 205.809 239.343C206.166 240.111 206.348 240.991 206.356 241.984C206.348 243.442 205.976 244.706 205.239 245.776C204.51 246.839 203.456 247.665 202.075 248.254C200.702 248.836 199.047 249.127 197.108 249.127C195.184 249.127 193.509 248.832 192.082 248.242C190.663 247.653 189.554 246.781 188.755 245.625C187.964 244.462 187.549 243.023 187.511 241.309H192.385C192.439 242.108 192.668 242.775 193.071 243.31C193.482 243.837 194.029 244.237 194.711 244.508C195.402 244.772 196.181 244.904 197.05 244.904C197.903 244.904 198.643 244.78 199.272 244.531C199.907 244.283 200.4 243.938 200.749 243.496C201.098 243.054 201.272 242.546 201.272 241.972C201.272 241.437 201.113 240.987 200.795 240.623C200.485 240.258 200.028 239.948 199.423 239.692C198.826 239.436 198.093 239.204 197.224 238.994L194.63 238.343C192.621 237.854 191.035 237.09 189.872 236.051C188.709 235.012 188.131 233.612 188.139 231.851C188.131 230.409 188.515 229.149 189.29 228.071C190.074 226.993 191.148 226.151 192.513 225.546C193.878 224.941 195.429 224.639 197.166 224.639C198.934 224.639 200.478 224.941 201.796 225.546C203.122 226.151 204.154 226.993 204.89 228.071C205.627 229.149 206.007 230.397 206.03 231.817H201.203ZM209.651 255.49V230.921H214.537V233.922H214.758C214.975 233.441 215.289 232.953 215.7 232.456C216.119 231.952 216.662 231.534 217.329 231.2C218.004 230.859 218.841 230.688 219.842 230.688C221.145 230.688 222.347 231.029 223.448 231.712C224.549 232.387 225.429 233.406 226.089 234.771C226.748 236.129 227.077 237.831 227.077 239.878C227.077 241.871 226.756 243.554 226.112 244.927C225.476 246.292 224.607 247.327 223.506 248.033C222.413 248.731 221.187 249.08 219.83 249.08C218.868 249.08 218.05 248.921 217.375 248.603C216.708 248.285 216.162 247.886 215.735 247.405C215.309 246.916 214.983 246.424 214.758 245.927H214.607V255.49H209.651ZM214.502 239.855C214.502 240.917 214.649 241.844 214.944 242.635C215.239 243.426 215.665 244.043 216.224 244.485C216.782 244.919 217.461 245.136 218.26 245.136C219.066 245.136 219.749 244.915 220.307 244.473C220.865 244.024 221.288 243.403 221.575 242.612C221.87 241.813 222.017 240.894 222.017 239.855C222.017 238.824 221.874 237.916 221.587 237.133C221.3 236.35 220.877 235.737 220.319 235.295C219.76 234.853 219.074 234.632 218.26 234.632C217.453 234.632 216.771 234.845 216.212 235.272C215.662 235.698 215.239 236.303 214.944 237.086C214.649 237.87 214.502 238.793 214.502 239.855ZM238.524 249.138C236.686 249.138 235.104 248.766 233.778 248.021C232.46 247.269 231.444 246.207 230.73 244.834C230.017 243.453 229.66 241.821 229.66 239.936C229.66 238.098 230.017 236.485 230.73 235.097C231.444 233.709 232.448 232.627 233.743 231.851C235.046 231.076 236.574 230.688 238.327 230.688C239.505 230.688 240.603 230.878 241.619 231.258C242.642 231.63 243.534 232.193 244.294 232.945C245.062 233.697 245.659 234.643 246.086 235.783C246.512 236.916 246.726 238.242 246.726 239.762V241.123H231.638V238.052H242.061C242.061 237.338 241.906 236.706 241.595 236.156C241.285 235.605 240.855 235.175 240.304 234.864C239.761 234.546 239.129 234.387 238.408 234.387C237.656 234.387 236.989 234.562 236.407 234.911C235.833 235.252 235.383 235.714 235.058 236.295C234.732 236.869 234.565 237.509 234.557 238.215V241.135C234.557 242.019 234.72 242.783 235.046 243.426C235.38 244.07 235.849 244.566 236.454 244.915C237.059 245.264 237.776 245.439 238.606 245.439C239.156 245.439 239.66 245.361 240.118 245.206C240.576 245.051 240.967 244.818 241.293 244.508C241.619 244.198 241.867 243.818 242.038 243.368L246.621 243.671C246.388 244.772 245.911 245.734 245.19 246.556C244.477 247.37 243.554 248.006 242.421 248.463C241.297 248.913 239.998 249.138 238.524 249.138ZM258.033 249.138C256.203 249.138 254.628 248.75 253.31 247.975C251.999 247.192 250.991 246.106 250.285 244.718C249.587 243.329 249.238 241.732 249.238 239.925C249.238 238.095 249.591 236.489 250.297 235.109C251.01 233.721 252.023 232.639 253.333 231.863C254.644 231.08 256.203 230.688 258.01 230.688C259.568 230.688 260.933 230.971 262.104 231.537C263.276 232.104 264.202 232.898 264.885 233.922C265.567 234.946 265.943 236.148 266.013 237.528H261.337C261.205 236.637 260.856 235.919 260.29 235.376C259.731 234.826 258.998 234.55 258.091 234.55C257.323 234.55 256.652 234.76 256.079 235.179C255.512 235.59 255.07 236.191 254.752 236.982C254.434 237.773 254.275 238.73 254.275 239.855C254.275 240.995 254.431 241.964 254.741 242.763C255.059 243.562 255.505 244.171 256.079 244.59C256.652 245.008 257.323 245.218 258.091 245.218C258.657 245.218 259.165 245.102 259.615 244.869C260.073 244.636 260.449 244.299 260.743 243.857C261.046 243.407 261.244 242.868 261.337 242.24H266.013C265.936 243.605 265.563 244.807 264.896 245.846C264.237 246.877 263.326 247.684 262.163 248.266C260.999 248.847 259.623 249.138 258.033 249.138ZM269.186 248.789V230.921H274.142V248.789H269.186ZM271.676 228.617C270.939 228.617 270.307 228.373 269.779 227.885C269.26 227.388 269 226.795 269 226.105C269 225.422 269.26 224.837 269.779 224.348C270.307 223.852 270.939 223.604 271.676 223.604C272.412 223.604 273.041 223.852 273.56 224.348C274.087 224.837 274.351 225.422 274.351 226.105C274.351 226.795 274.087 227.388 273.56 227.885C273.041 228.373 272.412 228.617 271.676 228.617ZM283.207 249.127C282.067 249.127 281.051 248.929 280.159 248.533C279.267 248.13 278.561 247.537 278.042 246.753C277.53 245.962 277.274 244.977 277.274 243.799C277.274 242.806 277.456 241.972 277.821 241.298C278.185 240.623 278.682 240.08 279.31 239.669C279.938 239.258 280.651 238.948 281.45 238.738C282.257 238.529 283.102 238.381 283.986 238.296C285.025 238.188 285.863 238.087 286.499 237.994C287.135 237.893 287.596 237.746 287.883 237.552C288.17 237.358 288.314 237.071 288.314 236.691V236.621C288.314 235.884 288.081 235.314 287.616 234.911C287.158 234.508 286.507 234.306 285.661 234.306C284.77 234.306 284.06 234.504 283.533 234.899C283.005 235.287 282.656 235.776 282.486 236.365L277.902 235.993C278.135 234.907 278.592 233.969 279.275 233.178C279.957 232.379 280.838 231.766 281.916 231.34C283.001 230.905 284.258 230.688 285.685 230.688C286.677 230.688 287.627 230.805 288.535 231.037C289.45 231.27 290.26 231.63 290.966 232.119C291.68 232.608 292.242 233.236 292.653 234.004C293.064 234.764 293.269 235.675 293.269 236.737V248.789H288.57V246.311H288.43C288.143 246.87 287.759 247.362 287.278 247.789C286.798 248.208 286.22 248.537 285.545 248.778C284.87 249.01 284.091 249.127 283.207 249.127ZM284.626 245.706C285.355 245.706 285.999 245.563 286.557 245.276C287.116 244.981 287.554 244.586 287.872 244.089C288.19 243.593 288.349 243.031 288.349 242.403V240.506C288.194 240.607 287.98 240.7 287.709 240.786C287.445 240.863 287.147 240.937 286.813 241.007C286.48 241.069 286.146 241.127 285.813 241.181C285.479 241.228 285.177 241.27 284.905 241.309C284.324 241.394 283.816 241.53 283.381 241.716C282.947 241.902 282.61 242.154 282.369 242.472C282.129 242.783 282.009 243.17 282.009 243.636C282.009 244.31 282.253 244.826 282.741 245.183C283.238 245.532 283.866 245.706 284.626 245.706ZM302.07 224.965V248.789H297.114V224.965H302.07ZM335.608 236.877C335.608 239.475 335.115 241.685 334.13 243.508C333.153 245.33 331.819 246.722 330.129 247.684C328.446 248.638 326.553 249.115 324.452 249.115C322.335 249.115 320.434 248.634 318.752 247.672C317.069 246.711 315.739 245.319 314.761 243.496C313.784 241.674 313.296 239.467 313.296 236.877C313.296 234.279 313.784 232.069 314.761 230.246C315.739 228.424 317.069 227.035 318.752 226.081C320.434 225.12 322.335 224.639 324.452 224.639C326.553 224.639 328.446 225.12 330.129 226.081C331.819 227.035 333.153 228.424 334.13 230.246C335.115 232.069 335.608 234.279 335.608 236.877ZM330.501 236.877C330.501 235.194 330.249 233.775 329.745 232.619C329.248 231.464 328.547 230.587 327.639 229.99C326.732 229.393 325.669 229.094 324.452 229.094C323.234 229.094 322.172 229.393 321.264 229.99C320.357 230.587 319.651 231.464 319.147 232.619C318.651 233.775 318.403 235.194 318.403 236.877C318.403 238.56 318.651 239.979 319.147 241.135C319.651 242.29 320.357 243.167 321.264 243.764C322.172 244.361 323.234 244.659 324.452 244.659C325.669 244.659 326.732 244.361 327.639 243.764C328.547 243.167 329.248 242.29 329.745 241.135C330.249 239.979 330.501 238.56 330.501 236.877ZM348.855 230.921V234.643H337.827V230.921H348.855ZM340.351 248.789V229.63C340.351 228.334 340.603 227.26 341.107 226.407C341.619 225.554 342.317 224.914 343.201 224.488C344.085 224.061 345.09 223.848 346.214 223.848C346.974 223.848 347.668 223.906 348.297 224.022C348.933 224.139 349.406 224.243 349.716 224.337L348.832 228.059C348.638 227.997 348.397 227.939 348.11 227.885C347.831 227.83 347.544 227.803 347.25 227.803C346.521 227.803 346.013 227.974 345.726 228.315C345.439 228.649 345.295 229.118 345.295 229.723V248.789H340.351ZM361.491 230.921V234.643H350.463V230.921H361.491ZM352.988 248.789V229.63C352.988 228.334 353.24 227.26 353.744 226.407C354.256 225.554 354.954 224.914 355.838 224.488C356.722 224.061 357.726 223.848 358.851 223.848C359.611 223.848 360.305 223.906 360.933 224.022C361.569 224.139 362.042 224.243 362.352 224.337L361.468 228.059C361.274 227.997 361.034 227.939 360.747 227.885C360.468 227.83 360.181 227.803 359.886 227.803C359.157 227.803 358.649 227.974 358.362 228.315C358.075 228.649 357.932 229.118 357.932 229.723V248.789H352.988ZM372.022 249.138C370.184 249.138 368.602 248.766 367.276 248.021C365.957 247.269 364.942 246.207 364.228 244.834C363.515 243.453 363.158 241.821 363.158 239.936C363.158 238.098 363.515 236.485 364.228 235.097C364.942 233.709 365.946 232.627 367.241 231.851C368.544 231.076 370.072 230.688 371.824 230.688C373.003 230.688 374.101 230.878 375.117 231.258C376.14 231.63 377.032 232.193 377.792 232.945C378.56 233.697 379.157 234.643 379.584 235.783C380.01 236.916 380.223 238.242 380.223 239.762V241.123H365.135V238.052H375.559C375.559 237.338 375.404 236.706 375.093 236.156C374.783 235.605 374.353 235.175 373.802 234.864C373.259 234.546 372.627 234.387 371.906 234.387C371.154 234.387 370.487 234.562 369.905 234.911C369.331 235.252 368.881 235.714 368.556 236.295C368.23 236.869 368.063 237.509 368.055 238.215V241.135C368.055 242.019 368.218 242.783 368.544 243.426C368.877 244.07 369.347 244.566 369.951 244.915C370.556 245.264 371.274 245.439 372.104 245.439C372.654 245.439 373.158 245.361 373.616 245.206C374.073 245.051 374.465 244.818 374.791 244.508C375.117 244.198 375.365 243.818 375.535 243.368L380.119 243.671C379.886 244.772 379.409 245.734 378.688 246.556C377.974 247.37 377.052 248.006 375.919 248.463C374.795 248.913 373.496 249.138 372.022 249.138ZM383.457 248.789V230.921H388.262V234.038H388.448C388.774 232.929 389.32 232.092 390.088 231.526C390.856 230.952 391.74 230.665 392.741 230.665C392.989 230.665 393.256 230.68 393.543 230.711C393.83 230.742 394.082 230.785 394.299 230.839V235.237C394.067 235.167 393.745 235.105 393.334 235.051C392.923 234.996 392.547 234.969 392.205 234.969C391.476 234.969 390.825 235.128 390.251 235.446C389.685 235.756 389.235 236.191 388.902 236.749C388.576 237.307 388.413 237.951 388.413 238.68V248.789H383.457Z" fill="white"/>
<path fill-rule="evenodd" clip-rule="evenodd" d="M240.469 152.463C240.832 153.105 241.048 153.828 241.101 154.575C241.153 155.322 241.04 156.072 240.772 156.764C240.419 158.001 239.764 160.017 238.857 162.785C237.95 165.554 236.79 168.672 235.43 172.112C234.069 175.553 232.557 179.047 230.894 182.649C229.338 185.988 227.588 189.22 225.653 192.326C224.077 194.885 222.148 197.178 219.933 199.126C219.152 199.894 218.218 200.462 217.201 200.788C216.184 201.114 215.11 201.189 214.062 201.008C212.883 200.567 211.809 199.857 210.912 198.929C210.016 198.001 209.32 196.876 208.871 195.632C207.357 191.875 206.38 187.898 205.974 183.832C205.231 176.371 205.231 168.848 205.974 161.387C206.528 153.619 207.612 145.26 209.149 135.879C210.686 126.498 212.575 117.439 214.692 108.274C216.809 99.1077 219.152 90.3719 221.621 81.9586C224.091 73.5454 226.51 66.2879 228.828 60.0788C231.233 53.4763 234.106 47.0785 237.42 40.9406C238.731 38.7096 239.94 36.5593 241.477 34.4895C242.768 32.6121 244.218 30.8664 245.811 29.2749C247.121 27.9806 248.664 26.9838 250.347 26.3451C251.088 26.0782 251.871 25.974 252.651 26.0386C253.43 26.1033 254.189 26.3355 254.882 26.7214C256.621 27.7159 257.604 30.3232 257.881 34.5702C258.063 39.8851 257.682 45.205 256.747 50.429C255.544 57.5904 253.954 64.6715 251.985 71.6369C249.762 79.6868 247.13 87.6012 244.098 95.3446C240.973 103.355 237.496 111.159 233.666 118.757C230.029 125.951 225.813 132.795 221.067 139.212C219.589 145.824 218.312 152.096 217.237 158.027C216.269 163.297 215.563 168.618 215.12 173.967C214.769 177.717 214.845 181.499 215.347 185.229C215.851 188.079 216.909 189.638 218.547 189.88C220.185 190.122 221.395 188.536 223.335 185.283C225.458 181.594 227.385 177.78 229.105 173.859C231.02 169.523 232.784 165.231 234.397 160.984C236.009 156.737 237.118 153.807 237.748 152.195C238.378 150.582 238.932 150.662 239.587 151.63C239.712 151.74 239.822 151.866 239.915 152.006C240.003 152.143 240.105 152.269 240.217 152.383L240.469 152.463ZM241.024 68.4652C240.217 70.9112 239.159 74.0561 237.899 77.9267C236.639 81.7974 235.379 86.1787 233.868 91.0976C232.356 96.0166 230.97 101.312 229.408 106.983C227.845 112.655 226.333 118.38 224.847 124.159C229.953 114.902 234.295 105.189 237.824 95.1296C241.225 85.3992 243.972 76.529 246.038 68.5996C248.301 59.7498 250.118 50.7771 251.481 41.7201C250.347 44.1124 249.188 46.8541 247.978 49.9452L244.577 58.6273C243.216 61.9603 242.032 65.1321 240.898 68.4652H241.024Z" fill="white"/>
<path fill-rule="evenodd" clip-rule="evenodd" d="M278.871 135.827C278.961 135.419 279.147 135.042 279.412 134.732C279.676 134.421 280.01 134.188 280.383 134.053C281.03 133.906 281.7 133.906 282.348 134.053C282.976 134.204 283.562 134.508 284.061 134.94C284.259 135.086 284.423 135.278 284.541 135.502C284.659 135.725 284.727 135.974 284.742 136.23C282.572 146.03 277.958 155.021 271.387 162.25C265.39 168.379 258.923 170.798 251.985 169.508C249.956 169.207 248.01 168.453 246.273 167.295C244.537 166.137 243.048 164.601 241.906 162.788C239.709 159.056 238.386 154.815 238.051 150.423C237.659 145.551 237.991 140.643 239.033 135.881C239.995 131.243 241.44 126.735 243.342 122.441C245.756 117.091 249.05 112.248 253.068 108.14C254.827 106.355 256.918 104.984 259.206 104.118C261.494 103.252 263.927 102.91 266.348 103.114C267.614 103.103 268.858 103.47 269.94 104.173C271.022 104.876 271.898 105.887 272.471 107.092C273.708 109.778 274.272 112.76 274.108 115.748C273.974 119.206 273.319 122.618 272.168 125.855C271.068 129.097 269.429 132.102 267.33 134.725C265.518 137.043 263.052 138.674 260.3 139.375C258.837 139.654 257.333 139.555 255.912 139.088C254.492 138.62 253.197 137.797 252.136 136.687C251.035 138.739 250.188 140.935 249.616 143.219C248.969 145.73 248.68 148.331 248.76 150.934C248.809 153.357 249.396 155.734 250.473 157.869C250.987 158.856 251.724 159.69 252.618 160.296C253.511 160.901 254.532 161.259 255.588 161.337C258.948 161.946 262.912 160.028 267.481 155.584C272.724 150.057 276.67 143.288 278.997 135.827H278.871ZM266.096 112.307C265.264 111.823 264.13 112.307 262.744 113.785C261.258 115.409 259.955 117.213 258.864 119.161C257.718 121.129 256.732 123.197 255.916 125.344C255.16 127.36 255.059 128.704 255.613 129.349C255.881 129.791 256.229 130.172 256.636 130.469C257.043 130.766 257.502 130.974 257.986 131.079C258.47 131.184 258.968 131.185 259.452 131.082C259.936 130.979 260.396 130.773 260.804 130.478C262.72 129.126 264.281 127.276 265.34 125.102C266.529 122.787 267.29 120.25 267.582 117.629C267.859 114.968 267.381 113.221 266.096 112.307Z" fill="white"/>
<path fill-rule="evenodd" clip-rule="evenodd" d="M351.164 144.214C351.561 144.721 351.831 145.327 351.95 145.976C352.069 146.624 352.033 147.294 351.844 147.924C351.617 148.864 351.265 150.128 350.861 151.687C350.458 153.246 349.904 155.02 349.274 157.063C348.644 159.106 347.888 161.095 347.031 163.219C346.175 165.342 345.293 167.439 344.31 169.455C341.541 175.729 338.296 181.753 334.609 187.465C333.122 189.696 331.56 191.819 329.947 193.862C328.431 195.755 326.743 197.484 324.908 199.023C323.379 200.325 321.682 201.385 319.868 202.168C318.264 202.851 316.494 202.955 314.829 202.464C313.399 202.013 312.101 201.178 311.06 200.039C310.019 198.9 309.269 197.495 308.882 195.959C307.669 192.131 306.965 188.141 306.791 184.105C306.584 179.783 306.694 175.451 307.118 171.148C307.521 166.847 307.95 163.541 308.353 161.256C309.411 155.88 310.629 150.773 312.007 145.934C313.367 141.015 314.652 136.607 315.837 132.656C316.837 129.407 317.678 126.105 318.357 122.764C318.964 121.019 318.91 119.09 318.205 117.388C317.977 117.081 317.653 116.872 317.293 116.798C316.932 116.724 316.559 116.79 316.24 116.984C315.444 117.406 314.671 117.873 313.922 118.382C312.913 119.124 312.02 120.031 311.276 121.07C308.847 124.351 306.689 127.849 304.825 131.527C302.706 135.596 300.78 139.777 299.055 144.053C297.316 148.327 295.779 152.413 294.393 156.364C293.008 160.315 291.874 163.568 291.118 166.202C291.118 166.444 290.79 166.847 290.463 167.439C290.106 168.07 289.683 168.656 289.203 169.186C288.621 169.805 287.926 170.29 287.162 170.611C286.198 170.998 285.164 171.145 284.138 171.041C282.516 171.069 280.949 170.412 279.779 169.213C278.986 168.392 278.269 167.492 277.637 166.525C276.073 162.618 275.4 158.371 275.672 154.133C275.817 149.281 276.357 144.451 277.284 139.698C278.225 134.931 279.283 130.451 280.459 126.258C281.643 122.145 282.601 119.054 283.281 117.038C283.473 116.384 283.86 115.815 284.383 115.417C284.906 115.019 285.537 114.814 286.179 114.834C287.54 114.834 289.178 115.13 291.219 115.452C293.023 115.727 294.746 116.435 296.258 117.522C296.987 118.026 297.534 118.779 297.809 119.659C298.083 120.538 298.07 121.491 297.77 122.36C297.316 123.678 296.762 125.425 296.107 127.575C295.452 129.726 294.771 132.145 294.041 134.833C293.31 137.521 292.63 140.397 291.924 143.381C291.219 146.365 290.664 149.402 290.211 152.44C291.588 148.372 293.344 143.694 295.477 138.408C297.534 133.262 299.942 128.285 302.684 123.516C305.063 119.249 307.97 115.344 311.326 111.904C312.538 110.506 314.025 109.412 315.681 108.701C317.337 107.989 319.12 107.679 320.901 107.791C323.39 107.913 325.753 108.992 327.554 110.829C329.087 112.488 330.19 114.545 330.754 116.796C331.38 119.348 331.66 121.982 331.585 124.618C331.536 127.484 331.283 130.341 330.829 133.166C330.393 136.016 329.863 138.757 329.242 141.392C328.62 144.026 328.116 146.311 327.73 148.246C325.387 155.88 323.497 162.842 322.111 169.105C321.489 171.74 320.91 174.347 320.372 176.927C319.868 179.616 319.465 181.9 319.213 184.078C318.974 185.93 318.898 187.802 318.986 189.669C319.112 191.201 319.44 192.169 320.02 192.545C320.599 192.921 322.061 192.841 323.648 191.416C325.654 189.503 327.455 187.357 329.015 185.018C331.228 181.822 333.281 178.502 335.163 175.073C337.246 171.31 339.279 167.421 341.261 163.407C342.96 159.919 344.466 156.329 345.772 152.655C347.132 148.838 348.09 146.042 348.694 144.268C349.123 143.193 349.728 142.978 350.458 143.65C350.67 143.869 350.907 144.058 351.164 144.214Z" fill="white"/>
<path fill-rule="evenodd" clip-rule="evenodd" d="M363.94 105.156C362.781 110.532 361.655 116.177 360.563 122.09C359.48 128.004 358.497 133.891 357.615 139.697C356.733 145.502 356.028 151.04 355.499 156.254C355.016 160.859 354.781 165.49 354.793 170.124C354.733 173.398 355.106 176.665 355.902 179.827C356.582 182.3 357.766 183.591 359.43 183.698C360.689 183.698 362.126 182.247 363.738 179.344C365.518 175.985 367.117 172.521 368.526 168.968C370.088 165.071 371.474 161.2 372.709 157.383C373.943 153.566 374.775 150.932 375.228 149.481C375.682 148.029 376.262 148.19 377.017 148.862C377.228 149.091 377.465 149.29 377.723 149.454C378.11 149.977 378.374 150.592 378.493 151.247C378.611 151.902 378.581 152.577 378.403 153.217C378.151 154.319 377.698 156.093 377.017 158.593C376.337 161.093 375.506 163.969 374.498 166.952C373.49 169.936 372.28 173.215 370.92 176.468C369.66 179.522 368.169 182.462 366.46 185.257C365.076 187.62 363.378 189.757 361.42 191.601C360.681 192.351 359.798 192.922 358.833 193.275C357.867 193.627 356.842 193.753 355.826 193.644C354.67 193.375 353.576 192.861 352.611 192.131C351.645 191.401 350.828 190.471 350.207 189.397C348.427 186.262 347.109 182.853 346.302 179.29C344.854 172.875 344.168 166.292 344.26 159.695C344.188 151.388 344.592 143.085 345.47 134.831C346.377 125.656 347.603 116.491 349.149 107.334L350.661 99.6193C351.87 93.3833 353.18 87.5236 354.415 82.0401C355.65 76.5567 356.935 71.7184 358.321 67.4715C358.484 66.7974 358.863 66.2054 359.392 65.7979C359.921 65.3905 360.567 65.1933 361.219 65.2405C362.566 65.3796 363.894 65.6863 365.175 66.1544C366.952 66.8375 368.497 68.0734 369.609 69.7025C370.351 70.5083 370.836 71.5428 370.995 72.6592C371.179 73.8018 371.092 74.9751 370.743 76.0729C370.139 78.1426 369.408 80.9918 368.526 84.6474L367.064 91.0179L363.94 105.156Z" fill="white"/>
<path fill-rule="evenodd" clip-rule="evenodd" d="M480.705 68.5187C481.659 69.8916 482.408 71.4151 482.922 73.0342C483.307 74.4468 483.461 75.9199 483.375 77.3883C483.214 79.1358 482.584 80.7968 481.561 82.1725C480.157 83.6866 478.427 84.8122 476.522 85.4515C474.092 86.3313 471.519 86.6698 468.962 86.446C467.836 86.4426 466.721 86.1957 465.687 85.7203C464.758 85.3582 463.903 84.8109 463.167 84.1077C462.268 83.1538 461.761 81.8586 461.756 80.5061C461.403 76.4476 458.505 74.4049 453.088 74.2974C445.551 74.4504 438.047 75.4048 430.687 77.1464C421.196 79.1712 409.975 81.8589 397.023 85.2096C384.071 88.5604 369.961 91.6782 354.691 94.563L333.827 98.0033C324.647 99.4153 315.339 99.6319 306.11 98.6484C299.696 97.9137 293.411 96.2218 287.438 93.6223C283.13 91.7346 279.235 88.9161 275.999 85.344C273.576 82.6251 271.599 79.4904 270.153 76.0713C269.371 74.1243 269.076 71.9944 269.296 69.8895C269.518 67.9009 270.174 65.9954 271.211 64.3259C272.292 62.6066 273.766 61.2097 275.495 60.2674C277.418 59.2223 279.535 58.6441 281.693 58.5741H283.759C284.904 58.5544 286.009 59.0181 286.834 59.8642C287.222 60.2426 287.516 60.7188 287.687 61.2494C287.859 61.7799 287.903 62.3478 287.816 62.9014C287.5 66.0863 287.88 69.3061 288.925 72.3085C290.071 75.5979 292.03 78.4954 294.594 80.6942C297.82 83.433 301.494 85.5107 305.429 86.8223C310.885 88.6398 316.571 89.5464 322.287 89.51C324.227 89.51 326.318 89.51 328.586 89.295C330.854 89.08 333.147 88.8919 335.49 88.6231L356.556 85.1828C363.561 83.6776 370.767 81.9306 378.125 79.9685C385.482 78.0065 392.765 75.9638 399.946 73.8405L420.658 67.8199C427.361 65.8579 433.383 64.084 438.75 62.4444C445.254 60.4766 451.999 59.5705 458.757 59.7567C463.159 59.9598 467.515 60.7914 471.709 62.2294C475.137 63.5261 478.222 65.6832 480.705 68.5187Z" fill="white"/>
<path fill-rule="evenodd" clip-rule="evenodd" d="M406.02 137.87C406.379 138.336 406.629 138.886 406.752 139.474C406.874 140.062 406.865 140.673 406.726 141.257C406.452 143.075 406.065 144.871 405.567 146.633C404.962 148.891 404.206 151.311 403.299 153.945C402.335 156.638 401.242 159.275 400.023 161.848C398.844 164.369 397.453 166.772 395.866 169.025C394.462 171.02 392.759 172.755 390.826 174.159C389.221 175.388 387.247 175.943 385.283 175.718C383.734 175.601 382.236 175.081 380.918 174.205C379.601 173.329 378.504 172.123 377.723 170.691C375.725 166.976 374.609 162.795 374.473 158.514C374.156 152.451 374.519 146.369 375.556 140.397C376.807 132.739 378.593 125.192 380.898 117.818C381.276 116.044 382.234 115.318 383.796 115.64C385.436 115.799 387.056 116.132 388.634 116.635C390.482 117.197 392.199 118.168 393.673 119.484C394.238 120.093 394.653 120.841 394.883 121.662C395.158 122.534 395.158 123.477 394.883 124.35C394.505 125.909 393.976 127.978 393.245 130.613C392.514 133.247 391.809 135.989 391.128 139.187C390.448 142.386 389.743 145.37 389.113 148.515C388.483 151.66 387.954 154.536 387.626 157.144C387.305 159.294 387.237 161.48 387.424 163.649C387.651 165.396 388.18 166.337 389.037 166.525C390.297 166.812 391.607 165.915 392.968 163.837C394.538 161.44 395.896 158.894 397.025 156.23C398.36 153.165 399.544 149.967 400.754 146.58C401.963 143.193 402.77 140.29 403.4 137.87C403.432 137.685 403.513 137.513 403.634 137.375C403.754 137.237 403.909 137.139 404.08 137.091C404.266 137.04 404.46 137.036 404.648 137.078C404.836 137.12 405.012 137.207 405.164 137.333C405.38 137.539 405.616 137.719 405.869 137.87H406.02ZM390.02 114.027C388.605 113.772 387.291 113.08 386.24 112.038C385.797 111.661 385.46 111.159 385.268 110.59C385.075 110.021 385.034 109.406 385.148 108.813C385.263 108.22 385.53 107.673 385.918 107.232C386.306 106.79 386.801 106.472 387.349 106.313C388.673 105.838 390.095 105.763 391.456 106.098C392.821 106.371 394.082 107.062 395.085 108.087C395.515 108.462 395.842 108.956 396.028 109.515C396.215 110.075 396.254 110.677 396.143 111.259C396.022 111.846 395.758 112.389 395.378 112.833C394.997 113.277 394.514 113.605 393.976 113.786C392.707 114.275 391.332 114.359 390.02 114.027Z" fill="white"/>
<path fill-rule="evenodd" clip-rule="evenodd" d="M475.466 143.461C475.855 144.01 476.119 144.648 476.237 145.325C476.355 146.001 476.324 146.698 476.146 147.359C475.894 148.38 475.541 149.698 475.138 151.364C474.735 153.031 474.156 154.859 473.526 156.928C472.896 158.998 472.14 161.175 471.283 163.433C470.426 165.691 469.519 167.896 468.536 170.019C465.761 176.632 462.492 182.997 458.76 189.05C457.273 191.389 455.736 193.647 454.098 195.797C452.578 197.752 450.891 199.552 449.059 201.173C447.555 202.562 445.854 203.687 444.019 204.507C442.426 205.236 440.647 205.359 438.98 204.856C437.524 204.351 436.215 203.456 435.178 202.255C434.141 201.055 433.411 199.59 433.058 198.002C431.841 193.964 431.145 189.767 430.992 185.529C430.794 180.965 430.912 176.392 431.345 171.847C431.773 167.304 432.201 163.783 432.63 161.417C433.688 155.826 434.914 150.45 436.309 145.289C437.703 140.128 438.996 135.451 440.189 131.258C441.373 127.091 442.23 123.624 442.709 120.828C443.328 119.012 443.274 117.012 442.558 115.237C442.348 114.913 442.029 114.688 441.668 114.608C441.307 114.528 440.931 114.599 440.617 114.807C439.805 115.241 439.022 115.735 438.274 116.285C437.264 117.12 436.372 118.107 435.628 119.215C433.184 122.699 431.018 126.394 429.152 130.263C427.011 134.564 425.096 138.972 423.332 143.488C421.568 148.004 420.031 152.332 418.645 156.471C417.259 160.611 416.125 164.105 415.319 166.874C415.319 167.116 414.991 167.546 414.689 168.191C414.333 168.855 413.901 169.469 413.404 170.019C412.843 170.684 412.144 171.2 411.363 171.524C410.406 171.944 409.369 172.11 408.339 172.008C407.528 172.011 406.725 171.841 405.977 171.509C405.228 171.177 404.55 170.688 403.98 170.073C403.196 169.164 402.487 168.184 401.863 167.143C400.309 162.998 399.646 158.534 399.923 154.079C400.074 148.967 400.631 143.877 401.586 138.865C402.519 133.838 403.602 129.161 404.786 124.806C405.971 120.452 406.953 117.199 407.634 115.049C407.815 114.379 408.196 113.791 408.719 113.374C409.242 112.957 409.878 112.733 410.531 112.737C411.892 112.737 413.555 113.033 415.571 113.355C417.428 113.645 419.196 114.39 420.736 115.533C421.471 116.096 422.014 116.899 422.282 117.82C422.551 118.742 422.53 119.732 422.223 120.64C421.744 122.011 421.19 123.839 420.535 126.016C419.88 128.193 419.199 130.854 418.469 133.677C417.738 136.499 417.007 139.537 416.327 142.709C415.647 145.881 415.042 149.052 414.588 152.251C415.974 147.95 417.738 143.031 419.88 137.44C421.948 132.022 424.373 126.768 427.137 121.715C429.512 117.244 432.427 113.123 435.805 109.458C436.981 107.995 438.455 106.84 440.115 106.081C441.775 105.321 443.576 104.977 445.38 105.076C447.841 105.209 450.172 106.299 451.931 108.141C453.471 109.917 454.564 112.081 455.106 114.431C455.732 117.129 456.012 119.905 455.938 122.683C455.866 125.709 455.605 128.726 455.156 131.715C454.728 134.698 454.174 137.601 453.544 140.37C452.914 143.139 452.41 145.585 452.007 147.601C449.638 155.701 447.748 163.039 446.337 169.616C445.707 172.304 445.103 175.153 444.573 177.895C444.044 180.637 443.641 183.271 443.389 185.422C443.124 187.37 443.048 189.343 443.162 191.308C443.162 192.921 443.616 193.996 444.17 194.346C444.725 194.695 446.211 194.641 447.799 193.136C449.833 191.099 451.65 188.827 453.216 186.362C455.215 183.352 457.273 179.857 459.39 175.879C461.506 171.901 463.539 167.788 465.488 163.541C467.217 159.881 468.732 156.111 470.023 152.251C471.417 148.237 472.4 145.28 472.971 143.381C473.425 142.252 474.03 142.037 474.76 142.736C474.961 143.013 475.199 143.258 475.466 143.461Z" fill="white"/>
<path fill-rule="evenodd" clip-rule="evenodd" d="M520.168 115.532C520.495 115.942 520.729 116.427 520.851 116.949C520.974 117.472 520.981 118.017 520.873 118.543C520.751 119.043 520.684 119.557 520.672 120.075C520.672 120.747 520.672 121.472 520.445 122.306C520.097 124.237 519.625 126.141 519.034 128.004C518.671 128.924 518.258 129.821 517.799 130.691C517.387 131.451 516.849 132.125 516.212 132.68L515.431 133.487L515.002 133.675C514.843 133.711 514.689 133.774 514.549 133.863C514.298 133.976 514.028 134.034 513.755 134.034C513.482 134.034 513.213 133.976 512.961 133.863C512.825 133.843 512.695 133.788 512.583 133.702C512.481 133.616 512.359 133.561 512.231 133.54C512.086 133.472 511.963 133.36 511.878 133.218L511.475 132.707C511.358 132.553 511.265 132.381 511.198 132.196C510.973 131.802 510.827 131.363 510.769 130.906C510.839 129.993 511.008 129.091 511.273 128.219C511.484 127.637 511.636 127.033 511.727 126.418C511.727 125.773 512.004 125.074 512.205 124.348C512.533 122.87 512.835 121.419 513.113 120.021C513.319 118.882 513.649 117.773 514.095 116.715C514.098 116.663 514.11 116.613 514.132 116.567C514.154 116.52 514.184 116.479 514.221 116.446C514.289 116.369 514.341 116.278 514.372 116.178C514.372 116.178 514.372 115.936 514.624 115.774C514.875 115.422 515.199 115.136 515.57 114.94C515.942 114.744 516.352 114.643 516.766 114.645C517.36 114.529 517.97 114.548 518.556 114.701C519.142 114.854 519.691 115.137 520.168 115.532Z" fill="white"/>
<path fill-rule="evenodd" clip-rule="evenodd" d="M575.804 91.0988C562.701 90.7494 558.544 104.243 561.29 107.764C562.821 109.577 563.988 111.704 564.721 114.015C565.453 116.326 565.735 118.772 565.549 121.204C563.886 138.622 552.345 146.578 541.888 150.771C541.888 149.266 541.888 148.083 541.888 148.083C541.384 131.149 541.737 123.408 549.624 120.854C551.06 120.397 550.783 118.005 549.624 116.124C545.265 108.275 538.789 108.06 533.699 112.522C523.62 121.204 524.728 142.089 526.139 155.529C526.204 155.774 526.2 156.035 526.129 156.278C526.057 156.521 525.921 156.737 525.736 156.9C517.094 162.625 507.518 181.763 507.594 195.714C507.594 212.218 521.705 217.513 532.363 207.89C541.787 199.369 544.433 177.328 541.787 159.507C541.787 159.05 541.787 158.513 541.787 157.894C585.682 143.084 587.496 91.4214 575.804 91.0988ZM521.352 196.063C515.96 196.896 517.144 186.387 520.319 177.489C521.998 172.992 524.217 168.745 526.921 164.856C527.097 167.84 530.927 194.585 521.352 196.063Z" fill="white"/>
<path fill-rule="evenodd" clip-rule="evenodd" d="M506.787 145.773C506.872 145.365 507.057 144.989 507.322 144.682C507.588 144.375 507.925 144.149 508.299 144.026C508.946 143.864 509.618 143.864 510.265 144.026C510.893 144.149 511.478 144.456 511.953 144.913C512.161 145.049 512.334 145.239 512.457 145.464C512.58 145.689 512.649 145.943 512.658 146.203C510.481 155.998 505.857 164.98 499.278 172.196C493.281 178.325 486.822 180.753 479.901 179.481C477.857 179.169 475.898 178.4 474.152 177.223C472.406 176.046 470.913 174.489 469.772 172.653C467.564 168.929 466.249 164.682 465.942 160.288C465.543 155.417 465.866 150.51 466.899 145.746C467.88 141.111 469.334 136.604 471.233 132.306C473.685 126.968 477.004 122.136 481.035 118.032C482.793 116.253 484.88 114.886 487.163 114.021C489.446 113.155 491.873 112.809 494.289 113.006C495.559 112.996 496.806 113.363 497.892 114.066C498.977 114.768 499.859 115.778 500.437 116.984C501.66 119.674 502.216 122.655 502.05 125.64C501.928 129.108 501.272 132.532 500.11 135.773C499.029 139.018 497.388 142.017 495.272 144.617C493.458 146.926 491.006 148.563 488.267 149.294C486.804 149.568 485.301 149.468 483.881 149C482.462 148.533 481.167 147.712 480.103 146.606C479.006 148.651 478.159 150.837 477.583 153.111C476.945 155.624 476.665 158.224 476.752 160.826C476.79 163.26 477.377 165.648 478.465 167.788C478.939 168.757 479.628 169.589 480.471 170.212C481.313 170.835 482.285 171.23 483.303 171.363C486.663 171.99 490.627 170.073 495.196 165.611C500.468 160.062 504.44 153.266 506.787 145.773ZM494.012 122.253C493.155 121.796 492.047 122.253 490.661 123.758C489.16 125.368 487.856 127.174 486.78 129.134C485.634 131.101 484.648 133.17 483.832 135.316C483.076 137.332 482.95 138.676 483.505 139.348C483.772 139.792 484.12 140.173 484.528 140.469C484.936 140.766 485.396 140.972 485.881 141.075C486.365 141.178 486.864 141.175 487.348 141.068C487.831 140.961 488.289 140.751 488.695 140.451C490.617 139.106 492.18 137.254 493.231 135.075C494.427 132.773 495.189 130.243 495.474 127.629C495.763 126.667 495.779 125.635 495.519 124.664C495.259 123.693 494.734 122.825 494.012 122.172V122.253Z" fill="white"/>
<path fill-rule="evenodd" clip-rule="evenodd" d="M158.777 182.303C157 181.715 155.372 180.704 154.015 179.347C152.621 178.103 151.531 176.516 150.84 174.723C149.95 170.999 149.898 167.103 150.689 163.353C151.502 158.097 152.793 152.939 154.544 147.95C156.319 142.814 158.555 137.872 161.221 133.193C163.272 129.324 165.991 125.903 169.234 123.113C170.983 121.927 172.922 121.098 174.954 120.667C177.177 120.135 179.458 119.936 181.732 120.076C183.959 120.221 186.16 120.663 188.283 121.393C190.152 121.97 191.875 122.99 193.323 124.376C195.641 127.064 196.574 129.457 196.145 131.5C195.804 133.388 194.793 135.063 193.323 136.177C192.059 137.201 190.525 137.775 188.939 137.817C187.477 137.817 186.847 137.145 187.074 135.774C188.132 131.527 187.553 129.269 185.335 129.027C183.118 128.785 180.296 130.908 177.045 135.424C173.091 140.669 169.811 146.455 167.294 152.628C165.082 157.872 163.393 163.35 162.254 168.971C161.752 170.65 161.752 172.453 162.254 174.132C162.708 174.858 163.363 174.75 164.245 173.809C165.325 172.463 166.263 170.993 167.042 169.428C168.235 167.242 169.469 164.769 170.746 162.009C172.031 159.321 173.266 156.364 174.626 153.407L177.877 145.773C178.302 144.419 178.985 143.174 179.883 142.115C180.78 141.056 181.873 140.206 183.093 139.618C185.35 139.005 187.715 139.005 189.972 139.618C191.11 139.9 192.145 140.536 192.945 141.445C193.508 142.212 193.81 143.16 193.802 144.133C193.822 145.217 193.677 146.298 193.373 147.332C193.071 148.407 192.819 149.509 192.592 150.692C192.391 151.445 192.114 152.681 191.786 154.321C191.458 155.961 191.156 157.816 190.879 159.858C190.602 161.901 190.35 163.998 190.073 166.148C189.81 167.998 189.709 169.87 189.77 171.74C189.758 173.168 190.116 174.573 190.803 175.798C195.465 182.895 206.35 157.762 207.812 150.612C208.19 148.73 211.239 150.853 210.609 153.622C209.842 157.275 208.84 160.868 207.61 164.374C206.301 167.859 204.645 171.185 202.671 174.293C200.976 177.109 198.856 179.607 196.397 181.685C194.346 183.549 191.706 184.51 189.014 184.373C186.833 184.315 184.729 183.504 183.017 182.062C181.434 180.689 180.174 178.94 179.338 176.954C178.469 174.811 177.843 172.563 177.474 170.261C177.038 167.995 176.71 165.708 176.491 163.407C175.584 164.939 173.971 167.143 171.955 170.046C169.94 172.949 167.999 175.422 166.412 177.492C165.429 178.928 164.248 180.196 162.909 181.255C162.367 181.8 161.7 182.184 160.974 182.368C160.249 182.552 159.492 182.53 158.777 182.303Z" fill="white"/>
<path fill-rule="evenodd" clip-rule="evenodd" d="M116.04 40.0798C116.04 40.0798 100.77 44.7031 95.6048 54.8098C90.4393 64.9165 86.8864 165.472 92.1527 185.417C97.419 205.362 112.638 212.968 124.103 199.824C132.847 189.879 148.318 116.848 161.9 76.4477C161.403 71.432 159.759 66.6231 157.112 62.4436C151.005 75.7614 146.387 89.7993 143.354 104.268C134.107 146.657 123.398 184.664 120.676 187.003C118.736 188.669 115.486 187.809 115.259 179.745C111.706 59.218 131.134 41.1819 116.04 40.1067V40.0798ZM165.024 67.9807L159.053 58.4654C126.875 8.25459 69.3992 -9.86216 34.5004 25.2424C-4.304 64.2445 5.5483 106.956 55.5405 125.422C63.0998 128.11 51.4081 150.044 39.8675 153.027C25.6308 155.016 7.79089 136.066 1.34028 103.085C-1.43146 89.323 0.130793 70.1311 7.53891 52.2294C36.9446 -18.8937 125.187 -11.2868 167.569 44.6225C173.466 36.8274 179.563 32.2042 185.208 31.4515C199.999 29.4893 221.694 44.4881 216.453 70.0236C214.109 81.528 208.894 88.1403 203.048 91.2314C184.477 100.801 173.97 82.415 165.024 67.9807ZM173.415 52.9013L174.801 55.0248C180.546 64.0294 192.641 79.7002 202.09 78.1949C223.735 74.7543 208.667 21.2911 180.093 45.617C177.614 47.7656 175.373 50.2095 173.415 52.9013Z" fill="white"/>
</svg>
