<svg width="30" height="31" viewBox="0 0 30 31" fill="none" xmlns="http://www.w3.org/2000/svg">
<rect y="0.5" width="30" height="30" rx="6" fill="#58BD7D"/>
<g clip-path="url(#clip0_2314_33958)">
<path fill-rule="evenodd" clip-rule="evenodd" d="M22.5 12.7656V22.1876C22.5 22.5097 22.339 22.7281 22.1427 22.8375C21.9517 22.944 21.7416 22.946 21.5392 22.8053C20.308 21.9501 18.692 21.9501 17.4608 22.8053L16.3942 23.5464L16.3458 23.5799C15.5248 24.14 14.4752 24.14 13.6542 23.5799L13.6058 23.5464L12.5392 22.8053C11.308 21.9501 9.69197 21.9501 8.46084 22.8053C8.25838 22.946 8.04825 22.944 7.8573 22.8375C7.66104 22.7281 7.5 22.5097 7.5 22.1876L7.5 12.7656C7.5 11.2861 7.50164 10.2839 7.57579 9.5174C7.64783 8.77269 7.77681 8.41463 7.9291 8.17431C8.12015 7.8728 8.36504 7.61908 8.64618 7.42563C8.85818 7.27975 9.17675 7.1512 9.87332 7.07803C10.5977 7.00193 11.5488 7 12.9722 7L17.0278 7C18.4512 7 19.4023 7.00193 20.1267 7.07803C20.8233 7.1512 21.1418 7.27975 21.3538 7.42563C21.635 7.61908 21.8799 7.8728 22.0709 8.17431C22.2232 8.41463 22.3522 8.77269 22.4242 9.5174C22.4984 10.2839 22.5 11.2861 22.5 12.7656ZM17.0278 5.5C19.8102 5.5 21.2015 5.5 22.2041 6.18991C22.6547 6.49997 23.0404 6.90188 23.3379 7.37143C24 8.41624 24 9.86601 24 12.7656V22.1876C24 23.9631 22.101 25.0221 20.6833 24.0372C19.9668 23.5394 19.0332 23.5394 18.3167 24.0372L17.25 24.7783L17.249 24.7789C17.2197 24.7993 17.2049 24.8096 17.1912 24.8189C15.8604 25.727 14.1396 25.727 12.8088 24.8189C12.7951 24.8096 12.7803 24.7993 12.7511 24.779L12.75 24.7783L11.6833 24.0372C10.9668 23.5394 10.0332 23.5394 9.31665 24.0372C7.89895 25.0221 6 23.9631 6 22.1876V12.7656C6 9.86601 6 8.41623 6.66206 7.37143C6.9596 6.90188 7.34529 6.49997 7.79588 6.18991C8.79851 5.5 10.1898 5.5 12.9722 5.5H17.0278ZM18.5303 12.0303C18.8232 11.7374 18.8232 11.2626 18.5303 10.9697C18.2374 10.6768 17.7626 10.6768 17.4697 10.9697L14 14.4393L12.5303 12.9697C12.2374 12.6768 11.7626 12.6768 11.4697 12.9697C11.1768 13.2626 11.1768 13.7374 11.4697 14.0303L13.4697 16.0303C13.7626 16.3232 14.2374 16.3232 14.5303 16.0303L18.5303 12.0303Z" fill="#FCFCFD"/>
</g>
<defs>
<clipPath id="clip0_2314_33958">
<rect width="24" height="24" fill="white" transform="translate(3 3.5)"/>
</clipPath>
</defs>
</svg>
