<svg width="30" height="30" viewBox="0 0 30 30" fill="none" xmlns="http://www.w3.org/2000/svg">
<rect width="30" height="30" rx="6" fill="#FF6838"/>
<g clip-path="url(#clip0_2439_32663)">
<path d="M12.9375 16.9957C12.9375 16.5815 12.6017 16.2457 12.1875 16.2457C11.7733 16.2457 11.4375 16.5815 11.4375 16.9957H12.9375ZM17.0625 13.0582C17.0625 13.4724 17.3983 13.8082 17.8125 13.8082C18.2267 13.8082 18.5625 13.4724 18.5625 13.0582H17.0625ZM15.7768 10.2725H14.183V11.7725H15.7768V10.2725ZM14.183 15.7635H15.8304V14.2635H14.183V15.7635ZM15.8304 18.2278H14.1696V19.7278H15.8304V18.2278ZM14.1696 18.2278C13.4891 18.2278 12.9375 17.6762 12.9375 16.9957H11.4375C11.4375 18.5046 12.6607 19.7278 14.1696 19.7278V18.2278ZM17.0625 16.9957C17.0625 17.6762 16.5109 18.2278 15.8304 18.2278V19.7278C17.3393 19.7278 18.5625 18.5046 18.5625 16.9957H17.0625ZM15.8304 15.7635C16.5109 15.7635 17.0625 16.3152 17.0625 16.9957H18.5625C18.5625 15.4868 17.3393 14.2635 15.8304 14.2635V15.7635ZM11.4375 13.018C11.4375 14.5343 12.6667 15.7635 14.183 15.7635V14.2635C13.4951 14.2635 12.9375 13.7059 12.9375 13.018H11.4375ZM14.183 10.2725C12.6667 10.2725 11.4375 11.5017 11.4375 13.018H12.9375C12.9375 12.3301 13.4951 11.7725 14.183 11.7725V10.2725ZM18.5625 13.0582C18.5625 11.5197 17.3153 10.2725 15.7768 10.2725V11.7725C16.4869 11.7725 17.0625 12.3481 17.0625 13.0582H18.5625Z" fill="#FCFCFD"/>
<path d="M15 9V21" stroke="#FCFCFD" stroke-width="1.5" stroke-linecap="round"/>
<path d="M16.863 6.19305C16.2619 6.06653 15.6387 6 15 6C10.0294 6 6 10.0294 6 15C6 19.9706 10.0294 24 15 24C19.9706 24 24 19.9706 24 15C24 14.0757 23.8607 13.1839 23.6018 12.3445" stroke="#FCFCFD" stroke-width="1.5" stroke-linecap="round"/>
<path d="M18.3125 8.52246L20.3125 10.5225L24.3125 6.52246" stroke="#FCFCFD" stroke-width="1.5" stroke-linecap="round" stroke-linejoin="round"/>
</g>
<defs>
<clipPath id="clip0_2439_32663">
<rect width="24" height="24" fill="white" transform="translate(3 3)"/>
</clipPath>
</defs>
</svg>
