<svg width="31" height="31" viewBox="0 0 31 31" fill="none" xmlns="http://www.w3.org/2000/svg">
<rect x="0.834717" y="0.5" width="30" height="30" rx="6" fill="#008FFD"/>
<g clip-path="url(#clip0_2437_32405)">
<rect width="24" height="24" transform="translate(3.83472 3.5)" fill="#008FFD"/>
<path d="M13.7722 17.4957C13.7722 17.0815 13.4364 16.7457 13.0222 16.7457C12.608 16.7457 12.2722 17.0815 12.2722 17.4957H13.7722ZM17.8972 13.5582C17.8972 13.9724 18.233 14.3082 18.6472 14.3082C19.0614 14.3082 19.3972 13.9724 19.3972 13.5582H17.8972ZM16.6115 10.7725H15.0178V12.2725H16.6115V10.7725ZM15.0178 16.2635H16.6651V14.7635H15.0178V16.2635ZM16.6651 18.7278H15.0044V20.2278H16.6651V18.7278ZM15.0044 18.7278C14.3239 18.7278 13.7722 18.1762 13.7722 17.4957H12.2722C12.2722 19.0046 13.4954 20.2278 15.0044 20.2278V18.7278ZM17.8972 17.4957C17.8972 18.1762 17.3456 18.7278 16.6651 18.7278V20.2278C18.174 20.2278 19.3972 19.0046 19.3972 17.4957H17.8972ZM16.6651 16.2635C17.3456 16.2635 17.8972 16.8152 17.8972 17.4957H19.3972C19.3972 15.9868 18.174 14.7635 16.6651 14.7635V16.2635ZM12.2722 13.518C12.2722 15.0343 13.5014 16.2635 15.0178 16.2635V14.7635C14.3299 14.7635 13.7722 14.2059 13.7722 13.518H12.2722ZM15.0178 10.7725C13.5014 10.7725 12.2722 12.0017 12.2722 13.518H13.7722C13.7722 12.8301 14.3299 12.2725 15.0178 12.2725V10.7725ZM19.3972 13.5582C19.3972 12.0197 18.15 10.7725 16.6115 10.7725V12.2725C17.3216 12.2725 17.8972 12.8481 17.8972 13.5582H19.3972Z" fill="#FCFCFD"/>
<path d="M15.8347 9.5V21.5" stroke="#FCFCFD" stroke-width="1.5" stroke-linecap="round"/>
<circle cx="15.8347" cy="15.5" r="9.25" stroke="#FCFCFD" stroke-width="1.5"/>
</g>
<defs>
<clipPath id="clip0_2437_32405">
<rect width="24" height="24" fill="white" transform="translate(3.83472 3.5)"/>
</clipPath>
</defs>
</svg>
