<svg width="30" height="30" viewBox="0 0 30 30" fill="none" xmlns="http://www.w3.org/2000/svg">
<rect width="30" height="30" rx="6" fill="#008FFD"/>
<g clip-path="url(#clip0_2439_32654)">
<path fill-rule="evenodd" clip-rule="evenodd" d="M11.4515 7.91656L11.5303 8.30311C11.6698 8.98641 12.2766 9.5 13 9.5H17C17.7234 9.5 18.3302 8.98641 18.4697 8.30311L18.5485 7.91656L18.4298 7.54372C18.2364 6.93671 17.6672 6.5 17 6.5H13C12.3328 6.5 11.7636 6.93671 11.5702 7.54372L11.4515 7.91656ZM10.1418 7.08577C10.5285 5.87599 11.6619 5 13 5H17C18.3381 5 19.4715 5.87599 19.8582 7.08577L19.859 7.08839C19.9406 7.09555 20.0206 7.10328 20.099 7.11163C20.1982 7.12221 20.2949 7.13378 20.3891 7.14645C21.4802 7.29314 22.2435 7.58664 22.8284 8.17157C22.9015 8.24469 22.9701 8.32059 23.0344 8.39958C23.4844 8.95246 23.7252 9.65623 23.8536 10.6109C24 11.7002 24 13.1149 24 14.9985V15V17V17.0015C24 18.8851 24 20.2998 23.8536 21.3891C23.7069 22.4802 23.4134 23.2435 22.8284 23.8284C22.7553 23.9015 22.6794 23.9701 22.6004 24.0344C22.0475 24.4844 21.3438 24.7252 20.3891 24.8536C19.2998 25 17.8851 25 16.0015 25H16H14H13.9985C12.1149 25 10.7002 25 9.61091 24.8536C8.51985 24.7069 7.7565 24.4134 7.17157 23.8284C6.58664 23.2435 6.29314 22.4802 6.14645 21.3891L6.14526 21.3803C6.07141 20.827 6.0351 20.19 6.01725 19.4506C6.0022 18.8268 6.00028 18.1301 6.00004 17.3492L6 17.0015V17V15C6 14.0867 6 13.2839 6.01664 12.5751L6.01831 12.5068C6.03204 11.9629 6.05606 11.4747 6.09811 11.0349C6.11212 10.8883 6.12814 10.7471 6.14645 10.6109C6.22056 10.0597 6.33218 9.59166 6.50028 9.18789C6.66435 8.7938 6.88223 8.46091 7.17157 8.17157C7.46306 7.88008 7.79886 7.66097 8.19743 7.49632C8.54869 7.35123 8.94871 7.24844 9.41014 7.17571C9.47581 7.16536 9.54272 7.15561 9.61091 7.14645L9.62233 7.14492C9.71295 7.13285 9.80581 7.12178 9.901 7.11163C9.97941 7.10328 10.0594 7.09554 10.141 7.08839L10.1418 7.08577ZM19.9393 8.60314C19.6602 9.97092 18.4503 11 17 11H13C11.5497 11 10.3398 9.97092 10.0607 8.60314L10.0606 8.60303C9.97492 8.6122 9.8917 8.62219 9.81078 8.63307C9.40003 8.68829 9.09385 8.76142 8.85754 8.84854C8.76209 8.88374 8.67804 8.92121 8.6031 8.96072C8.50675 9.01152 8.42546 9.06567 8.35438 9.12263C8.31009 9.15811 8.26977 9.19469 8.23223 9.23223C7.9716 9.49287 7.75715 9.88786 7.63307 10.8108C7.61684 10.9315 7.60258 11.0574 7.59006 11.1891C7.50244 12.1105 7.5 13.313 7.5 15V17C7.5 18.928 7.50319 20.2231 7.63307 21.1892C7.75715 22.1121 7.9716 22.5071 8.23223 22.7678C8.49287 23.0284 8.88786 23.2428 9.81078 23.3669C10.7769 23.4968 12.072 23.5 14 23.5H16C17.928 23.5 19.2231 23.4968 20.1892 23.3669C21.1121 23.2428 21.5071 23.0284 21.7678 22.7678C22.0284 22.5071 22.2428 22.1121 22.3669 21.1892C22.4968 20.2231 22.5 18.928 22.5 17V15C22.5 13.072 22.4968 11.7769 22.3669 10.8108C22.2428 9.88786 22.0284 9.49287 21.7678 9.23223C21.6892 9.15371 21.5986 9.07939 21.4849 9.01048C21.457 8.99357 21.4277 8.97697 21.3969 8.96072C21.322 8.92121 21.2379 8.88373 21.1425 8.84854C20.9061 8.76142 20.6 8.68829 20.1892 8.63307C20.1083 8.62219 20.0251 8.6122 19.9394 8.60303L19.9393 8.60314ZM19.7502 15.75C19.7502 16.1642 19.4144 16.5 19.0002 16.5H12.3335C11.9193 16.5 11.5835 16.1642 11.5835 15.75C11.5835 15.3358 11.9193 15 12.3335 15H19.0002C19.4144 15 19.7502 15.3358 19.7502 15.75ZM19.0002 20.5C19.4144 20.5 19.7502 20.1642 19.7502 19.75C19.7502 19.3358 19.4144 19 19.0002 19H15.6668C15.2526 19 14.9168 19.3358 14.9168 19.75C14.9168 20.1642 15.2526 20.5 15.6668 20.5H19.0002Z" fill="#FCFCFD"/>
</g>
<defs>
<clipPath id="clip0_2439_32654">
<rect width="24" height="24" fill="white" transform="translate(3 3)"/>
</clipPath>
</defs>
</svg>
