<svg width="31" height="31" viewBox="0 0 31 31" fill="none" xmlns="http://www.w3.org/2000/svg">
<rect x="0.834717" y="0.5" width="30" height="30" rx="6" fill="#008FFD"/>
<g clip-path="url(#clip0_2510_32408)">
<rect width="24" height="24" transform="translate(3.83472 3.5)" fill="#008FFD"/>
<circle cx="15.8347" cy="15.5" r="9.25" stroke="#FCFCFD" stroke-width="1.5"/>
<path d="M14.4206 13.0866C14.4206 13.798 13.813 14.4232 13.0027 14.4232C12.1923 14.4232 11.5847 13.798 11.5847 13.0866C11.5847 12.3752 12.1923 11.75 13.0027 11.75C13.813 11.75 14.4206 12.3752 14.4206 13.0866Z" stroke="#FCFCFD" stroke-width="1.5"/>
<path d="M20.0847 17.9138C20.0847 18.6252 19.4772 19.2504 18.6668 19.2504C17.8564 19.2504 17.2488 18.6252 17.2488 17.9138C17.2488 17.2023 17.8564 16.5771 18.6668 16.5771C19.4772 16.5771 20.0847 17.2023 20.0847 17.9138Z" stroke="#FCFCFD" stroke-width="1.5"/>
<path d="M19.9026 11.7802C20.1624 11.4588 20.1113 10.9866 19.7885 10.7255C19.4658 10.4643 18.9935 10.5132 18.7337 10.8345L19.9026 11.7802ZM11.9561 19.2191C11.6963 19.5404 11.7474 20.0126 12.0702 20.2738C12.393 20.5349 12.8652 20.4861 13.125 20.1647L11.9561 19.2191ZM18.7337 10.8345L11.9561 19.2191L13.125 20.1647L19.9026 11.7802L18.7337 10.8345Z" fill="#FCFCFD"/>
</g>
<defs>
<clipPath id="clip0_2510_32408">
<rect width="24" height="24" fill="white" transform="translate(3.83472 3.5)"/>
</clipPath>
</defs>
</svg>
