<svg width="30" height="31" viewBox="0 0 30 31" fill="none" xmlns="http://www.w3.org/2000/svg">
<rect y="0.5" width="30" height="30" rx="6" fill="#008FFD"/>
<g clip-path="url(#clip0_2314_33967)">
<rect width="24" height="24" transform="translate(3 3.5)" fill="#008FFD"/>
<path d="M12.9375 17.4957C12.9375 17.0815 12.6017 16.7457 12.1875 16.7457C11.7733 16.7457 11.4375 17.0815 11.4375 17.4957H12.9375ZM17.0625 13.5582C17.0625 13.9724 17.3983 14.3082 17.8125 14.3082C18.2267 14.3082 18.5625 13.9724 18.5625 13.5582H17.0625ZM15.7768 10.7725H14.183V12.2725H15.7768V10.7725ZM14.183 16.2635H15.8304V14.7635H14.183V16.2635ZM15.8304 18.7278H14.1696V20.2278H15.8304V18.7278ZM14.1696 18.7278C13.4891 18.7278 12.9375 18.1762 12.9375 17.4957H11.4375C11.4375 19.0046 12.6607 20.2278 14.1696 20.2278V18.7278ZM17.0625 17.4957C17.0625 18.1762 16.5109 18.7278 15.8304 18.7278V20.2278C17.3393 20.2278 18.5625 19.0046 18.5625 17.4957H17.0625ZM15.8304 16.2635C16.5109 16.2635 17.0625 16.8152 17.0625 17.4957H18.5625C18.5625 15.9868 17.3393 14.7635 15.8304 14.7635V16.2635ZM11.4375 13.518C11.4375 15.0343 12.6667 16.2635 14.183 16.2635V14.7635C13.4951 14.7635 12.9375 14.2059 12.9375 13.518H11.4375ZM14.183 10.7725C12.6667 10.7725 11.4375 12.0017 11.4375 13.518H12.9375C12.9375 12.8301 13.4951 12.2725 14.183 12.2725V10.7725ZM18.5625 13.5582C18.5625 12.0197 17.3153 10.7725 15.7768 10.7725V12.2725C16.4869 12.2725 17.0625 12.8481 17.0625 13.5582H18.5625Z" fill="#FCFCFD"/>
<path d="M15 9.5V21.5" stroke="#FCFCFD" stroke-width="1.5" stroke-linecap="round"/>
<path d="M6.58723 14.1512C6.38798 12.5572 6.25011 11.4401 6.26287 10.5924C6.2753 9.76602 6.43166 9.32802 6.71157 9.01094C6.99148 8.69387 7.4067 8.48438 8.22516 8.36955C9.06478 8.25175 10.1903 8.25 11.7967 8.25H18.2033C19.8097 8.25 20.9352 8.25175 21.7748 8.36955C22.5933 8.48438 23.0085 8.69387 23.2884 9.01094L23.8507 8.51459L23.2884 9.01094C23.5683 9.32802 23.7247 9.76602 23.7371 10.5924C23.7499 11.4401 23.612 12.5572 23.4128 14.1512L23.3488 14.6628L23.3435 14.7053C23.3021 15.0363 23.2733 15.2658 23.2733 15.5C23.2733 15.7342 23.3021 15.9637 23.3435 16.2947L23.3488 16.3372L23.4128 16.8488C23.612 18.4428 23.7499 19.5599 23.7371 20.4076C23.7247 21.234 23.5683 21.672 23.2884 21.9891C23.0085 22.3061 22.5933 22.5156 21.7748 22.6305C20.9352 22.7483 19.8097 22.75 18.2033 22.75H11.7967C10.1903 22.75 9.06478 22.7483 8.22516 22.6305C7.4067 22.5156 6.99148 22.3061 6.71157 21.9891C6.43166 21.672 6.2753 21.234 6.26287 20.4076C6.25011 19.5599 6.38798 18.4428 6.58723 16.8488L6.65118 16.3372C6.65298 16.3229 6.65475 16.3087 6.6565 16.2948C6.69793 15.9637 6.72665 15.7342 6.72665 15.5C6.72665 15.2658 6.69793 15.0363 6.6565 14.7052C6.65475 14.6913 6.65298 14.6771 6.65118 14.6628L6.58723 14.1512Z" stroke="#FCFCFD" stroke-width="1.5"/>
</g>
<defs>
<clipPath id="clip0_2314_33967">
<rect width="24" height="24" fill="white" transform="translate(3 3.5)"/>
</clipPath>
</defs>
</svg>
