<svg width="31" height="31" viewBox="0 0 31 31" fill="none" xmlns="http://www.w3.org/2000/svg">
<rect x="0.834717" y="0.5" width="30" height="30" rx="6" fill="#58BD7D"/>
<g clip-path="url(#clip0_2510_32423)">
<rect width="24" height="24" transform="translate(3.83472 3.5)" fill="#58BD7D"/>
<mask id="path-2-inside-1_2510_32423" fill="white">
<path d="M7.19556 9.58805C7.19556 9.13327 7.47539 8.72537 7.89968 8.56166L13.6749 6.33336C14.7423 5.9215 15.276 5.71556 15.8347 5.71556C16.3934 5.71556 16.9271 5.92149 17.9946 6.33336L23.7698 8.56166C24.194 8.72537 24.4739 9.13327 24.4739 9.58805V13.209C24.4739 18.6068 21.1526 23.4482 16.1167 25.3912C15.9352 25.4612 15.7342 25.4612 15.5527 25.3912C10.5168 23.4482 7.19556 18.6068 7.19556 13.209V9.58805Z"/>
</mask>
<path d="M13.6749 6.33336L13.1349 4.93391L13.6749 6.33336ZM17.9946 6.33336L17.4546 7.7328L17.9946 6.33336ZM7.89968 8.56166L7.35972 7.16221L7.89968 8.56166ZM22.9739 9.58805V13.209H25.9739V9.58805H22.9739ZM8.69556 13.209V9.58805H5.69556V13.209H8.69556ZM8.43964 9.9611L14.2148 7.7328L13.1349 4.93391L7.35972 7.16221L8.43964 9.9611ZM17.4546 7.7328L23.2298 9.9611L24.3097 7.16221L18.5345 4.93391L17.4546 7.7328ZM14.2148 7.7328C15.388 7.28015 15.6201 7.21556 15.8347 7.21556V4.21556C14.9319 4.21556 14.0966 4.56284 13.1349 4.93391L14.2148 7.7328ZM18.5345 4.93391C17.5728 4.56284 16.7375 4.21556 15.8347 4.21556V7.21556C16.0493 7.21556 16.2814 7.28015 17.4546 7.7328L18.5345 4.93391ZM15.5768 23.9918C15.7428 23.9277 15.9267 23.9277 16.0927 23.9918L15.0127 26.7906C15.5417 26.9947 16.1277 26.9947 16.6567 26.7906L15.5768 23.9918ZM5.69556 13.209C5.69556 19.2269 9.39835 24.6244 15.0127 26.7906L16.0927 23.9918C11.6353 22.2719 8.69556 17.9867 8.69556 13.209H5.69556ZM22.9739 13.209C22.9739 17.9867 20.0342 22.2719 15.5768 23.9918L16.6567 26.7906C22.2711 24.6244 25.9739 19.2269 25.9739 13.209H22.9739ZM25.9739 9.58805C25.9739 8.5132 25.3125 7.54913 24.3097 7.16221L23.2298 9.9611C23.0756 9.9016 22.9739 9.75335 22.9739 9.58805H25.9739ZM8.69556 9.58805C8.69556 9.75335 8.59385 9.9016 8.43964 9.9611L7.35972 7.16221C6.35692 7.54913 5.69556 8.5132 5.69556 9.58805H8.69556Z" fill="#FCFCFD" mask="url(#path-2-inside-1_2510_32423)"/>
<path d="M12.8347 14.0762L14.8347 16.0762L18.8347 12.0762" stroke="#FCFCFD" stroke-width="1.5" stroke-linecap="round" stroke-linejoin="round"/>
</g>
<defs>
<clipPath id="clip0_2510_32423">
<rect width="24" height="24" fill="white" transform="translate(3.83472 3.5)"/>
</clipPath>
</defs>
</svg>
