<svg width="30" height="30" viewBox="0 0 30 30" fill="none" xmlns="http://www.w3.org/2000/svg">
<rect width="30" height="30" rx="6" fill="#58BD7D"/>
<g clip-path="url(#clip0_2641_32721)">
<rect width="24" height="24" transform="translate(3 3)" fill="#58BD7D"/>
<path d="M12.9375 16.9956C12.9375 16.5813 12.6017 16.2456 12.1875 16.2456C11.7733 16.2456 11.4375 16.5813 11.4375 16.9956H12.9375ZM17.0625 13.0581C17.0625 13.4723 17.3983 13.8081 17.8125 13.8081C18.2267 13.8081 18.5625 13.4723 18.5625 13.0581H17.0625ZM15.7768 10.2723H14.183V11.7723H15.7768V10.2723ZM14.183 15.7634H15.8304V14.2634H14.183V15.7634ZM15.8304 18.2277H14.1696V19.7277H15.8304V18.2277ZM14.1696 18.2277C13.4891 18.2277 12.9375 17.676 12.9375 16.9956H11.4375C11.4375 18.5045 12.6607 19.7277 14.1696 19.7277V18.2277ZM17.0625 16.9956C17.0625 17.676 16.5109 18.2277 15.8304 18.2277V19.7277C17.3393 19.7277 18.5625 18.5045 18.5625 16.9956H17.0625ZM15.8304 15.7634C16.5109 15.7634 17.0625 16.3151 17.0625 16.9956H18.5625C18.5625 15.4866 17.3393 14.2634 15.8304 14.2634V15.7634ZM11.4375 13.0179C11.4375 14.5342 12.6667 15.7634 14.183 15.7634V14.2634C13.4951 14.2634 12.9375 13.7058 12.9375 13.0179H11.4375ZM14.183 10.2723C12.6667 10.2723 11.4375 11.5016 11.4375 13.0179H12.9375C12.9375 12.33 13.4951 11.7723 14.183 11.7723V10.2723ZM18.5625 13.0581C18.5625 11.5195 17.3153 10.2723 15.7768 10.2723V11.7723C16.4869 11.7723 17.0625 12.348 17.0625 13.0581H18.5625Z" fill="#FCFCFD"/>
<path d="M15 9V21" stroke="#FCFCFD" stroke-width="1.5" stroke-linecap="round"/>
<path d="M6.58723 13.6512C6.38798 12.0572 6.25011 10.9401 6.26287 10.0924C6.2753 9.26602 6.43166 8.82802 6.71157 8.51094C6.99148 8.19387 7.4067 7.98438 8.22516 7.86955C9.06478 7.75175 10.1903 7.75 11.7967 7.75H18.2033C19.8097 7.75 20.9352 7.75175 21.7748 7.86955C22.5933 7.98438 23.0085 8.19387 23.2884 8.51094L23.8507 8.01459L23.2884 8.51094C23.5683 8.82802 23.7247 9.26602 23.7371 10.0924C23.7499 10.9401 23.612 12.0572 23.4128 13.6512L23.3488 14.1628L23.3435 14.2053C23.3021 14.5363 23.2733 14.7658 23.2733 15C23.2733 15.2342 23.3021 15.4637 23.3435 15.7947L23.3488 15.8372L23.4128 16.3488C23.612 17.9428 23.7499 19.0599 23.7371 19.9076C23.7247 20.734 23.5683 21.172 23.2884 21.4891C23.0085 21.8061 22.5933 22.0156 21.7748 22.1305C20.9352 22.2483 19.8097 22.25 18.2033 22.25H11.7967C10.1903 22.25 9.06478 22.2483 8.22516 22.1305C7.4067 22.0156 6.99148 21.8061 6.71157 21.4891C6.43166 21.172 6.2753 20.734 6.26287 19.9076C6.25011 19.0599 6.38798 17.9428 6.58723 16.3488L6.65118 15.8372C6.65298 15.8229 6.65475 15.8087 6.6565 15.7948C6.69793 15.4637 6.72665 15.2342 6.72665 15C6.72665 14.7658 6.69793 14.5363 6.6565 14.2052C6.65475 14.1913 6.65298 14.1771 6.65118 14.1628L6.58723 13.6512Z" stroke="#FCFCFD" stroke-width="1.5"/>
</g>
<defs>
<clipPath id="clip0_2641_32721">
<rect width="24" height="24" fill="white" transform="translate(3 3)"/>
</clipPath>
</defs>
</svg>
