<svg width="30" height="31" viewBox="0 0 30 31" fill="none" xmlns="http://www.w3.org/2000/svg">
<rect y="0.5" width="30" height="30" rx="6" fill="#008FFD"/>
<g clip-path="url(#clip0_2659_33352)">
<mask id="path-2-inside-1_2659_33352" fill="white">
<path d="M17.0278 5.5C19.8102 5.5 21.2015 5.5 22.2041 6.18991C22.6547 6.49997 23.0404 6.90188 23.3379 7.37143C24 8.41624 24 9.86601 24 12.7656V22.1876C24 23.9631 22.101 25.0221 20.6833 24.0372C19.9668 23.5394 19.0332 23.5394 18.3167 24.0372L17.25 24.7783C17.22 24.7991 17.205 24.8095 17.1912 24.8189C15.8604 25.727 14.1396 25.727 12.8088 24.8189C12.795 24.8095 12.78 24.7991 12.75 24.7783L11.6833 24.0372C10.9668 23.5394 10.0332 23.5394 9.31665 24.0372C7.89895 25.0221 6 23.9631 6 22.1876L6 12.7656C6 9.86601 6 8.41623 6.66206 7.37143C6.9596 6.90188 7.34529 6.49997 7.79588 6.18991C8.79851 5.5 10.1898 5.5 12.9722 5.5L17.0278 5.5Z"/>
</mask>
<path d="M11.6833 24.0372L10.8275 25.2691L10.8275 25.2691L11.6833 24.0372ZM9.31665 24.0372L10.1725 25.2691L9.31665 24.0372ZM20.6833 24.0372L21.5392 22.8053L20.6833 24.0372ZM18.3167 24.0372L19.1725 25.2691L19.1725 25.2691L18.3167 24.0372ZM17.25 24.7783L16.3942 23.5464H16.3942L17.25 24.7783ZM17.1912 24.8189L18.0367 26.058L17.1912 24.8189ZM12.75 24.7783L13.6058 23.5464H13.6058L12.75 24.7783ZM12.8088 24.8189L13.6542 23.5799L12.8088 24.8189ZM6.66206 7.37143L5.39502 6.56855L6.66206 7.37143ZM12.9722 5.5V4V5.5ZM7.79588 6.18991L8.64618 7.42563L7.79588 6.18991ZM6 22.1876H4.5H6ZM24 22.1876H25.5H24ZM24 12.7656L22.5 12.7656V12.7656H24ZM23.3379 7.37143L22.0709 8.17431V8.17431L23.3379 7.37143ZM17.0278 5.5V7V5.5ZM22.2041 6.18991L23.0544 4.9542L22.2041 6.18991ZM22.5 12.7656V22.1876H25.5V12.7656H22.5ZM7.5 22.1876L7.5 12.7656L4.5 12.7656L4.5 22.1876H7.5ZM12.9722 7L17.0278 7V4L12.9722 4V7ZM17.4608 22.8053L16.3942 23.5464L18.1058 26.0102L19.1725 25.2691L17.4608 22.8053ZM13.6058 23.5464L12.5392 22.8053L10.8275 25.2691L11.8942 26.0102L13.6058 23.5464ZM12.5392 22.8053C11.308 21.9501 9.69197 21.9501 8.46084 22.8053L10.1725 25.2691C10.3745 25.1288 10.6255 25.1288 10.8275 25.2691L12.5392 22.8053ZM21.5392 22.8053C20.308 21.9501 18.692 21.9501 17.4608 22.8053L19.1725 25.2691C19.3745 25.1288 19.6255 25.1288 19.8275 25.2691L21.5392 22.8053ZM16.3942 23.5464C16.362 23.5687 16.3532 23.5749 16.3458 23.5799L18.0367 26.058C18.0569 26.0441 18.0781 26.0295 18.1058 26.0102L16.3942 23.5464ZM11.8942 26.0102C11.9219 26.0294 11.9431 26.0441 11.9633 26.058L13.6542 23.5799C13.6469 23.5749 13.638 23.5687 13.6058 23.5464L11.8942 26.0102ZM16.3458 23.5799C15.5248 24.14 14.4752 24.14 13.6542 23.5799L11.9633 26.058C13.8041 27.314 16.1959 27.314 18.0367 26.058L16.3458 23.5799ZM7.5 12.7656C7.5 11.2861 7.50164 10.2839 7.57579 9.5174C7.64783 8.77269 7.77681 8.41463 7.9291 8.17431L5.39502 6.56855C4.88525 7.37303 4.6832 8.26226 4.58973 9.22853C4.49836 10.173 4.5 11.3455 4.5 12.7656L7.5 12.7656ZM12.9722 4C11.6132 4 10.4774 3.99807 9.5599 4.09445C8.61458 4.19375 7.7362 4.41017 6.94558 4.9542L8.64618 7.42563C8.85818 7.27975 9.17675 7.1512 9.87332 7.07803C10.5977 7.00193 11.5488 7 12.9722 7V4ZM7.9291 8.17431C8.12015 7.8728 8.36504 7.61908 8.64618 7.42563L6.94558 4.9542C6.32553 5.38085 5.79905 5.93095 5.39502 6.56855L7.9291 8.17431ZM4.5 22.1876C4.5 25.0572 7.6654 27.0108 10.1725 25.2691L8.46084 22.8053C8.25838 22.946 8.04825 22.944 7.8573 22.8375C7.66104 22.7281 7.5 22.5097 7.5 22.1876H4.5ZM22.5 22.1876C22.5 22.5097 22.339 22.7281 22.1427 22.8375C21.9517 22.944 21.7416 22.946 21.5392 22.8053L19.8275 25.2691C22.3346 27.0108 25.5 25.0572 25.5 22.1876H22.5ZM25.5 12.7656C25.5 11.3455 25.5016 10.173 25.4103 9.22853C25.3168 8.26226 25.1147 7.37303 24.605 6.56855L22.0709 8.17431C22.2232 8.41463 22.3522 8.77269 22.4242 9.5174C22.4984 10.2839 22.5 11.2861 22.5 12.7656L25.5 12.7656ZM17.0278 7C18.4512 7 19.4023 7.00193 20.1267 7.07803C20.8233 7.1512 21.1418 7.27975 21.3538 7.42563L23.0544 4.9542C22.2638 4.41017 21.3854 4.19375 20.4401 4.09445C19.5226 3.99807 18.3868 4 17.0278 4V7ZM24.605 6.56855C24.201 5.93095 23.6745 5.38085 23.0544 4.9542L21.3538 7.42563C21.635 7.61908 21.8799 7.8728 22.0709 8.17431L24.605 6.56855Z" fill="#FCFCFD" mask="url(#path-2-inside-1_2659_33352)"/>
<path d="M18.5 13.5C18.5 13.78 18.465 14.0512 18.395 14.3137C18.3163 14.6637 18.1763 15.005 17.9925 15.3025C17.3888 16.3175 16.2775 17 15 17C14.0987 17 13.285 16.6587 12.6725 16.0987C12.41 15.8712 12.1825 15.6 12.0075 15.3025C11.6837 14.7775 11.5 14.1562 11.5 13.5C11.5 12.555 11.8763 11.6888 12.4888 11.0588C13.1275 10.4025 14.02 10 15 10C16.0325 10 16.9688 10.4463 17.5988 11.1638C18.1588 11.785 18.5 12.6075 18.5 13.5Z" stroke="#FCFCFD" stroke-width="1.5" stroke-miterlimit="10" stroke-linecap="round" stroke-linejoin="round"/>
<path fill-rule="evenodd" clip-rule="evenodd" d="M15.75 12.2422C15.75 11.828 15.4142 11.4922 15 11.4922C14.5858 11.4922 14.25 11.828 14.25 12.2422V12.8047H13.6875C13.2733 12.8047 12.9375 13.1405 12.9375 13.5547C12.9375 13.9689 13.2733 14.3047 13.6875 14.3047H15C15.0259 14.3047 15.0515 14.3034 15.0767 14.3008C15.4549 14.2624 15.75 13.943 15.75 13.5547V12.2422Z" fill="#FCFCFD"/>
</g>
<defs>
<clipPath id="clip0_2659_33352">
<rect width="24" height="24" fill="white" transform="translate(3 3.5)"/>
</clipPath>
</defs>
</svg>
