<svg width="30" height="30" viewBox="0 0 30 30" fill="none" xmlns="http://www.w3.org/2000/svg">
<rect width="30" height="30" rx="6" fill="#141416"/>
<g clip-path="url(#clip0_2641_32730)">
<circle cx="15" cy="15" r="9.25" stroke="#FCFCFD" stroke-width="1.5"/>
<path d="M13.5859 12.5866C13.5859 13.298 12.9783 13.9232 12.1679 13.9232C11.3575 13.9232 10.75 13.298 10.75 12.5866C10.75 11.8752 11.3575 11.25 12.1679 11.25C12.9783 11.25 13.5859 11.8752 13.5859 12.5866Z" stroke="#FCFCFD" stroke-width="1.5"/>
<path d="M19.25 17.4133C19.25 18.1248 18.6424 18.75 17.8321 18.75C17.0217 18.75 16.4141 18.1248 16.4141 17.4133C16.4141 16.7019 17.0217 16.0767 17.8321 16.0767C18.6424 16.0767 19.25 16.7019 19.25 17.4133Z" stroke="#FCFCFD" stroke-width="1.5"/>
<path d="M19.0679 11.2805C19.3277 10.9591 19.2766 10.4869 18.9538 10.2258C18.631 9.96464 18.1588 10.0135 17.899 10.3348L19.0679 11.2805ZM11.1214 18.7194C10.8616 19.0407 10.9127 19.513 11.2355 19.7741C11.5583 20.0352 12.0305 19.9864 12.2903 19.665L11.1214 18.7194ZM17.899 10.3348L11.1214 18.7194L12.2903 19.665L19.0679 11.2805L17.899 10.3348Z" fill="#FCFCFD"/>
</g>
<defs>
<clipPath id="clip0_2641_32730">
<rect width="24" height="24" fill="white" transform="translate(3 3)"/>
</clipPath>
</defs>
</svg>
