<svg width="31" height="31" viewBox="0 0 31 31" fill="none" xmlns="http://www.w3.org/2000/svg">
<rect x="0.804199" y="0.125" width="30" height="30" rx="6" fill="#58BD7D"/>
<g clip-path="url(#clip0_2439_32581)">
<rect width="24" height="24" transform="translate(3.8042 3.125)" fill="#58BD7D"/>
<path d="M13.7417 17.1207C13.7417 16.7065 13.4059 16.3707 12.9917 16.3707C12.5775 16.3707 12.2417 16.7065 12.2417 17.1207H13.7417ZM17.8667 13.1832C17.8667 13.5974 18.2025 13.9332 18.6167 13.9332C19.0309 13.9332 19.3667 13.5974 19.3667 13.1832H17.8667ZM16.581 10.3975H14.9872V11.8975H16.581V10.3975ZM14.9872 15.8885H16.6346V14.3885H14.9872V15.8885ZM16.6346 18.3528H14.9738V19.8528H16.6346V18.3528ZM14.9738 18.3528C14.2933 18.3528 13.7417 17.8012 13.7417 17.1207H12.2417C12.2417 18.6296 13.4649 19.8528 14.9738 19.8528V18.3528ZM17.8667 17.1207C17.8667 17.8012 17.3151 18.3528 16.6346 18.3528V19.8528C18.1435 19.8528 19.3667 18.6296 19.3667 17.1207H17.8667ZM16.6346 15.8885C17.3151 15.8885 17.8667 16.4402 17.8667 17.1207H19.3667C19.3667 15.6118 18.1435 14.3885 16.6346 14.3885V15.8885ZM12.2417 13.143C12.2417 14.6593 13.4709 15.8885 14.9872 15.8885V14.3885C14.2993 14.3885 13.7417 13.8309 13.7417 13.143H12.2417ZM14.9872 10.3975C13.4709 10.3975 12.2417 11.6267 12.2417 13.143H13.7417C13.7417 12.4551 14.2993 11.8975 14.9872 11.8975V10.3975ZM19.3667 13.1832C19.3667 11.6447 18.1195 10.3975 16.581 10.3975V11.8975C17.2911 11.8975 17.8667 12.4731 17.8667 13.1832H19.3667Z" fill="#FCFCFD"/>
<path d="M15.8042 9.125V21.125" stroke="#FCFCFD" stroke-width="1.5" stroke-linecap="round"/>
<path d="M17.6672 6.31805C17.0661 6.19153 16.4429 6.125 15.8042 6.125C10.8336 6.125 6.8042 10.1544 6.8042 15.125C6.8042 20.0956 10.8336 24.125 15.8042 24.125C20.7748 24.125 24.8042 20.0956 24.8042 15.125C24.8042 14.2007 24.6649 13.3089 24.406 12.4695" stroke="#FCFCFD" stroke-width="1.5" stroke-linecap="round"/>
<path d="M22.9254 5.88281L22.9254 10.1254M25.0468 8.00407L20.8042 8.00407" stroke="#FCFCFD" stroke-width="1.5" stroke-linecap="round"/>
</g>
<defs>
<clipPath id="clip0_2439_32581">
<rect width="24" height="24" fill="white" transform="translate(3.8042 3.125)"/>
</clipPath>
</defs>
</svg>
