<svg width="31" height="31" viewBox="0 0 31 31" fill="none" xmlns="http://www.w3.org/2000/svg">
<rect x="0.834717" y="0.5" width="30" height="30" rx="6" fill="#141416"/>
<g clip-path="url(#clip0_2510_32319)">
<path d="M13.185 18.0611C13.185 17.6469 12.8492 17.3111 12.435 17.3111C12.0207 17.3111 11.685 17.6469 11.685 18.0611H13.185ZM17.458 14.02C17.458 14.4342 17.7938 14.77 18.208 14.77C18.6222 14.77 18.958 14.4342 18.958 14.02H17.458ZM16.1187 11.1807H14.483V12.6807H16.1187V11.1807ZM14.483 16.7768H16.1737V15.2768H14.483V16.7768ZM16.1737 19.3454H14.4693V20.8454H16.1737V19.3454ZM14.4693 19.3454C13.76 19.3454 13.185 18.7704 13.185 18.0611H11.685C11.685 19.5988 12.9315 20.8454 14.4693 20.8454V19.3454ZM17.458 18.0611C17.458 18.7704 16.883 19.3454 16.1737 19.3454V20.8454C17.7114 20.8454 18.958 19.5988 18.958 18.0611H17.458ZM16.1737 16.7768C16.883 16.7768 17.458 17.3518 17.458 18.0611H18.958C18.958 16.5233 17.7114 15.2768 16.1737 15.2768V16.7768ZM11.685 13.9787C11.685 15.524 12.9377 16.7768 14.483 16.7768V15.2768C13.7661 15.2768 13.185 14.6956 13.185 13.9787H11.685ZM14.483 11.1807C12.9377 11.1807 11.685 12.4334 11.685 13.9787H13.185C13.185 13.2618 13.7661 12.6807 14.483 12.6807V11.1807ZM18.958 14.02C18.958 12.4519 17.6868 11.1807 16.1187 11.1807V12.6807C16.8584 12.6807 17.458 13.2803 17.458 14.02H18.958Z" fill="#FCFCFD"/>
<path d="M15.3217 9.85547V22.1713" stroke="#FCFCFD" stroke-width="1.5" stroke-linecap="round"/>
<path d="M17.2336 6.9745C16.6167 6.84465 15.9771 6.77637 15.3216 6.77637C10.2202 6.77637 6.08472 10.9118 6.08472 16.0132C6.08472 21.1146 10.2202 25.2501 15.3216 25.2501C20.4229 25.2501 24.5584 21.1146 24.5584 16.0132C24.5584 15.0645 24.4154 14.1493 24.1497 13.2878" stroke="#FCFCFD" stroke-width="1.5" stroke-linecap="round"/>
<path d="M23.2699 11.6879C23.6838 11.704 24.0323 11.3815 24.0484 10.9676C24.0645 10.5537 23.742 10.2051 23.3281 10.189L23.2699 11.6879ZM20.5046 10.83L19.7552 10.8591C19.7704 11.2504 20.0841 11.5642 20.4755 11.5794L20.5046 10.83ZM21.1455 8.00652C21.1295 7.59262 20.7809 7.27011 20.367 7.28618C19.9531 7.30225 19.6306 7.65081 19.6467 8.06471L21.1455 8.00652ZM23.3281 10.189L20.5337 10.0805L20.4755 11.5794L23.2699 11.6879L23.3281 10.189ZM21.254 10.8009L21.1455 8.00652L19.6467 8.06471L19.7552 10.8591L21.254 10.8009Z" fill="#FCFCFD"/>
<path d="M20.6099 10.7255L24.1333 7.20215" stroke="#FCFCFD" stroke-width="1.5" stroke-linecap="round"/>
</g>
<defs>
<clipPath id="clip0_2510_32319">
<rect width="24" height="24" fill="white" transform="translate(3.83472 3.5)"/>
</clipPath>
</defs>
</svg>
