<svg width="30" height="31" viewBox="0 0 30 31" fill="none" xmlns="http://www.w3.org/2000/svg">
<rect y="0.5" width="30" height="30" rx="6" fill="#58BD7D"/>
<g clip-path="url(#clip0_2659_33369)">
<path d="M12.9375 17.4957C12.9375 17.0815 12.6017 16.7457 12.1875 16.7457C11.7733 16.7457 11.4375 17.0815 11.4375 17.4957H12.9375ZM17.0625 13.5582C17.0625 13.9724 17.3983 14.3082 17.8125 14.3082C18.2267 14.3082 18.5625 13.9724 18.5625 13.5582H17.0625ZM15.7768 10.7725H14.183V12.2725H15.7768V10.7725ZM14.183 16.2635H15.8304V14.7635H14.183V16.2635ZM15.8304 18.7278H14.1696V20.2278H15.8304V18.7278ZM14.1696 18.7278C13.4891 18.7278 12.9375 18.1762 12.9375 17.4957H11.4375C11.4375 19.0046 12.6607 20.2278 14.1696 20.2278V18.7278ZM17.0625 17.4957C17.0625 18.1762 16.5109 18.7278 15.8304 18.7278V20.2278C17.3393 20.2278 18.5625 19.0046 18.5625 17.4957H17.0625ZM15.8304 16.2635C16.5109 16.2635 17.0625 16.8152 17.0625 17.4957H18.5625C18.5625 15.9868 17.3393 14.7635 15.8304 14.7635V16.2635ZM11.4375 13.518C11.4375 15.0343 12.6667 16.2635 14.183 16.2635V14.7635C13.4951 14.7635 12.9375 14.2059 12.9375 13.518H11.4375ZM14.183 10.7725C12.6667 10.7725 11.4375 12.0017 11.4375 13.518H12.9375C12.9375 12.8301 13.4951 12.2725 14.183 12.2725V10.7725ZM18.5625 13.5582C18.5625 12.0197 17.3153 10.7725 15.7768 10.7725V12.2725C16.4869 12.2725 17.0625 12.8481 17.0625 13.5582H18.5625Z" fill="#FCFCFD"/>
<path d="M15 9.5V21.5" stroke="#FCFCFD" stroke-width="1.5" stroke-linecap="round"/>
<path d="M16.863 6.69305C16.2619 6.56653 15.6387 6.5 15 6.5C10.0294 6.5 6 10.5294 6 15.5C6 20.4706 10.0294 24.5 15 24.5C19.9706 24.5 24 20.4706 24 15.5C24 14.5757 23.8607 13.6839 23.6018 12.8445" stroke="#FCFCFD" stroke-width="1.5" stroke-linecap="round"/>
<path d="M18.3125 9.02246L20.3125 11.0225L24.3125 7.02246" stroke="#FCFCFD" stroke-width="1.5" stroke-linecap="round" stroke-linejoin="round"/>
</g>
<defs>
<clipPath id="clip0_2659_33369">
<rect width="24" height="24" fill="white" transform="translate(3 3.5)"/>
</clipPath>
</defs>
</svg>
