<svg width="30" height="30" viewBox="0 0 30 30" fill="none" xmlns="http://www.w3.org/2000/svg">
<rect width="30" height="30" rx="6" fill="#FF6838"/>
<g clip-path="url(#clip0_2641_32712)">
<path d="M12.9375 16.9956C12.9375 16.5813 12.6017 16.2456 12.1875 16.2456C11.7733 16.2456 11.4375 16.5813 11.4375 16.9956H12.9375ZM17.0625 13.0581C17.0625 13.4723 17.3983 13.8081 17.8125 13.8081C18.2267 13.8081 18.5625 13.4723 18.5625 13.0581H17.0625ZM15.7768 10.2723H14.183V11.7723H15.7768V10.2723ZM14.183 15.7634H15.8304V14.2634H14.183V15.7634ZM15.8304 18.2277H14.1696V19.7277H15.8304V18.2277ZM14.1696 18.2277C13.4891 18.2277 12.9375 17.676 12.9375 16.9956H11.4375C11.4375 18.5045 12.6607 19.7277 14.1696 19.7277V18.2277ZM17.0625 16.9956C17.0625 17.676 16.5109 18.2277 15.8304 18.2277V19.7277C17.3393 19.7277 18.5625 18.5045 18.5625 16.9956H17.0625ZM15.8304 15.7634C16.5109 15.7634 17.0625 16.3151 17.0625 16.9956H18.5625C18.5625 15.4866 17.3393 14.2634 15.8304 14.2634V15.7634ZM11.4375 13.0179C11.4375 14.5342 12.6667 15.7634 14.183 15.7634V14.2634C13.4951 14.2634 12.9375 13.7058 12.9375 13.0179H11.4375ZM14.183 10.2723C12.6667 10.2723 11.4375 11.5016 11.4375 13.0179H12.9375C12.9375 12.33 13.4951 11.7723 14.183 11.7723V10.2723ZM18.5625 13.0581C18.5625 11.5195 17.3153 10.2723 15.7768 10.2723V11.7723C16.4869 11.7723 17.0625 12.348 17.0625 13.0581H18.5625Z" fill="#FCFCFD"/>
<path d="M15 9V21" stroke="#FCFCFD" stroke-width="1.5" stroke-linecap="round"/>
<path d="M16.863 6.19305C16.2619 6.06653 15.6387 6 15 6C10.0294 6 6 10.0294 6 15C6 19.9706 10.0294 24 15 24C19.9706 24 24 19.9706 24 15C24 14.0757 23.8607 13.1839 23.6018 12.3445" stroke="#FCFCFD" stroke-width="1.5" stroke-linecap="round"/>
<path d="M20.8918 5.5591C20.4779 5.54303 20.1294 5.86553 20.1133 6.27943C20.0972 6.69334 20.4197 7.0419 20.8336 7.05797L20.8918 5.5591ZM23.5854 6.41425L24.3349 6.38515C24.3197 5.99379 24.0059 5.68001 23.6145 5.66481L23.5854 6.41425ZM22.9417 9.16606C22.9578 9.57996 23.3063 9.90246 23.7202 9.88639C24.1341 9.87032 24.4566 9.52176 24.4406 9.10786L22.9417 9.16606ZM20.8336 7.05797L23.5563 7.16369L23.6145 5.66481L20.8918 5.5591L20.8336 7.05797ZM22.836 6.44335L22.9417 9.16606L24.4406 9.10786L24.3349 6.38515L22.836 6.44335Z" fill="#FCFCFD"/>
<path d="M23.4831 6.51678L20.05 9.94983" stroke="#FCFCFD" stroke-width="1.5" stroke-linecap="round"/>
</g>
<defs>
<clipPath id="clip0_2641_32712">
<rect width="24" height="24" fill="white" transform="translate(3 3)"/>
</clipPath>
</defs>
</svg>
