<svg width="31" height="31" viewBox="0 0 31 31" fill="none" xmlns="http://www.w3.org/2000/svg">
<rect x="0.834717" y="0.5" width="30" height="30" rx="6" fill="#008FFD"/>
<path d="M21.8347 10.66C21.7747 10.65 21.7047 10.65 21.6447 10.66C20.2647 10.61 19.1647 9.48 19.1647 8.08C19.1647 6.65 20.3147 5.5 21.7447 5.5C23.1747 5.5 24.3247 6.66 24.3247 8.08C24.3147 9.48 23.2147 10.61 21.8347 10.66Z" stroke="#FCFCFD" stroke-width="1.5" stroke-linecap="round" stroke-linejoin="round"/>
<path d="M20.8047 17.9402C22.1747 18.1702 23.6847 17.9302 24.7447 17.2202C26.1547 16.2802 26.1547 14.7402 24.7447 13.8002C23.6747 13.0902 22.1447 12.8502 20.7747 13.0902" stroke="#FCFCFD" stroke-width="1.5" stroke-linecap="round" stroke-linejoin="round"/>
<path d="M9.80473 10.66C9.86473 10.65 9.93473 10.65 9.99473 10.66C11.3747 10.61 12.4747 9.48 12.4747 8.08C12.4747 6.65 11.3247 5.5 9.89473 5.5C8.46473 5.5 7.31473 6.66 7.31473 8.08C7.32473 9.48 8.42473 10.61 9.80473 10.66Z" stroke="#FCFCFD" stroke-width="1.5" stroke-linecap="round" stroke-linejoin="round"/>
<path d="M10.8347 17.9402C9.46472 18.1702 7.95472 17.9302 6.89472 17.2202C5.48472 16.2802 5.48472 14.7402 6.89472 13.8002C7.96472 13.0902 9.49472 12.8502 10.8647 13.0902" stroke="#FCFCFD" stroke-width="1.5" stroke-linecap="round" stroke-linejoin="round"/>
<path d="M15.8347 18.1297C15.7747 18.1197 15.7047 18.1197 15.6447 18.1297C14.2647 18.0797 13.1647 16.9497 13.1647 15.5497C13.1647 14.1197 14.3147 12.9697 15.7447 12.9697C17.1747 12.9697 18.3247 14.1297 18.3247 15.5497C18.3147 16.9497 17.2147 18.0897 15.8347 18.1297Z" stroke="#FCFCFD" stroke-width="1.5" stroke-linecap="round" stroke-linejoin="round"/>
<path d="M12.9247 21.2794C11.5147 22.2194 11.5147 23.7594 12.9247 24.6994C14.5247 25.7694 17.1447 25.7694 18.7447 24.6994C20.1547 23.7594 20.1547 22.2194 18.7447 21.2794C17.1547 20.2194 14.5247 20.2194 12.9247 21.2794Z" stroke="#FCFCFD" stroke-width="1.5" stroke-linecap="round" stroke-linejoin="round"/>
</svg>
