<svg width="30" height="30" viewBox="0 0 30 30" fill="none" xmlns="http://www.w3.org/2000/svg">
<rect width="30" height="30" rx="6" fill="#008FFD"/>
<g clip-path="url(#clip0_2641_32703)">
<path d="M12.3502 17.5612C12.3502 17.147 12.0144 16.8112 11.6002 16.8112C11.186 16.8112 10.8502 17.147 10.8502 17.5612H12.3502ZM16.6232 13.5201C16.6232 13.9343 16.959 14.2701 17.3732 14.2701C17.7875 14.2701 18.1232 13.9343 18.1232 13.5201H16.6232ZM15.284 10.6808H13.6483V12.1808H15.284V10.6808ZM13.6483 16.2769H15.3389V14.7769H13.6483V16.2769ZM15.3389 18.8455H13.6345V20.3455H15.3389V18.8455ZM13.6345 18.8455C12.9252 18.8455 12.3502 18.2705 12.3502 17.5612H10.8502C10.8502 19.0989 12.0968 20.3455 13.6345 20.3455V18.8455ZM16.6232 17.5612C16.6232 18.2705 16.0482 18.8455 15.3389 18.8455V20.3455C16.8767 20.3455 18.1232 19.0989 18.1232 17.5612H16.6232ZM15.3389 16.2769C16.0482 16.2769 16.6232 16.8519 16.6232 17.5612H18.1232C18.1232 16.0235 16.8767 14.7769 15.3389 14.7769V16.2769ZM10.8502 13.4788C10.8502 15.0242 12.1029 16.2769 13.6483 16.2769V14.7769C12.9314 14.7769 12.3502 14.1957 12.3502 13.4788H10.8502ZM13.6483 10.6808C12.1029 10.6808 10.8502 11.9335 10.8502 13.4788H12.3502C12.3502 12.7619 12.9314 12.1808 13.6483 12.1808V10.6808ZM18.1232 13.5201C18.1232 11.952 16.8521 10.6808 15.284 10.6808V12.1808C16.0236 12.1808 16.6232 12.7804 16.6232 13.5201H18.1232Z" fill="#FCFCFD"/>
<path d="M14.487 9.35529V21.6711" stroke="#FCFCFD" stroke-width="1.5" stroke-linecap="round"/>
<path d="M16.3988 6.47444C15.7819 6.34459 15.1424 6.27631 14.4868 6.27631C9.38548 6.27631 5.25 10.4118 5.25 15.5132C5.25 20.6145 9.38548 24.75 14.4868 24.75C19.5882 24.75 23.7237 20.6145 23.7237 15.5132C23.7237 14.5645 23.5807 13.6492 23.315 12.7878" stroke="#FCFCFD" stroke-width="1.5" stroke-linecap="round"/>
<path d="M22.4352 11.1879C22.8491 11.204 23.1976 10.8815 23.2137 10.4676C23.2298 10.0537 22.9073 9.70511 22.4934 9.68904L22.4352 11.1879ZM19.6699 10.33L18.9205 10.3591C18.9357 10.7504 19.2494 11.0642 19.6408 11.0794L19.6699 10.33ZM20.3108 7.50652C20.2948 7.09262 19.9462 6.77011 19.5323 6.78618C19.1184 6.80225 18.7959 7.15081 18.812 7.56471L20.3108 7.50652ZM22.4934 9.68904L19.699 9.58054L19.6408 11.0794L22.4352 11.1879L22.4934 9.68904ZM20.4193 10.3009L20.3108 7.50652L18.812 7.56471L18.9205 10.3591L20.4193 10.3009Z" fill="#FCFCFD"/>
<path d="M19.7752 10.2248L23.2986 6.70142" stroke="#FCFCFD" stroke-width="1.5" stroke-linecap="round"/>
</g>
<defs>
<clipPath id="clip0_2641_32703">
<rect width="24" height="24" fill="white" transform="translate(3 3)"/>
</clipPath>
</defs>
</svg>
