<svg width="40" height="41" viewBox="0 0 40 41" fill="none" xmlns="http://www.w3.org/2000/svg">
<rect y="0.249023" width="40" height="40" rx="20" fill="#141416"/>
<path d="M31.7954 14.3028C31.6527 13.7915 31.3805 13.3257 31.0052 12.9503C30.6298 12.575 30.164 12.3028 29.6527 12.1601C27.7338 11.646 20.0108 11.646 20.0108 11.646C20.0108 11.646 12.3074 11.6357 10.369 12.1601C9.85768 12.3028 9.39185 12.575 9.01651 12.9503C8.64117 13.3257 8.369 13.7915 8.22631 14.3028C7.86256 16.2674 7.68322 18.2617 7.69065 20.2597C7.68463 22.2501 7.86395 24.2368 8.22631 26.194C8.369 26.7053 8.64117 27.1711 9.01651 27.5464C9.39185 27.9218 9.85768 28.194 10.369 28.3366C12.2858 28.8518 20.0108 28.8518 20.0108 28.8518C20.0108 28.8518 27.7133 28.8518 29.6527 28.3366C30.164 28.194 30.6298 27.9218 31.0052 27.5464C31.3805 27.1711 31.6527 26.7053 31.7954 26.194C32.1501 24.2361 32.3219 22.2494 32.3084 20.2597C32.3233 18.2624 32.1515 16.2681 31.7954 14.3028ZM17.546 23.9446V16.5634L23.9739 20.2597L17.546 23.9446Z" fill="#FCFCFD"/>
</svg>
