<svg width="21" height="20" viewBox="0 0 21 20" fill="none" xmlns="http://www.w3.org/2000/svg">
<path d="M5.5 12.5013C5.5 12.0411 5.8731 11.668 6.33333 11.668H9.66667C10.1269 11.668 10.5 12.0411 10.5 12.5013C10.5 12.9615 10.1269 13.3346 9.66667 13.3346H6.33333C5.8731 13.3346 5.5 12.9615 5.5 12.5013Z" fill="#CDCECF"/>
<path d="M2.16699 7.5H18.8337V9.16667H2.16699V7.5Z" fill="#CDCECF"/>
<path fill-rule="evenodd" clip-rule="evenodd" d="M6.96591 3.33203H14.0347C14.7056 3.33202 15.2592 3.33201 15.7102 3.36886C16.1786 3.40713 16.6092 3.48927 17.0136 3.69534C17.6408 4.01492 18.1508 4.52486 18.4703 5.15206C18.6764 5.55651 18.7586 5.9871 18.7968 6.45551C18.8337 6.9065 18.8337 7.46013 18.8337 8.13093V11.8665C18.8337 12.5373 18.8337 13.0909 18.7968 13.5419C18.7586 14.0103 18.6764 14.4409 18.4703 14.8453C18.1508 15.4725 17.6408 15.9825 17.0136 16.3021C16.6092 16.5081 16.1786 16.5903 15.7102 16.6285C15.2592 16.6654 14.7055 16.6654 14.0347 16.6654H6.96593C6.29511 16.6654 5.74147 16.6654 5.29047 16.6285C4.82206 16.5903 4.39147 16.5081 3.98702 16.3021C3.35982 15.9825 2.84988 15.4725 2.5303 14.8453C2.32423 14.4409 2.24209 14.0103 2.20382 13.5419C2.16697 13.0909 2.16698 12.5373 2.16699 11.8664V8.13095C2.16698 7.46014 2.16697 6.90651 2.20382 6.45551C2.24209 5.9871 2.32423 5.55651 2.5303 5.15206C2.84988 4.52486 3.35982 4.01492 3.98702 3.69534C4.39147 3.48927 4.82206 3.40713 5.29047 3.36886C5.74147 3.33201 6.2951 3.33202 6.96591 3.33203ZM5.42619 5.02999C5.06084 5.05984 4.87401 5.11395 4.74368 5.18035C4.43007 5.34014 4.1751 5.59511 4.01532 5.90871C3.94891 6.03905 3.8948 6.22588 3.86495 6.59123C3.83431 6.96631 3.83366 7.45155 3.83366 8.16537V11.832C3.83366 12.5458 3.83431 13.0311 3.86495 13.4062C3.8948 13.7715 3.94891 13.9584 4.01532 14.0887C4.1751 14.4023 4.43007 14.6573 4.74368 14.817C4.87401 14.8835 5.06084 14.9376 5.42619 14.9674C5.80127 14.9981 6.28651 14.9987 7.00033 14.9987H14.0003C14.7141 14.9987 15.1994 14.9981 15.5745 14.9674C15.9398 14.9376 16.1266 14.8835 16.257 14.817C16.5706 14.6573 16.8255 14.4023 16.9853 14.0887C17.0517 13.9584 17.1058 13.7715 17.1357 13.4062C17.1663 13.0311 17.167 12.5458 17.167 11.832V8.16537C17.167 7.45155 17.1663 6.9663 17.1357 6.59123C17.1058 6.22588 17.0517 6.03905 16.9853 5.90871C16.8255 5.59511 16.5706 5.34014 16.257 5.18035C16.1266 5.11395 15.9398 5.05984 15.5745 5.02999C15.1994 4.99935 14.7141 4.9987 14.0003 4.9987H7.00033C6.28651 4.9987 5.80127 4.99935 5.42619 5.02999Z" fill="#CDCECF"/>
</svg>
