<svg width="21" height="20" viewBox="0 0 21 20" fill="none" xmlns="http://www.w3.org/2000/svg">
<path d="M5.5 12.5013C5.5 12.0411 5.8731 11.668 6.33333 11.668H9.66667C10.1269 11.668 10.5 12.0411 10.5 12.5013C10.5 12.9615 10.1269 13.3346 9.66667 13.3346H6.33333C5.8731 13.3346 5.5 12.9615 5.5 12.5013Z" fill="#262729"/>
<path d="M2.16675 7.5H18.8334V9.16667H2.16675V7.5Z" fill="#262729"/>
<path fill-rule="evenodd" clip-rule="evenodd" d="M6.96567 3.33203H14.0345C14.7053 3.33202 15.2589 3.33201 15.7099 3.36886C16.1784 3.40713 16.6089 3.48927 17.0134 3.69534C17.6406 4.01492 18.1505 4.52486 18.4701 5.15206C18.6762 5.55651 18.7583 5.9871 18.7966 6.45551C18.8334 6.9065 18.8334 7.46013 18.8334 8.13093V11.8665C18.8334 12.5373 18.8334 13.0909 18.7966 13.5419C18.7583 14.0103 18.6762 14.4409 18.4701 14.8453C18.1505 15.4725 17.6406 15.9825 17.0134 16.3021C16.6089 16.5081 16.1784 16.5903 15.7099 16.6285C15.2589 16.6654 14.7053 16.6654 14.0345 16.6654H6.96569C6.29487 16.6654 5.74123 16.6654 5.29023 16.6285C4.82181 16.5903 4.39123 16.5081 3.98678 16.3021C3.35957 15.9825 2.84964 15.4725 2.53006 14.8453C2.32398 14.4409 2.24185 14.0103 2.20358 13.5419C2.16673 13.0909 2.16674 12.5373 2.16675 11.8664V8.13095C2.16674 7.46014 2.16673 6.90651 2.20358 6.45551C2.24185 5.9871 2.32398 5.55651 2.53006 5.15206C2.84964 4.52486 3.35957 4.01492 3.98678 3.69534C4.39123 3.48927 4.82181 3.40713 5.29023 3.36886C5.74122 3.33201 6.29486 3.33202 6.96567 3.33203ZM5.42595 5.02999C5.0606 5.05984 4.87376 5.11395 4.74343 5.18035C4.42983 5.34014 4.17486 5.59511 4.01507 5.90871C3.94866 6.03905 3.89456 6.22588 3.86471 6.59123C3.83406 6.96631 3.83342 7.45155 3.83342 8.16537V11.832C3.83342 12.5458 3.83406 13.0311 3.86471 13.4062C3.89456 13.7715 3.94866 13.9584 4.01507 14.0887C4.17486 14.4023 4.42983 14.6573 4.74343 14.817C4.87376 14.8835 5.0606 14.9376 5.42595 14.9674C5.80102 14.9981 6.28627 14.9987 7.00008 14.9987H14.0001C14.7139 14.9987 15.1991 14.9981 15.5742 14.9674C15.9396 14.9376 16.1264 14.8835 16.2567 14.817C16.5703 14.6573 16.8253 14.4023 16.9851 14.0887C17.0515 13.9584 17.1056 13.7715 17.1355 13.4062C17.1661 13.0311 17.1667 12.5458 17.1667 11.832V8.16537C17.1667 7.45155 17.1661 6.9663 17.1355 6.59123C17.1056 6.22588 17.0515 6.03905 16.9851 5.90871C16.8253 5.59511 16.5703 5.34014 16.2567 5.18035C16.1264 5.11395 15.9396 5.05984 15.5742 5.02999C15.1991 4.99935 14.7139 4.9987 14.0001 4.9987H7.00008C6.28627 4.9987 5.80102 4.99935 5.42595 5.02999Z" fill="#262729"/>
</svg>
