<svg width="21" height="20" viewBox="0 0 21 20" fill="none" xmlns="http://www.w3.org/2000/svg">
<path fill-rule="evenodd" clip-rule="evenodd" d="M8.00033 9.16667V12.5H6.33366V9.16667H8.00033ZM4.66699 7.5H6.33366H8.00033H9.66699V9.16667V12.5V14.1667H8.00033H6.33366H4.66699V12.5V9.16667V7.5ZM14.667 9.16667V12.5H13.0003V9.16667H14.667ZM11.3337 7.5H13.0003H14.667H16.3337V9.16667V12.5V14.1667H14.667H13.0003H11.3337V12.5V9.16667V7.5Z" fill="#CDCECF"/>
<path fill-rule="evenodd" clip-rule="evenodd" d="M15.5 14.1667H5.5C5.03976 14.1667 4.66667 14.5398 4.66667 15C4.66667 15.4602 5.03976 15.8333 5.5 15.8333H15.5C15.9602 15.8333 16.3333 15.4602 16.3333 15C16.3333 14.5398 15.9602 14.1667 15.5 14.1667ZM5.5 12.5C4.11929 12.5 3 13.6193 3 15C3 16.3807 4.11929 17.5 5.5 17.5H15.5C16.8807 17.5 18 16.3807 18 15C18 13.6193 16.8807 12.5 15.5 12.5H5.5Z" fill="#CDCECF"/>
<path fill-rule="evenodd" clip-rule="evenodd" d="M5.44055 7.49839H15.5595C15.9869 7.49839 16.3333 7.15191 16.3333 6.72451C16.3333 6.39649 16.1265 6.10411 15.8173 5.99483L10.7776 4.21427C10.598 4.1508 10.402 4.1508 10.2224 4.21427L5.18274 5.99483C4.87346 6.10411 4.66667 6.39649 4.66667 6.72451C4.66667 7.15191 5.01314 7.49839 5.44055 7.49839ZM4.62753 4.42336C3.65216 4.76797 3 5.69005 3 6.72451C3 8.07239 4.09267 9.16506 5.44055 9.16506H15.5595C16.9073 9.16506 18 8.07239 18 6.72451C18 5.69005 17.3478 4.76797 16.3725 4.42337L11.3328 2.6428C10.7939 2.4524 10.2061 2.4524 9.66717 2.6428L4.62753 4.42336Z" fill="#CDCECF"/>
</svg>
