<svg width="24" height="24" viewBox="0 0 24 24" fill="none" xmlns="http://www.w3.org/2000/svg">
<g clip-path="url(#clip0_208_47882)">
<path d="M4.78515 12.8089L4.25482 12.2785L4.25482 12.2785L4.78515 12.8089ZM4.0771 13.5169L3.54677 12.9866H3.54677L4.0771 13.5169ZM19.9234 13.5169L20.4538 12.9866L20.4538 12.9866L19.9234 13.5169ZM19.592 13.1855L19.0617 13.7158L19.0617 13.7158L19.592 13.1855ZM18.4551 18.2606L18.593 18.9978L18.4551 18.2606ZM5.54548 18.2606L5.4075 18.9978L5.54548 18.2606ZM5.50027 8.71875V9.27176H7.00027V8.71875H5.50027ZM4.25482 12.2785L3.54677 12.9866L4.60743 14.0472L5.31548 13.3392L4.25482 12.2785ZM20.4538 12.9866L20.1223 12.6552L19.0617 13.7158L19.3931 14.0472L20.4538 12.9866ZM19.0003 9.94624V8.71875H17.5003V9.94624H19.0003ZM20.1223 12.6552C19.4039 11.9367 19.0003 10.9623 19.0003 9.94624H17.5003C17.5003 11.3601 18.0619 12.7161 19.0617 13.7158L20.1223 12.6552ZM18.593 18.9978C21.405 18.4715 22.4767 15.0095 20.4538 12.9866L19.3931 14.0472C20.5629 15.2171 19.9432 17.2191 18.3171 17.5234L18.593 18.9978ZM5.4075 18.9978C9.76485 19.8134 14.2357 19.8134 18.593 18.9978L18.3171 17.5234C14.1421 18.3048 9.85842 18.3048 5.68346 17.5234L5.4075 18.9978ZM3.54677 12.9866C1.52387 15.0095 2.59551 18.4715 5.4075 18.9978L5.68346 17.5234C4.05733 17.2191 3.43763 15.2171 4.60743 14.0472L3.54677 12.9866ZM5.50027 9.27176C5.50027 10.3995 5.05227 11.4811 4.25482 12.2785L5.31548 13.3392C6.39423 12.2604 7.00027 10.7973 7.00027 9.27176H5.50027ZM12.2503 1.96875C8.52235 1.96875 5.50027 4.99083 5.50027 8.71875H7.00027C7.00027 5.81926 9.35078 3.46875 12.2503 3.46875V1.96875ZM12.2503 3.46875C15.1498 3.46875 17.5003 5.81926 17.5003 8.71875H19.0003C19.0003 4.99083 15.9782 1.96875 12.2503 1.96875V3.46875Z" fill="#141416"/>
<path d="M8.50049 18.3125V18.5313H10.0005V18.3125H8.50049ZM15.5005 18.5313V18.3125H14.0005V18.5313H15.5005ZM12.0005 22.0313C13.9335 22.0313 15.5005 20.4642 15.5005 18.5313H14.0005C14.0005 19.6358 13.1051 20.5313 12.0005 20.5313V22.0313ZM8.50049 18.5313C8.50049 20.4642 10.0675 22.0313 12.0005 22.0313V20.5313C10.8959 20.5313 10.0005 19.6358 10.0005 18.5313H8.50049Z" fill="#141416"/>
</g>
<defs>
<clipPath id="clip0_208_47882">
<rect width="24" height="24" fill="white"/>
</clipPath>
</defs>
</svg>
