<svg width="17" height="16" viewBox="0 0 17 16" fill="none" xmlns="http://www.w3.org/2000/svg">
<path d="M16.2605 9.9354C15.1919 14.2211 10.8507 16.8294 6.56401 15.7606C2.27905 14.6921 -0.329473 10.3511 0.739641 6.06565C1.80775 1.7794 6.14897 -0.829101 10.4344 0.239399C14.7209 1.3079 17.3292 5.6494 16.2605 9.9354Z" fill="#F7931A"/>
<path fill-rule="evenodd" clip-rule="evenodd" d="M12.0261 6.86181C12.1853 5.79731 11.3748 5.22506 10.2666 4.84331L10.6261 3.40131L9.74833 3.18256L9.39833 4.58656C9.16758 4.52906 8.93058 4.47481 8.69508 4.42106L9.04758 3.00781L8.17033 2.78906L7.81058 4.23056C7.61958 4.18706 7.43208 4.14406 7.25008 4.09881L7.25108 4.09431L6.04058 3.79206L5.80708 4.72956C5.80708 4.72956 6.45833 4.87881 6.44458 4.88806C6.80008 4.97681 6.86433 5.21206 6.85358 5.39856L6.44408 7.04131C6.46858 7.04756 6.50033 7.05656 6.53533 7.07056L6.50558 7.06313C6.48522 7.05803 6.46412 7.05274 6.44258 7.04756L5.86858 9.34881C5.82508 9.45681 5.71483 9.61881 5.46633 9.55731C5.47508 9.57006 4.82833 9.39806 4.82833 9.39806L4.39258 10.4028L5.53483 10.6876C5.66238 10.7195 5.78841 10.7524 5.91312 10.7849C5.99617 10.8066 6.07863 10.8281 6.16058 10.8491L5.79733 12.3076L6.67408 12.5263L7.03383 11.0833C7.27333 11.1483 7.50583 11.2083 7.73333 11.2648L7.37483 12.7011L8.25258 12.9198L8.61583 11.4641C10.1126 11.7473 11.2381 11.6331 11.7118 10.2793C12.0936 9.18931 11.6928 8.56056 10.9053 8.15056C11.4788 8.01831 11.9108 7.64106 12.0261 6.86181ZM10.0206 9.67406C9.77172 10.6741 8.20641 10.2607 7.4902 10.0715C7.42576 10.0545 7.36819 10.0393 7.31908 10.0271L7.80108 8.09481C7.86088 8.10974 7.93393 8.12613 8.0167 8.1447L8.01673 8.14471C8.75749 8.31093 10.2756 8.65157 10.0206 9.67406ZM8.16556 7.24801C8.7627 7.40737 10.0652 7.75496 10.2921 6.84606C10.5238 5.91639 9.25783 5.63614 8.63958 5.49928C8.57003 5.48388 8.50868 5.4703 8.45858 5.45781L8.02158 7.21031C8.06286 7.2206 8.1113 7.23353 8.16556 7.24801Z" fill="white"/>
</svg>
