<svg width="32" height="32" viewBox="0 0 32 32" fill="none" xmlns="http://www.w3.org/2000/svg">
<rect width="32" height="32" rx="16" fill="#EFF8FF"/>
<path d="M13.9992 9.33334C13.8225 9.33334 13.6659 9.39601 13.5405 9.52067L12.3952 10.6667C12.2039 10.6667 11.9992 10.6667 11.9992 10.6667C10.5265 10.6667 9.33252 11.8607 9.33252 13.3333V19.3333C9.33252 20.806 10.5265 22 11.9992 22H19.9992C21.4719 22 22.6659 20.806 22.6659 19.3333V13.3333C22.6659 11.8607 21.4719 10.6667 19.9992 10.6667H19.6245L18.4785 9.52067C18.3532 9.39601 18.1759 9.33334 17.9992 9.33334H13.9992ZM14.2912 10.6667H17.7285L18.8739 11.8127C18.9992 11.9373 19.1559 12 19.3325 12H19.9992C20.7359 12 21.3325 12.5967 21.3325 13.3333V19.3333C21.3325 20.07 20.7359 20.6667 19.9992 20.6667H11.9992C11.2625 20.6667 10.6659 20.07 10.6659 19.3333V13.3333C10.6659 12.5967 11.2625 12 11.9992 12H12.6659C12.8425 12 13.0199 11.9373 13.1452 11.8127L14.2912 10.6667Z" fill="#1570EF"/>
<path d="M15.9998 12.6667C14.1592 12.6667 12.6665 14.1593 12.6665 16C12.6665 17.8407 14.1592 19.3333 15.9998 19.3333C17.8405 19.3333 19.3332 17.8407 19.3332 16C19.3332 14.1593 17.8405 12.6667 15.9998 12.6667ZM19.9998 12.6667C19.6318 12.6667 19.3332 12.9653 19.3332 13.3333C19.3332 13.7013 19.6318 14 19.9998 14C20.3678 14 20.6665 13.7013 20.6665 13.3333C20.6665 12.9653 20.3678 12.6667 19.9998 12.6667ZM15.9998 14C17.1045 14 17.9998 14.8953 17.9998 16C17.9998 17.1047 17.1045 18 15.9998 18C14.8952 18 13.9998 17.1047 13.9998 16C13.9998 14.8953 14.8952 14 15.9998 14Z" fill="#1570EF"/>
</svg>
