<svg width="32" height="33" viewBox="0 0 32 33" fill="none" xmlns="http://www.w3.org/2000/svg">
<g clip-path="url(#clip0_1361_26442)">
<mask id="path-1-inside-1_1361_26442" fill="white">
<rect x="10" y="25.771" width="6.66667" height="10.6667" rx="1.33333" transform="rotate(-180 10 25.771)"/>
</mask>
<rect x="10" y="25.771" width="6.66667" height="10.6667" rx="1.33333" transform="rotate(-180 10 25.771)" stroke="#141416" stroke-width="4" mask="url(#path-1-inside-1_1361_26442)"/>
<path d="M7.66699 13.1092C7.66699 12.5569 7.21928 12.1092 6.66699 12.1092C6.11471 12.1092 5.66699 12.5569 5.66699 13.1092L7.66699 13.1092ZM5.66699 15.7759C5.66699 16.3282 6.11471 16.7759 6.66699 16.7759C7.21928 16.7759 7.66699 16.3282 7.66699 15.7759L5.66699 15.7759ZM5.66699 13.1092L5.66699 15.7759L7.66699 15.7759L7.66699 13.1092L5.66699 13.1092Z" fill="#141416"/>
<path d="M7.66699 25.0991C7.66699 24.5468 7.21928 24.0991 6.66699 24.0991C6.11471 24.0991 5.66699 24.5468 5.66699 25.0991L7.66699 25.0991ZM5.66699 29.0991C5.66699 29.6514 6.11471 30.0991 6.66699 30.0991C7.21928 30.0991 7.66699 29.6514 7.66699 29.0991L5.66699 29.0991ZM5.66699 25.0991L5.66699 29.0991L7.66699 29.0991L7.66699 25.0991L5.66699 25.0991Z" fill="#141416"/>
<mask id="path-4-inside-2_1361_26442" fill="white">
<rect x="19.3335" y="18.7461" width="6.66667" height="10.6667" rx="1.33333" transform="rotate(-180 19.3335 18.7461)"/>
</mask>
<rect x="19.3335" y="18.7461" width="6.66667" height="10.6667" rx="1.33333" transform="rotate(-180 19.3335 18.7461)" stroke="#141416" stroke-width="4" mask="url(#path-4-inside-2_1361_26442)"/>
<path d="M17 4.40088C17 3.84859 16.5523 3.40088 16 3.40088C15.4477 3.40088 15 3.84859 15 4.40088L17 4.40088ZM15 8.40088C15 8.95316 15.4477 9.40088 16 9.40088C16.5523 9.40088 17 8.95316 17 8.40088L15 8.40088ZM15 4.40088L15 8.40088L17 8.40088L17 4.40088L15 4.40088Z" fill="#141416"/>
<mask id="path-6-inside-3_1361_26442" fill="white">
<rect x="28.6665" y="24.7524" width="6.66667" height="10.6667" rx="1.33333" transform="rotate(-180 28.6665 24.7524)"/>
</mask>
<rect x="28.6665" y="24.7524" width="6.66667" height="10.6667" rx="1.33333" transform="rotate(-180 28.6665 24.7524)" stroke="#141416" stroke-width="4" mask="url(#path-6-inside-3_1361_26442)"/>
<path d="M26.3335 23.8906C26.3335 23.3383 25.8858 22.8906 25.3335 22.8906C24.7812 22.8906 24.3335 23.3383 24.3335 23.8906L26.3335 23.8906ZM24.3335 27.8906C24.3335 28.4429 24.7812 28.8906 25.3335 28.8906C25.8858 28.8906 26.3335 28.4429 26.3335 27.8906L24.3335 27.8906ZM24.3335 23.8906L24.3335 27.8906L26.3335 27.8906L26.3335 23.8906L24.3335 23.8906Z" fill="#141416"/>
<path d="M26.3335 10.9478C26.3335 10.3955 25.8858 9.94775 25.3335 9.94775C24.7812 9.94775 24.3335 10.3955 24.3335 10.9478L26.3335 10.9478ZM24.3335 14.9478C24.3335 15.5 24.7812 15.9478 25.3335 15.9478C25.8858 15.9478 26.3335 15.5 26.3335 14.9478L24.3335 14.9478ZM24.3335 10.9478L24.3335 14.9478L26.3335 14.9478L26.3335 10.9478L24.3335 10.9478Z" fill="#141416"/>
</g>
<defs>
<clipPath id="clip0_1361_26442">
<rect width="32" height="32" fill="white" transform="translate(0 0.75)"/>
</clipPath>
</defs>
</svg>
