<svg width="16" height="16" viewBox="0 0 16 16" fill="none" xmlns="http://www.w3.org/2000/svg">
<path d="M3.88467 6.02779C3.71801 6.06112 3.55001 6.14512 3.44801 6.29779C3.24401 6.60312 3.32933 7.02846 3.63533 7.23179L7.62933 9.88844C7.85267 10.0371 8.15467 10.0371 8.378 9.88844L12.372 7.23179C12.678 7.02846 12.7633 6.60312 12.5593 6.29779C12.3553 5.99246 11.9293 5.90712 11.6233 6.11112L8.00334 8.51845L4.384 6.11112C4.23133 6.00912 4.05201 5.99446 3.88467 6.02779Z" fill="white"/>
<path fill-rule="evenodd" clip-rule="evenodd" d="M10.3695 8.55469L8.36949 9.88802C8.14555 10.0373 7.85382 10.0373 7.62989 9.88802L5.62988 8.55469L10.3695 8.55469Z" fill="white"/>
</svg>
