<svg width="24" height="24" viewBox="0 0 24 24" fill="none" xmlns="http://www.w3.org/2000/svg">
<path fill-rule="evenodd" clip-rule="evenodd" d="M12.4257 17.7261L17.7257 12.4262C19.4244 10.7275 19.4244 7.9733 17.7257 6.27459C16.0269 4.57588 13.2728 4.57587 11.5741 6.27457L6.27411 11.5745C4.57539 13.2732 4.57538 16.0274 6.27408 17.7261C7.9728 19.4248 10.727 19.4248 12.4257 17.7261ZM13.8399 19.1403L19.1399 13.8404C21.6196 11.3606 21.6196 7.34014 19.1399 4.86037C16.6601 2.38062 12.6396 2.38061 10.1599 4.86035L4.85991 10.1603C2.38013 12.64 2.38011 16.6605 4.85986 19.1403C7.33962 21.6201 11.3601 21.6201 13.8399 19.1403Z" fill="white"/>
<path fill-rule="evenodd" clip-rule="evenodd" d="M15.7071 8.29289C16.0976 8.68342 16.0976 9.31658 15.7071 9.70711L13.7071 11.7071C13.3166 12.0976 12.6834 12.0976 12.2929 11.7071C11.9024 11.3166 11.9024 10.6834 12.2929 10.2929L14.2929 8.29289C14.6834 7.90237 15.3166 7.90237 15.7071 8.29289Z" fill="white"/>
</svg>
