<svg width="12" height="12" viewBox="0 0 12 12" fill="none" xmlns="http://www.w3.org/2000/svg">
<path fill-rule="evenodd" clip-rule="evenodd" d="M6 2C3.79086 2 2 3.79086 2 6C2 8.20914 3.79086 10 6 10C8.20914 10 10 8.20914 10 6C10 3.79086 8.20914 2 6 2ZM1 6C1 3.23858 3.23858 1 6 1C8.76142 1 11 3.23858 11 6C11 8.76142 8.76142 11 6 11C3.23858 11 1 8.76142 1 6Z" fill="#E3A108"/>
<path fill-rule="evenodd" clip-rule="evenodd" d="M6 3C6.27614 3 6.5 3.22386 6.5 3.5V4.79289L6.64645 4.64645C6.84171 4.45118 7.15829 4.45118 7.35355 4.64645C7.54882 4.84171 7.54882 5.15829 7.35355 5.35355L6.35355 6.35355C6.21055 6.49655 5.9955 6.53933 5.80866 6.46194C5.62182 6.38455 5.5 6.20223 5.5 6V3.5C5.5 3.22386 5.72386 3 6 3Z" fill="#E3A108"/>
</svg>
