<svg width="25" height="25" viewBox="0 0 25 25" fill="none" xmlns="http://www.w3.org/2000/svg">
<path fill-rule="evenodd" clip-rule="evenodd" d="M12.5 20.5C16.9183 20.5 20.5 16.9183 20.5 12.5C20.5 8.08172 16.9183 4.5 12.5 4.5C8.08172 4.5 4.5 8.08172 4.5 12.5C4.5 16.9183 8.08172 20.5 12.5 20.5ZM12.5 22.5C18.0228 22.5 22.5 18.0228 22.5 12.5C22.5 6.97715 18.0228 2.5 12.5 2.5C6.97715 2.5 2.5 6.97715 2.5 12.5C2.5 18.0228 6.97715 22.5 12.5 22.5Z" fill="#6EFDEB"/>
<path fill-rule="evenodd" clip-rule="evenodd" d="M11.5 7.5C11.5 6.94772 11.9477 6.5 12.5 6.5C13.0523 6.5 13.5 6.94772 13.5 7.5C15.1569 7.5 16.5 8.84315 16.5 10.5C16.5 11.0523 16.0523 11.5 15.5 11.5C14.9477 11.5 14.5 11.0523 14.5 10.5C14.5 9.94772 14.0523 9.5 13.5 9.5H12.5H11.2434C10.8328 9.5 10.5 9.83284 10.5 10.2434C10.5 10.5634 10.7048 10.8475 11.0083 10.9487L14.6241 12.1539C15.7444 12.5274 16.5 13.5757 16.5 14.7566C16.5 16.2717 15.2717 17.5 13.7566 17.5H13.5C13.5 18.0523 13.0523 18.5 12.5 18.5C11.9477 18.5 11.5 18.0523 11.5 17.5C9.84315 17.5 8.5 16.1569 8.5 14.5C8.5 13.9477 8.94772 13.5 9.5 13.5C10.0523 13.5 10.5 13.9477 10.5 14.5C10.5 15.0523 10.9477 15.5 11.5 15.5H12.5H13.7566C14.1672 15.5 14.5 15.1672 14.5 14.7566C14.5 14.4366 14.2952 14.1525 13.9917 14.0513L10.3759 12.846C9.25562 12.4726 8.5 11.4243 8.5 10.2434C8.5 8.72827 9.72827 7.5 11.2434 7.5L11.5 7.5Z" fill="#6EFDEB"/>
</svg>
