<svg width="20" height="21" viewBox="0 0 20 21" fill="none" xmlns="http://www.w3.org/2000/svg">
<path d="M8.85684 0.74816C4.34606 1.25136 0.682506 4.83277 0.0892638 9.33253C-0.751283 15.7091 4.46184 21.1339 10.7763 20.6548C13.0991 20.4785 15.2734 19.4405 16.977 17.8517L17.1233 17.7153C17.2916 17.5583 17.3008 17.2946 17.1438 17.1264L16.5753 16.5167C16.4183 16.3484 16.1547 16.3392 15.9864 16.4962L15.6816 16.7804C13.7866 18.5473 11.1853 19.3422 8.5611 18.8953C4.84176 18.2619 1.98254 15.1042 1.69211 11.3425C1.30809 6.36816 5.32059 2.21132 10.247 2.35449C14.7895 2.48656 18.3333 6.36292 18.3333 10.9073V11.5176C18.3333 12.4916 17.494 13.2727 16.5005 13.1762C15.6346 13.0919 15 12.3137 15 11.4437V7.76761C15 7.53746 14.8134 7.35093 14.5833 7.35093H13.75C13.5827 7.35093 13.4406 7.45093 13.3743 7.59324C12.5358 6.67867 11.3356 6.10093 10 6.10093C7.47274 6.10093 5.41668 8.15699 5.41668 10.6843C5.41668 13.2115 7.47274 15.2676 10 15.2676C11.592 15.2676 12.9957 14.4509 13.8177 13.2153C14.4365 14.2494 15.5862 14.931 16.895 14.8433C18.6646 14.7247 20 13.1735 20 11.3999V10.6843C20 4.79371 14.8801 0.0762069 8.85684 0.74816ZM10 13.6009C8.39192 13.6009 7.08332 12.2923 7.08332 10.6843C7.08332 9.07617 8.39192 7.76757 10 7.76757C11.6081 7.76757 12.9167 9.07617 12.9167 10.6843C12.9167 12.2923 11.6081 13.6009 10 13.6009Z" fill="#6EFDEB"/>
</svg>
