<svg width="25" height="25" viewBox="0 0 25 25" fill="none" xmlns="http://www.w3.org/2000/svg">
<path fill-rule="evenodd" clip-rule="evenodd" d="M3.5 20.5C3.5 19.9477 3.94772 19.5 4.5 19.5H20.5C21.0523 19.5 21.5 19.9477 21.5 20.5C21.5 21.0523 21.0523 21.5 20.5 21.5H4.5C3.94772 21.5 3.5 21.0523 3.5 20.5Z" fill="#6EFDEB"/>
<path fill-rule="evenodd" clip-rule="evenodd" d="M16.5 3.5C14.8431 3.5 13.5 4.84315 13.5 6.5V16.5C13.5 17.0523 13.9477 17.5 14.5 17.5C15.0523 17.5 15.5 17.0523 15.5 16.5V6.5C15.5 5.94772 15.9477 5.5 16.5 5.5C17.0523 5.5 17.5 5.94772 17.5 6.5V16.5C17.5 17.0523 17.9477 17.5 18.5 17.5C19.0523 17.5 19.5 17.0523 19.5 16.5V6.5C19.5 4.84315 18.1569 3.5 16.5 3.5Z" fill="#6EFDEB"/>
<path fill-rule="evenodd" clip-rule="evenodd" d="M8.5 9.5C6.84315 9.5 5.5 10.8431 5.5 12.5V16.5C5.5 17.0523 5.94772 17.5 6.5 17.5C7.05228 17.5 7.5 17.0523 7.5 16.5V12.5C7.5 11.9477 7.94772 11.5 8.5 11.5C9.05228 11.5 9.5 11.9477 9.5 12.5V16.5C9.5 17.0523 9.94772 17.5 10.5 17.5C11.0523 17.5 11.5 17.0523 11.5 16.5V12.5C11.5 10.8431 10.1569 9.5 8.5 9.5Z" fill="#6EFDEB"/>
</svg>
