<svg width="24" height="24" viewBox="0 0 24 24" fill="none" xmlns="http://www.w3.org/2000/svg">
<path d="M8.8125 11.1406C8.8125 10.7264 8.47671 10.3906 8.0625 10.3906C7.64829 10.3906 7.3125 10.7264 7.3125 11.1406L8.8125 11.1406ZM7.3125 12.8594C7.3125 13.2736 7.64829 13.6094 8.0625 13.6094C8.47671 13.6094 8.8125 13.2736 8.8125 12.8594L7.3125 12.8594ZM7.3125 11.1406L7.3125 12.8594L8.8125 12.8594L8.8125 11.1406L7.3125 11.1406Z" fill="#FCFCFD"/>
<path d="M12.75 8.95312C12.75 8.53891 12.4142 8.20312 12 8.20312C11.5858 8.20313 11.25 8.53891 11.25 8.95313L12.75 8.95312ZM11.25 12.8594C11.25 13.2736 11.5858 13.6094 12 13.6094C12.4142 13.6094 12.75 13.2736 12.75 12.8594L11.25 12.8594ZM11.25 8.95313L11.25 12.8594L12.75 12.8594L12.75 8.95312L11.25 8.95313Z" fill="#FCFCFD"/>
<path d="M16.6875 6.79687C16.6875 6.38266 16.3517 6.04687 15.9375 6.04688C15.5233 6.04688 15.1875 6.38266 15.1875 6.79688L16.6875 6.79687ZM15.1875 12.8594C15.1875 13.2736 15.5233 13.6094 15.9375 13.6094C16.3517 13.6094 16.6875 13.2736 16.6875 12.8594L15.1875 12.8594ZM15.1875 6.79688L15.1875 12.8594L16.6875 12.8594L16.6875 6.79687L15.1875 6.79688Z" fill="#FCFCFD"/>
<mask id="path-4-inside-1_141_1410" fill="white">
<path d="M2 10.4108C2 6.63953 2 4.75391 3.17157 3.58234C4.34315 2.41077 6.22876 2.41077 10 2.41077H14C17.7712 2.41077 19.6569 2.41077 20.8284 3.58234C22 4.75391 22 6.63953 22 10.4108V15.0391C22 16.9012 20.4904 18.4108 18.6283 18.4108H16C15.1019 18.4108 15.4481 19.1032 15.3809 19.9988C15.2753 21.4071 13.6088 22.0923 12.5431 21.1656L10.2833 19.2006C9.69758 18.6913 8.94752 18.4108 8.17132 18.4108H7.36764C6.09567 18.4108 5.45968 18.4108 4.93872 18.2674C3.57942 17.8934 2.51741 16.8313 2.14336 15.472C2 14.9511 2 14.3151 2 13.0431V10.4108Z"/>
</mask>
<path d="M10.2833 19.2006L11.2676 18.0687L10.2833 19.2006ZM15.3809 19.9988L16.8767 20.111L15.3809 19.9988ZM12.5431 21.1656L13.5273 20.0337L12.5431 21.1656ZM2.14336 15.472L3.5896 15.0741L2.14336 15.472ZM4.93872 18.2674L5.3367 16.8212L4.93872 18.2674ZM10 3.91077H14V0.910767H10V3.91077ZM20.5 10.4108V15.0391H23.5V10.4108H20.5ZM3.5 13.0431V10.4108H0.5V13.0431H3.5ZM18.6283 16.9108H16V19.9108H18.6283V16.9108ZM13.5273 20.0337L11.2676 18.0687L9.29903 20.3325L11.5588 22.2975L13.5273 20.0337ZM8.17132 16.9108H7.36764V19.9108H8.17132V16.9108ZM11.2676 18.0687C10.4089 17.322 9.30926 16.9108 8.17132 16.9108V19.9108C8.58578 19.9108 8.98628 20.0605 9.29903 20.3325L11.2676 18.0687ZM13.8851 19.8866C13.8806 19.9463 13.8633 19.9785 13.8472 19.9998C13.8274 20.0259 13.7953 20.0526 13.7516 20.0705C13.7079 20.0885 13.6663 20.0921 13.6339 20.0875C13.6075 20.0837 13.5725 20.073 13.5273 20.0337L11.5588 22.2975C13.5559 24.0341 16.6788 22.7501 16.8767 20.111L13.8851 19.8866ZM16 16.9108C15.6222 16.9108 15.0593 16.9767 14.5748 17.3796C14.0606 17.8071 13.9284 18.3656 13.8895 18.6907C13.8541 18.9858 13.8746 19.3013 13.8813 19.4433C13.8904 19.637 13.8943 19.7646 13.8851 19.8866L16.8767 20.111C16.9011 19.7852 16.8869 19.4904 16.878 19.3023C16.8731 19.1974 16.8701 19.1353 16.8693 19.0811C16.8686 19.028 16.871 19.0242 16.8682 19.0471C16.8634 19.0872 16.8172 19.4166 16.4929 19.6863C16.1981 19.9314 15.9288 19.9108 16 19.9108V16.9108ZM0.5 13.0431C0.5 14.216 0.486449 15.1045 0.697117 15.87L3.5896 15.0741C3.51355 14.7977 3.5 14.4142 3.5 13.0431H0.5ZM7.36764 16.9108C5.99652 16.9108 5.61305 16.8972 5.3367 16.8212L4.54074 19.7136C5.3063 19.9243 6.19481 19.9108 7.36764 19.9108V16.9108ZM0.697117 15.87C1.21144 17.7391 2.67171 19.1993 4.54074 19.7136L5.3367 16.8212C4.48714 16.5874 3.82338 15.9236 3.5896 15.0741L0.697117 15.87ZM20.5 15.0391C20.5 16.0728 19.662 16.9108 18.6283 16.9108V19.9108C21.3189 19.9108 23.5 17.7296 23.5 15.0391H20.5ZM14 3.91077C15.928 3.91077 17.2231 3.91395 18.1892 4.04384C19.1121 4.16792 19.5071 4.38237 19.7678 4.643L21.8891 2.52168C20.9781 1.61074 19.8445 1.2394 18.589 1.07059C17.3765 0.907581 15.8432 0.910767 14 0.910767V3.91077ZM23.5 10.4108C23.5 8.56755 23.5032 7.03425 23.3402 5.82181C23.1714 4.56622 22.8 3.43262 21.8891 2.52168L19.7678 4.643C20.0284 4.90363 20.2428 5.29863 20.3669 6.22155C20.4968 7.18762 20.5 8.48274 20.5 10.4108H23.5ZM10 0.910767C8.15679 0.910767 6.62348 0.907581 5.41104 1.07059C4.15545 1.2394 3.02185 1.61074 2.11091 2.52168L4.23223 4.643C4.49287 4.38237 4.88786 4.16792 5.81078 4.04384C6.77686 3.91395 8.07198 3.91077 10 3.91077V0.910767ZM3.5 10.4108C3.5 8.48274 3.50319 7.18762 3.63307 6.22155C3.75715 5.29863 3.9716 4.90363 4.23223 4.643L2.11091 2.52168C1.19997 3.43262 0.828632 4.56622 0.659822 5.82181C0.496814 7.03425 0.5 8.56755 0.5 10.4108H3.5Z" fill="#FCFCFD" mask="url(#path-4-inside-1_141_1410)"/>
</svg>
