<svg width="25" height="24" viewBox="0 0 25 24" fill="none" xmlns="http://www.w3.org/2000/svg">
<path d="M13.7772 3.91296C14.9097 3.91296 15.714 3.91355 16.3433 3.96497C16.964 4.01568 17.3482 4.11206 17.6527 4.26719C18.2642 4.57878 18.7614 5.07597 19.073 5.68749C19.2281 5.99197 19.3245 6.37622 19.3752 6.99685C19.4266 7.62623 19.4272 8.43048 19.4272 9.56296V18.7429C19.4272 19.1571 19.763 19.4929 20.1772 19.4929C20.5914 19.4929 20.9272 19.1571 20.9272 18.7429V9.52994C20.9272 8.43784 20.9272 7.5723 20.8702 6.8747C20.812 6.16131 20.6903 5.55768 20.4095 5.00651C19.9541 4.11274 19.2275 3.38608 18.3337 2.93068C17.7825 2.64985 17.1789 2.52824 16.4655 2.46995C15.7679 2.41295 14.9024 2.41296 13.8102 2.41296H5.54169C5.12747 2.41296 4.79169 2.74875 4.79169 3.16296C4.79169 3.57718 5.12747 3.91296 5.54169 3.91296H13.7772Z" fill="white"/>
<path d="M5.79115 6.32202H13.1585C13.6927 6.32201 14.1385 6.322 14.5028 6.35176C14.8827 6.3828 15.2393 6.44991 15.5766 6.62175C16.094 6.88541 16.5147 7.3061 16.7784 7.82355C16.9502 8.16081 17.0173 8.51747 17.0484 8.89735C17.0781 9.26157 17.0781 9.7074 17.0781 10.2415V18.4934C17.0781 19.0276 17.0781 19.4734 17.0484 19.8377C17.0173 20.2175 16.9502 20.5742 16.7784 20.9115C16.5147 21.4289 16.094 21.8496 15.5766 22.1133C15.2393 22.2851 14.8827 22.3522 14.5028 22.3832C14.1385 22.413 13.6927 22.413 13.1586 22.413H5.79113C5.25699 22.413 4.81114 22.413 4.44691 22.3832C4.06703 22.3522 3.71037 22.2851 3.37311 22.1133C2.85566 21.8496 2.43497 21.4289 2.17132 20.9115C1.99947 20.5742 1.93236 20.2175 1.90132 19.8377C1.87156 19.4734 1.87157 19.0276 1.87158 18.4934V10.2416C1.87157 9.70744 1.87156 9.26158 1.90132 8.89735C1.93236 8.51747 1.99947 8.16081 2.17132 7.82355C2.43497 7.3061 2.85566 6.88541 3.37311 6.62175C3.71037 6.44991 4.06703 6.3828 4.44691 6.35176C4.81115 6.322 5.25699 6.32201 5.79115 6.32202Z" fill="white"/>
</svg>
