<svg width="24" height="24" viewBox="0 0 24 24" fill="none" xmlns="http://www.w3.org/2000/svg">
<path fill-rule="evenodd" clip-rule="evenodd" d="M2 7C2 5.34315 3.34315 4 5 4H19C20.6569 4 22 5.34315 22 7V17C22 18.6569 20.6569 20 19 20H5C3.34315 20 2 18.6569 2 17V7ZM5 6C4.44772 6 4 6.44772 4 7V17C4 17.5523 4.44772 18 5 18H19C19.5523 18 20 17.5523 20 17V7C20 6.44772 19.5523 6 19 6H5Z" fill="#CDCECF"/>
<path fill-rule="evenodd" clip-rule="evenodd" d="M20 8H4V10H20V8ZM15 14C14.4477 14 14 14.4477 14 15C14 15.5523 14.4477 16 15 16H17C17.5523 16 18 15.5523 18 15C18 14.4477 17.5523 14 17 14H15Z" fill="#777E90" fill-opacity="0.4"/>
</svg>
