<svg width="25" height="24" viewBox="0 0 25 24" fill="none" xmlns="http://www.w3.org/2000/svg">
<g clip-path="url(#clip0_1034_26619)">
<path d="M9.63867 14.5601C9.63867 14.1459 9.30289 13.8101 8.88867 13.8101C8.47446 13.8101 8.13867 14.1459 8.13867 14.5601H9.63867ZM13.9117 10.519C13.9117 10.9332 14.2475 11.269 14.6617 11.269C15.0759 11.269 15.4117 10.9332 15.4117 10.519H13.9117ZM12.5724 7.67969H10.9367V9.17969H12.5724V7.67969ZM10.9367 13.2758H12.6274V11.7758H10.9367V13.2758ZM12.6274 15.8444H10.923V17.3444H12.6274V15.8444ZM10.923 15.8444C10.2137 15.8444 9.63867 15.2694 9.63867 14.5601H8.13867C8.13867 16.0978 9.38525 17.3444 10.923 17.3444V15.8444ZM13.9117 14.5601C13.9117 15.2694 13.3367 15.8444 12.6274 15.8444V17.3444C14.1651 17.3444 15.4117 16.0978 15.4117 14.5601H13.9117ZM12.6274 13.2758C13.3367 13.2758 13.9117 13.8508 13.9117 14.5601H15.4117C15.4117 13.0224 14.1651 11.7758 12.6274 11.7758V13.2758ZM8.13867 10.4777C8.13867 12.0231 9.3914 13.2758 10.9367 13.2758V11.7758C10.2198 11.7758 9.63867 11.1946 9.63867 10.4777H8.13867ZM10.9367 7.67969C9.3914 7.67969 8.13867 8.93242 8.13867 10.4777H9.63867C9.63867 9.76084 10.2198 9.17969 10.9367 9.17969V7.67969ZM15.4117 10.519C15.4117 8.95088 14.1405 7.67969 12.5724 7.67969V9.17969C13.3121 9.17969 13.9117 9.77931 13.9117 10.519H15.4117Z" fill="#141416"/>
<path d="M11.7754 6.35547V18.6713" stroke="#141416" stroke-width="1.5" stroke-linecap="round"/>
<path d="M13.6874 3.47548C13.0705 3.34563 12.4309 3.27734 11.7754 3.27734C6.67405 3.27734 2.53857 7.41282 2.53857 12.5142C2.53857 17.6156 6.67405 21.751 11.7754 21.751C16.8768 21.751 21.0123 17.6156 21.0123 12.5142C21.0123 11.5655 20.8692 10.6503 20.6036 9.78879" stroke="#141416" stroke-width="1.5" stroke-linecap="round"/>
<path d="M19.7238 8.18694C20.1377 8.20301 20.4863 7.8805 20.5024 7.4666C20.5184 7.0527 20.1959 6.70414 19.782 6.68806L19.7238 8.18694ZM16.9586 7.329L16.2091 7.3581C16.2243 7.74946 16.5381 8.06324 16.9295 8.07844L16.9586 7.329ZM17.5995 4.50554C17.5834 4.09164 17.2349 3.76914 16.821 3.7852C16.4071 3.80127 16.0846 4.14984 16.1006 4.56374L17.5995 4.50554ZM19.782 6.68806L16.9877 6.57957L16.9295 8.07844L19.7238 8.18694L19.782 6.68806ZM17.708 7.2999L17.5995 4.50554L16.1006 4.56374L16.2091 7.3581L17.708 7.2999Z" fill="#141416"/>
<path d="M17.0635 7.22261L20.5869 3.69922" stroke="#141416" stroke-width="1.5" stroke-linecap="round"/>
</g>
<defs>
<clipPath id="clip0_1034_26619">
<rect width="24" height="24" fill="white" transform="translate(0.288574)"/>
</clipPath>
</defs>
</svg>
