<svg width="24" height="24" viewBox="0 0 24 24" fill="none" xmlns="http://www.w3.org/2000/svg">
<g clip-path="url(#clip0_141_1398)">
<path d="M9.35022 14.5612C9.35022 14.147 9.01443 13.8112 8.60022 13.8112C8.18601 13.8112 7.85022 14.147 7.85022 14.5612H9.35022ZM13.6232 10.5201C13.6232 10.9343 13.959 11.2701 14.3732 11.2701C14.7875 11.2701 15.1232 10.9343 15.1232 10.5201H13.6232ZM12.284 7.68079H10.6483V9.18079H12.284V7.68079ZM10.6483 13.2769H12.3389V11.7769H10.6483V13.2769ZM12.3389 15.8455H10.6345V17.3455H12.3389V15.8455ZM10.6345 15.8455C9.92522 15.8455 9.35022 15.2705 9.35022 14.5612H7.85022C7.85022 16.0989 9.0968 17.3455 10.6345 17.3455V15.8455ZM13.6232 14.5612C13.6232 15.2705 13.0482 15.8455 12.3389 15.8455V17.3455C13.8767 17.3455 15.1232 16.0989 15.1232 14.5612H13.6232ZM12.3389 13.2769C13.0482 13.2769 13.6232 13.8519 13.6232 14.5612H15.1232C15.1232 13.0235 13.8767 11.7769 12.3389 11.7769V13.2769ZM7.85022 10.4788C7.85022 12.0242 9.10295 13.2769 10.6483 13.2769V11.7769C9.93138 11.7769 9.35022 11.1957 9.35022 10.4788H7.85022ZM10.6483 7.68079C9.10295 7.68079 7.85022 8.93352 7.85022 10.4788H9.35022C9.35022 9.76194 9.93138 9.18079 10.6483 9.18079V7.68079ZM15.1232 10.5201C15.1232 8.95198 13.8521 7.68079 12.284 7.68079V9.18079C13.0236 9.18079 13.6232 9.78041 13.6232 10.5201H15.1232Z" fill="#FCFCFD"/>
<path d="M11.4871 6.35522V18.671" stroke="#FCFCFD" stroke-width="1.5" stroke-linecap="round"/>
<path d="M13.3988 3.4745C12.7819 3.34465 12.1424 3.27637 11.4868 3.27637C6.38548 3.27637 2.25 7.41184 2.25 12.5132C2.25 17.6146 6.38548 21.7501 11.4868 21.7501C16.5882 21.7501 20.7237 17.6146 20.7237 12.5132C20.7237 11.5645 20.5807 10.6493 20.315 9.78781" stroke="#FCFCFD" stroke-width="1.5" stroke-linecap="round"/>
<path d="M19.4351 8.18791C19.849 8.20398 20.1976 7.88148 20.2137 7.46758C20.2297 7.05367 19.9072 6.70511 19.4933 6.68904L19.4351 8.18791ZM16.6699 7.32998L15.9204 7.35907C15.9356 7.75044 16.2494 8.06422 16.6408 8.07941L16.6699 7.32998ZM17.3108 4.50652C17.2947 4.09262 16.9462 3.77011 16.5323 3.78618C16.1184 3.80225 15.7959 4.15081 15.8119 4.56471L17.3108 4.50652ZM19.4933 6.68904L16.699 6.58054L16.6408 8.07941L19.4351 8.18791L19.4933 6.68904ZM17.4193 7.30088L17.3108 4.50652L15.8119 4.56471L15.9204 7.35907L17.4193 7.30088Z" fill="#FCFCFD"/>
<path d="M16.7752 7.22469L20.2986 3.70129" stroke="#FCFCFD" stroke-width="1.5" stroke-linecap="round"/>
</g>
<defs>
<clipPath id="clip0_141_1398">
<rect width="24" height="24" fill="white"/>
</clipPath>
</defs>
</svg>
