<svg width="25" height="25" viewBox="0 0 25 25" fill="none" xmlns="http://www.w3.org/2000/svg">
<path fill-rule="evenodd" clip-rule="evenodd" d="M19.1 3.70006C19.5418 4.03143 19.6314 4.65823 19.3 5.10006L7.3 21.1001C6.96863 21.5419 6.34183 21.6314 5.9 21.3001C5.45817 20.9687 5.36863 20.3419 5.7 19.9001L17.7 3.90006C18.0314 3.45823 18.6582 3.36869 19.1 3.70006Z" fill="#6EFDEB"/>
<path fill-rule="evenodd" clip-rule="evenodd" d="M8.5 7C8.5 7.82843 7.82843 8.5 7 8.5C6.17157 8.5 5.5 7.82843 5.5 7C5.5 6.17157 6.17157 5.5 7 5.5C7.82843 5.5 8.5 6.17157 8.5 7ZM10.5 7C10.5 8.933 8.933 10.5 7 10.5C5.067 10.5 3.5 8.933 3.5 7C3.5 5.067 5.067 3.5 7 3.5C8.933 3.5 10.5 5.067 10.5 7ZM19.5 18C19.5 18.8284 18.8284 19.5 18 19.5C17.1716 19.5 16.5 18.8284 16.5 18C16.5 17.1716 17.1716 16.5 18 16.5C18.8284 16.5 19.5 17.1716 19.5 18ZM21.5 18C21.5 19.933 19.933 21.5 18 21.5C16.067 21.5 14.5 19.933 14.5 18C14.5 16.067 16.067 14.5 18 14.5C19.933 14.5 21.5 16.067 21.5 18Z" fill="#6EFDEB"/>
</svg>
