<svg width="34" height="35" viewBox="0 0 34 35" fill="none" xmlns="http://www.w3.org/2000/svg">
<circle cx="17" cy="17.2002" r="17" fill="#262729"/>
<g clip-path="url(#clip0_2731_4136)">
<path d="M17 29.2002C23.6274 29.2002 29 23.8276 29 17.2002C29 10.5728 23.6274 5.2002 17 5.2002C10.3726 5.2002 5 10.5728 5 17.2002C5 23.8276 10.3726 29.2002 17 29.2002Z" fill="#7289DA"/>
</g>
<circle cx="17.5" cy="17.7002" r="5.5" fill="white"/>
<path d="M15.5919 16.9121C15.1359 16.9121 14.7759 17.3121 14.7759 17.8001C14.7759 18.2881 15.1439 18.6881 15.5919 18.6881C16.0479 18.6881 16.4079 18.2881 16.4079 17.8001C16.4159 17.3121 16.0479 16.9121 15.5919 16.9121ZM18.5119 16.9121C18.0559 16.9121 17.6959 17.3121 17.6959 17.8001C17.6959 18.2881 18.0639 18.6881 18.5119 18.6881C18.9679 18.6881 19.3279 18.2881 19.3279 17.8001C19.3279 17.3121 18.9679 16.9121 18.5119 16.9121Z" fill="#7289DA"/>
<path d="M22.4 10.2002H11.68C10.776 10.2002 10.04 10.9362 10.04 11.8482V22.6642C10.04 23.5762 10.776 24.3122 11.68 24.3122H20.752L20.328 22.8322L21.352 23.7842L22.32 24.6802L24.04 26.2002V11.8482C24.04 10.9362 23.304 10.2002 22.4 10.2002ZM19.312 20.6482C19.312 20.6482 19.024 20.3042 18.784 20.0002C19.832 19.7042 20.232 19.0482 20.232 19.0482C19.904 19.2642 19.592 19.4162 19.312 19.5202C18.912 19.6882 18.528 19.8002 18.152 19.8642C17.384 20.0082 16.68 19.9682 16.08 19.8562C15.624 19.7682 15.232 19.6402 14.904 19.5122C14.72 19.4402 14.52 19.3522 14.32 19.2402C14.296 19.2242 14.272 19.2162 14.248 19.2002C14.232 19.1922 14.224 19.1842 14.216 19.1762C14.072 19.0962 13.992 19.0402 13.992 19.0402C13.992 19.0402 14.376 19.6802 15.392 19.9842C15.152 20.2882 14.856 20.6482 14.856 20.6482C13.088 20.5922 12.416 19.4322 12.416 19.4322C12.416 16.8562 13.568 14.7682 13.568 14.7682C14.72 13.9042 15.816 13.9282 15.816 13.9282L15.896 14.0242C14.456 14.4402 13.792 15.0722 13.792 15.0722C13.792 15.0722 13.968 14.9762 14.264 14.8402C15.12 14.4642 15.8 14.3602 16.08 14.3362C16.128 14.3282 16.168 14.3202 16.216 14.3202C16.704 14.2562 17.256 14.2402 17.832 14.3042C18.592 14.3922 19.408 14.6162 20.24 15.0722C20.24 15.0722 19.608 14.4722 18.248 14.0562L18.36 13.9282C18.36 13.9282 19.456 13.9042 20.608 14.7682C20.608 14.7682 21.76 16.8562 21.76 19.4322C21.76 19.4322 21.08 20.5922 19.312 20.6482Z" fill="#7289DA"/>
<defs>
<clipPath id="clip0_2731_4136">
<rect width="24" height="24" fill="white" transform="translate(5 5.2002)"/>
</clipPath>
</defs>
</svg>
