<svg width="27" height="27" viewBox="0 0 27 27" fill="none" xmlns="http://www.w3.org/2000/svg">
<path d="M13.498 21.2773C14.2262 21.2773 14.8164 20.6871 14.8164 19.959C14.8164 19.2309 14.2262 18.6406 13.498 18.6406C12.7699 18.6406 12.1797 19.2309 12.1797 19.959C12.1797 20.6871 12.7699 21.2773 13.498 21.2773Z" fill="white"/>
<path d="M13.5 0C6.03893 0 0 6.03793 0 13.5C0 20.9611 6.03793 27 13.5 27C20.9611 27 27 20.9621 27 13.5C27 6.03893 20.9621 0 13.5 0ZM13.5 24.8906C7.20473 24.8906 2.10938 19.7961 2.10938 13.5C2.10938 7.20473 7.20389 2.10938 13.5 2.10938C19.7953 2.10938 24.8906 7.20389 24.8906 13.5C24.8906 19.7953 19.7961 24.8906 13.5 24.8906Z" fill="white"/>
<path d="M13.5 6.77734C11.1738 6.77734 9.28125 8.66988 9.28125 10.9961C9.28125 11.5786 9.75343 12.0508 10.3359 12.0508C10.9184 12.0508 11.3906 11.5786 11.3906 10.9961C11.3906 9.83298 12.3369 8.88672 13.5 8.88672C14.6631 8.88672 15.6094 9.83298 15.6094 10.9961C15.6094 12.1592 14.6631 13.1055 13.5 13.1055C12.9175 13.1055 12.4453 13.5777 12.4453 14.1602V16.7969C12.4453 17.3794 12.9175 17.8516 13.5 17.8516C14.0825 17.8516 14.5547 17.3794 14.5547 16.7969V15.0814C16.3722 14.6119 17.7188 12.9583 17.7188 10.9961C17.7188 8.66988 15.8262 6.77734 13.5 6.77734Z" fill="white"/>
</svg>
