<svg width="48" height="48" viewBox="0 0 48 48" fill="none" xmlns="http://www.w3.org/2000/svg">
<rect width="48" height="48" rx="10" fill="white" fill-opacity="0.2"/>
<path fill-rule="evenodd" clip-rule="evenodd" d="M21 28C19.3431 28 18 29.3431 18 31C18 31.5523 18.4477 32 19 32H29C29.5523 32 30 31.5523 30 31C30 29.3431 28.6569 28 27 28H21ZM16 31C16 28.2386 18.2386 26 21 26H27C29.7614 26 32 28.2386 32 31C32 32.6569 30.6569 34 29 34H19C17.3431 34 16 32.6569 16 31Z" fill="white"/>
<path fill-rule="evenodd" clip-rule="evenodd" d="M24 16C22.3431 16 21 17.3431 21 19C21 20.6569 22.3431 22 24 22C25.6569 22 27 20.6569 27 19C27 17.3431 25.6569 16 24 16ZM19 19C19 16.2386 21.2386 14 24 14C26.7614 14 29 16.2386 29 19C29 21.7614 26.7614 24 24 24C21.2386 24 19 21.7614 19 19Z" fill="white"/>
</svg>
