<svg width="16" height="16" viewBox="0 0 16 16" fill="none" xmlns="http://www.w3.org/2000/svg">
<g clip-path="url(#clip0_2748_27061)">
<path fill-rule="evenodd" clip-rule="evenodd" d="M12.3163 12.204C12.3163 13.4704 11.2897 14.497 10.0233 14.497C8.75688 14.497 7.73025 13.4704 7.73025 12.204C7.73025 10.9376 8.75688 9.91096 10.0233 9.91096C11.2897 9.91096 12.3163 10.9376 12.3163 12.204ZM6.67154 12.9796C7.02326 14.5057 8.39039 15.6436 10.0233 15.6436C11.6562 15.6436 13.0233 14.5057 13.375 12.9796L14.6767 12.9796C14.9933 12.9796 15.25 12.723 15.25 12.4064C15.25 12.0898 14.9933 11.8331 14.6767 11.8331L13.4431 11.8331C13.2581 10.1079 11.7976 8.76444 10.0233 8.76444C8.24898 8.76444 6.78847 10.1079 6.60349 11.8331L1.32338 11.8331C1.00678 11.8331 0.750124 12.0898 0.750124 12.4064C0.750124 12.723 1.00678 12.9796 1.32338 12.9796L6.67154 12.9796ZM3.68364 3.79617C3.68364 2.52977 4.71027 1.50314 5.97668 1.50314C7.24309 1.50314 8.26971 2.52977 8.26971 3.79618C8.26971 5.06259 7.24308 6.08921 5.97667 6.08921C4.71026 6.08921 3.68364 5.06259 3.68364 3.79617ZM5.97668 0.356618C7.60958 0.356618 8.97672 1.4945 9.32843 3.02058L14.6766 3.02059C14.9932 3.02059 15.2498 3.27724 15.2498 3.59385C15.2498 3.91045 14.9932 4.16711 14.6766 4.16711L9.39647 4.1671C9.21148 5.89228 7.75097 7.23573 5.97667 7.23573C4.20237 7.23573 2.74185 5.89226 2.55688 4.16708L1.32327 4.16707C1.00667 4.16707 0.750009 3.91042 0.750009 3.59382C0.750009 3.27721 1.00667 3.02056 1.32327 3.02056L2.62493 3.02056C2.97664 1.49448 4.34378 0.356618 5.97668 0.356618Z" fill="#008FFD"/>
</g>
<defs>
<clipPath id="clip0_2748_27061">
<rect width="16" height="16" fill="white"/>
</clipPath>
</defs>
</svg>
