<svg width="28" height="28" viewBox="0 0 28 28" fill="none" xmlns="http://www.w3.org/2000/svg">
<g clip-path="url(#clip0_75_6122)">
<g clip-path="url(#clip1_75_6122)">
<path d="M24.3107 12.5215C24.7824 12.6263 25.2498 12.3289 25.3547 11.8571C25.4595 11.3854 25.162 10.918 24.6903 10.8132L24.3107 12.5215ZM3.31067 10.8132C2.83893 10.918 2.54149 11.3854 2.64633 11.8571C2.75116 12.3289 3.21856 12.6263 3.6903 12.5215L3.31067 10.8132ZM24.6903 10.8132L20.2644 9.82961L19.8847 11.5379L24.3107 12.5215L24.6903 10.8132ZM7.73662 9.82961L3.31067 10.8132L3.6903 12.5215L8.11625 11.5379L7.73662 9.82961ZM20.2644 9.82961C16.1388 8.91281 11.8622 8.91281 7.73662 9.82961L8.11625 11.5379C11.9918 10.6767 16.0092 10.6767 19.8847 11.5379L20.2644 9.82961Z" fill="#141416"/>
<path d="M24.3107 15.4785C24.7824 15.3737 25.2498 15.6711 25.3547 16.1429C25.4595 16.6146 25.162 17.082 24.6903 17.1868L24.3107 15.4785ZM3.31067 17.1868C2.83893 17.082 2.54149 16.6146 2.64633 16.1429C2.75116 15.6711 3.21856 15.3737 3.6903 15.4785L3.31067 17.1868ZM24.6903 17.1868L20.2644 18.1704L19.8847 16.4621L24.3107 15.4785L24.6903 17.1868ZM7.73662 18.1704L3.31067 17.1868L3.6903 15.4785L8.11625 16.4621L7.73662 18.1704ZM20.2644 18.1704C16.1388 19.0872 11.8622 19.0872 7.73662 18.1704L8.11625 16.4621C11.9918 17.3233 16.0092 17.3233 19.8847 16.4621L20.2644 18.1704Z" fill="#141416"/>
<circle cx="14.0002" cy="14.0007" r="10.7917" stroke="#141416" stroke-width="1.75"/>
<path d="M12.521 3.69177C12.6258 3.22003 12.3284 2.75262 11.8566 2.64779C11.3849 2.54296 10.9175 2.8404 10.8127 3.31214L12.521 3.69177ZM10.8127 24.6918C10.9175 25.1635 11.3849 25.4609 11.8566 25.3561C12.3284 25.2513 12.6258 24.7839 12.521 24.3121L10.8127 24.6918ZM10.8127 3.31214L9.82912 7.73809L11.5374 8.11771L12.521 3.69177L10.8127 3.31214ZM9.82912 20.2658L10.8127 24.6918L12.521 24.3121L11.5374 19.8862L9.82912 20.2658ZM9.82912 7.73809C8.91232 11.8637 8.91232 16.1402 9.82912 20.2658L11.5374 19.8862C10.6762 16.0106 10.6762 11.9933 11.5374 8.11771L9.82912 7.73809Z" fill="#141416"/>
<path d="M15.48 3.69177C15.3752 3.22003 15.6726 2.75262 16.1443 2.64779C16.6161 2.54296 17.0835 2.8404 17.1883 3.31214L15.48 3.69177ZM17.1883 24.6918C17.0835 25.1635 16.6161 25.4609 16.1443 25.3561C15.6726 25.2513 15.3752 24.7839 15.48 24.3121L17.1883 24.6918ZM17.1883 3.31214L18.1719 7.73809L16.4635 8.11771L15.48 3.69177L17.1883 3.31214ZM18.1719 20.2658L17.1883 24.6918L15.48 24.3121L16.4635 19.8862L18.1719 20.2658ZM18.1719 7.73809C19.0887 11.8637 19.0887 16.1402 18.1719 20.2658L16.4635 19.8862C17.3248 16.0106 17.3248 11.9933 16.4635 8.11771L18.1719 7.73809Z" fill="#141416"/>
</g>
</g>
<defs>
<clipPath id="clip0_75_6122">
<rect width="28" height="28" fill="white"/>
</clipPath>
<clipPath id="clip1_75_6122">
<rect width="28" height="28" fill="white"/>
</clipPath>
</defs>
</svg>
