<svg width="24" height="24" viewBox="0 0 24 24" fill="none" xmlns="http://www.w3.org/2000/svg">
<path d="M22 12C22 12.8 21.9 13.575 21.7 14.325C21.475 15.325 21.075 16.3 20.55 17.15C18.825 20.05 15.65 22 12 22C9.425 22 7.09999 21.0249 5.34999 19.4249C4.59999 18.7749 3.94997 18 3.44997 17.15C2.52497 15.65 2 13.875 2 12C2 9.3 3.07501 6.82506 4.82501 5.02506C6.65001 3.15005 9.2 2 12 2C14.95 2 17.625 3.27504 19.425 5.32504C21.025 7.10004 22 9.45 22 12Z" stroke="#58BD7D" stroke-width="1.5" stroke-miterlimit="10" stroke-linecap="round" stroke-linejoin="round"/>
<path d="M13.0801 7.86716L8.18954 12.7578C7.99613 12.9512 7.81655 13.3103 7.77511 13.5728L7.51262 15.4378C7.41591 16.1147 7.88564 16.5845 8.56258 16.4878L10.4276 16.2253C10.6901 16.1838 11.0631 16.0042 11.2427 15.8108L16.1332 10.9203C16.9759 10.0776 16.2661 10.2072 15.0228 8.96379C13.7932 7.73425 13.9229 7.02444 13.0801 7.86716Z" stroke="#58BD7D" stroke-width="1.5" stroke-miterlimit="10" stroke-linecap="round" stroke-linejoin="round"/>
</svg>
