<svg width="25" height="24" viewBox="0 0 25 24" fill="none" xmlns="http://www.w3.org/2000/svg">
<path fill-rule="evenodd" clip-rule="evenodd" d="M5.06958 7.03064C5.21013 7.01045 5.35383 7 5.49997 7C6.07564 7 6.61345 7.16215 7.0702 7.44327C8.0304 5.40763 10.1019 4 12.5001 4C14.8982 4 16.9697 5.40758 17.9299 7.44316C18.3866 7.16211 18.9244 7 19.5 7C19.6462 7 19.79 7.01046 19.9306 7.03068C18.7517 4.08334 15.8703 2 12.5001 2C9.12987 2 6.2485 4.08333 5.06958 7.03064ZM17.1208 15.8277C17.5346 16.3656 18.1267 16.7591 18.8087 16.92C17.9447 18.0265 16.7952 18.9004 15.4693 19.4306C15.4895 19.29 15.5 19.1462 15.5 19C15.5 18.4244 15.3378 17.8866 15.0567 17.4298C15.857 17.0523 16.5611 16.5025 17.1208 15.8277Z" fill="#6EFDEB"/>
<path fill-rule="evenodd" clip-rule="evenodd" d="M2.5 10C2.5 8.34315 3.84315 7 5.5 7C7.15685 7 8.5 8.34315 8.5 10V14C8.5 15.6569 7.15685 17 5.5 17C3.84315 17 2.5 15.6569 2.5 14V10ZM5.5 9C4.94772 9 4.5 9.44772 4.5 10V14C4.5 14.5523 4.94772 15 5.5 15C6.05228 15 6.5 14.5523 6.5 14V10C6.5 9.44772 6.05228 9 5.5 9ZM16.5 10C16.5 8.34315 17.8431 7 19.5 7C21.1569 7 22.5 8.34315 22.5 10V14C22.5 15.6569 21.1569 17 19.5 17C17.8431 17 16.5 15.6569 16.5 14V10ZM19.5 9C18.9477 9 18.5 9.44772 18.5 10V14C18.5 14.5523 18.9477 15 19.5 15C20.0523 15 20.5 14.5523 20.5 14V10C20.5 9.44772 20.0523 9 19.5 9ZM11.5 19C11.5 18.4477 11.9477 18 12.5 18C13.0523 18 13.5 18.4477 13.5 19C13.5 19.5523 13.0523 20 12.5 20C11.9477 20 11.5 19.5523 11.5 19ZM12.5 16C10.8431 16 9.5 17.3431 9.5 19C9.5 20.6569 10.8431 22 12.5 22C14.1569 22 15.5 20.6569 15.5 19C15.5 17.3431 14.1569 16 12.5 16Z" fill="#6EFDEB"/>
</svg>
