<svg width="25" height="25" viewBox="0 0 25 25" fill="none" xmlns="http://www.w3.org/2000/svg">
<path fill-rule="evenodd" clip-rule="evenodd" d="M12.5 7.71187L11.1662 6.51806C10.4572 5.88348 9.52575 5.5 8.5 5.5C6.29086 5.5 4.5 7.29086 4.5 9.5C4.5 12.4996 5.83975 14.712 7.53224 16.3501C9.25438 18.0169 11.2798 19.0183 12.3857 19.4794C12.4626 19.5114 12.5374 19.5114 12.6143 19.4794C13.7202 19.0183 15.7456 18.0169 17.4678 16.3501C19.1602 14.7119 20.5 12.4996 20.5 9.50004C20.5 7.2909 18.7091 5.5 16.5 5.5C15.4742 5.5 14.5428 5.88348 13.8338 6.51806L12.5 7.71187ZM12.5 5.02779C11.4385 4.07771 10.0367 3.5 8.5 3.5C5.18629 3.5 2.5 6.18629 2.5 9.5C2.5 16.8511 9.17146 20.3061 11.616 21.3254C12.1855 21.5628 12.8145 21.5628 13.384 21.3254C15.8285 20.3061 22.5 16.8512 22.5 9.50005C22.5 6.18634 19.8137 3.5 16.5 3.5C14.9633 3.5 13.5615 4.07771 12.5 5.02779Z" fill="#6EFDEB"/>
</svg>
