<svg width="24" height="25" viewBox="0 0 24 25" fill="none" xmlns="http://www.w3.org/2000/svg">
<g clip-path="url(#clip0_762_15083)">
<path d="M21.25 12.9199C21.25 13.5018 20.9921 14.2502 20.4543 15.0847C19.9241 15.9074 19.1596 16.7543 18.2449 17.5187C16.3974 19.0628 14.0625 20.1699 12 20.1699C9.93747 20.1699 7.60256 19.0628 5.75507 17.5187C4.84044 16.7543 4.07594 15.9074 3.54572 15.0847C3.00792 14.2502 2.75 13.5018 2.75 12.9199C2.75 12.338 3.00792 11.5896 3.54572 10.7551C4.07594 9.9324 4.84044 9.08553 5.75507 8.32112C7.60256 6.77708 9.93747 5.66992 12 5.66992C14.0625 5.66992 16.3974 6.77708 18.2449 8.32112C19.1596 9.08553 19.9241 9.9324 20.4543 10.7551C20.9921 11.5896 21.25 12.338 21.25 12.9199Z" stroke="#777E90" stroke-width="1.5"/>
<circle cx="12" cy="12.9199" r="2.75" stroke="#777E90" stroke-width="1.5"/>
<path d="M19.8892 6.09088C20.1821 5.79798 20.1821 5.32311 19.8892 5.03022C19.5963 4.73732 19.1214 4.73732 18.8286 5.03022L19.8892 6.09088ZM4.11041 19.7484C3.81752 20.0413 3.81752 20.5161 4.11041 20.809C4.40331 21.1019 4.87818 21.1019 5.17107 20.809L4.11041 19.7484ZM18.8286 5.03022L4.11041 19.7484L5.17107 20.809L19.8892 6.09088L18.8286 5.03022Z" fill="#777E90"/>
</g>
<defs>
<clipPath id="clip0_762_15083">
<rect width="24" height="24" fill="white" transform="translate(0 0.919922)"/>
</clipPath>
</defs>
</svg>
