<svg width="16" height="17" viewBox="0 0 16 17" fill="none" xmlns="http://www.w3.org/2000/svg">
<g clip-path="url(#clip0_1082_26312)">
<path d="M14.1668 8.5013C14.1668 8.88922 13.9949 9.38816 13.6364 9.94449C13.2829 10.493 12.7732 11.0576 12.1635 11.5672C10.9318 12.5965 9.37518 13.3346 8.00016 13.3346C6.62515 13.3346 5.06854 12.5965 3.83688 11.5672C3.22712 11.0576 2.71745 10.493 2.36397 9.94449C2.00544 9.38816 1.8335 8.88922 1.8335 8.5013C1.8335 8.11338 2.00544 7.61444 2.36397 7.05811C2.71745 6.50962 3.22712 5.94504 3.83688 5.43543C5.06854 4.40607 6.62515 3.66797 8.00016 3.66797C9.37518 3.66797 10.9318 4.40607 12.1635 5.43543C12.7732 5.94504 13.2829 6.50962 13.6364 7.05811C13.9949 7.61444 14.1668 8.11338 14.1668 8.5013Z" stroke="#008FFD"/>
<circle cx="7.99984" cy="8.5013" r="1.83333" stroke="#008FFD"/>
<path d="M13.2593 3.9473C13.4546 3.75204 13.4546 3.43546 13.2593 3.2402C13.0641 3.04493 12.7475 3.04493 12.5522 3.2402L13.2593 3.9473ZM2.74011 13.0523C2.54485 13.2476 2.54485 13.5641 2.74011 13.7594C2.93538 13.9547 3.25196 13.9547 3.44722 13.7594L2.74011 13.0523ZM12.5522 3.2402L2.74011 13.0523L3.44722 13.7594L13.2593 3.9473L12.5522 3.2402Z" fill="#008FFD"/>
</g>
<defs>
<clipPath id="clip0_1082_26312">
<rect width="16" height="16" fill="white" transform="translate(0 0.5)"/>
</clipPath>
</defs>
</svg>
