<svg width="24" height="24" viewBox="0 0 24 24" fill="none" xmlns="http://www.w3.org/2000/svg">
<g clip-path="url(#clip0_84_4278)">
<path d="M21.25 12C21.25 12.5819 20.9921 13.3303 20.4543 14.1648C19.9241 14.9875 19.1596 15.8344 18.2449 16.5988C16.3974 18.1428 14.0625 19.25 12 19.25C9.93747 19.25 7.60256 18.1428 5.75507 16.5988C4.84044 15.8344 4.07594 14.9875 3.54572 14.1648C3.00792 13.3303 2.75 12.5819 2.75 12C2.75 11.4181 3.00792 10.6697 3.54572 9.83521C4.07594 9.01247 4.84044 8.1656 5.75507 7.4012C7.60256 5.85716 9.93747 4.75 12 4.75C14.0625 4.75 16.3974 5.85716 18.2449 7.4012C19.1596 8.1656 19.9241 9.01247 20.4543 9.83521C20.9921 10.6697 21.25 11.4181 21.25 12Z" stroke="#141416" stroke-width="1.5"/>
<circle cx="12" cy="12" r="2.75" stroke="#141416" stroke-width="1.5"/>
<path d="M19.8892 5.17096C20.1821 4.87806 20.1821 4.40319 19.8892 4.11029C19.5963 3.8174 19.1214 3.8174 18.8286 4.11029L19.8892 5.17096ZM4.11041 18.8284C3.81752 19.1213 3.81752 19.5962 4.11041 19.8891C4.40331 20.182 4.87818 20.182 5.17107 19.8891L4.11041 18.8284ZM18.8286 4.11029L4.11041 18.8284L5.17107 19.8891L19.8892 5.17096L18.8286 4.11029Z" fill="#141416"/>
</g>
<defs>
<clipPath id="clip0_84_4278">
<rect width="24" height="24" fill="white"/>
</clipPath>
</defs>
</svg>
