<svg width="24" height="25" viewBox="0 0 24 25" fill="none" xmlns="http://www.w3.org/2000/svg">
<g clip-path="url(#clip0_2618_27480)">
<path d="M18.1172 6.62307C18.972 7.25975 19.5775 7.71137 20.0283 8.10723C20.4709 8.4958 20.7223 8.79524 20.8883 9.10733C21.2299 9.74915 21.25 10.4833 21.25 12.4765V13.9679C21.25 16.0096 21.2478 17.4529 21.076 18.5464C20.9097 19.6049 20.5989 20.2308 20.0479 20.7023C19.48 21.1883 18.6982 21.4743 17.4006 21.6236C16.092 21.7742 14.3752 21.7754 12 21.7754C9.62477 21.7754 7.90802 21.7742 6.59936 21.6236C5.30184 21.4743 4.51999 21.1883 3.9521 20.7023C3.40107 20.2308 3.09027 19.6049 2.92397 18.5464C2.75216 17.4529 2.75 16.0096 2.75 13.9679L2.75 12.4765C2.75 10.4833 2.77014 9.74915 3.11165 9.10733C3.27772 8.79524 3.52908 8.4958 3.97165 8.10723C4.42254 7.71137 5.02796 7.25974 5.88276 6.62307C7.46192 5.44688 8.59405 4.60521 9.56227 4.05005C10.5111 3.50602 11.2398 3.27536 12 3.27536C12.7602 3.27536 13.489 3.50602 14.4377 4.05005C15.4059 4.60521 16.5381 5.44688 18.1172 6.62307Z" stroke="#FCFCFD" stroke-width="1.5"/>
<rect x="9.25" y="10.2754" width="5.5" height="5.5" rx="2.25" stroke="#FCFCFD" stroke-width="1.5"/>
</g>
<defs>
<clipPath id="clip0_2618_27480">
<rect width="24" height="24" fill="white" transform="translate(0 0.52536)"/>
</clipPath>
</defs>
</svg>
