<svg width="26" height="20" viewBox="0 0 26 20" fill="none" xmlns="http://www.w3.org/2000/svg">
<path d="M25 3.20001C25 2.77562 24.8316 2.36882 24.5312 2.06877C24.2312 1.76837 23.8244 1.59997 23.4 1.59997H2.60003C2.1756 1.59997 1.7688 1.76837 1.4688 2.06877C1.1684 2.36882 1 2.77562 1 3.20001V16.8C1 17.2244 1.1684 17.6312 1.4688 17.9312C1.7688 18.2316 2.1756 18.4 2.60003 18.4H23.4C23.8244 18.4 24.2312 18.2316 24.5312 17.9312C24.8316 17.6312 25 17.2244 25 16.8V3.20001Z" stroke="#101828" stroke-width="1.40625" stroke-miterlimit="10" stroke-linecap="round" stroke-linejoin="round"/>
<path d="M8.20016 7.99997C9.30421 7.99997 10.2002 8.89598 10.2002 9.99998C10.2002 11.104 9.30421 12 8.20016 12C7.09616 12 6.2002 11.104 6.2002 9.99998C6.2002 8.89598 7.09616 7.99997 8.20016 7.99997Z" stroke="#101828" stroke-width="1.40625" stroke-miterlimit="10" stroke-linecap="round" stroke-linejoin="round"/>
<path d="M8.20002 12.0001C9.96606 12.0001 11.4 13.434 11.4 15.2001H5C5 13.434 6.43402 12.0001 8.20002 12.0001Z" stroke="#101828" stroke-width="1.40625" stroke-miterlimit="10" stroke-linecap="round" stroke-linejoin="round"/>
<path d="M15.3999 8.80005H20.9999" stroke="#101828" stroke-width="1.40625" stroke-miterlimit="10" stroke-linecap="round" stroke-linejoin="round"/>
<path d="M5 4.79993H21" stroke="#101828" stroke-width="1.40625" stroke-miterlimit="10" stroke-linecap="round" stroke-linejoin="round"/>
<path d="M15.3999 12H20.9999" stroke="#101828" stroke-width="1.40625" stroke-miterlimit="10" stroke-linecap="round" stroke-linejoin="round"/>
<path d="M15.3999 15.2H19.3999" stroke="#101828" stroke-width="1.40625" stroke-miterlimit="10" stroke-linecap="round" stroke-linejoin="round"/>
</svg>
