<svg width="49" height="48" viewBox="0 0 49 48" fill="none" xmlns="http://www.w3.org/2000/svg">
<rect x="0.333374" width="48" height="48" rx="24" fill="#F2F4F7"/>
<mask id="mask0_103_5988" style="mask-type:luminance" maskUnits="userSpaceOnUse" x="12" y="12" width="25" height="25">
<path d="M12.3334 12.3334H36.3334V36.3334H12.3334V12.3334Z" fill="white"/>
</mask>
<g mask="url(#mask0_103_5988)">
<path d="M35.6302 17.9318C35.6302 17.5323 35.4717 17.1493 35.1889 16.8669C34.9065 16.5841 34.5235 16.4255 34.124 16.4255H14.5428C14.1432 16.4255 13.7602 16.5841 13.4778 16.8669C13.195 17.1493 13.0365 17.5323 13.0365 17.9318V30.7349C13.0365 31.1344 13.195 31.5174 13.4778 31.7999C13.7602 32.0827 14.1432 32.2412 14.5428 32.2412H34.124C34.5235 32.2412 34.9065 32.0827 35.1889 31.7999C35.4717 31.5174 35.6302 31.1344 35.6302 30.7349V17.9318Z" stroke="#101828" stroke-width="1.40625" stroke-miterlimit="10" stroke-linecap="round" stroke-linejoin="round"/>
<path d="M19.8147 22.4505C20.854 22.4505 21.6975 23.2941 21.6975 24.3334C21.6975 25.3727 20.854 26.2162 19.8147 26.2162C18.7754 26.2162 17.9319 25.3727 17.9319 24.3334C17.9319 23.2941 18.7754 22.4505 19.8147 22.4505Z" stroke="#101828" stroke-width="1.40625" stroke-miterlimit="10" stroke-linecap="round" stroke-linejoin="round"/>
<path d="M19.8146 26.2162C21.4772 26.2162 22.8272 27.5662 22.8272 29.2287H16.8021C16.8021 27.5662 18.1521 26.2162 19.8146 26.2162Z" stroke="#101828" stroke-width="1.40625" stroke-miterlimit="10" stroke-linecap="round" stroke-linejoin="round"/>
<path d="M26.5928 23.2037H31.8647" stroke="#101828" stroke-width="1.40625" stroke-miterlimit="10" stroke-linecap="round" stroke-linejoin="round"/>
<path d="M16.8021 19.438H31.8647" stroke="#101828" stroke-width="1.40625" stroke-miterlimit="10" stroke-linecap="round" stroke-linejoin="round"/>
<path d="M26.5928 26.2162H31.8647" stroke="#101828" stroke-width="1.40625" stroke-miterlimit="10" stroke-linecap="round" stroke-linejoin="round"/>
<path d="M26.5928 29.2287H30.3584" stroke="#101828" stroke-width="1.40625" stroke-miterlimit="10" stroke-linecap="round" stroke-linejoin="round"/>
</g>
</svg>
