<svg width="33" height="32" viewBox="0 0 33 32" fill="none" xmlns="http://www.w3.org/2000/svg">
<rect x="2.08594" y="2" width="28" height="28" rx="6" fill="url(#paint0_radial_924_22289)"/>
<rect x="2.08594" y="2" width="28" height="28" rx="6" fill="url(#paint1_radial_924_22289)"/>
<rect x="2.08594" y="2" width="28" height="28" rx="6" fill="url(#paint2_radial_924_22289)"/>
<path d="M23.0859 10.5C23.0859 11.3284 22.4144 12 21.5859 12C20.7575 12 20.0859 11.3284 20.0859 10.5C20.0859 9.67157 20.7575 9 21.5859 9C22.4144 9 23.0859 9.67157 23.0859 10.5Z" fill="white"/>
<path fill-rule="evenodd" clip-rule="evenodd" d="M16.0859 21C18.8474 21 21.0859 18.7614 21.0859 16C21.0859 13.2386 18.8474 11 16.0859 11C13.3245 11 11.0859 13.2386 11.0859 16C11.0859 18.7614 13.3245 21 16.0859 21ZM16.0859 19C17.7428 19 19.0859 17.6569 19.0859 16C19.0859 14.3431 17.7428 13 16.0859 13C14.4291 13 13.0859 14.3431 13.0859 16C13.0859 17.6569 14.4291 19 16.0859 19Z" fill="white"/>
<path fill-rule="evenodd" clip-rule="evenodd" d="M6.08594 15.6C6.08594 12.2397 6.08594 10.5595 6.7399 9.27606C7.31514 8.14708 8.23302 7.2292 9.36199 6.65396C10.6455 6 12.3256 6 15.6859 6H16.4859C19.8463 6 21.5264 6 22.8099 6.65396C23.9389 7.2292 24.8567 8.14708 25.432 9.27606C26.0859 10.5595 26.0859 12.2397 26.0859 15.6V16.4C26.0859 19.7603 26.0859 21.4405 25.432 22.7239C24.8567 23.8529 23.9389 24.7708 22.8099 25.346C21.5264 26 19.8463 26 16.4859 26H15.6859C12.3256 26 10.6455 26 9.36199 25.346C8.23302 24.7708 7.31514 23.8529 6.7399 22.7239C6.08594 21.4405 6.08594 19.7603 6.08594 16.4V15.6ZM15.6859 8H16.4859C18.1991 8 19.3637 8.00156 20.2639 8.0751C21.1407 8.14674 21.5891 8.27659 21.9019 8.43597C22.6545 8.81947 23.2665 9.43139 23.65 10.184C23.8093 10.4968 23.9392 10.9452 24.0108 11.8221C24.0844 12.7223 24.0859 13.8868 24.0859 15.6V16.4C24.0859 18.1132 24.0844 19.2777 24.0108 20.1779C23.9392 21.0548 23.8093 21.5032 23.65 21.816C23.2665 22.5686 22.6545 23.1805 21.9019 23.564C21.5891 23.7234 21.1407 23.8533 20.2639 23.9249C19.3637 23.9984 18.1991 24 16.4859 24H15.6859C13.9728 24 12.8082 23.9984 11.908 23.9249C11.0312 23.8533 10.5828 23.7234 10.27 23.564C9.51733 23.1805 8.9054 22.5686 8.52191 21.816C8.36253 21.5032 8.23268 21.0548 8.16104 20.1779C8.08749 19.2777 8.08594 18.1132 8.08594 16.4V15.6C8.08594 13.8868 8.08749 12.7223 8.16104 11.8221C8.23268 10.9452 8.36253 10.4968 8.52191 10.184C8.9054 9.43139 9.51733 8.81947 10.27 8.43597C10.5828 8.27659 11.0312 8.14674 11.908 8.0751C12.8082 8.00156 13.9728 8 15.6859 8Z" fill="white"/>
<defs>
<radialGradient id="paint0_radial_924_22289" cx="0" cy="0" r="1" gradientUnits="userSpaceOnUse" gradientTransform="translate(12.0859 23) rotate(-55.3758) scale(25.5196)">
<stop stop-color="#B13589"/>
<stop offset="0.79309" stop-color="#C62F94"/>
<stop offset="1" stop-color="#8A3AC8"/>
</radialGradient>
<radialGradient id="paint1_radial_924_22289" cx="0" cy="0" r="1" gradientUnits="userSpaceOnUse" gradientTransform="translate(11.0859 31) rotate(-65.1363) scale(22.5942)">
<stop stop-color="#E0E8B7"/>
<stop offset="0.444662" stop-color="#FB8A2E"/>
<stop offset="0.71474" stop-color="#E2425C"/>
<stop offset="1" stop-color="#E2425C" stop-opacity="0"/>
</radialGradient>
<radialGradient id="paint2_radial_924_22289" cx="0" cy="0" r="1" gradientUnits="userSpaceOnUse" gradientTransform="translate(0.585939 3) rotate(-8.1301) scale(38.8909 8.31836)">
<stop offset="0.156701" stop-color="#406ADC"/>
<stop offset="0.467799" stop-color="#6A45BE"/>
<stop offset="1" stop-color="#6A45BE" stop-opacity="0"/>
</radialGradient>
</defs>
</svg>
