<svg width="25" height="24" viewBox="0 0 25 24" fill="none" xmlns="http://www.w3.org/2000/svg">
<g clip-path="url(#clip0_384_42430)">
<mask id="path-1-inside-1_384_42430" fill="white">
<path d="M3.5777 7.15799C3.5777 4.96435 5.17584 3.09775 7.34329 2.75982C10.5728 2.25632 13.8609 2.25632 17.0904 2.75982C19.2578 3.09775 20.856 4.96435 20.856 7.15799V11.4546C20.856 12.7928 20.856 13.4619 20.7445 14.0807C20.4616 15.6505 19.6536 17.0775 18.4532 18.1278C17.9799 18.5418 17.4062 18.8861 16.2588 19.5746L15.4654 20.0507C14.3114 20.7431 13.7345 21.0893 13.1204 21.2317C12.5259 21.3696 11.9078 21.3696 11.3132 21.2317C10.6992 21.0893 10.1222 20.7431 8.96829 20.0507L8.17491 19.5746C7.02748 18.8861 6.45376 18.5418 5.98051 18.1278C4.78003 17.0775 3.9721 15.6505 3.68922 14.0807C3.5777 13.4619 3.5777 12.7928 3.5777 11.4546V7.15799Z"/>
</mask>
<path d="M15.4654 20.0507L14.6936 18.7645L15.4654 20.0507ZM13.1204 21.2317L13.4593 22.6929L13.1204 21.2317ZM8.96829 20.0507L8.19649 21.3369L8.96829 20.0507ZM11.3132 21.2317L10.9744 22.6929L11.3132 21.2317ZM3.68922 14.0807L2.21299 14.3467L3.68922 14.0807ZM8.17491 19.5746L8.94672 18.2884L8.17491 19.5746ZM5.98051 18.1278L4.99283 19.2567L5.98051 18.1278ZM20.7445 14.0807L22.2207 14.3467L20.7445 14.0807ZM18.4532 18.1278L17.4655 16.9988L18.4532 18.1278ZM19.356 7.15799V11.4546H22.356V7.15799H19.356ZM5.0777 11.4546V7.15799H2.0777V11.4546H5.0777ZM15.487 18.2884L14.6936 18.7645L16.2372 21.3369L17.0306 20.8608L15.487 18.2884ZM9.7401 18.7645L8.94672 18.2884L7.40311 20.8608L8.19649 21.3369L9.7401 18.7645ZM7.57436 4.24192C10.6508 3.76228 13.7829 3.76228 16.8593 4.24192L17.3215 1.27773C13.9388 0.750348 10.4949 0.750348 7.11222 1.27773L7.57436 4.24192ZM14.6936 18.7645C13.4527 19.5091 13.1105 19.6942 12.7816 19.7705L13.4593 22.6929C14.3584 22.4844 15.1702 21.9771 16.2372 21.3369L14.6936 18.7645ZM8.19649 21.3369C9.26348 21.9771 10.0752 22.4844 10.9744 22.6929L11.6521 19.7705C11.3231 19.6942 10.981 19.5091 9.7401 18.7645L8.19649 21.3369ZM12.7816 19.7705C12.41 19.8567 12.0237 19.8567 11.6521 19.7705L10.9744 22.6929C11.7918 22.8825 12.6418 22.8825 13.4593 22.6929L12.7816 19.7705ZM2.0777 11.4546C2.0777 12.7366 2.07206 13.5647 2.21299 14.3467L5.16544 13.8147C5.08334 13.3591 5.0777 12.8489 5.0777 11.4546H2.0777ZM8.94672 18.2884C7.75112 17.571 7.31661 17.3037 6.96818 16.9988L4.99283 19.2567C5.59092 19.78 6.30384 20.2012 7.40311 20.8608L8.94672 18.2884ZM2.21299 14.3467C2.55619 16.2512 3.53639 17.9825 4.99283 19.2567L6.96818 16.9988C6.02367 16.1725 5.388 15.0497 5.16544 13.8147L2.21299 14.3467ZM19.356 11.4546C19.356 12.8489 19.3503 13.3591 19.2682 13.8147L22.2207 14.3467C22.3616 13.5647 22.356 12.7366 22.356 11.4546H19.356ZM17.0306 20.8608C18.1298 20.2012 18.8428 19.78 19.4408 19.2567L17.4655 16.9988C17.1171 17.3037 16.6826 17.571 15.487 18.2884L17.0306 20.8608ZM19.2682 13.8147C19.0457 15.0497 18.41 16.1725 17.4655 16.9988L19.4408 19.2567C20.8973 17.9825 21.8775 16.2512 22.2207 14.3467L19.2682 13.8147ZM22.356 7.15799C22.356 4.22514 20.2193 1.72952 17.3215 1.27773L16.8593 4.24192C18.2964 4.46597 19.356 5.70357 19.356 7.15799H22.356ZM5.0777 7.15799C5.0777 5.70356 6.13729 4.46597 7.57436 4.24192L7.11222 1.27773C4.21438 1.72952 2.0777 4.22514 2.0777 7.15799H5.0777Z" fill="#FCFCFD" mask="url(#path-1-inside-1_384_42430)"/>
<path d="M9.21686 10.5757L11.2169 12.5757L15.2169 8.57568" stroke="#FCFCFD" stroke-width="1.5" stroke-linecap="round" stroke-linejoin="round"/>
</g>
<defs>
<clipPath id="clip0_384_42430">
<rect width="24" height="24" fill="white" transform="translate(0.216797)"/>
</clipPath>
</defs>
</svg>
