<svg width="25" height="25" viewBox="0 0 25 25" fill="none" xmlns="http://www.w3.org/2000/svg">
<path fill-rule="evenodd" clip-rule="evenodd" d="M4.5 3.5C5.05228 3.5 5.5 3.94772 5.5 4.5V17.5C5.5 18.6046 6.39543 19.5 7.5 19.5H20.5C21.0523 19.5 21.5 19.9477 21.5 20.5C21.5 21.0523 21.0523 21.5 20.5 21.5H7.5C5.29086 21.5 3.5 19.7091 3.5 17.5V4.5C3.5 3.94772 3.94772 3.5 4.5 3.5Z" fill="#6EFDEB"/>
<path fill-rule="evenodd" clip-rule="evenodd" d="M19.2071 3.79289C18.8166 3.40237 18.1834 3.40237 17.7929 3.79289L15.7929 5.79289C15.4024 6.18342 15.4024 6.81658 15.7929 7.20711C16.1834 7.59763 16.8166 7.59763 17.2071 7.20711L17.5 6.91421V9.5C17.5 12.8137 14.8137 15.5 11.5 15.5H8.5C7.94772 15.5 7.5 15.9477 7.5 16.5C7.5 17.0523 7.94772 17.5 8.5 17.5H11.5C15.9183 17.5 19.5 13.9183 19.5 9.5V6.91421L19.7929 7.20711C20.1834 7.59763 20.8166 7.59763 21.2071 7.20711C21.5976 6.81658 21.5976 6.18342 21.2071 5.79289L19.2071 3.79289Z" fill="#6EFDEB"/>
</svg>
