<svg width="16" height="16" viewBox="0 0 16 16" fill="none" xmlns="http://www.w3.org/2000/svg">
<path d="M8.56641 12.293C8.56641 11.9802 8.31282 11.7266 8 11.7266C7.68718 11.7266 7.43359 11.9802 7.43359 12.293H8.56641ZM7.43359 14.1596C7.43359 14.4725 7.68718 14.726 8 14.726C8.31282 14.726 8.56641 14.4725 8.56641 14.1596H7.43359ZM7.43359 12.293V14.1596H8.56641V12.293H7.43359Z" fill="#FCFCFD"/>
<path d="M8.56641 1.83398C8.56641 1.52117 8.31282 1.26758 8 1.26758C7.68718 1.26758 7.43359 1.52117 7.43359 1.83398H8.56641ZM7.43359 3.70065C7.43359 4.01347 7.68718 4.26706 8 4.26706C8.31282 4.26706 8.56641 4.01347 8.56641 3.70065H7.43359ZM7.43359 1.83398V3.70065H8.56641V1.83398H7.43359Z" fill="#FCFCFD"/>
<path d="M5.36303 11.4337C5.58423 11.2125 5.58423 10.8539 5.36303 10.6327C5.14184 10.4115 4.78321 10.4115 4.56201 10.6327L5.36303 11.4337ZM3.24208 11.9526C3.02089 12.1738 3.02089 12.5325 3.24208 12.7536C3.46328 12.9748 3.82191 12.9748 4.0431 12.7536L3.24208 11.9526ZM4.56201 10.6327L3.24208 11.9526L4.0431 12.7536L5.36303 11.4337L4.56201 10.6327Z" fill="#FCFCFD"/>
<path d="M12.7582 4.03918C12.9794 3.81799 12.9794 3.45936 12.7582 3.23816C12.537 3.01697 12.1784 3.01697 11.9572 3.23816L12.7582 4.03918ZM10.6372 4.55809C10.416 4.77929 10.416 5.13792 10.6372 5.35911C10.8584 5.58031 11.217 5.58031 11.4382 5.35911L10.6372 4.55809ZM11.9572 3.23816L10.6372 4.55809L11.4382 5.35911L12.7582 4.03918L11.9572 3.23816Z" fill="#FCFCFD"/>
<path d="M3.70447 8.5625C4.01729 8.5625 4.27087 8.30891 4.27087 7.99609C4.27087 7.68328 4.01729 7.42969 3.70447 7.42969L3.70447 8.5625ZM1.8378 7.42969C1.52498 7.42969 1.27139 7.68328 1.27139 7.99609C1.27139 8.30891 1.52498 8.5625 1.8378 8.5625L1.8378 7.42969ZM3.70447 7.42969L1.8378 7.42969L1.8378 8.5625L3.70447 8.5625L3.70447 7.42969Z" fill="#FCFCFD"/>
<path d="M14.1627 8.5625C14.4755 8.5625 14.7291 8.30891 14.7291 7.99609C14.7291 7.68328 14.4755 7.42969 14.1627 7.42969L14.1627 8.5625ZM12.2961 7.42969C11.9832 7.42969 11.7296 7.68328 11.7296 7.99609C11.7296 8.30891 11.9832 8.5625 12.2961 8.5625L12.2961 7.42969ZM14.1627 7.42969L12.2961 7.42969L12.2961 8.5625L14.1627 8.5625L14.1627 7.42969Z" fill="#FCFCFD"/>
<path d="M4.56195 5.35949C4.78315 5.58069 5.14178 5.58069 5.36297 5.35949C5.58417 5.1383 5.58417 4.77967 5.36297 4.55847L4.56195 5.35949ZM4.04304 3.23854C3.82185 3.01735 3.46322 3.01735 3.24202 3.23854C3.02083 3.45974 3.02083 3.81837 3.24202 4.03956L4.04304 3.23854ZM5.36297 4.55847L4.04304 3.23854L3.24202 4.03956L4.56195 5.35949L5.36297 4.55847Z" fill="#FCFCFD"/>
<path d="M11.9572 12.754C12.1784 12.9752 12.537 12.9752 12.7582 12.754C12.9794 12.5328 12.9794 12.1742 12.7582 11.953L11.9572 12.754ZM11.4382 10.6331C11.217 10.4119 10.8584 10.4119 10.6372 10.6331C10.416 10.8543 10.416 11.2129 10.6372 11.4341L11.4382 10.6331ZM12.7582 11.953L11.4382 10.6331L10.6372 11.4341L11.9572 12.754L12.7582 11.953Z" fill="#FCFCFD"/>
</svg>
