<svg width="32" height="32" viewBox="0 0 32 32" fill="none" xmlns="http://www.w3.org/2000/svg">
<g clip-path="url(#clip0_308_6729)">
<path d="M16 32C24.8366 32 32 24.8366 32 16C32 7.16344 24.8366 0 16 0C7.16344 0 0 7.16344 0 16C0 24.8366 7.16344 32 16 32Z" fill="#F4F5F6"/>
<rect x="12.4256" y="10.1699" width="7.15059" height="11.6704" fill="#F26122"/>
<path d="M13.1957 16.0045C13.188 13.734 14.2189 11.5846 15.9943 10.1693C12.9528 7.78322 8.58853 8.13368 5.96669 10.9745C3.34484 13.8153 3.34484 18.1936 5.96669 21.0344C8.58853 23.8753 12.9528 24.2257 15.9943 21.8397C14.2156 20.427 13.1839 18.2759 13.1957 16.0045Z" fill="#EA1D25"/>
<path fill-rule="evenodd" clip-rule="evenodd" d="M27.7651 20.3145V20.6083H27.6112V20.5244L27.6951 20.3145H27.7651ZM27.5812 20.4494L27.6112 20.5244V20.3844L27.5812 20.4494ZM27.5272 20.3145L27.5812 20.4494L27.5272 20.5663L27.4432 20.3844V20.3145H27.5272ZM27.29 20.3704V20.6083H27.1921V20.3704H27.29Z" fill="#F69E1E"/>
<path d="M27.9999 16.0043C27.9926 18.842 26.3697 21.4277 23.8175 22.6681C21.2653 23.9085 18.2294 23.587 15.9937 21.8395C17.7809 20.4305 18.8239 18.2801 18.8239 16.0043C18.8239 13.7284 17.7809 11.5781 15.9937 10.1691C18.2266 8.4098 21.2686 8.08166 23.8254 9.32427C26.3821 10.5669 28.0036 13.1616 27.9999 16.0043Z" fill="#F69E1E"/>
</g>
<defs>
<clipPath id="clip0_308_6729">
<rect width="32" height="32" fill="white"/>
</clipPath>
</defs>
</svg>
