<svg width="216" height="64" viewBox="0 0 216 64" fill="none" xmlns="http://www.w3.org/2000/svg">
<path d="M208 0H8C3.58172 0 0 3.58172 0 8V56C0 60.4183 3.58172 64 8 64H208C212.418 64 216 60.4183 216 56V8C216 3.58172 212.418 0 208 0Z" fill="black"/>
<path d="M208 1.28C209.782 1.28 211.492 1.988 212.752 3.24824C214.012 4.50849 214.72 6.21775 214.72 8V56C214.72 57.7823 214.012 59.4915 212.752 60.7518C211.492 62.012 209.782 62.72 208 62.72H8C6.21775 62.72 4.50849 62.012 3.24824 60.7518C1.988 59.4915 1.28 57.7823 1.28 56V8C1.28 6.21775 1.988 4.50849 3.24824 3.24824C4.50849 1.988 6.21775 1.28 8 1.28H208ZM208 0H8C5.87827 0 3.84344 0.842855 2.34315 2.34315C0.842855 3.84344 0 5.87827 0 8V56C0 58.1217 0.842855 60.1566 2.34315 61.6569C3.84344 63.1571 5.87827 64 8 64H208C210.122 64 212.157 63.1571 213.657 61.6569C215.157 60.1566 216 58.1217 216 56V8C216 5.87827 215.157 3.84344 213.657 2.34315C212.157 0.842855 210.122 0 208 0Z" fill="#A6A6A6"/>
<path d="M68.1866 35.0365H71.9296L75.4256 44.5935H75.4826L78.9406 35.0365H82.7026V48.4885H80.3276V37.6775H80.2896L76.2046 48.4885H74.5326L70.5046 37.6775H70.4666V48.4885H68.1866V35.0365Z" fill="white"/>
<path d="M85.5892 39.3685H87.8692V48.4885H85.5892V39.3685ZM85.2662 36.2715C85.2662 35.9042 85.3992 35.5875 85.6652 35.3215C85.9438 35.0428 86.2922 34.9035 86.7102 34.9035C87.1282 34.9035 87.4765 35.0365 87.7552 35.3025C88.0465 35.5558 88.1922 35.8788 88.1922 36.2715C88.1922 36.6642 88.0465 36.9935 87.7552 37.2595C87.4765 37.5128 87.1282 37.6395 86.7102 37.6395C86.2922 37.6395 85.9438 37.5065 85.6652 37.2405C85.3992 36.9618 85.2662 36.6388 85.2662 36.2715Z" fill="white"/>
<path d="M96.8671 41.8955C96.6898 41.6422 96.4238 41.4332 96.0691 41.2685C95.7145 41.0912 95.3535 41.0025 94.9861 41.0025C94.5681 41.0025 94.2008 41.0912 93.8841 41.2685C93.5675 41.4332 93.3015 41.6548 93.0861 41.9335C92.8835 42.2122 92.7315 42.5288 92.6301 42.8835C92.5288 43.2255 92.4781 43.5738 92.4781 43.9285C92.4781 44.2832 92.5288 44.6378 92.6301 44.9925C92.7441 45.3345 92.9088 45.6448 93.1241 45.9235C93.3395 46.2022 93.6055 46.4302 93.9221 46.6075C94.2515 46.7722 94.6315 46.8545 95.0621 46.8545C95.4168 46.8545 95.7715 46.7848 96.1261 46.6455C96.4808 46.5062 96.7658 46.3035 96.9811 46.0375L98.4061 47.4815C98.0261 47.8868 97.5385 48.2035 96.9431 48.4315C96.3605 48.6468 95.7271 48.7545 95.0431 48.7545C94.3718 48.7545 93.7321 48.6468 93.1241 48.4315C92.5288 48.2162 92.0031 47.8995 91.5471 47.4815C91.1038 47.0635 90.7491 46.5568 90.4831 45.9615C90.2298 45.3662 90.1031 44.6885 90.1031 43.9285C90.1031 43.1938 90.2298 42.5288 90.4831 41.9335C90.7491 41.3382 91.1038 40.8315 91.5471 40.4135C91.9905 39.9955 92.5035 39.6725 93.0861 39.4445C93.6815 39.2165 94.3148 39.1025 94.9861 39.1025C95.6575 39.1025 96.3035 39.2292 96.9241 39.4825C97.5575 39.7358 98.0578 40.0842 98.4251 40.5275L96.8671 41.8955Z" fill="white"/>
<path d="M99.9125 39.3685H102.097V40.8885H102.135C102.389 40.3565 102.743 39.9258 103.199 39.5965C103.655 39.2672 104.187 39.1025 104.795 39.1025C104.884 39.1025 104.979 39.1088 105.08 39.1215C105.182 39.1215 105.27 39.1342 105.346 39.1595V41.2495C105.194 41.2115 105.061 41.1862 104.947 41.1735C104.846 41.1608 104.745 41.1545 104.643 41.1545C104.124 41.1545 103.706 41.2495 103.389 41.4395C103.073 41.6295 102.826 41.8575 102.648 42.1235C102.471 42.3895 102.351 42.6618 102.287 42.9405C102.224 43.2192 102.192 43.4408 102.192 43.6055V48.4885H99.9125V39.3685Z" fill="white"/>
<path d="M105.967 43.8905C105.967 43.1685 106.094 42.5162 106.347 41.9335C106.613 41.3382 106.968 40.8315 107.411 40.4135C107.855 39.9955 108.38 39.6725 108.988 39.4445C109.596 39.2165 110.242 39.1025 110.926 39.1025C111.61 39.1025 112.256 39.2165 112.864 39.4445C113.472 39.6725 113.998 39.9955 114.441 40.4135C114.885 40.8315 115.233 41.3382 115.486 41.9335C115.752 42.5162 115.885 43.1685 115.885 43.8905C115.885 44.6125 115.752 45.2712 115.486 45.8665C115.233 46.4618 114.885 46.9748 114.441 47.4055C113.998 47.8235 113.472 48.1528 112.864 48.3935C112.256 48.6342 111.61 48.7545 110.926 48.7545C110.242 48.7545 109.596 48.6342 108.988 48.3935C108.38 48.1528 107.855 47.8235 107.411 47.4055C106.968 46.9748 106.613 46.4618 106.347 45.8665C106.094 45.2712 105.967 44.6125 105.967 43.8905ZM108.285 43.8905C108.285 44.2452 108.336 44.5998 108.437 44.9545C108.551 45.3092 108.716 45.6258 108.931 45.9045C109.147 46.1832 109.419 46.4112 109.748 46.5885C110.078 46.7658 110.47 46.8545 110.926 46.8545C111.382 46.8545 111.775 46.7658 112.104 46.5885C112.434 46.4112 112.706 46.1832 112.921 45.9045C113.137 45.6258 113.295 45.3092 113.396 44.9545C113.51 44.5998 113.567 44.2452 113.567 43.8905C113.567 43.5358 113.51 43.1875 113.396 42.8455C113.295 42.4908 113.137 42.1742 112.921 41.8955C112.706 41.6168 112.434 41.3952 112.104 41.2305C111.775 41.0532 111.382 40.9645 110.926 40.9645C110.47 40.9645 110.078 41.0532 109.748 41.2305C109.419 41.3952 109.147 41.6168 108.931 41.8955C108.716 42.1742 108.551 42.4908 108.437 42.8455C108.336 43.1875 108.285 43.5358 108.285 43.8905Z" fill="white"/>
<path d="M123.093 41.8005C122.89 41.5345 122.612 41.3065 122.257 41.1165C121.902 40.9138 121.516 40.8125 121.098 40.8125C120.731 40.8125 120.395 40.8885 120.091 41.0405C119.787 41.1925 119.635 41.4458 119.635 41.8005C119.635 42.1552 119.8 42.4085 120.129 42.5605C120.471 42.6998 120.965 42.8455 121.611 42.9975C121.953 43.0735 122.295 43.1748 122.637 43.3015C122.992 43.4282 123.308 43.5992 123.587 43.8145C123.878 44.0172 124.113 44.2768 124.29 44.5935C124.467 44.8975 124.556 45.2712 124.556 45.7145C124.556 46.2718 124.448 46.7468 124.233 47.1395C124.03 47.5195 123.752 47.8298 123.397 48.0705C123.055 48.3112 122.65 48.4822 122.181 48.5835C121.725 48.6975 121.25 48.7545 120.756 48.7545C120.047 48.7545 119.356 48.6278 118.685 48.3745C118.014 48.1085 117.456 47.7348 117.013 47.2535L118.514 45.8475C118.767 46.1768 119.097 46.4492 119.502 46.6645C119.907 46.8798 120.357 46.9875 120.851 46.9875C121.016 46.9875 121.18 46.9685 121.345 46.9305C121.522 46.8925 121.681 46.8355 121.82 46.7595C121.972 46.6708 122.092 46.5568 122.181 46.4175C122.27 46.2782 122.314 46.1072 122.314 45.9045C122.314 45.5245 122.137 45.2522 121.782 45.0875C121.44 44.9228 120.921 44.7582 120.224 44.5935C119.882 44.5175 119.546 44.4225 119.217 44.3085C118.9 44.1818 118.615 44.0235 118.362 43.8335C118.109 43.6308 117.906 43.3838 117.754 43.0925C117.602 42.8012 117.526 42.4402 117.526 42.0095C117.526 41.5028 117.627 41.0658 117.83 40.6985C118.045 40.3312 118.324 40.0335 118.666 39.8055C119.008 39.5648 119.394 39.3875 119.825 39.2735C120.256 39.1595 120.699 39.1025 121.155 39.1025C121.814 39.1025 122.453 39.2165 123.074 39.4445C123.707 39.6725 124.208 40.0208 124.575 40.4895L123.093 41.8005Z" fill="white"/>
<path d="M126.006 43.8905C126.006 43.1685 126.133 42.5162 126.386 41.9335C126.652 41.3382 127.007 40.8315 127.45 40.4135C127.894 39.9955 128.419 39.6725 129.027 39.4445C129.635 39.2165 130.281 39.1025 130.965 39.1025C131.649 39.1025 132.295 39.2165 132.903 39.4445C133.511 39.6725 134.037 39.9955 134.48 40.4135C134.924 40.8315 135.272 41.3382 135.525 41.9335C135.791 42.5162 135.924 43.1685 135.924 43.8905C135.924 44.6125 135.791 45.2712 135.525 45.8665C135.272 46.4618 134.924 46.9748 134.48 47.4055C134.037 47.8235 133.511 48.1528 132.903 48.3935C132.295 48.6342 131.649 48.7545 130.965 48.7545C130.281 48.7545 129.635 48.6342 129.027 48.3935C128.419 48.1528 127.894 47.8235 127.45 47.4055C127.007 46.9748 126.652 46.4618 126.386 45.8665C126.133 45.2712 126.006 44.6125 126.006 43.8905ZM128.324 43.8905C128.324 44.2452 128.375 44.5998 128.476 44.9545C128.59 45.3092 128.755 45.6258 128.97 45.9045C129.186 46.1832 129.458 46.4112 129.787 46.5885C130.117 46.7658 130.509 46.8545 130.965 46.8545C131.421 46.8545 131.814 46.7658 132.143 46.5885C132.473 46.4112 132.745 46.1832 132.96 45.9045C133.176 45.6258 133.334 45.3092 133.435 44.9545C133.549 44.5998 133.606 44.2452 133.606 43.8905C133.606 43.5358 133.549 43.1875 133.435 42.8455C133.334 42.4908 133.176 42.1742 132.96 41.8955C132.745 41.6168 132.473 41.3952 132.143 41.2305C131.814 41.0532 131.421 40.9645 130.965 40.9645C130.509 40.9645 130.117 41.0532 129.787 41.2305C129.458 41.3952 129.186 41.6168 128.97 41.8955C128.755 42.1742 128.59 42.4908 128.476 42.8455C128.375 43.1875 128.324 43.5358 128.324 43.8905Z" fill="white"/>
<path d="M138.496 41.1925H136.767V39.3685H138.496V38.0195C138.496 37.4748 138.553 36.9555 138.667 36.4615C138.794 35.9548 138.996 35.5115 139.275 35.1315C139.566 34.7515 139.946 34.4538 140.415 34.2385C140.884 34.0105 141.473 33.8965 142.182 33.8965C142.435 33.8965 142.644 33.9092 142.809 33.9345C142.986 33.9472 143.164 33.9788 143.341 34.0295L143.189 35.9675C143.062 35.9295 142.923 35.8978 142.771 35.8725C142.632 35.8472 142.48 35.8345 142.315 35.8345C141.986 35.8345 141.72 35.8978 141.517 36.0245C141.314 36.1512 141.156 36.3158 141.042 36.5185C140.941 36.7212 140.871 36.9428 140.833 37.1835C140.795 37.4242 140.776 37.6585 140.776 37.8865V39.3685H142.885V41.1925H140.776V48.4885H138.496V41.1925Z" fill="white"/>
<path d="M142.706 41.1925V39.3685H144.302V36.7275H146.544V39.3685H148.824V41.1925H146.544V45.4295C146.544 45.8348 146.614 46.1705 146.753 46.4365C146.905 46.7025 147.234 46.8355 147.741 46.8355C147.893 46.8355 148.058 46.8228 148.235 46.7975C148.412 46.7595 148.571 46.7088 148.71 46.6455L148.786 48.4315C148.583 48.5075 148.343 48.5645 148.064 48.6025C147.785 48.6532 147.519 48.6785 147.266 48.6785C146.658 48.6785 146.164 48.5962 145.784 48.4315C145.404 48.2542 145.1 48.0198 144.872 47.7285C144.657 47.4245 144.505 47.0825 144.416 46.7025C144.34 46.3098 144.302 45.8918 144.302 45.4485V41.1925H142.706Z" fill="white"/>
<path d="M162.197 37.8485C161.944 37.5192 161.583 37.2468 161.114 37.0315C160.658 36.8035 160.196 36.6895 159.727 36.6895C159.448 36.6895 159.17 36.7275 158.891 36.8035C158.612 36.8668 158.359 36.9745 158.131 37.1265C157.903 37.2658 157.713 37.4558 157.561 37.6965C157.422 37.9245 157.352 38.2032 157.352 38.5325C157.352 38.8365 157.415 39.0962 157.542 39.3115C157.669 39.5268 157.84 39.7105 158.055 39.8625C158.283 40.0145 158.555 40.1475 158.872 40.2615C159.189 40.3755 159.537 40.4895 159.917 40.6035C160.348 40.7428 160.791 40.9012 161.247 41.0785C161.716 41.2558 162.14 41.4902 162.52 41.7815C162.913 42.0728 163.229 42.4402 163.47 42.8835C163.723 43.3268 163.85 43.8778 163.85 44.5365C163.85 45.2585 163.717 45.8918 163.451 46.4365C163.185 46.9685 162.83 47.4118 162.387 47.7665C161.944 48.1212 161.424 48.3872 160.829 48.5645C160.234 48.7418 159.607 48.8305 158.948 48.8305C158.074 48.8305 157.219 48.6722 156.383 48.3555C155.547 48.0262 154.863 47.5448 154.331 46.9115L156.041 45.3155C156.37 45.7715 156.807 46.1325 157.352 46.3985C157.909 46.6645 158.454 46.7975 158.986 46.7975C159.265 46.7975 159.55 46.7658 159.841 46.7025C160.132 46.6265 160.392 46.5062 160.62 46.3415C160.861 46.1768 161.051 45.9742 161.19 45.7335C161.342 45.4802 161.418 45.1698 161.418 44.8025C161.418 44.4478 161.336 44.1565 161.171 43.9285C161.006 43.6878 160.785 43.4852 160.506 43.3205C160.227 43.1432 159.898 42.9912 159.518 42.8645C159.138 42.7378 158.739 42.6048 158.321 42.4655C157.916 42.3388 157.51 42.1868 157.105 42.0095C156.7 41.8322 156.332 41.5978 156.003 41.3065C155.686 41.0152 155.427 40.6605 155.224 40.2425C155.021 39.8118 154.92 39.2798 154.92 38.6465C154.92 37.9625 155.059 37.3735 155.338 36.8795C155.629 36.3855 156.003 35.9802 156.459 35.6635C156.928 35.3342 157.453 35.0935 158.036 34.9415C158.631 34.7768 159.233 34.6945 159.841 34.6945C160.525 34.6945 161.215 34.8148 161.912 35.0555C162.621 35.2962 163.236 35.6572 163.755 36.1385L162.197 37.8485Z" fill="white"/>
<path d="M164.712 41.1925V39.3685H166.308V36.7275H168.55V39.3685H170.83V41.1925H168.55V45.4295C168.55 45.8348 168.62 46.1705 168.759 46.4365C168.911 46.7025 169.24 46.8355 169.747 46.8355C169.899 46.8355 170.064 46.8228 170.241 46.7975C170.418 46.7595 170.577 46.7088 170.716 46.6455L170.792 48.4315C170.589 48.5075 170.349 48.5645 170.07 48.6025C169.791 48.6532 169.525 48.6785 169.272 48.6785C168.664 48.6785 168.17 48.5962 167.79 48.4315C167.41 48.2542 167.106 48.0198 166.878 47.7285C166.663 47.4245 166.511 47.0825 166.422 46.7025C166.346 46.3098 166.308 45.8918 166.308 45.4485V41.1925H164.712Z" fill="white"/>
<path d="M171.948 43.8905C171.948 43.1685 172.075 42.5162 172.328 41.9335C172.594 41.3382 172.949 40.8315 173.392 40.4135C173.835 39.9955 174.361 39.6725 174.969 39.4445C175.577 39.2165 176.223 39.1025 176.907 39.1025C177.591 39.1025 178.237 39.2165 178.845 39.4445C179.453 39.6725 179.979 39.9955 180.422 40.4135C180.865 40.8315 181.214 41.3382 181.467 41.9335C181.733 42.5162 181.866 43.1685 181.866 43.8905C181.866 44.6125 181.733 45.2712 181.467 45.8665C181.214 46.4618 180.865 46.9748 180.422 47.4055C179.979 47.8235 179.453 48.1528 178.845 48.3935C178.237 48.6342 177.591 48.7545 176.907 48.7545C176.223 48.7545 175.577 48.6342 174.969 48.3935C174.361 48.1528 173.835 47.8235 173.392 47.4055C172.949 46.9748 172.594 46.4618 172.328 45.8665C172.075 45.2712 171.948 44.6125 171.948 43.8905ZM174.266 43.8905C174.266 44.2452 174.317 44.5998 174.418 44.9545C174.532 45.3092 174.697 45.6258 174.912 45.9045C175.127 46.1832 175.4 46.4112 175.729 46.5885C176.058 46.7658 176.451 46.8545 176.907 46.8545C177.363 46.8545 177.756 46.7658 178.085 46.5885C178.414 46.4112 178.687 46.1832 178.902 45.9045C179.117 45.6258 179.276 45.3092 179.377 44.9545C179.491 44.5998 179.548 44.2452 179.548 43.8905C179.548 43.5358 179.491 43.1875 179.377 42.8455C179.276 42.4908 179.117 42.1742 178.902 41.8955C178.687 41.6168 178.414 41.3952 178.085 41.2305C177.756 41.0532 177.363 40.9645 176.907 40.9645C176.451 40.9645 176.058 41.0532 175.729 41.2305C175.4 41.3952 175.127 41.6168 174.912 41.8955C174.697 42.1742 174.532 42.4908 174.418 42.8455C174.317 43.1875 174.266 43.5358 174.266 43.8905Z" fill="white"/>
<path d="M184.077 39.3685H186.262V40.8885H186.3C186.553 40.3565 186.908 39.9258 187.364 39.5965C187.82 39.2672 188.352 39.1025 188.96 39.1025C189.048 39.1025 189.143 39.1088 189.245 39.1215C189.346 39.1215 189.435 39.1342 189.511 39.1595V41.2495C189.359 41.2115 189.226 41.1862 189.112 41.1735C189.01 41.1608 188.909 41.1545 188.808 41.1545C188.288 41.1545 187.87 41.2495 187.554 41.4395C187.237 41.6295 186.99 41.8575 186.813 42.1235C186.635 42.3895 186.515 42.6618 186.452 42.9405C186.388 43.2192 186.357 43.4408 186.357 43.6055V48.4885H184.077V39.3685Z" fill="white"/>
<path d="M197.085 43.0165C197.085 42.7252 197.041 42.4465 196.952 42.1805C196.876 41.9145 196.75 41.6802 196.572 41.4775C196.395 41.2748 196.167 41.1165 195.888 41.0025C195.622 40.8758 195.306 40.8125 194.938 40.8125C194.254 40.8125 193.672 41.0215 193.19 41.4395C192.722 41.8448 192.462 42.3705 192.411 43.0165H197.085ZM199.365 44.0425C199.365 44.1438 199.365 44.2452 199.365 44.3465C199.365 44.4478 199.359 44.5492 199.346 44.6505H192.411C192.437 44.9798 192.519 45.2838 192.658 45.5625C192.81 45.8285 193.007 46.0628 193.247 46.2655C193.488 46.4555 193.76 46.6075 194.064 46.7215C194.368 46.8355 194.685 46.8925 195.014 46.8925C195.584 46.8925 196.066 46.7912 196.458 46.5885C196.851 46.3732 197.174 46.0818 197.427 45.7145L198.947 46.9305C198.048 48.1465 196.743 48.7545 195.033 48.7545C194.324 48.7545 193.672 48.6468 193.076 48.4315C192.481 48.2035 191.962 47.8868 191.518 47.4815C191.088 47.0762 190.746 46.5822 190.492 45.9995C190.252 45.4042 190.131 44.7328 190.131 43.9855C190.131 43.2508 190.252 42.5858 190.492 41.9905C190.746 41.3825 191.088 40.8695 191.518 40.4515C191.949 40.0208 192.456 39.6915 193.038 39.4635C193.634 39.2228 194.273 39.1025 194.957 39.1025C195.591 39.1025 196.173 39.2102 196.705 39.4255C197.25 39.6282 197.719 39.9385 198.111 40.3565C198.504 40.7618 198.808 41.2748 199.023 41.8955C199.251 42.5035 199.365 43.2192 199.365 44.0425Z" fill="white"/>
<path d="M76.6246 16.4963C76.2833 16.123 75.846 15.8243 75.3126 15.6003C74.79 15.3763 74.2033 15.2643 73.5526 15.2643C72.8913 15.2643 72.294 15.387 71.7606 15.6323C71.2273 15.867 70.774 16.1923 70.4006 16.6083C70.0273 17.0243 69.7393 17.5096 69.5366 18.0643C69.334 18.6083 69.2326 19.1896 69.2326 19.8083C69.2326 20.4376 69.334 21.0296 69.5366 21.5843C69.7393 22.139 70.0273 22.6243 70.4006 23.0403C70.774 23.4456 71.2326 23.7656 71.7766 24.0003C72.3206 24.235 72.9286 24.3523 73.6006 24.3523C74.134 24.3523 74.6246 24.3043 75.0726 24.2083C75.5206 24.1123 75.91 23.9736 76.2406 23.7923V20.6403H73.7286V19.2963H77.8086V24.7843C77.2113 25.1043 76.5606 25.3496 75.8566 25.5203C75.1526 25.691 74.3846 25.7763 73.5526 25.7763C72.6673 25.7763 71.8513 25.6323 71.1046 25.3443C70.3686 25.0456 69.734 24.635 69.2006 24.1123C68.6673 23.579 68.2513 22.9496 67.9526 22.2243C67.654 21.4883 67.5046 20.683 67.5046 19.8083C67.5046 18.923 67.654 18.1176 67.9526 17.3923C68.262 16.6563 68.6833 16.0323 69.2166 15.5203C69.7606 14.9976 70.4006 14.5923 71.1366 14.3043C71.8726 14.0163 72.6726 13.8723 73.5366 13.8723C74.4433 13.8723 75.2486 14.0056 75.9526 14.2723C76.6673 14.539 77.2593 14.8963 77.7286 15.3443L76.6246 16.4963Z" fill="white"/>
<path d="M86.0058 21.0243C85.9951 20.7256 85.9418 20.4483 85.8458 20.1923C85.7604 19.9256 85.6271 19.6963 85.4458 19.5043C85.2751 19.3123 85.0564 19.163 84.7898 19.0563C84.5338 18.939 84.2298 18.8803 83.8778 18.8803C83.5578 18.8803 83.2538 18.939 82.9658 19.0563C82.6884 19.163 82.4431 19.3123 82.2298 19.5043C82.0271 19.6963 81.8564 19.9256 81.7178 20.1923C81.5898 20.4483 81.5151 20.7256 81.4938 21.0243H86.0058ZM87.5258 21.6323C87.5258 21.7176 87.5258 21.803 87.5258 21.8883C87.5258 21.9736 87.5204 22.059 87.5098 22.1443H81.4938C81.5044 22.4643 81.5738 22.7683 81.7018 23.0563C81.8404 23.3336 82.0218 23.579 82.2458 23.7923C82.4698 23.995 82.7258 24.155 83.0138 24.2723C83.3124 24.3896 83.6271 24.4483 83.9578 24.4483C84.4698 24.4483 84.9124 24.3363 85.2858 24.1123C85.6591 23.8883 85.9524 23.6163 86.1658 23.2963L87.2218 24.1443C86.8164 24.6776 86.3364 25.0723 85.7818 25.3283C85.2378 25.5736 84.6298 25.6963 83.9578 25.6963C83.3818 25.6963 82.8484 25.6003 82.3578 25.4083C81.8671 25.2163 81.4458 24.9496 81.0938 24.6083C80.7418 24.2563 80.4644 23.835 80.2618 23.3443C80.0591 22.8536 79.9578 22.3096 79.9578 21.7123C79.9578 21.1256 80.0538 20.587 80.2458 20.0963C80.4484 19.595 80.7258 19.1683 81.0778 18.8163C81.4298 18.4643 81.8458 18.1923 82.3258 18.0003C82.8058 17.7976 83.3231 17.6963 83.8778 17.6963C84.4324 17.6963 84.9338 17.787 85.3818 17.9683C85.8404 18.1496 86.2244 18.411 86.5338 18.7523C86.8538 19.0936 87.0991 19.5096 87.2698 20.0003C87.4404 20.4803 87.5258 21.0243 87.5258 21.6323Z" fill="white"/>
<path d="M93.3376 19.1363H91.3216V23.0883C91.3216 23.547 91.407 23.8776 91.5776 24.0803C91.7483 24.2723 92.0203 24.3683 92.3936 24.3683C92.5323 24.3683 92.6816 24.3523 92.8416 24.3203C93.0016 24.2883 93.1456 24.2403 93.2736 24.1763L93.3216 25.4083C93.1403 25.4723 92.9376 25.5203 92.7136 25.5523C92.5003 25.595 92.2763 25.6163 92.0416 25.6163C91.327 25.6163 90.7776 25.419 90.3936 25.0243C90.0203 24.6296 89.8336 24.0376 89.8336 23.2483V19.1363H88.3776V17.9043H89.8336V15.7283H91.3216V17.9043H93.3376V19.1363Z" fill="white"/>
<path d="M100.411 25.4883H98.9073V17.9043H100.411V25.4883ZM100.667 15.1683C100.667 15.4456 100.566 15.675 100.363 15.8563C100.171 16.0376 99.9366 16.1283 99.6593 16.1283C99.3819 16.1283 99.1473 16.0376 98.9553 15.8563C98.7633 15.6643 98.6673 15.435 98.6673 15.1683C98.6673 14.891 98.7633 14.6616 98.9553 14.4803C99.1473 14.2883 99.3819 14.1923 99.6593 14.1923C99.9366 14.1923 100.171 14.2883 100.363 14.4803C100.566 14.6616 100.667 14.891 100.667 15.1683Z" fill="white"/>
<path d="M106.744 19.1363H104.728V23.0883C104.728 23.547 104.813 23.8776 104.984 24.0803C105.155 24.2723 105.427 24.3683 105.8 24.3683C105.939 24.3683 106.088 24.3523 106.248 24.3203C106.408 24.2883 106.552 24.2403 106.68 24.1763L106.728 25.4083C106.547 25.4723 106.344 25.5203 106.12 25.5523C105.907 25.595 105.683 25.6163 105.448 25.6163C104.733 25.6163 104.184 25.419 103.8 25.0243C103.427 24.6296 103.24 24.0376 103.24 23.2483V19.1363H101.784V17.9043H103.24V15.7283H104.728V17.9043H106.744V19.1363Z" fill="white"/>
<path d="M119.978 21.6803C119.978 22.267 119.871 22.8056 119.658 23.2963C119.455 23.787 119.167 24.2136 118.794 24.5763C118.431 24.9283 117.999 25.2056 117.498 25.4083C116.996 25.6003 116.458 25.6963 115.882 25.6963C115.306 25.6963 114.767 25.6003 114.266 25.4083C113.764 25.2056 113.332 24.9283 112.97 24.5763C112.607 24.2136 112.319 23.787 112.106 23.2963C111.903 22.8056 111.802 22.267 111.802 21.6803C111.802 21.0936 111.903 20.5603 112.106 20.0803C112.319 19.5896 112.607 19.1683 112.97 18.8163C113.332 18.4643 113.764 18.1923 114.266 18.0003C114.767 17.7976 115.306 17.6963 115.882 17.6963C116.458 17.6963 116.996 17.7976 117.498 18.0003C117.999 18.1923 118.431 18.4643 118.794 18.8163C119.167 19.1683 119.455 19.5896 119.658 20.0803C119.871 20.5603 119.978 21.0936 119.978 21.6803ZM118.41 21.6803C118.41 21.3176 118.351 20.971 118.234 20.6403C118.127 20.3096 117.967 20.0216 117.754 19.7763C117.54 19.5203 117.274 19.3176 116.954 19.1683C116.644 19.019 116.287 18.9443 115.882 18.9443C115.476 18.9443 115.114 19.019 114.794 19.1683C114.484 19.3176 114.223 19.5203 114.01 19.7763C113.796 20.0216 113.631 20.3096 113.514 20.6403C113.407 20.971 113.354 21.3176 113.354 21.6803C113.354 22.043 113.407 22.3896 113.514 22.7203C113.631 23.051 113.796 23.3443 114.01 23.6003C114.223 23.8563 114.484 24.059 114.794 24.2083C115.114 24.3576 115.476 24.4323 115.882 24.4323C116.287 24.4323 116.644 24.3576 116.954 24.2083C117.274 24.059 117.54 23.8563 117.754 23.6003C117.967 23.3443 118.127 23.051 118.234 22.7203C118.351 22.3896 118.41 22.043 118.41 21.6803Z" fill="white"/>
<path d="M123.423 17.9043C123.444 18.0963 123.46 18.315 123.471 18.5603C123.482 18.795 123.487 18.9923 123.487 19.1523H123.535C123.631 18.9496 123.759 18.763 123.919 18.5923C124.09 18.411 124.282 18.2563 124.495 18.1283C124.708 17.9896 124.943 17.883 125.199 17.8083C125.455 17.7336 125.722 17.6963 125.999 17.6963C126.49 17.6963 126.911 17.7816 127.263 17.9523C127.615 18.1123 127.908 18.331 128.143 18.6083C128.378 18.8856 128.548 19.211 128.655 19.5843C128.772 19.9576 128.831 20.3576 128.831 20.7843V25.4883H127.327V21.2803C127.327 20.971 127.3 20.6776 127.247 20.4003C127.204 20.123 127.119 19.8776 126.991 19.6643C126.863 19.451 126.687 19.2803 126.463 19.1523C126.239 19.0243 125.951 18.9603 125.599 18.9603C125.002 18.9603 124.511 19.1896 124.127 19.6483C123.754 20.0963 123.567 20.699 123.567 21.4563V25.4883H122.063V19.5363C122.063 19.3336 122.058 19.0723 122.047 18.7523C122.036 18.4323 122.02 18.1496 121.999 17.9043H123.423Z" fill="white"/>
<path d="M30.8122 14.0528C32.0115 12.7487 33.7076 11.9059 35.4755 11.7627C35.9067 11.743 36.3399 11.7463 36.7711 11.764C38.524 11.9001 40.2037 12.7337 41.3998 14.0181C42.6129 15.2967 43.3222 17.0345 43.3569 18.796C43.3654 19.6316 43.3582 20.4671 43.3602 21.3027C43.862 21.3027 44.3632 21.3027 44.8644 21.3027C44.8605 20.4253 44.873 19.5478 44.8579 18.671C44.8069 17.2243 44.2899 15.8116 43.438 14.6463C44.9017 15.7239 45.9271 17.3728 46.2464 19.1624C46.3838 19.8671 46.3668 20.5882 46.3648 21.3027C49.2824 21.3034 52.2001 21.3027 55.1184 21.3027C55.1203 29.5786 55.121 37.8539 55.119 46.1298C55.1177 46.6329 55.1694 47.1551 54.9908 47.638C54.6505 48.6705 53.6429 49.4707 52.5449 49.4884C41.5961 49.4851 30.6473 49.4871 19.6991 49.4871C18.3499 49.4688 17.1499 48.2583 17.125 46.9123C17.1263 38.376 17.1243 29.839 17.1257 21.3027C21.0457 21.3027 24.9651 21.3027 28.8845 21.3027C28.8865 20.4684 28.8799 19.6342 28.8878 18.8006C28.9199 17.0535 29.618 15.3287 30.8122 14.0528ZM35.1948 13.3055C33.896 13.5136 32.679 14.1895 31.8126 15.1795C30.9123 16.1977 30.3947 17.5449 30.3862 18.904C30.3829 19.7035 30.3855 20.5031 30.3849 21.3027C30.8861 21.3027 31.388 21.3027 31.8892 21.3027C31.8905 20.8754 31.882 20.4482 31.9036 20.0209C31.9546 19.1578 32.1633 18.3046 32.5154 17.5148C33.1887 15.8967 34.7558 14.7477 36.4492 14.3924C37.5838 14.1562 38.8028 14.2609 39.8562 14.7562C39.5055 14.7359 39.1555 14.6993 38.8041 14.7254C37.4372 14.7974 36.1043 15.3817 35.1261 16.341C34.0818 17.3486 33.4478 18.7672 33.3948 20.2178C33.3843 20.579 33.3915 20.9409 33.3896 21.3027C36.213 21.3027 39.0364 21.3027 41.8604 21.3027C41.8604 20.5679 41.8604 19.8331 41.8604 19.0989C41.8617 18.1894 41.6491 17.2799 41.2401 16.4679C40.6441 15.2724 39.6259 14.2942 38.4076 13.7472C37.4091 13.2984 36.2784 13.1197 35.1948 13.3055ZM28.1478 27.4272C28.1484 29.8816 28.1464 32.3353 28.1491 34.7896C30.6021 34.7877 33.0558 34.789 35.5096 34.7883C35.5096 32.3353 35.5083 29.8816 35.5102 27.4278C33.0558 27.4259 30.6021 27.4278 28.1478 27.4272ZM36.7345 27.4285C36.7384 29.8816 36.7358 32.3353 36.7358 34.7883C39.1888 34.7896 41.6426 34.787 44.0956 34.7903C44.0995 32.3353 44.0969 29.8809 44.0969 27.4265C41.6425 27.4285 39.1888 27.4246 36.7345 27.4285ZM28.1491 36.0145C28.1471 38.4683 28.1491 40.9226 28.1478 43.3764C30.6021 43.3757 33.0565 43.379 35.5102 43.375C35.5083 40.922 35.5102 38.4683 35.5096 36.0152C33.0558 36.0145 30.6021 36.0159 28.1491 36.0145ZM36.7358 36.0152C36.7358 38.4689 36.7371 40.922 36.7351 43.3757C39.1895 43.3783 41.6432 43.3764 44.0976 43.3764C44.0969 40.9226 44.0995 38.4683 44.0963 36.0145C41.6432 36.0165 39.1895 36.0145 36.7358 36.0152Z" fill="white"/>
</svg>
