<svg width="32" height="32" viewBox="0 0 32 32" fill="none" xmlns="http://www.w3.org/2000/svg">
<circle cx="16" cy="16" r="16" fill="#202934"/>
<g clip-path="url(#clip0_24_41536)">
<path d="M15.9978 7.4668C20.719 7.4668 24.5347 11.286 24.5315 16.0092C24.5286 20.7217 20.7072 24.5361 15.9922 24.5332C11.2771 24.5303 7.46005 20.7084 7.46485 15.9836C7.46831 11.2796 11.2886 7.4668 15.9978 7.4668ZM16.001 23.4658C20.1159 23.4628 23.4666 20.1091 23.4639 15.9969C23.4613 11.8848 20.1065 8.53103 15.9954 8.53423C11.8842 8.53743 8.52977 11.8901 8.53243 16.0025C8.5351 20.115 11.8901 23.4703 16.0004 23.4658H16.001Z" fill="white"/>
<path d="M15.4598 20.5684C15.4598 20.4575 15.4987 20.3218 15.4483 20.2427C15.4012 20.168 15.2617 20.1491 15.1599 20.112C14.2416 19.7767 13.6054 18.8772 13.5977 17.8993C13.595 17.5823 13.8139 17.3408 14.1115 17.3323C14.4173 17.3238 14.6522 17.5544 14.6642 17.8756C14.6941 18.6575 15.3068 19.2312 16.0741 19.1958C16.722 19.1659 17.2766 18.625 17.3273 17.9745C17.3785 17.3024 16.9153 16.6789 16.2648 16.564C15.9947 16.5162 15.7139 16.5229 15.4476 16.4632C14.4162 16.2318 13.6433 15.3025 13.6003 14.2673C13.5545 13.1601 14.2283 12.1804 15.2644 11.848C15.4643 11.7837 15.4643 11.7837 15.4643 11.5728C15.4643 11.4441 15.4617 11.315 15.4657 11.1863C15.4735 11.0501 15.5332 10.9222 15.6324 10.8287C15.7317 10.7352 15.863 10.6833 15.9994 10.6836C16.1358 10.6839 16.2669 10.7365 16.3657 10.8305C16.4645 10.9245 16.5235 11.0528 16.5306 11.1889C16.5349 11.3444 16.5389 11.5003 16.5293 11.6552C16.5229 11.7587 16.5591 11.8008 16.6573 11.8298C17.4131 12.0535 17.9472 12.5344 18.2277 13.2678C18.3269 13.5278 18.3656 13.8175 18.3914 14.0977C18.3982 14.1688 18.3903 14.2405 18.368 14.3084C18.3458 14.3762 18.3097 14.4388 18.2621 14.492C18.2146 14.5453 18.1565 14.5881 18.0915 14.6178C18.0266 14.6476 17.9562 14.6636 17.8848 14.6648C17.5798 14.6741 17.3441 14.4424 17.3318 14.1217C17.302 13.339 16.6919 12.7674 15.9224 12.8016C15.275 12.8301 14.7183 13.3729 14.6693 14.022C14.6191 14.6957 15.0815 15.3185 15.7315 15.4331C15.9981 15.48 16.2736 15.4725 16.5357 15.5309C17.5926 15.7661 18.3709 16.7117 18.3975 17.7703C18.4242 18.89 17.7272 19.8601 16.6682 20.1659C16.5671 20.1949 16.5207 20.2323 16.5293 20.3456C16.5381 20.5009 16.5386 20.6565 16.5309 20.8118C16.5235 20.9485 16.464 21.077 16.3645 21.1709C16.265 21.2649 16.1332 21.317 15.9964 21.3164C15.8595 21.3159 15.7282 21.2628 15.6294 21.1682C15.5306 21.0735 15.472 20.9445 15.4657 20.8078C15.4633 20.7279 15.4657 20.6479 15.4657 20.5679L15.4598 20.5684Z" fill="white"/>
</g>
<defs>
<clipPath id="clip0_24_41536">
<rect width="17.0667" height="17.0667" fill="white" transform="translate(7.46484 7.4668)"/>
</clipPath>
</defs>
</svg>
