<svg width="48" height="48" viewBox="0 0 48 48" fill="none" xmlns="http://www.w3.org/2000/svg">
<rect width="48" height="48" rx="24" fill="#F2F4F7"/>
<g clip-path="url(#clip0_397_9480)">
<path d="M28.8862 30.0279L18.8848 30.0264C18.6089 30.0264 18.3848 30.25 18.3848 30.5264C18.3848 30.8023 18.6084 31.0264 18.8848 31.0264L28.8862 31.0279C29.1621 31.0279 29.3862 30.8042 29.3862 30.5279C29.3862 30.252 29.1626 30.0279 28.8862 30.0279Z" fill="black"/>
<path d="M26.8848 32.0279H20.8848C20.6084 32.0279 20.3848 32.2515 20.3848 32.5279C20.3848 32.8043 20.6084 33.0279 20.8848 33.0279H26.8848C27.1611 33.0279 27.3848 32.8043 27.3848 32.5279C27.3847 32.2515 27.1611 32.0279 26.8848 32.0279Z" fill="black"/>
<path d="M24 18.0001C20.9673 18.0001 18.5 20.4673 18.5 23.5C18.5 26.5327 20.9673 29 24 29C27.0327 29 29.4999 26.5327 29.4999 23.5C29.4999 20.4673 27.0327 18.0001 24 18.0001ZM19.5505 24H21.5102C21.5656 25.362 21.8469 26.7165 22.3352 27.6723C20.8272 27.0684 19.7386 25.6717 19.5505 24ZM21.5103 23.0001H19.5506C19.7386 21.3284 20.8273 19.9317 22.3352 19.3278C21.8469 20.2836 21.5656 21.6381 21.5103 23.0001ZM24 28.0001C23.4271 28.0001 22.6214 26.451 22.52 24.0001H25.4799C25.3785 26.451 24.5728 28.0001 24 28.0001ZM22.52 23.0001C22.6214 20.5492 23.4271 19.0001 24 19.0001C24.5728 19.0001 25.3785 20.5492 25.4799 23.0001H22.52ZM25.6648 27.6724C26.1531 26.7165 26.4344 25.3621 26.4897 24.0001H28.4494C28.2614 25.6717 27.1727 27.0684 25.6648 27.6724ZM26.4897 23.0001C26.4344 21.6381 26.1531 20.2836 25.6648 19.3278C27.1727 19.9317 28.2614 21.3284 28.4494 23.0001H26.4897Z" fill="black"/>
<path d="M30.9999 15.0001H29.9999V13.9669C29.9999 12.8744 29.0755 11.9891 27.9999 12.0001C27.8463 12.0017 27.7118 12.023 27.5532 12.0631L16.8929 15.0109C15.8405 15.0679 15 15.9338 15 17.0001V34C15 35.103 15.8969 36 17 36H31C32.103 36 33 35.1031 33 34V17.0001C32.9999 15.8971 32.103 15.0001 30.9999 15.0001ZM27.81 13.0294C28.3935 12.8804 28.9999 13.3531 28.9999 13.9669V15.0001H20.6839L27.81 13.0294ZM31.9999 34C31.9999 34.5513 31.5512 35 31 35H17C16.4488 35 16 34.5513 16 34V17.0001C16 16.4488 16.4488 16.0001 17 16.0001H31C31.5512 16.0001 31.9999 16.4488 31.9999 17.0001V34Z" fill="black"/>
</g>
<defs>
<clipPath id="clip0_397_9480">
<rect width="24" height="24" fill="white" transform="translate(12 12)"/>
</clipPath>
</defs>
</svg>
