<svg width="29" height="29" viewBox="0 0 29 29" fill="none" xmlns="http://www.w3.org/2000/svg">
<rect x="1.2125" y="0.7125" width="27.075" height="27.075" rx="13.5375" fill="#58BD7D"/>
<path d="M8.21013 13.314L7.8327 12.8497L8.21013 13.314C8.2181 13.3075 8.22596 13.3012 8.23372 13.2949C8.37923 13.1766 8.48839 13.088 8.58421 12.9902C9.01882 12.5466 9.26506 11.9521 9.27141 11.3311C9.27281 11.1942 9.25833 11.0543 9.23903 10.8678C9.238 10.8579 9.23695 10.8478 9.2359 10.8376C9.18527 10.3473 9.17271 10.1947 9.18339 10.0881C9.24074 9.5157 9.69343 9.063 10.2658 9.00566C10.3724 8.99498 10.5251 9.00754 11.0153 9.05817C11.0255 9.05922 11.0356 9.06026 11.0456 9.06129C11.232 9.08059 11.3719 9.09507 11.5088 9.09367C12.1298 9.08733 12.7243 8.84109 13.1679 8.40647C13.2657 8.31065 13.3544 8.2015 13.4726 8.05599C13.4789 8.04823 13.4853 8.04037 13.4918 8.0324C13.8026 7.64993 13.9017 7.53311 13.9846 7.46527C14.4299 7.10109 15.0701 7.10109 15.5154 7.46527C15.5983 7.53311 15.6974 7.64993 16.0082 8.03239C16.0147 8.04037 16.0211 8.04824 16.0274 8.05601C16.1456 8.20151 16.2343 8.31066 16.3321 8.40647C16.7757 8.84109 17.3702 9.08733 17.9912 9.09367C18.1281 9.09507 18.268 9.08059 18.4544 9.06129C18.4644 9.06026 18.4745 9.05922 18.4847 9.05817C18.9749 9.00754 19.1276 8.99498 19.2342 9.00566C19.8066 9.063 20.2593 9.5157 20.3166 10.0881C20.3273 10.1947 20.3147 10.3473 20.2641 10.8376L20.261 10.8678C20.2417 11.0543 20.2272 11.1942 20.2286 11.3311C20.2349 11.9521 20.4812 12.5466 20.9158 12.9902L21.3432 12.5714L20.9158 12.9902C21.0116 13.088 21.1208 13.1766 21.2663 13.2949L21.2899 13.314C21.6723 13.6249 21.7892 13.7239 21.857 13.8069C22.2212 14.2522 22.2212 14.8924 21.857 15.3376C21.7892 15.4206 21.6723 15.5196 21.2899 15.8305L21.2663 15.8497C21.1208 15.9679 21.0116 16.0566 20.9158 16.1544C20.4812 16.598 20.2349 17.1924 20.2286 17.8134C20.2272 17.9503 20.2417 18.0902 20.261 18.2767L20.2641 18.3069C20.3147 18.7972 20.3273 18.9498 20.3166 19.0565C20.2593 19.6288 19.8066 20.0815 19.2342 20.1389C19.1276 20.1496 18.9749 20.137 18.4847 20.0864L18.4544 20.0832C18.268 20.0639 18.1281 20.0495 17.9912 20.0509C17.3702 20.0572 16.7757 20.3034 16.3321 20.7381C16.2343 20.8339 16.1456 20.943 16.0274 21.0885L16.0082 21.1121C15.6974 21.4946 15.5983 21.6114 15.5154 21.6793C15.0701 22.0434 14.4299 22.0434 13.9846 21.6793C13.9017 21.6114 13.8026 21.4946 13.4918 21.1121C13.4853 21.1042 13.4789 21.0963 13.4726 21.0885C13.3544 20.943 13.2657 20.8339 13.1679 20.7381L12.7491 21.1655L13.1679 20.7381C12.7243 20.3034 12.1298 20.0572 11.5088 20.0509C11.3719 20.0495 11.232 20.0639 11.0456 20.0832C11.0356 20.0843 11.0255 20.0853 11.0153 20.0864C10.5251 20.137 10.3724 20.1496 10.2658 20.1389C9.69343 20.0815 9.24074 19.6288 9.18339 19.0565C9.17271 18.9498 9.18527 18.7972 9.2359 18.3069C9.23695 18.2967 9.238 18.2866 9.23903 18.2767C9.25833 18.0902 9.27281 17.9503 9.27141 17.8134C9.26506 17.1924 9.01882 16.598 8.58421 16.1544C8.48839 16.0566 8.37924 15.9679 8.23374 15.8497C8.22598 15.8434 8.21811 15.837 8.21013 15.8305C7.82766 15.5196 7.71085 15.4206 7.64301 15.3376C7.27883 14.8924 7.27883 14.2522 7.64301 13.8069C7.71085 13.7239 7.82766 13.6249 8.21013 13.314Z" stroke="#FCFCFD" stroke-width="1.19678"/>
<path d="M14.5979 17.1992V13.0903C14.1564 13.3828 13.7415 13.5663 13.3532 13.6408V12.3802C13.8213 12.2632 14.316 12.0079 14.8372 11.6143H15.9064V17.1992H14.5979Z" fill="#FCFCFD"/>
<rect x="1.2125" y="0.7125" width="27.075" height="27.075" rx="13.5375" stroke="#F4F5F6" stroke-width="1.425"/>
</svg>
