<svg width="56" height="15" viewBox="0 0 56 15" fill="none" xmlns="http://www.w3.org/2000/svg">
<path d="M37.7886 0.000564575H33.4322C33.1348 0.000564575 32.8813 0.218235 32.8348 0.514012L31.0732 11.7413C31.0381 11.9629 31.2088 12.1626 31.4311 12.1626H33.6666C33.8742 12.1626 34.0519 12.0102 34.0844 11.8028L34.5844 8.62033C34.6302 8.32391 34.8844 8.10624 35.1818 8.10624H36.56C39.4299 8.10624 41.0852 6.71059 41.5182 3.94489C41.7138 2.73489 41.5259 1.78418 40.9622 1.11837C40.3438 0.38725 39.2464 0.000564575 37.7886 0.000564575ZM38.2911 4.1011C38.0535 5.67217 36.8594 5.67217 35.704 5.67217H35.0474L35.5092 2.73809C35.5365 2.56076 35.6881 2.43015 35.8671 2.43015H36.1683C36.9543 2.43015 37.6969 2.43015 38.0803 2.88086C38.3089 3.14975 38.3784 3.54924 38.2911 4.1011Z" fill="#179BD7"/>
<path d="M50.8079 4.05061H48.7234C48.5444 4.05061 48.3922 4.18121 48.3655 4.35855L48.2731 4.94498L48.1266 4.73243C47.6751 4.07366 46.6688 3.85342 45.6637 3.85342C43.3588 3.85342 41.3908 5.60824 41.0074 8.06984C40.8087 9.29776 41.0908 10.4719 41.7838 11.2907C42.4207 12.0436 43.3289 12.3573 44.411 12.3573C46.2682 12.3573 47.298 11.1569 47.298 11.1569L47.205 11.7395C47.17 11.9623 47.3407 12.162 47.5642 12.162H49.4424C49.7399 12.162 49.9934 11.9444 50.0398 11.648L51.1678 4.47187C51.2022 4.25099 51.0315 4.05061 50.8079 4.05061ZM47.9005 8.1313C47.7005 9.32913 46.7535 10.1332 45.5472 10.1332C44.9428 10.1332 44.4575 9.93796 44.1467 9.56792C43.8384 9.20044 43.7225 8.67739 43.8193 8.0948C44.0085 6.90722 44.9689 6.07687 46.1567 6.07687C46.749 6.07687 47.2305 6.27469 47.5477 6.64793C47.8668 7.02502 47.9929 7.55127 47.9005 8.1313Z" fill="#179BD7"/>
<path d="M53.2669 0.30858L51.4792 11.7414C51.4442 11.9629 51.6148 12.1627 51.8371 12.1627H53.6344C53.9331 12.1627 54.1866 11.945 54.2325 11.6486L55.9954 0.421897C56.0304 0.200385 55.8597 0 55.6375 0H53.6249C53.4472 0.000640208 53.2943 0.131243 53.2669 0.30858Z" fill="#179BD7"/>
<path d="M6.71999 0.000564575H2.36427C2.0662 0.000564575 1.81272 0.218235 1.76622 0.514012L0.00457267 11.7413C-0.0304565 11.9629 0.140231 12.1626 0.363781 12.1626H2.44324C2.74131 12.1626 2.99479 11.9449 3.04129 11.6485L3.51641 8.62033C3.56227 8.32391 3.81639 8.10624 4.11382 8.10624H5.49269C8.3619 8.10624 10.0178 6.71059 10.4503 3.94489C10.6452 2.73489 10.4586 1.78418 9.89491 1.11837C9.27585 0.38725 8.17784 0.000564575 6.71999 0.000564575ZM7.2225 4.1011C6.9843 5.67217 5.79012 5.67217 4.63543 5.67217H3.97816L4.43927 2.73809C4.46666 2.56076 4.61951 2.43015 4.79784 2.43015H5.09909C5.88566 2.43015 6.62764 2.43015 7.01105 2.88086C7.23969 3.14975 7.30975 3.54924 7.2225 4.1011Z" fill="#253B80"/>
<path d="M19.7404 4.05062H17.6545C17.4768 4.05062 17.3233 4.18123 17.296 4.35856L17.2036 4.94499L17.0578 4.73245C16.6062 4.07367 15.5993 3.85344 14.5942 3.85344C12.2893 3.85344 10.3207 5.60825 9.93728 8.06985C9.73793 9.29777 10.0213 10.4719 10.7143 11.2907C11.3499 12.0436 12.2594 12.3573 13.3415 12.3573C15.1987 12.3573 16.2285 11.1569 16.2285 11.1569L16.1355 11.7395C16.1005 11.9623 16.2712 12.1621 16.4935 12.1621H18.3723C18.671 12.1621 18.9232 11.9444 18.9704 11.648L20.0977 4.47188C20.1333 4.25101 19.9633 4.05062 19.7404 4.05062ZM16.8329 8.13131C16.6317 9.32914 15.6859 10.1332 14.4796 10.1332C13.8739 10.1332 13.3899 9.93798 13.0791 9.56794C12.7708 9.20046 12.6536 8.67741 12.7517 8.09482C12.9396 6.90723 13.9013 6.07688 15.0891 6.07688C15.6814 6.07688 16.1629 6.27471 16.4801 6.64795C16.7979 7.02503 16.924 7.55128 16.8329 8.13131Z" fill="#253B80"/>
<path d="M30.8488 4.05057H28.7527C28.5527 4.05057 28.3649 4.15044 28.2515 4.31753L25.3606 8.59797L24.1352 4.48463C24.0582 4.22727 23.8219 4.05057 23.5544 4.05057H21.4947C21.2444 4.05057 21.0705 4.29641 21.1501 4.53328L23.4589 11.3438L21.2883 14.4239C21.1176 14.6665 21.2896 15 21.5845 15H23.678C23.8767 15 24.0626 14.9027 24.1754 14.7388L31.1468 4.62355C31.3137 4.38156 31.1424 4.05057 30.8488 4.05057Z" fill="#253B80"/>
</svg>
