<svg width="34" height="24" viewBox="0 0 34 24" fill="none" xmlns="http://www.w3.org/2000/svg">
<rect x="0.5" y="0.5" width="33" height="23" rx="3.5" fill="white"/>
<rect x="0.5" y="0.5" width="33" height="23" rx="3.5" stroke="#F2F4F7"/>
<path fill-rule="evenodd" clip-rule="evenodd" d="M14.614 18.4473L14.8347 16.9982L14.3431 16.9863H11.9951L13.6268 6.29272C13.6319 6.26034 13.6484 6.23028 13.6724 6.2089C13.6965 6.18751 13.7272 6.17578 13.7594 6.17578H17.7184C19.0328 6.17578 19.9398 6.45842 20.4133 7.01636C20.6353 7.2781 20.7767 7.55169 20.8452 7.85266C20.9169 8.16853 20.9181 8.54587 20.8481 9.00618L20.843 9.03966V9.33464L21.0651 9.46465C21.252 9.56717 21.4006 9.68448 21.5145 9.81877C21.7044 10.0426 21.8272 10.3271 21.8791 10.6642C21.9328 11.011 21.9151 11.4238 21.8272 11.8911C21.7259 12.4285 21.5622 12.8966 21.341 13.2796C21.1376 13.6325 20.8785 13.9252 20.5708 14.152C20.277 14.3676 19.928 14.5312 19.5333 14.6359C19.1509 14.7388 18.7149 14.7908 18.2367 14.7908H17.9286C17.7083 14.7908 17.4943 14.8727 17.3263 15.0197C17.1579 15.1698 17.0465 15.3748 17.0123 15.5991L16.989 15.7296L16.599 18.2838L16.5814 18.3775C16.5767 18.4072 16.5686 18.422 16.5568 18.432C16.5463 18.4412 16.5311 18.4473 16.5164 18.4473H14.614Z" fill="#28356A"/>
<path fill-rule="evenodd" clip-rule="evenodd" d="M21.2756 9.07422C21.2639 9.1523 21.2503 9.23209 21.2352 9.31409C20.7131 12.0847 18.9268 13.0419 16.6456 13.0419H15.484C15.205 13.0419 14.9698 13.2512 14.9265 13.5357L14.1633 18.5389C14.1351 18.7258 14.2743 18.894 14.4566 18.894H16.5168C16.7607 18.894 16.968 18.7109 17.0064 18.4622L17.0266 18.354L17.4145 15.8098L17.4394 15.6703C17.4774 15.4208 17.6851 15.2375 17.929 15.2375H18.2371C20.2331 15.2375 21.7957 14.4 22.2524 11.9761C22.4431 10.9636 22.3443 10.1181 21.8395 9.52353C21.6868 9.34427 21.4973 9.19544 21.2756 9.07422Z" fill="#298FC2"/>
<path fill-rule="evenodd" clip-rule="evenodd" d="M20.7291 8.84993C20.6493 8.82586 20.567 8.80411 20.4826 8.78443C20.3977 8.76525 20.3108 8.74826 20.2213 8.73335C19.9081 8.68106 19.5649 8.65625 19.1974 8.65625H16.0943C16.0178 8.65625 15.9452 8.67409 15.8803 8.70635C15.7372 8.77747 15.6309 8.9175 15.6051 9.08894L14.9449 13.4105L14.926 13.5365C14.9694 13.252 15.2046 13.0427 15.4836 13.0427H16.6451C18.9264 13.0427 20.7126 12.085 21.2347 9.31488C21.2503 9.23289 21.2634 9.15309 21.2751 9.07501C21.1431 9.00255 21 8.9406 20.846 8.88781C20.8079 8.87473 20.7687 8.86215 20.7291 8.84993Z" fill="#22284F"/>
<path fill-rule="evenodd" clip-rule="evenodd" d="M15.6054 9.08911C15.6312 8.91767 15.7374 8.77764 15.8806 8.70701C15.946 8.67463 16.0181 8.65679 16.0946 8.65679H19.1976C19.5652 8.65679 19.9084 8.68171 20.2216 8.73401C20.3111 8.7488 20.398 8.76591 20.4829 8.78509C20.5673 8.80464 20.6495 8.82651 20.7294 8.85046C20.769 8.86268 20.8082 8.87539 20.8466 8.88798C21.0007 8.94077 21.1438 9.00321 21.2759 9.07518C21.4312 8.05131 21.2746 7.35419 20.739 6.72293C20.1485 6.02789 19.0828 5.73047 17.7191 5.73047H13.76C13.4815 5.73047 13.2439 5.93979 13.2008 6.22475L11.5518 17.0283C11.5193 17.2421 11.6788 17.4349 11.8873 17.4349H14.3315L15.6054 9.08911Z" fill="#28356A"/>
</svg>
