<svg width="24" height="24" viewBox="0 0 24 24" fill="none" xmlns="http://www.w3.org/2000/svg">
<path fill-rule="evenodd" clip-rule="evenodd" d="M12 20C16.4183 20 20 16.4183 20 12C20 7.58172 16.4183 4 12 4C7.58172 4 4 7.58172 4 12C4 16.4183 7.58172 20 12 20ZM12 22C17.5228 22 22 17.5228 22 12C22 6.47715 17.5228 2 12 2C6.47715 2 2 6.47715 2 12C2 17.5228 6.47715 22 12 22Z" fill="#777E90" fill-opacity="0.4"/>
<path fill-rule="evenodd" clip-rule="evenodd" d="M13.9995 10C13.9995 11.1046 13.1041 12 11.9995 12C10.895 12 9.99952 11.1046 9.99952 10C9.99952 8.89543 10.895 8 11.9995 8C13.1041 8 13.9995 8.89543 13.9995 10ZM15.9995 10C15.9995 12.2091 14.2087 14 11.9995 14C9.79039 14 7.99952 12.2091 7.99952 10C7.99952 7.79086 9.79039 6 11.9995 6C14.2087 6 15.9995 7.79086 15.9995 10ZM10.8826 17C9.62092 17 8.49755 17.7888 8.06579 18.9677C7.46604 18.6283 6.91445 18.2138 6.42383 17.7369C7.26587 16.0764 8.97986 15 10.8826 15H13.1165C15.0192 15 16.7332 16.0764 17.5753 17.7368C17.0846 18.2138 16.533 18.6283 15.9333 18.9676C15.5015 17.7888 14.3782 17 13.1165 17H10.8826Z" fill="#CDCECF"/>
</svg>
