<svg width="18" height="22" viewBox="0 0 18 22" fill="none" xmlns="http://www.w3.org/2000/svg">
<path d="M16.435 9.45699C16.435 15.5024 9.00021 20.6843 9.00021 20.6843C9.00021 20.6843 1.56543 15.5024 1.56543 9.45699C1.56543 7.39554 2.34873 5.41851 3.74303 3.96084C5.13732 2.50318 7.02839 1.68427 9.00021 1.68427C10.972 1.68427 12.8631 2.50318 14.2574 3.96084C15.6517 5.41851 16.435 7.39554 16.435 9.45699Z" stroke="#6EFDEB" stroke-width="2" stroke-linecap="round" stroke-linejoin="round"/>
<path d="M9.00023 11.5973C10.3689 11.5973 11.4785 10.4878 11.4785 9.11905C11.4785 7.75034 10.3689 6.64079 9.00023 6.64079C7.63153 6.64079 6.52197 7.75034 6.52197 9.11905C6.52197 10.4878 7.63153 11.5973 9.00023 11.5973Z" stroke="#6EFDEB" stroke-width="2" stroke-linecap="round" stroke-linejoin="round"/>
</svg>
