<svg width="21" height="20" viewBox="0 0 21 20" fill="none" xmlns="http://www.w3.org/2000/svg">
<path fill-rule="evenodd" clip-rule="evenodd" d="M10.5 16.666C14.1819 16.666 17.1667 13.6812 17.1667 9.99935C17.1667 6.31745 14.1819 3.33268 10.5 3.33268C6.81811 3.33268 3.83334 6.31745 3.83334 9.99935C3.83334 13.6812 6.81811 16.666 10.5 16.666ZM10.5 18.3327C15.1024 18.3327 18.8333 14.6017 18.8333 9.99935C18.8333 5.39698 15.1024 1.66602 10.5 1.66602C5.89763 1.66602 2.16667 5.39698 2.16667 9.99935C2.16667 14.6017 5.89763 18.3327 10.5 18.3327Z" fill="white"/>
<path d="M8 7.50258C8 6.85539 8.70557 6.45522 9.26102 6.78737L13.4253 9.27758C13.9716 9.60425 13.9716 10.3957 13.4253 10.7223L9.26101 13.2124C8.70555 13.5445 8 13.1444 8 12.4972V7.50258Z" fill="white"/>
</svg>
