<svg width="20" height="20" viewBox="0 0 20 20" fill="none" xmlns="http://www.w3.org/2000/svg">
<path fill-rule="evenodd" clip-rule="evenodd" d="M6.66602 1.66669C7.12625 1.66669 7.49935 2.03978 7.49935 2.50002V5.00002H12.4993V2.50002C12.4993 2.03978 12.8724 1.66669 13.3327 1.66669C13.7929 1.66669 14.166 2.03978 14.166 2.50002V5.00002H14.9993C15.4596 5.00002 15.8327 5.37312 15.8327 5.83335V8.33335C15.8327 10.1743 14.3403 11.6667 12.4993 11.6667H7.49935C5.6584 11.6667 4.16602 10.1743 4.16602 8.33335V5.83335C4.16602 5.37312 4.53911 5.00002 4.99935 5.00002H5.83268V2.50002C5.83268 2.03978 6.20578 1.66669 6.66602 1.66669ZM5.83268 8.33335V6.66669H14.166V8.33335C14.166 9.25383 13.4198 10 12.4993 10H7.49935C6.57887 10 5.83268 9.25383 5.83268 8.33335Z" fill="white"/>
<path fill-rule="evenodd" clip-rule="evenodd" d="M11.9849 11.6667H12.5C13.0536 11.6667 13.5758 11.5317 14.0352 11.2929L12.412 14.5393C12.2708 14.8217 11.9823 15 11.6666 15H10.8333V15.4167C10.8333 17.0275 9.5275 18.3334 7.91667 18.3334H5.83333C5.3731 18.3334 5 17.9603 5 17.5C5 17.0398 5.3731 16.6667 5.83333 16.6667H7.91667C8.60702 16.6667 9.16667 16.107 9.16667 15.4167V15H8.33331C8.01767 15 7.72912 14.8217 7.58796 14.5393L5.96471 11.2928C6.4242 11.5317 6.94634 11.6667 7.5 11.6667H8.01502L8.84834 13.3333H11.1516L11.9849 11.6667Z" fill="white"/>
</svg>
