<svg width="58" height="41" viewBox="0 0 58 41" fill="none" xmlns="http://www.w3.org/2000/svg">
<path fill-rule="evenodd" clip-rule="evenodd" d="M28.6316 28.2493C26.6582 29.9127 24.0984 30.9168 21.3011 30.9168C15.0597 30.9168 10 25.9173 10 19.7502C10 13.583 15.0597 8.5835 21.3011 8.5835C24.0984 8.5835 26.6582 9.58766 28.6316 11.2511C30.605 9.58766 33.1649 8.5835 35.9621 8.5835C42.2036 8.5835 47.2632 13.583 47.2632 19.7502C47.2632 25.9173 42.2036 30.9168 35.9621 30.9168C33.1649 30.9168 30.605 29.9127 28.6316 28.2493Z" fill="#ED0006"/>
<path fill-rule="evenodd" clip-rule="evenodd" d="M28.6316 28.2493C31.0615 26.2011 32.6023 23.1534 32.6023 19.7502C32.6023 16.3469 31.0615 13.2992 28.6316 11.2511C30.605 9.58766 33.1649 8.5835 35.9621 8.5835C42.2035 8.5835 47.2632 13.583 47.2632 19.7502C47.2632 25.9173 42.2035 30.9168 35.9621 30.9168C33.1649 30.9168 30.605 29.9127 28.6316 28.2493Z" fill="#F9A000"/>
<path fill-rule="evenodd" clip-rule="evenodd" d="M28.6316 28.2491C31.0615 26.2009 32.6023 23.1533 32.6023 19.75C32.6023 16.3468 31.0615 13.2991 28.6316 11.251C26.2018 13.2991 24.661 16.3468 24.661 19.75C24.661 23.1533 26.2018 26.2009 28.6316 28.2491Z" fill="#FF5E00"/>
</svg>
