<svg width="34" height="35" viewBox="0 0 34 35" fill="none" xmlns="http://www.w3.org/2000/svg">
<circle cx="17" cy="17.2002" r="17" fill="#262729"/>
<path d="M25.7165 12.1999C25.0749 12.4915 24.3832 12.6832 23.6665 12.7749C24.3999 12.3332 24.9665 11.6332 25.2332 10.7915C24.5415 11.2082 23.7749 11.4999 22.9665 11.6665C22.3082 10.9499 21.3832 10.5332 20.3332 10.5332C18.3749 10.5332 16.7749 12.1332 16.7749 14.1082C16.7749 14.3915 16.8082 14.6665 16.8665 14.9249C13.8999 14.7749 11.2582 13.3499 9.49987 11.1915C9.19154 11.7165 9.01654 12.3332 9.01654 12.9832C9.01654 14.2249 9.64154 15.3249 10.6082 15.9499C10.0165 15.9499 9.46654 15.7832 8.9832 15.5332C8.9832 15.5332 8.9832 15.5332 8.9832 15.5582C8.9832 17.2915 10.2165 18.7415 11.8499 19.0665C11.5499 19.1499 11.2332 19.1915 10.9082 19.1915C10.6832 19.1915 10.4582 19.1665 10.2415 19.1249C10.6915 20.5332 11.9999 21.5832 13.5749 21.6082C12.3582 22.5749 10.8165 23.1415 9.1332 23.1415C8.84987 23.1415 8.56654 23.1249 8.2832 23.0915C9.86654 24.1082 11.7499 24.6999 13.7665 24.6999C20.3332 24.6999 23.9415 19.2499 23.9415 14.5249C23.9415 14.3665 23.9415 14.2165 23.9332 14.0582C24.6332 13.5582 25.2332 12.9249 25.7165 12.1999Z" fill="#1DA1F2"/>
</svg>
