<svg width="34" height="35" viewBox="0 0 34 35" fill="none" xmlns="http://www.w3.org/2000/svg">
<circle cx="17" cy="17.2002" r="17" fill="#262729"/>
<path d="M13.4993 8.86719H20.4994C23.166 8.86719 25.3327 11.0339 25.3327 13.7005V20.7005C25.3327 21.9824 24.8235 23.2118 23.917 24.1182C23.0106 25.0246 21.7812 25.5339 20.4994 25.5339H13.4993C10.8327 25.5339 8.66602 23.3672 8.66602 20.7005V13.7005C8.66602 12.4186 9.17524 11.1893 10.0817 10.2828C10.9881 9.37641 12.2175 8.86719 13.4993 8.86719ZM13.3327 10.5339C12.537 10.5339 11.774 10.8499 11.2114 11.4125C10.6488 11.9751 10.3327 12.7382 10.3327 13.5339V20.8672C10.3327 22.5255 11.6743 23.8672 13.3327 23.8672H20.666C21.4617 23.8672 22.2247 23.5511 22.7873 22.9885C23.3499 22.4259 23.666 21.6628 23.666 20.8672V13.5339C23.666 11.8755 22.3243 10.5339 20.666 10.5339H13.3327ZM21.3743 11.7839C21.6506 11.7839 21.9156 11.8936 22.1109 12.089C22.3063 12.2843 22.416 12.5493 22.416 12.8255C22.416 13.1018 22.3063 13.3667 22.1109 13.5621C21.9156 13.7574 21.6506 13.8672 21.3743 13.8672C21.0981 13.8672 20.8331 13.7574 20.6378 13.5621C20.4424 13.3667 20.3327 13.1018 20.3327 12.8255C20.3327 12.5493 20.4424 12.2843 20.6378 12.089C20.8331 11.8936 21.0981 11.7839 21.3743 11.7839ZM16.9993 13.0339C18.1044 13.0339 19.1642 13.4728 19.9456 14.2542C20.727 15.0356 21.166 16.0955 21.166 17.2005C21.166 18.3056 20.727 19.3654 19.9456 20.1468C19.1642 20.9282 18.1044 21.3672 16.9993 21.3672C15.8943 21.3672 14.8345 20.9282 14.0531 20.1468C13.2717 19.3654 12.8327 18.3056 12.8327 17.2005C12.8327 16.0955 13.2717 15.0356 14.0531 14.2542C14.8345 13.4728 15.8943 13.0339 16.9993 13.0339ZM16.9993 14.7005C16.3363 14.7005 15.7004 14.9639 15.2316 15.4328C14.7627 15.9016 14.4993 16.5375 14.4993 17.2005C14.4993 17.8636 14.7627 18.4994 15.2316 18.9683C15.7004 19.4371 16.3363 19.7005 16.9993 19.7005C17.6624 19.7005 18.2983 19.4371 18.7671 18.9683C19.236 18.4994 19.4993 17.8636 19.4993 17.2005C19.4993 16.5375 19.236 15.9016 18.7671 15.4328C18.2983 14.9639 17.6624 14.7005 16.9993 14.7005Z" fill="white"/>
</svg>
