<svg width="24" height="25" viewBox="0 0 24 25" fill="none" xmlns="http://www.w3.org/2000/svg">
<path d="M23.6408 15.1033C22.0379 21.5319 15.5261 25.4443 9.09602 23.8412C2.66858 22.2384 -1.24421 15.7269 0.359461 9.29867C1.96163 2.86929 8.47345 -1.04346 14.9016 0.559294C21.3313 2.16204 25.2437 8.67429 23.6408 15.1033Z" fill="#F7931A"/>
<path fill-rule="evenodd" clip-rule="evenodd" d="M17.2895 10.491C17.5284 8.89421 16.3127 8.03584 14.6503 7.46321L15.1895 5.30021L13.8729 4.97209L13.3479 7.07809C13.0018 6.99184 12.6463 6.91046 12.293 6.82984L12.8218 4.70996L11.5059 4.38184L10.9663 6.54409C10.6798 6.47884 10.3985 6.41434 10.1255 6.34646L10.127 6.33971L8.31129 5.88634L7.96104 7.29259C7.96104 7.29259 8.93792 7.51646 8.91729 7.53034C9.45054 7.66346 9.54692 8.01634 9.53079 8.29609L8.91654 10.7602C8.95329 10.7696 9.00092 10.7831 9.05342 10.8041L9.00885 10.793C8.9783 10.7853 8.94663 10.7774 8.91429 10.7696L8.05329 14.2215C7.98804 14.3835 7.82267 14.6265 7.44992 14.5342C7.46304 14.5533 6.49292 14.2953 6.49292 14.2953L5.83929 15.8025L7.55267 16.2296C7.74395 16.2775 7.93294 16.3268 8.11995 16.3756L8.12011 16.3756C8.24468 16.4081 8.36838 16.4404 8.49129 16.4718L7.94642 18.6596L9.26154 18.9877L9.80117 16.8232C10.1604 16.9207 10.5092 17.0107 10.8504 17.0955L10.3127 19.2498L11.6293 19.578L12.1742 17.3943C14.4193 17.8192 16.1075 17.6478 16.8182 15.6172C17.3908 13.9822 16.7897 13.0391 15.6084 12.4241C16.4687 12.2257 17.1167 11.6598 17.2895 10.491ZM14.2813 14.7093C13.908 16.2094 11.56 15.5892 10.4857 15.3055C10.3891 15.2799 10.3027 15.2571 10.229 15.2388L10.952 12.3405C11.0417 12.3628 11.1513 12.3874 11.2754 12.4153L11.2755 12.4153C12.3867 12.6646 14.6638 13.1756 14.2813 14.7093ZM11.4988 11.0703C12.3945 11.3093 14.3482 11.8307 14.6885 10.4673C15.0361 9.07283 13.1372 8.65246 12.2098 8.44716C12.1055 8.42406 12.0134 8.40369 11.9383 8.38496L11.2828 11.0137C11.3447 11.0291 11.4174 11.0485 11.4988 11.0703Z" fill="white"/>
</svg>
