<svg width="58" height="41" viewBox="0 0 58 41" fill="none" xmlns="http://www.w3.org/2000/svg">
<path fill-rule="evenodd" clip-rule="evenodd" d="M17.9171 26.6306H14.4842L11.9099 16.5208C11.7877 16.0558 11.5283 15.6446 11.1467 15.4509C10.1943 14.9639 9.14486 14.5764 8 14.3809V13.9917H13.5301C14.2934 13.9917 14.8658 14.5764 14.9612 15.2554L16.2969 22.5479L19.7281 13.9917H23.0656L17.9171 26.6306ZM24.9737 26.6306H21.7316L24.4013 13.9917H27.6434L24.9737 26.6306ZM31.8378 17.4931C31.9332 16.8123 32.5057 16.4231 33.1735 16.4231C34.223 16.3254 35.3661 16.5208 36.3202 17.0061L36.8926 14.2849C35.9386 13.8957 34.8891 13.7002 33.9367 13.7002C30.7901 13.7002 28.5003 15.4509 28.5003 17.8806C28.5003 19.729 30.1222 20.6995 31.2671 21.2842C32.5057 21.8672 32.9827 22.2564 32.8873 22.8394C32.8873 23.7139 31.9332 24.1032 30.9809 24.1032C29.836 24.1032 28.6911 23.8117 27.6434 23.3247L27.0709 26.0476C28.2158 26.5329 29.4544 26.7283 30.5992 26.7283C34.1276 26.8244 36.3202 25.0754 36.3202 22.4502C36.3202 19.1443 31.8378 18.9505 31.8378 17.4931ZM47.6667 26.6306L45.0924 13.9917H42.3273C41.7549 13.9917 41.1825 14.3809 40.9917 14.9639L36.2248 26.6306H39.5623L40.2284 24.7839H44.3292L44.7108 26.6306H47.6667ZM42.8044 17.3953L43.7567 22.1587H41.0871L42.8044 17.3953Z" fill="white"/>
</svg>
