<svg width="24" height="25" viewBox="0 0 24 25" fill="none" xmlns="http://www.w3.org/2000/svg">
  <g clip-path="url(#clip0_2618_27518)">
    <path d="M12.2695 14.2371H10.7754C10.7793 13.8855 10.8066 13.5828 10.8574 13.3289C10.9121 13.0711 11.0039 12.8386 11.1328 12.6316C11.2656 12.4246 11.4414 12.2195 11.6602 12.0164C11.8437 11.8523 12.0039 11.6961 12.1406 11.5476C12.2773 11.3992 12.3848 11.2468 12.4629 11.0906C12.541 10.9304 12.5801 10.7527 12.5801 10.5574C12.5801 10.3308 12.5449 10.1433 12.4746 9.99489C12.4082 9.84254 12.3066 9.72731 12.1699 9.64919C12.0371 9.57106 11.8691 9.532 11.666 9.532C11.498 9.532 11.3418 9.56911 11.1973 9.64333C11.0527 9.71364 10.9336 9.82301 10.8398 9.97145C10.75 10.1199 10.7031 10.3152 10.6992 10.5574H9C9.01172 10.0222 9.13477 9.58083 9.36914 9.23317C9.60742 8.88161 9.92578 8.62184 10.3242 8.45387C10.7227 8.282 11.1699 8.19606 11.666 8.19606C12.2129 8.19606 12.6816 8.2859 13.0723 8.46559C13.4629 8.64137 13.7617 8.90114 13.9687 9.24489C14.1758 9.58473 14.2793 9.99879 14.2793 10.4871C14.2793 10.8269 14.2129 11.1297 14.0801 11.3953C13.9473 11.657 13.7734 11.9011 13.5586 12.1277C13.3437 12.3543 13.1074 12.5886 12.8496 12.8308C12.627 13.03 12.4746 13.239 12.3926 13.4578C12.3145 13.6765 12.2734 13.9363 12.2695 14.2371ZM10.5996 16.0476C10.5996 15.7976 10.6855 15.5906 10.8574 15.4265C11.0293 15.2586 11.2598 15.1746 11.5488 15.1746C11.834 15.1746 12.0625 15.2586 12.2344 15.4265C12.4102 15.5906 12.498 15.7976 12.498 16.0476C12.498 16.2898 12.4102 16.4949 12.2344 16.6629C12.0625 16.8308 11.834 16.9148 11.5488 16.9148C11.2598 16.9148 11.0293 16.8308 10.8574 16.6629C10.6855 16.4949 10.5996 16.2898 10.5996 16.0476Z" fill="#000"/>
    <circle cx="12" cy="12.1961" r="9.25" stroke="#000" stroke-width="1.5"/>
  </g>
  <defs>
    <clipPath id="clip0_2618_27518">
      <rect width="24" height="24" fill="#000" transform="translate(0 0.19606)"/>
    </clipPath>
  </defs>
</svg>
