<svg width="33" height="32" viewBox="0 0 33 32" fill="none" xmlns="http://www.w3.org/2000/svg">
<path d="M16.6582 2C8.93633 2 2.6582 8.27812 2.6582 16C2.6582 23.7219 8.93633 30 16.6582 30C24.3801 30 30.6582 23.7219 30.6582 16C30.6582 8.27812 24.3801 2 16.6582 2Z" fill="#FC471E"/>
<path fill-rule="evenodd" clip-rule="evenodd" d="M20.6775 8.90951C20.6648 8.98984 20.6582 9.07226 20.6582 9.15626C20.6582 10.0043 21.3298 10.6918 22.1582 10.6918C22.9866 10.6918 23.6582 10.0043 23.6582 9.15626C23.6582 8.30819 22.9866 7.6207 22.1582 7.6207C21.7891 7.6207 21.4511 7.7572 21.1898 7.98359L17.2944 7L15.8865 12.7651C14.0136 12.8913 12.3292 13.4719 11.0585 14.3485C10.6977 13.9863 10.2034 13.7629 9.6582 13.7629C8.55363 13.7629 7.6582 14.6796 7.6582 15.8103C7.6582 16.5973 8.09186 17.2805 8.72788 17.6232C8.68192 17.8674 8.6582 18.1166 8.6582 18.3696C8.6582 21.4792 12.2399 24 16.6582 24C21.0765 24 24.6582 21.4792 24.6582 18.3696C24.6582 18.1166 24.6345 17.8674 24.5885 17.6232C25.2245 17.2805 25.6582 16.5973 25.6582 15.8103C25.6582 14.6796 24.7628 13.7629 23.6582 13.7629C23.113 13.7629 22.6187 13.9863 22.2579 14.3485C20.8735 13.3935 18.9981 12.7897 16.9229 12.7423L18.022 8.24143L20.6775 8.90951ZM13.1582 18.8815C13.9866 18.8815 14.6582 18.194 14.6582 17.3459C14.6582 16.4978 13.9866 15.8103 13.1582 15.8103C12.3298 15.8103 11.6582 16.4978 11.6582 17.3459C11.6582 18.194 12.3298 18.8815 13.1582 18.8815ZM20.1582 18.8815C20.9866 18.8815 21.6582 18.194 21.6582 17.3459C21.6582 16.4978 20.9866 15.8103 20.1582 15.8103C19.3298 15.8103 18.6582 16.4978 18.6582 17.3459C18.6582 18.194 19.3298 18.8815 20.1582 18.8815ZM13.4356 20.503C13.2058 20.3462 12.8954 20.4097 12.7422 20.6449C12.589 20.8802 12.6511 21.198 12.8809 21.3548C13.9689 22.0973 15.3136 22.4686 16.6582 22.4686C18.0028 22.4686 19.3475 22.0973 20.4356 21.3548C20.6653 21.198 20.7274 20.8802 20.5742 20.6449C20.4211 20.4097 20.1106 20.3462 19.8809 20.503C18.9607 21.1309 17.8095 21.4449 16.6582 21.4449C15.9755 21.4449 15.2927 21.3345 14.6582 21.1137C14.2228 20.9621 13.81 20.7585 13.4356 20.503Z" fill="white"/>
</svg>
