<svg width="37" height="24" viewBox="0 0 37 24" fill="none" xmlns="http://www.w3.org/2000/svg">
<path d="M2.25 10.5C1.42157 10.5 0.75 11.1716 0.75 12C0.75 12.8284 1.42157 13.5 2.25 13.5L2.25 10.5ZM35.8107 13.0607C36.3964 12.4749 36.3964 11.5251 35.8107 10.9393L26.2647 1.3934C25.6789 0.807614 24.7292 0.807614 24.1434 1.3934C23.5576 1.97919 23.5576 2.92893 24.1434 3.51472L32.6287 12L24.1434 20.4853C23.5576 21.0711 23.5576 22.0208 24.1434 22.6066C24.7292 23.1924 25.6789 23.1924 26.2647 22.6066L35.8107 13.0607ZM2.25 13.5L34.75 13.5L34.75 10.5L2.25 10.5L2.25 13.5Z" fill="#B1B5C3"/>
</svg>
