<svg width="33" height="33" viewBox="0 0 33 33" fill="none" xmlns="http://www.w3.org/2000/svg">
<g clip-path="url(#clip0_1361_26462)">
<mask id="path-1-inside-1_1361_26462" fill="white">
<path d="M4.47998 10.2934C4.47998 7.3683 6.61099 4.8793 9.50115 4.4287C13.8075 3.75731 18.1919 3.75731 22.4983 4.4287C25.3884 4.8793 27.5194 7.3683 27.5194 10.2934V16.0226C27.5194 17.807 27.5194 18.6992 27.3707 19.5244C26.9935 21.6175 25.9162 23.5204 24.3155 24.9209C23.6844 25.4729 22.9194 25.932 21.3894 26.8501L20.3314 27.4849C18.7927 28.4082 18.0234 28.8699 17.2046 29.0598C16.4119 29.2436 15.5876 29.2436 14.7948 29.0598C13.976 28.8699 13.2067 28.4082 11.668 27.4849L10.6101 26.8501C9.08004 25.932 8.31503 25.4729 7.68397 24.9209C6.08321 23.5204 5.00589 21.6175 4.62868 19.5244C4.47998 18.6992 4.47998 17.807 4.47998 16.0226V10.2934Z"/>
</mask>
<path d="M20.3314 27.4849L21.3606 29.2L20.3314 27.4849ZM17.2046 29.0598L16.7528 27.1113L17.2046 29.0598ZM11.668 27.4849L10.6388 29.2L11.668 27.4849ZM14.7948 29.0598L15.2467 27.1113L14.7948 29.0598ZM10.6101 26.8501L9.58092 28.5652L10.6101 26.8501ZM7.68397 24.9209L9.00097 23.4155L7.68397 24.9209ZM27.3707 19.5244L25.4023 19.1696L27.3707 19.5244ZM24.3155 24.9209L22.9985 23.4155L24.3155 24.9209ZM25.5193 10.2934V16.0226H29.5196V10.2934H25.5193ZM6.48013 16.0226V10.2934H2.47983V16.0226H6.48013ZM20.3602 25.135L19.3023 25.7699L21.3606 29.2L22.4185 28.5652L20.3602 25.135ZM12.6971 25.7699L11.6392 25.135L9.58092 28.5652L10.6388 29.2L12.6971 25.7699ZM9.80927 6.40498C13.9115 5.76542 18.088 5.76542 22.1902 6.40498L22.8064 2.45243C18.2958 1.7492 13.7036 1.7492 9.19303 2.45243L9.80927 6.40498ZM19.3023 25.7699C17.6477 26.7627 17.1914 27.0096 16.7528 27.1113L17.6564 31.0082C18.8554 30.7302 19.9378 30.0537 21.3606 29.2L19.3023 25.7699ZM10.6388 29.2C12.0616 30.0537 13.144 30.7302 14.343 31.0082L15.2467 27.1113C14.808 27.0096 14.3518 26.7627 12.6971 25.7699L10.6388 29.2ZM16.7528 27.1113C16.2573 27.2262 15.7421 27.2262 15.2467 27.1113L14.343 31.0082C15.433 31.261 16.5664 31.261 17.6564 31.0082L16.7528 27.1113ZM2.47983 16.0226C2.47983 17.7321 2.47231 18.8362 2.66024 19.8791L6.59713 19.1696C6.48765 18.5621 6.48013 17.8819 6.48013 16.0226H2.47983ZM11.6392 25.135C10.045 24.1784 9.46557 23.822 9.00097 23.4155L6.36697 26.4262C7.16448 27.1239 8.11512 27.6856 9.58092 28.5652L11.6392 25.135ZM2.66024 19.8791C3.11787 22.4186 4.4249 24.7272 6.36697 26.4262L9.00097 23.4155C7.74152 22.3136 6.8939 20.8165 6.59713 19.1696L2.66024 19.8791ZM25.5193 16.0226C25.5193 17.8819 25.5118 18.5621 25.4023 19.1696L29.3392 19.8791C29.5271 18.8362 29.5196 17.7321 29.5196 16.0226H25.5193ZM22.4185 28.5652C23.8843 27.6856 24.8349 27.1239 25.6325 26.4262L22.9985 23.4155C22.5339 23.822 21.9545 24.1784 20.3602 25.135L22.4185 28.5652ZM25.4023 19.1696C25.1055 20.8165 24.2579 22.3136 22.9985 23.4155L25.6325 26.4262C27.5745 24.7272 28.8816 22.4186 29.3392 19.8791L25.4023 19.1696ZM29.5196 10.2934C29.5196 6.38261 26.6705 3.05487 22.8064 2.45243L22.1902 6.40498C24.1064 6.70374 25.5193 8.35399 25.5193 10.2934H29.5196ZM6.48013 10.2934C6.48013 8.35399 7.89304 6.70374 9.80927 6.40498L9.19303 2.45243C5.32895 3.05487 2.47983 6.38261 2.47983 10.2934H6.48013Z" fill="#141416" mask="url(#path-1-inside-1_1361_26462)"/>
<path d="M12 14.8501H20.0006" stroke="#141416" stroke-width="2.00015" stroke-linecap="round"/>
<path d="M16.0005 10.8496L16.0005 18.8502" stroke="#141416" stroke-width="2.00015" stroke-linecap="round"/>
<path d="M13.1714 17.6782L18.8287 12.0209" stroke="#141416" stroke-width="2.00015" stroke-linecap="round"/>
<path d="M13.1714 12.022L18.8287 17.6793" stroke="#141416" stroke-width="2.00015" stroke-linecap="round"/>
</g>
<defs>
<clipPath id="clip0_1361_26462">
<rect width="32.0024" height="32.0024" fill="white" transform="translate(-0.000976562 0.749023)"/>
</clipPath>
</defs>
</svg>
