<svg width="48" height="48" viewBox="0 0 48 48" fill="none" xmlns="http://www.w3.org/2000/svg">
<g clip-path="url(#clip0_1361_26535)">
<path d="M19.875 27.9914C19.875 27.1629 19.2034 26.4914 18.375 26.4914C17.5466 26.4914 16.875 27.1629 16.875 27.9914H19.875ZM28.125 20.1164C28.125 20.9448 28.7966 21.6164 29.625 21.6164C30.4534 21.6164 31.125 20.9448 31.125 20.1164H28.125ZM25.5536 14.5449H22.3661V17.5449H25.5536V14.5449ZM22.3661 25.5271H25.6607V22.5271H22.3661V25.5271ZM25.6607 30.4556H22.3393V33.4556H25.6607V30.4556ZM22.3393 30.4556C20.9783 30.4556 19.875 29.3523 19.875 27.9914H16.875C16.875 31.0092 19.3214 33.4556 22.3393 33.4556V30.4556ZM28.125 27.9914C28.125 29.3523 27.0217 30.4556 25.6607 30.4556V33.4556C28.6786 33.4556 31.125 31.0092 31.125 27.9914H28.125ZM25.6607 25.5271C27.0217 25.5271 28.125 26.6304 28.125 27.9914H31.125C31.125 24.9735 28.6786 22.5271 25.6607 22.5271V25.5271ZM16.875 20.036C16.875 23.0686 19.3334 25.5271 22.3661 25.5271V22.5271C20.9903 22.5271 19.875 21.4118 19.875 20.036H16.875ZM22.3661 14.5449C19.3334 14.5449 16.875 17.0034 16.875 20.036H19.875C19.875 18.6602 20.9903 17.5449 22.3661 17.5449V14.5449ZM31.125 20.1164C31.125 17.0393 28.6306 14.5449 25.5536 14.5449V17.5449C26.9737 17.5449 28.125 18.6962 28.125 20.1164H31.125Z" fill="#FCFCFD"/>
<path d="M24 12.0005V36.0005" stroke="#FCFCFD" stroke-width="3" stroke-linecap="round"/>
<path d="M27.7259 6.38659C26.5238 6.13356 25.2774 6.00049 24 6.00049C14.0589 6.00049 6 14.0594 6 24.0005C6 33.9416 14.0589 42.0005 24 42.0005C33.9411 42.0005 42 33.9416 42 24.0005C42 22.1518 41.7213 20.3682 41.2036 18.6895" stroke="#FCFCFD" stroke-width="3" stroke-linecap="round"/>
<path d="M39.4872 15.6097C40.315 15.6419 41.0121 14.9968 41.0443 14.169C41.0764 13.3412 40.4314 12.6441 39.6036 12.612L39.4872 15.6097ZM34.1 13.8994L32.6011 13.9576C32.6315 14.7403 33.259 15.3679 34.0418 15.3983L34.1 13.8994ZM35.3874 8.39579C35.3553 7.56799 34.6582 6.92297 33.8304 6.95511C33.0026 6.98725 32.3575 7.68438 32.3897 8.51218L35.3874 8.39579ZM39.6036 12.612L34.1582 12.4005L34.0418 15.3983L39.4872 15.6097L39.6036 12.612ZM35.5988 13.8412L35.3874 8.39579L32.3897 8.51218L32.6011 13.9576L35.5988 13.8412Z" fill="#FCFCFD"/>
<path d="M34.3048 13.6952L41.1709 6.8291" stroke="#FCFCFD" stroke-width="3" stroke-linecap="round"/>
</g>
<defs>
<clipPath id="clip0_1361_26535">
<rect width="48" height="48" fill="white"/>
</clipPath>
</defs>
</svg>
