<svg width="32" height="33" viewBox="0 0 32 33" fill="none" xmlns="http://www.w3.org/2000/svg">
<g clip-path="url(#clip0_1361_26422)">
<mask id="path-1-inside-1_1361_26422" fill="white">
<path d="M4.48096 8.86724C4.48096 8.26087 4.85406 7.71699 5.41979 7.49871L13.12 4.52765C14.5433 3.9785 15.2549 3.70392 15.9998 3.70392C16.7448 3.70392 17.4564 3.9785 18.8796 4.52764L26.5799 7.49871C27.1456 7.71699 27.5187 8.26087 27.5187 8.86724V13.6952C27.5187 20.8922 23.0904 27.3474 16.3759 29.9381C16.1339 30.0315 15.8658 30.0315 15.6238 29.9381C8.90929 27.3474 4.48096 20.8922 4.48096 13.6952V8.86724Z"/>
</mask>
<path d="M26.5799 7.49871L27.2998 5.63279L26.5799 7.49871ZM25.5187 8.86724V13.6952H29.5187V8.86724H25.5187ZM6.48096 13.6952V8.86724H2.48096V13.6952H6.48096ZM6.13974 9.36464L13.84 6.39357L12.4001 2.66172L4.69984 5.63279L6.13974 9.36464ZM18.1597 6.39357L25.8599 9.36464L27.2998 5.63279L19.5996 2.66172L18.1597 6.39357ZM13.84 6.39357C15.4042 5.79003 15.7137 5.70392 15.9998 5.70392V1.70392C14.7961 1.70392 13.6824 2.16696 12.4001 2.66172L13.84 6.39357ZM19.5996 2.66172C18.3173 2.16696 17.2036 1.70392 15.9998 1.70392V5.70392C16.286 5.70392 16.5955 5.79003 18.1597 6.39357L19.5996 2.66172ZM15.6559 28.0722C15.8772 27.9868 16.1224 27.9868 16.3438 28.0722L14.9039 31.804C15.6092 32.0762 16.3905 32.0762 17.0958 31.804L15.6559 28.0722ZM2.48096 13.6952C2.48096 21.719 7.41801 28.9157 14.9039 31.804L16.3438 28.0722C10.4006 25.7791 6.48096 20.0654 6.48096 13.6952H2.48096ZM25.5187 13.6952C25.5187 20.0654 21.5991 25.7791 15.6559 28.0722L17.0958 31.804C24.5817 28.9157 29.5187 21.719 29.5187 13.6952H25.5187ZM29.5187 8.86724C29.5187 7.4341 28.6369 6.14868 27.2998 5.63279L25.8599 9.36464C25.6543 9.2853 25.5187 9.08763 25.5187 8.86724H29.5187ZM6.48096 8.86724C6.48096 9.08763 6.34535 9.2853 6.13974 9.36464L4.69984 5.63279C3.36277 6.14868 2.48096 7.43411 2.48096 8.86724H6.48096Z" fill="#141416" mask="url(#path-1-inside-1_1361_26422)"/>
<path d="M12 14.8507L14.6667 17.5174L20 12.1841" stroke="#141416" stroke-width="2" stroke-linecap="round" stroke-linejoin="round"/>
</g>
<defs>
<clipPath id="clip0_1361_26422">
<rect width="32" height="32" fill="white" transform="translate(0 0.75)"/>
</clipPath>
</defs>
</svg>
