<svg width="24" height="25" viewBox="0 0 24 25" fill="none" xmlns="http://www.w3.org/2000/svg">
<path d="M17.9491 10.1162C20.6497 11.1155 22 11.6152 22 12.5C22 13.3848 20.6497 13.8845 17.9491 14.8838L16.4429 15.4412C15.9036 15.6407 15.6339 15.7405 15.4372 15.9372C15.2405 16.1339 15.1407 16.4036 14.9412 16.9429L14.3838 18.4491C13.3845 21.1497 12.8848 22.5 12 22.5C11.1152 22.5 10.6155 21.1497 9.61617 18.4491L9.05884 16.9429C8.85928 16.4036 8.7595 16.1339 8.56279 15.9372C8.36608 15.7405 8.09642 15.6407 7.55711 15.4412L6.05094 14.8838C3.35031 13.8845 2 13.3848 2 12.5C2 11.6152 3.35031 11.1155 6.05094 10.1162L7.55711 9.55884C8.09642 9.35928 8.36608 9.2595 8.56279 9.06279C8.7595 8.86608 8.85928 8.59642 9.05884 8.05711L9.61617 6.55095C10.6155 3.85032 11.1152 2.5 12 2.5C12.8848 2.5 13.3845 3.85032 14.3838 6.55095L14.9412 8.05711C15.1407 8.59642 15.2405 8.86608 15.4372 9.06279C15.6339 9.2595 15.9036 9.35928 16.4429 9.55884L17.9491 10.1162Z" fill="#FCFCFD"/>
</svg>
