<svg width="32" height="33" viewBox="0 0 32 33" fill="none" xmlns="http://www.w3.org/2000/svg">
<mask id="path-1-inside-1_1361_26426" fill="white">
<path d="M29.3332 16.7498C29.3332 20.4317 27.8408 23.7651 25.4279 26.1779C24.9842 26.6217 24.5093 27.0343 24.0069 27.4122C23.1572 28.0513 23.5619 31.2579 22.5717 31.6814C22.3323 31.7837 21.66 31.6859 20.8318 31.4973C17.5808 30.7568 14.1814 30.3773 11.0824 29.1471C6.15233 27.1899 2.6665 22.3769 2.6665 16.7498C2.6665 9.38604 8.63604 3.4165 15.9998 3.4165C23.3636 3.4165 29.3332 9.38604 29.3332 16.7498Z"/>
</mask>
<path d="M22.5717 31.6814L21.7853 29.8425L22.5717 31.6814ZM24.0069 27.4122L25.2091 29.0105L24.0069 27.4122ZM11.8204 27.2882C7.62625 25.6232 4.6665 21.5297 4.6665 16.7498H0.666504C0.666504 23.2241 4.6784 28.7566 10.3444 31.0059L11.8204 27.2882ZM4.6665 16.7498C4.6665 10.4906 9.74061 5.4165 15.9998 5.4165V1.4165C7.53147 1.4165 0.666504 8.28147 0.666504 16.7498H4.6665ZM15.9998 5.4165C22.2591 5.4165 27.3332 10.4906 27.3332 16.7498H31.3332C31.3332 8.28147 24.4682 1.4165 15.9998 1.4165V5.4165ZM27.3332 16.7498C27.3332 19.88 26.0668 22.7106 24.0137 24.7637L26.8421 27.5921C29.6147 24.8195 31.3332 20.9835 31.3332 16.7498H27.3332ZM21.7853 29.8425C21.9533 29.7706 22.0884 29.7448 22.1512 29.7349C22.22 29.7241 22.2645 29.7229 22.2738 29.7227C22.2888 29.7224 22.2551 29.7237 22.1548 29.712C21.9565 29.6888 21.6608 29.6349 21.2759 29.5472L20.3877 33.4473C20.831 33.5483 21.2856 33.6376 21.6904 33.6849C21.8916 33.7084 22.1225 33.7268 22.3568 33.7219C22.5477 33.7179 22.9424 33.6981 23.3581 33.5203L21.7853 29.8425ZM24.0137 24.7637C23.6361 25.1413 23.2321 25.4924 22.8047 25.8138L25.2091 29.0105C25.7866 28.5761 26.3323 28.102 26.8421 27.5921L24.0137 24.7637ZM22.8047 25.8138C21.9783 26.4354 21.7212 27.4029 21.6206 27.8146C21.4928 28.3374 21.4178 28.9402 21.3607 29.3545C21.2928 29.8476 21.242 30.1458 21.1837 30.3341C21.0911 30.633 21.1542 30.1124 21.7853 29.8425L23.3581 33.5203C24.4843 33.0386 24.8682 31.9583 25.0048 31.5169C25.1756 30.965 25.2624 30.3421 25.3233 29.9007C25.395 29.3806 25.44 29.0354 25.5063 28.764C25.5997 28.3815 25.6107 28.7085 25.2091 29.0105L22.8047 25.8138ZM10.3444 31.0059C12.0536 31.6845 13.8099 32.1146 15.4936 32.4641C17.2641 32.8317 18.7598 33.0766 20.3877 33.4473L21.2759 29.5472C19.6528 29.1775 17.8233 28.8625 16.3066 28.5476C14.7031 28.2147 13.2102 27.84 11.8204 27.2882L10.3444 31.0059Z" fill="#141416" mask="url(#path-1-inside-1_1361_26426)"/>
<path d="M20.25 15.604C20.25 15.0517 20.6977 14.604 21.25 14.604C21.8023 14.604 22.25 15.0517 22.25 15.604L20.25 15.604ZM22.25 17.8957C22.25 18.448 21.8023 18.8957 21.25 18.8957C20.6977 18.8957 20.25 18.448 20.25 17.8957L22.25 17.8957ZM22.25 15.604L22.25 17.8957L20.25 17.8957L20.25 15.604L22.25 15.604Z" fill="#141416"/>
<path d="M15 14.146C15 13.5937 15.4477 13.146 16 13.146C16.5523 13.146 17 13.5937 17 14.146L15 14.146ZM17 19.3543C17 19.9066 16.5523 20.3543 16 20.3543C15.4477 20.3543 15 19.9066 15 19.3543L17 19.3543ZM17 14.146L17 19.3543L15 19.3543L15 14.146L17 14.146Z" fill="#141416"/>
<path d="M9.75 15.604C9.75 15.0517 10.1977 14.604 10.75 14.604C11.3023 14.604 11.75 15.0517 11.75 15.604L9.75 15.604ZM11.75 17.8957C11.75 18.448 11.3023 18.8957 10.75 18.8957C10.1977 18.8957 9.75 18.448 9.75 17.8957L11.75 17.8957ZM11.75 15.604L11.75 17.8957L9.75 17.8957L9.75 15.604L11.75 15.604Z" fill="#141416"/>
</svg>
