<svg width="25" height="25" viewBox="0 0 25 25" fill="none" xmlns="http://www.w3.org/2000/svg">
<g clip-path="url(#clip0_1288_4796)">
<path d="M12.5 24.2002C19.1274 24.2002 24.5 18.8276 24.5 12.2002C24.5 5.57278 19.1274 0.200195 12.5 0.200195C5.87258 0.200195 0.5 5.57278 0.5 12.2002C0.5 18.8276 5.87258 24.2002 12.5 24.2002Z" fill="url(#paint0_linear_1288_4796)"/>
<path fill-rule="evenodd" clip-rule="evenodd" d="M5.93189 12.0736C9.43014 10.5495 11.7628 9.54471 12.93 9.05925C16.2626 7.67313 16.955 7.43235 17.4064 7.4244C17.5056 7.42265 17.7276 7.44725 17.8714 7.56392C17.9928 7.66243 18.0262 7.7955 18.0422 7.88889C18.0581 7.98229 18.078 8.19505 18.0622 8.36129C17.8816 10.2588 17.1002 14.8635 16.7027 16.9887C16.5345 17.8879 16.2032 18.1894 15.8826 18.2189C15.1857 18.2831 14.6566 17.7584 13.9816 17.316C12.9255 16.6237 12.3288 16.1927 11.3036 15.5171C10.1188 14.7364 10.8869 14.3072 11.5621 13.606C11.7388 13.4224 14.8092 10.6297 14.8686 10.3763C14.876 10.3446 14.8829 10.2265 14.8128 10.1642C14.7426 10.1018 14.639 10.1231 14.5643 10.1401C14.4584 10.1641 12.7712 11.2793 9.50264 13.4857C9.02373 13.8145 8.58994 13.9747 8.20129 13.9663C7.77283 13.9571 6.94864 13.7241 6.33594 13.5249C5.58444 13.2806 4.98716 13.1515 5.03917 12.7366C5.06626 12.5205 5.36383 12.2995 5.93189 12.0736Z" fill="white"/>
</g>
<defs>
<linearGradient id="paint0_linear_1288_4796" x1="12.5" y1="0.200195" x2="12.5" y2="24.0222" gradientUnits="userSpaceOnUse">
<stop stop-color="#2AABEE"/>
<stop offset="1" stop-color="#229ED9"/>
</linearGradient>
<clipPath id="clip0_1288_4796">
<rect width="24" height="24" fill="white" transform="translate(0.5 0.200195)"/>
</clipPath>
</defs>
</svg>
