<svg width="28" height="25" viewBox="0 0 28 25" fill="none" xmlns="http://www.w3.org/2000/svg">
<path fill-rule="evenodd" clip-rule="evenodd" d="M5.21258 0.197085L0.156536 10.8173C0.117045 10.8984 0.134924 10.9957 0.200651 11.0575L13.8558 24.1424C13.9364 24.2197 14.0636 24.2197 14.1442 24.1424L27.7993 11.0583C27.8651 10.9965 27.8829 10.8992 27.8434 10.8181L22.7874 0.197902C22.7541 0.125057 22.6812 0.0784182 22.6011 0.0786292H5.40047C5.31997 0.0776276 5.24638 0.124016 5.21258 0.197085Z" fill="#50AF95"/>
<path fill-rule="evenodd" clip-rule="evenodd" d="M15.7537 11.908C15.6557 11.9153 15.1492 11.9456 14.0193 11.9456C13.1207 11.9456 12.4827 11.9186 12.2588 11.908C8.78603 11.7552 6.19388 11.1507 6.19388 10.4269C6.19388 9.70305 8.78603 9.09933 12.2588 8.94412V11.3059C12.4859 11.3222 13.1362 11.3606 14.0349 11.3606C15.1132 11.3606 15.6532 11.3157 15.7504 11.3067V8.94575C19.2159 9.10015 21.8023 9.70469 21.8023 10.4269C21.8023 11.149 19.2167 11.7536 15.7504 11.9072L15.7537 11.908ZM15.7541 8.70149V6.58806H20.5904V3.36523H7.42296V6.58806H12.2584V8.70067C8.32812 8.88121 5.37244 9.65975 5.37244 10.5927C5.37244 11.5256 8.32812 12.3034 12.2584 12.4847V19.2572H15.7533V12.4823C19.6746 12.3017 22.6254 11.524 22.6254 10.5919C22.6254 9.65976 19.677 8.88203 15.7533 8.70067L15.7541 8.70149Z" fill="white"/>
</svg>
