<?xml version="1.0" standalone="no"?>
<!DOCTYPE svg PUBLIC "-//W3C//DTD SVG 20010904//EN"
 "http://www.w3.org/TR/2001/REC-SVG-20010904/DTD/svg10.dtd">
<svg version="1.0" xmlns="http://www.w3.org/2000/svg"
 width="198.000000pt" height="199.000000pt" viewBox="0 0 198.000000 199.000000"
 preserveAspectRatio="xMidYMid meet">

<g transform="translate(0.000000,199.000000) scale(0.100000,-0.100000)"
fill="#000000" stroke="none">
<path d="M823 1969 c-90 -15 -235 -67 -316 -113 -246 -141 -411 -358 -479
-634 -33 -132 -31 -340 6 -477 96 -363 389 -641 754 -717 127 -26 336 -21 457
11 257 68 497 262 619 501 82 159 110 281 109 465 -1 163 -30 285 -102 430
-169 340 -507 547 -886 544 -60 -1 -133 -5 -162 -10z m352 -399 c5 -30 11 -40
26 -40 15 0 19 -7 19 -34 0 -27 8 -41 37 -66 36 -32 126 -80 150 -80 6 0 13
-17 15 -37 2 -31 7 -39 26 -41 21 -3 22 -7 22 -99 l0 -95 -42 7 c-53 9 -148
47 -187 74 l-30 21 -3 -237 c-3 -234 -3 -239 -30 -295 -57 -121 -160 -190
-293 -196 -162 -7 -273 70 -350 243 -36 82 -40 98 -40 175 0 101 20 154 86
225 51 55 119 92 196 106 80 15 103 7 103 -36 0 -25 5 -35 20 -40 18 -6 20
-15 20 -95 l0 -88 -47 1 c-87 1 -151 -54 -160 -137 -5 -38 -2 -45 27 -69 25
-22 42 -27 84 -27 59 0 103 23 140 73 20 28 21 41 24 428 l3 399 88 0 89 0 7
-40z"/>
</g>
</svg>
