<svg width="25" height="24" viewBox="0 0 25 24" fill="none" xmlns="http://www.w3.org/2000/svg">
<g clip-path="url(#clip0_1034_26625)">
<path d="M10.5952 13.9967C10.5952 13.5824 10.2594 13.2467 9.84521 13.2467C9.431 13.2467 9.09521 13.5824 9.09521 13.9967H10.5952ZM14.7202 10.0592C14.7202 10.4734 15.056 10.8092 15.4702 10.8092C15.8844 10.8092 16.2202 10.4734 16.2202 10.0592H14.7202ZM13.4345 7.27344H11.8408V8.77344H13.4345V7.27344ZM11.8408 12.7645H13.4881V11.2645H11.8408V12.7645ZM13.4881 15.2288H11.8274V16.7288H13.4881V15.2288ZM11.8274 15.2288C11.1469 15.2288 10.5952 14.6771 10.5952 13.9967H9.09521C9.09521 15.5056 10.3184 16.7288 11.8274 16.7288V15.2288ZM14.7202 13.9967C14.7202 14.6771 14.1686 15.2288 13.4881 15.2288V16.7288C14.997 16.7288 16.2202 15.5056 16.2202 13.9967H14.7202ZM13.4881 12.7645C14.1686 12.7645 14.7202 13.3162 14.7202 13.9967H16.2202C16.2202 12.4877 14.997 11.2645 13.4881 11.2645V12.7645ZM9.09521 10.019C9.09521 11.5353 10.3244 12.7645 11.8408 12.7645V11.2645C11.1529 11.2645 10.5952 10.7069 10.5952 10.019H9.09521ZM11.8408 7.27344C10.3244 7.27344 9.09521 8.50266 9.09521 10.019H10.5952C10.5952 9.33108 11.1529 8.77344 11.8408 8.77344V7.27344ZM16.2202 10.0592C16.2202 8.52064 14.973 7.27344 13.4345 7.27344V8.77344C14.1446 8.77344 14.7202 9.34907 14.7202 10.0592H16.2202Z" fill="#141416"/>
<path d="M12.6577 6V18" stroke="#141416" stroke-width="1.5" stroke-linecap="round"/>
<path d="M14.5207 3.19305C13.9196 3.06653 13.2964 3 12.6577 3C7.68715 3 3.65771 7.02944 3.65771 12C3.65771 16.9706 7.68715 21 12.6577 21C17.6283 21 21.6577 16.9706 21.6577 12C21.6577 11.0757 21.5184 10.1839 21.2595 9.34448" stroke="#141416" stroke-width="1.5" stroke-linecap="round"/>
<path d="M18.8052 4.38281L16.7338 2.56384L18.8052 0.744873" stroke="#141416" stroke-linecap="round" stroke-linejoin="round"/>
<path d="M16.896 2.5625L22.3306 2.5625" stroke="#141416" stroke-linecap="round"/>
<path d="M20.2593 4.38281L22.3307 6.20179L20.2593 8.02075" stroke="#141416" stroke-linecap="round" stroke-linejoin="round"/>
<path d="M22.1685 6.20313L16.7339 6.20312" stroke="#141416" stroke-linecap="round"/>
</g>
<defs>
<clipPath id="clip0_1034_26625">
<rect width="24" height="24" fill="white" transform="translate(0.657715)"/>
</clipPath>
</defs>
</svg>
