<svg width="33" height="32" viewBox="0 0 33 32" fill="none" xmlns="http://www.w3.org/2000/svg">
<path d="M12.0177 28C8.78275 28 5.76718 27.0591 3.229 25.4356C5.384 25.5751 9.18707 25.2411 11.5526 22.9848C7.99408 22.8215 6.38927 20.0923 6.17994 18.926C6.4823 19.0426 7.92431 19.1826 8.73834 18.856C4.6449 17.8296 4.01693 14.2373 4.15648 13.141C4.924 13.6775 6.22646 13.8641 6.73814 13.8174C2.9238 11.0882 4.29603 6.98276 4.97052 6.09635C7.70783 9.88867 11.8102 12.0186 16.8854 12.137C16.7897 11.7174 16.7392 11.2804 16.7392 10.8316C16.7392 7.61092 19.3424 5 22.5537 5C24.2315 5 25.7434 5.71275 26.8047 6.85284C27.9259 6.59011 29.6133 5.97507 30.4382 5.4432C30.0224 6.93611 28.7279 8.18149 27.9449 8.64308C27.9514 8.65878 27.9385 8.62731 27.9449 8.64308C28.6327 8.53904 30.4938 8.18137 31.229 7.68256C30.8654 8.52125 29.493 9.91573 28.3667 10.6964C28.5763 19.9381 21.5055 28 12.0177 28Z" fill="#47ACDF"/>
</svg>
