<svg width="268" height="194" viewBox="0 0 268 194" fill="none" xmlns="http://www.w3.org/2000/svg">
<rect width="268" height="194" fill="#E5E5E5"/>
<g clip-path="url(#clip0_0_1)">
<rect width="847" height="1894" transform="translate(-324 -1415)" fill="white"/>
<g clip-path="url(#clip1_0_1)">
<path d="M156.11 34.2C161.132 34.2 165.204 30.1474 165.204 25.1482C165.204 20.1491 161.132 16.0964 156.11 16.0964C151.087 16.0964 147.015 20.1491 147.015 25.1482C147.015 30.1474 151.087 34.2 156.11 34.2Z" fill="#F2F2F2"/>
<path d="M226.659 168.538C240.177 158.291 246.634 141.07 242.592 124.643C242.491 124.235 242.385 123.828 242.274 123.421C239.594 113.67 232.964 104.403 223.302 101.287C215.188 98.6708 206.332 100.683 197.868 99.6422C181.253 97.6 168.371 84.2194 159.307 70.2098C150.243 56.2001 143.278 40.5183 131.234 28.9443C111.381 9.86651 78.9967 5.75905 54.3825 18.1773C29.7683 30.5955 14.0893 58.1464 14.758 85.6044C15.4267 113.062 31.8044 139.314 55.5888 153.242C64.3262 158.359 74.4319 161.984 84.4891 160.715C93.2156 159.615 101.145 154.948 109.83 153.562C123.486 151.384 137.054 157.529 148.865 164.69C160.676 171.851 172.085 180.338 185.506 183.658C198.539 186.882 214.684 177.616 226.659 168.538Z" fill="#F2F2F2"/>
<path d="M207.237 18.7539C206.941 18.5573 206.641 18.3708 206.345 18.181C197.778 12.7283 188.597 8.29862 178.99 4.98342L176.762 35.5687H162.641V0.518682C161.752 0.335618 160.856 0.162724 159.96 0V35.5687H143.178C133.939 35.5687 125.079 31.916 118.546 25.414C112.014 18.9121 108.344 10.0936 108.344 0.898411C107.445 1.09165 106.552 1.29841 105.66 1.51877V35.5687H91.991L89.869 6.40387C79.9962 10.1724 70.6235 15.1282 61.9593 21.1609C61.8094 21.2626 61.6595 21.3677 61.5131 21.4694C60.7603 21.9948 60.0178 22.5305 59.2787 23.0729V139.756H99.5628L98.8509 129.942L94.9339 76.0565H173.816L169.899 129.942L169.187 139.756H209.025V19.9337C208.432 19.5337 207.836 19.1404 207.237 18.7539ZM105.66 67.1575H94.2867L92.1852 38.2401H105.66V67.1575ZM159.96 67.1575H140.859V66.5846C140.859 66.3092 140.804 66.0364 140.698 65.782C140.592 65.5276 140.437 65.2965 140.241 65.1019C140.045 64.9073 139.813 64.7531 139.557 64.648C139.301 64.5429 139.027 64.489 138.75 64.4895H130.446C130.17 64.4894 129.896 64.5435 129.64 64.6488C129.385 64.754 129.153 64.9083 128.957 65.1029C128.762 65.2975 128.607 65.5285 128.501 65.7827C128.395 66.0369 128.341 66.3094 128.341 66.5846V67.1575H108.344V38.2401H159.96V67.1575ZM162.641 67.1575V38.2401H176.568L174.467 67.1575H162.641Z" fill="#3F3D56"/>
<path d="M-1.52588e-05 147.228C2.95896 150.718 6.15944 153.997 9.57799 157.042L258.422 157.381C261.841 154.336 265.041 151.057 268 147.567L-1.52588e-05 147.228Z" fill="#3F3D56"/>
<path d="M168.749 115.802V144.857C168.749 145.227 168.897 145.582 169.16 145.844C169.423 146.105 169.78 146.253 170.152 146.253H213.411C213.783 146.253 214.14 146.105 214.403 145.844C214.666 145.582 214.814 145.227 214.814 144.857V115.802C214.813 115.432 214.665 115.078 214.402 114.816C214.139 114.555 213.783 114.408 213.411 114.407H170.152C169.78 114.408 169.424 114.555 169.161 114.816C168.898 115.078 168.75 115.432 168.749 115.802Z" fill="#3F3D56"/>
<path d="M169.764 116.164V144.498C169.764 144.696 169.843 144.886 169.984 145.026C170.125 145.165 170.315 145.244 170.514 145.244H213.051C213.25 145.244 213.441 145.165 213.581 145.026C213.722 144.886 213.801 144.696 213.801 144.498V116.164C213.801 115.966 213.722 115.776 213.582 115.636C213.441 115.495 213.25 115.416 213.051 115.416H170.514C170.315 115.416 170.124 115.495 169.984 115.636C169.843 115.776 169.764 115.966 169.764 116.164Z" fill="white"/>
<path d="M167.844 150.523C167.924 150.622 168.024 150.702 168.139 150.756C168.254 150.811 168.379 150.839 168.506 150.838H214.827C214.954 150.838 215.079 150.81 215.193 150.755C215.307 150.701 215.408 150.622 215.488 150.524C215.568 150.426 215.624 150.312 215.654 150.189C215.684 150.067 215.686 149.939 215.66 149.816L214.941 146.416C214.911 146.278 214.847 146.149 214.754 146.041C214.662 145.934 214.543 145.851 214.41 145.8C214.314 145.763 214.211 145.743 214.108 145.743H169.223C169.119 145.743 169.016 145.763 168.92 145.8C168.787 145.851 168.669 145.934 168.576 146.041C168.483 146.149 168.419 146.278 168.389 146.416L167.67 149.816C167.645 149.939 167.647 150.067 167.677 150.189C167.707 150.311 167.764 150.425 167.844 150.523Z" fill="#2F2E41"/>
<path d="M212.518 147.208H213.613C213.704 147.208 213.779 147.134 213.779 147.042V146.521C213.779 146.43 213.704 146.356 213.613 146.356H212.518C212.427 146.356 212.352 146.43 212.352 146.521V147.042C212.352 147.134 212.427 147.208 212.518 147.208Z" fill="#3F3D56"/>
<path d="M209.665 147.208H210.759C210.851 147.208 210.926 147.134 210.926 147.042V146.521C210.926 146.43 210.851 146.356 210.759 146.356H209.665C209.573 146.356 209.499 146.43 209.499 146.521V147.042C209.499 147.134 209.573 147.208 209.665 147.208Z" fill="#3F3D56"/>
<path d="M206.812 147.208H207.906C207.998 147.208 208.072 147.134 208.072 147.042V146.521C208.072 146.43 207.998 146.356 207.906 146.356H206.812C206.72 146.356 206.646 146.43 206.646 146.521V147.042C206.646 147.134 206.72 147.208 206.812 147.208Z" fill="#3F3D56"/>
<path d="M203.959 147.208H205.053C205.144 147.208 205.219 147.134 205.219 147.042V146.521C205.219 146.43 205.144 146.356 205.053 146.356H203.959C203.867 146.356 203.792 146.43 203.792 146.521V147.042C203.792 147.134 203.867 147.208 203.959 147.208Z" fill="#3F3D56"/>
<path d="M201.105 147.208H202.199C202.291 147.208 202.366 147.134 202.366 147.042V146.521C202.366 146.43 202.291 146.356 202.199 146.356H201.105C201.013 146.356 200.939 146.43 200.939 146.521V147.042C200.939 147.134 201.013 147.208 201.105 147.208Z" fill="#3F3D56"/>
<path d="M198.252 147.208H199.346C199.438 147.208 199.512 147.134 199.512 147.042V146.521C199.512 146.43 199.438 146.356 199.346 146.356H198.252C198.16 146.356 198.086 146.43 198.086 146.521V147.042C198.086 147.134 198.16 147.208 198.252 147.208Z" fill="#3F3D56"/>
<path d="M195.399 147.208H196.493C196.585 147.208 196.659 147.134 196.659 147.042V146.521C196.659 146.43 196.585 146.356 196.493 146.356H195.399C195.307 146.356 195.232 146.43 195.232 146.521V147.042C195.232 147.134 195.307 147.208 195.399 147.208Z" fill="#3F3D56"/>
<path d="M192.545 147.208H193.639C193.731 147.208 193.806 147.134 193.806 147.042V146.521C193.806 146.43 193.731 146.356 193.639 146.356H192.545C192.454 146.356 192.379 146.43 192.379 146.521V147.042C192.379 147.134 192.454 147.208 192.545 147.208Z" fill="#3F3D56"/>
<path d="M189.692 147.208H190.786C190.878 147.208 190.952 147.134 190.952 147.042V146.521C190.952 146.43 190.878 146.356 190.786 146.356H189.692C189.6 146.356 189.526 146.43 189.526 146.521V147.042C189.526 147.134 189.6 147.208 189.692 147.208Z" fill="#3F3D56"/>
<path d="M186.839 147.208H187.933C188.025 147.208 188.099 147.134 188.099 147.042V146.521C188.099 146.43 188.025 146.356 187.933 146.356H186.839C186.747 146.356 186.672 146.43 186.672 146.521V147.042C186.672 147.134 186.747 147.208 186.839 147.208Z" fill="#3F3D56"/>
<path d="M183.985 147.208H185.08C185.171 147.208 185.246 147.134 185.246 147.042V146.521C185.246 146.43 185.171 146.356 185.08 146.356H183.985C183.894 146.356 183.819 146.43 183.819 146.521V147.042C183.819 147.134 183.894 147.208 183.985 147.208Z" fill="#3F3D56"/>
<path d="M181.132 147.208H182.226C182.318 147.208 182.393 147.134 182.393 147.042V146.521C182.393 146.43 182.318 146.356 182.226 146.356H181.132C181.04 146.356 180.966 146.43 180.966 146.521V147.042C180.966 147.134 181.04 147.208 181.132 147.208Z" fill="#3F3D56"/>
<path d="M178.279 147.208H179.373C179.465 147.208 179.539 147.134 179.539 147.042V146.521C179.539 146.43 179.465 146.356 179.373 146.356H178.279C178.187 146.356 178.113 146.43 178.113 146.521V147.042C178.113 147.134 178.187 147.208 178.279 147.208Z" fill="#3F3D56"/>
<path d="M175.426 147.208H176.52C176.612 147.208 176.686 147.134 176.686 147.042V146.521C176.686 146.43 176.612 146.356 176.52 146.356H175.426C175.334 146.356 175.259 146.43 175.259 146.521V147.042C175.259 147.134 175.334 147.208 175.426 147.208Z" fill="#3F3D56"/>
<path d="M172.572 147.208H173.666C173.758 147.208 173.833 147.134 173.833 147.042V146.521C173.833 146.43 173.758 146.356 173.666 146.356H172.572C172.48 146.356 172.406 146.43 172.406 146.521V147.042C172.406 147.134 172.48 147.208 172.572 147.208Z" fill="#3F3D56"/>
<path d="M169.719 147.208H170.813C170.905 147.208 170.979 147.134 170.979 147.042V146.521C170.979 146.43 170.905 146.356 170.813 146.356H169.719C169.627 146.356 169.553 146.43 169.553 146.521V147.042C169.553 147.134 169.627 147.208 169.719 147.208Z" fill="#3F3D56"/>
<path d="M212.552 148.628H213.646C213.738 148.628 213.813 148.553 213.813 148.462V147.941C213.813 147.85 213.738 147.776 213.646 147.776H212.552C212.46 147.776 212.386 147.85 212.386 147.941V148.462C212.386 148.553 212.46 148.628 212.552 148.628Z" fill="#3F3D56"/>
<path d="M209.699 148.628H210.793C210.885 148.628 210.959 148.553 210.959 148.462V147.941C210.959 147.85 210.885 147.776 210.793 147.776H209.699C209.607 147.776 209.533 147.85 209.533 147.941V148.462C209.533 148.553 209.607 148.628 209.699 148.628Z" fill="#3F3D56"/>
<path d="M206.846 148.628H207.94C208.031 148.628 208.106 148.553 208.106 148.462V147.941C208.106 147.85 208.031 147.776 207.94 147.776H206.846C206.754 147.776 206.679 147.85 206.679 147.941V148.462C206.679 148.553 206.754 148.628 206.846 148.628Z" fill="#3F3D56"/>
<path d="M203.992 148.628H205.086C205.178 148.628 205.253 148.553 205.253 148.462V147.941C205.253 147.85 205.178 147.776 205.086 147.776H203.992C203.9 147.776 203.826 147.85 203.826 147.941V148.462C203.826 148.553 203.9 148.628 203.992 148.628Z" fill="#3F3D56"/>
<path d="M201.139 148.628H202.233C202.325 148.628 202.399 148.553 202.399 148.462V147.941C202.399 147.85 202.325 147.776 202.233 147.776H201.139C201.047 147.776 200.973 147.85 200.973 147.941V148.462C200.973 148.553 201.047 148.628 201.139 148.628Z" fill="#3F3D56"/>
<path d="M198.286 148.628H199.38C199.472 148.628 199.546 148.553 199.546 148.462V147.941C199.546 147.85 199.472 147.776 199.38 147.776H198.286C198.194 147.776 198.119 147.85 198.119 147.941V148.462C198.119 148.553 198.194 148.628 198.286 148.628Z" fill="#3F3D56"/>
<path d="M195.432 148.628H196.526C196.618 148.628 196.693 148.553 196.693 148.462V147.941C196.693 147.85 196.618 147.776 196.526 147.776H195.432C195.341 147.776 195.266 147.85 195.266 147.941V148.462C195.266 148.553 195.341 148.628 195.432 148.628Z" fill="#3F3D56"/>
<path d="M192.579 148.628H193.673C193.765 148.628 193.839 148.553 193.839 148.462V147.941C193.839 147.85 193.765 147.776 193.673 147.776H192.579C192.487 147.776 192.413 147.85 192.413 147.941V148.462C192.413 148.553 192.487 148.628 192.579 148.628Z" fill="#3F3D56"/>
<path d="M189.726 148.628H190.82C190.912 148.628 190.986 148.553 190.986 148.462V147.941C190.986 147.85 190.912 147.776 190.82 147.776H189.726C189.634 147.776 189.56 147.85 189.56 147.941V148.462C189.56 148.553 189.634 148.628 189.726 148.628Z" fill="#3F3D56"/>
<path d="M186.873 148.628H187.967C188.058 148.628 188.133 148.553 188.133 148.462V147.941C188.133 147.85 188.058 147.776 187.967 147.776H186.873C186.781 147.776 186.706 147.85 186.706 147.941V148.462C186.706 148.553 186.781 148.628 186.873 148.628Z" fill="#3F3D56"/>
<path d="M184.019 148.628H185.113C185.205 148.628 185.28 148.553 185.28 148.462V147.941C185.28 147.85 185.205 147.776 185.113 147.776H184.019C183.927 147.776 183.853 147.85 183.853 147.941V148.462C183.853 148.553 183.927 148.628 184.019 148.628Z" fill="#3F3D56"/>
<path d="M181.166 148.628H182.26C182.352 148.628 182.426 148.553 182.426 148.462V147.941C182.426 147.85 182.352 147.776 182.26 147.776H181.166C181.074 147.776 181 147.85 181 147.941V148.462C181 148.553 181.074 148.628 181.166 148.628Z" fill="#3F3D56"/>
<path d="M178.313 148.628H179.407C179.499 148.628 179.573 148.553 179.573 148.462V147.941C179.573 147.85 179.499 147.776 179.407 147.776H178.313C178.221 147.776 178.146 147.85 178.146 147.941V148.462C178.146 148.553 178.221 148.628 178.313 148.628Z" fill="#3F3D56"/>
<path d="M175.459 148.628H176.553C176.645 148.628 176.72 148.553 176.72 148.462V147.941C176.72 147.85 176.645 147.776 176.553 147.776H175.459C175.367 147.776 175.293 147.85 175.293 147.941V148.462C175.293 148.553 175.367 148.628 175.459 148.628Z" fill="#3F3D56"/>
<path d="M172.606 148.628H173.7C173.792 148.628 173.866 148.553 173.866 148.462V147.941C173.866 147.85 173.792 147.776 173.7 147.776H172.606C172.514 147.776 172.44 147.85 172.44 147.941V148.462C172.44 148.553 172.514 148.628 172.606 148.628Z" fill="#3F3D56"/>
<path d="M169.753 148.628H170.847C170.939 148.628 171.013 148.553 171.013 148.462V147.941C171.013 147.85 170.939 147.776 170.847 147.776H169.753C169.661 147.776 169.586 147.85 169.586 147.941V148.462C169.586 148.553 169.661 148.628 169.753 148.628Z" fill="#3F3D56"/>
<path d="M188.87 150.331H199.95C200.042 150.331 200.117 150.257 200.117 150.166V149.645C200.117 149.554 200.042 149.479 199.95 149.479H188.87C188.778 149.479 188.704 149.554 188.704 149.645V150.166C188.704 150.257 188.778 150.331 188.87 150.331Z" fill="#3F3D56"/>
<path d="M177.13 121.615H176.162C175.868 121.615 175.63 121.852 175.63 122.144C175.63 122.436 175.868 122.673 176.162 122.673H177.13C177.424 122.673 177.662 122.436 177.662 122.144C177.662 121.852 177.424 121.615 177.13 121.615Z" fill="white"/>
<path d="M188.208 121.615H187.239C186.946 121.615 186.708 121.852 186.708 122.144C186.708 122.436 186.946 122.673 187.239 122.673H188.208C188.502 122.673 188.74 122.436 188.74 122.144C188.74 121.852 188.502 121.615 188.208 121.615Z" fill="white"/>
<path d="M191.347 121.615H190.378C190.084 121.615 189.846 121.852 189.846 122.144C189.846 122.436 190.084 122.673 190.378 122.673H191.347C191.64 122.673 191.878 122.436 191.878 122.144C191.878 121.852 191.64 121.615 191.347 121.615Z" fill="white"/>
<path d="M185.195 121.526H179.175C178.881 121.526 178.643 121.763 178.643 122.056C178.643 122.348 178.881 122.585 179.175 122.585H185.195C185.488 122.585 185.726 122.348 185.726 122.056C185.726 121.763 185.488 121.526 185.195 121.526Z" fill="white"/>
<path d="M199.965 121.526H193.945C193.651 121.526 193.413 121.763 193.413 122.056C193.413 122.348 193.651 122.585 193.945 122.585H199.965C200.259 122.585 200.497 122.348 200.497 122.056C200.497 121.763 200.259 121.526 199.965 121.526Z" fill="white"/>
<path d="M180.084 124.004H179.116C178.822 124.004 178.584 124.241 178.584 124.533C178.584 124.825 178.822 125.062 179.116 125.062H180.084C180.378 125.062 180.616 124.825 180.616 124.533C180.616 124.241 180.378 124.004 180.084 124.004Z" fill="white"/>
<path d="M191.162 124.004H190.193C189.9 124.004 189.662 124.241 189.662 124.533C189.662 124.825 189.9 125.062 190.193 125.062H191.162C191.456 125.062 191.694 124.825 191.694 124.533C191.694 124.241 191.456 124.004 191.162 124.004Z" fill="white"/>
<path d="M194.301 124.004H193.332C193.038 124.004 192.8 124.241 192.8 124.533C192.8 124.825 193.038 125.062 193.332 125.062H194.301C194.594 125.062 194.832 124.825 194.832 124.533C194.832 124.241 194.594 124.004 194.301 124.004Z" fill="white"/>
<path d="M188.149 123.915H182.129C181.835 123.915 181.597 124.152 181.597 124.445C181.597 124.737 181.835 124.974 182.129 124.974H188.149C188.442 124.974 188.681 124.737 188.681 124.445C188.681 124.152 188.442 123.915 188.149 123.915Z" fill="white"/>
<path d="M202.919 123.915H196.899C196.605 123.915 196.367 124.152 196.367 124.445C196.367 124.737 196.605 124.974 196.899 124.974H202.919C203.213 124.974 203.451 124.737 203.451 124.445C203.451 124.152 203.213 123.915 202.919 123.915Z" fill="white"/>
<path d="M183.038 126.392H182.07C181.776 126.392 181.538 126.629 181.538 126.922C181.538 127.214 181.776 127.451 182.07 127.451H183.038C183.332 127.451 183.57 127.214 183.57 126.922C183.57 126.629 183.332 126.392 183.038 126.392Z" fill="white"/>
<path d="M194.116 126.392H193.147C192.854 126.392 192.616 126.629 192.616 126.922C192.616 127.214 192.854 127.451 193.147 127.451H194.116C194.41 127.451 194.648 127.214 194.648 126.922C194.648 126.629 194.41 126.392 194.116 126.392Z" fill="white"/>
<path d="M197.255 126.392H196.286C195.993 126.392 195.754 126.629 195.754 126.922C195.754 127.214 195.993 127.451 196.286 127.451H197.255C197.548 127.451 197.786 127.214 197.786 126.922C197.786 126.629 197.548 126.392 197.255 126.392Z" fill="white"/>
<path d="M191.103 126.304H185.083C184.789 126.304 184.551 126.541 184.551 126.834C184.551 127.126 184.789 127.363 185.083 127.363H191.103C191.397 127.363 191.635 127.126 191.635 126.834C191.635 126.541 191.397 126.304 191.103 126.304Z" fill="white"/>
<path d="M205.873 126.304H199.853C199.56 126.304 199.321 126.541 199.321 126.834C199.321 127.126 199.56 127.363 199.853 127.363H205.873C206.167 127.363 206.405 127.126 206.405 126.834C206.405 126.541 206.167 126.304 205.873 126.304Z" fill="white"/>
<path d="M185.992 128.781H185.024C184.73 128.781 184.492 129.018 184.492 129.311C184.492 129.603 184.73 129.84 185.024 129.84H185.992C186.286 129.84 186.524 129.603 186.524 129.311C186.524 129.018 186.286 128.781 185.992 128.781Z" fill="white"/>
<path d="M197.07 128.781H196.102C195.808 128.781 195.57 129.018 195.57 129.311C195.57 129.603 195.808 129.84 196.102 129.84H197.07C197.364 129.84 197.602 129.603 197.602 129.311C197.602 129.018 197.364 128.781 197.07 128.781Z" fill="white"/>
<path d="M200.209 128.781H199.24C198.947 128.781 198.708 129.018 198.708 129.311C198.708 129.603 198.947 129.84 199.24 129.84H200.209C200.502 129.84 200.741 129.603 200.741 129.311C200.741 129.018 200.502 128.781 200.209 128.781Z" fill="white"/>
<path d="M194.057 128.693H188.037C187.743 128.693 187.505 128.93 187.505 129.222C187.505 129.515 187.743 129.752 188.037 129.752H194.057C194.351 129.752 194.589 129.515 194.589 129.222C194.589 128.93 194.351 128.693 194.057 128.693Z" fill="white"/>
<path d="M188.208 138.281H187.239C186.946 138.281 186.708 138.517 186.708 138.81C186.708 139.102 186.946 139.339 187.239 139.339H188.208C188.502 139.339 188.74 139.102 188.74 138.81C188.74 138.517 188.502 138.281 188.208 138.281Z" fill="white"/>
<path d="M191.347 138.281H190.378C190.084 138.281 189.846 138.517 189.846 138.81C189.846 139.102 190.084 139.339 190.378 139.339H191.347C191.64 139.339 191.878 139.102 191.878 138.81C191.878 138.517 191.64 138.281 191.347 138.281Z" fill="white"/>
<path d="M199.965 138.369H193.945C193.651 138.369 193.413 138.606 193.413 138.898C193.413 139.19 193.651 139.427 193.945 139.427H199.965C200.259 139.427 200.497 139.19 200.497 138.898C200.497 138.606 200.259 138.369 199.965 138.369Z" fill="white"/>
<path d="M177.13 138.281H176.162C175.868 138.281 175.63 138.517 175.63 138.81C175.63 139.102 175.868 139.339 176.162 139.339H177.13C177.424 139.339 177.662 139.102 177.662 138.81C177.662 138.517 177.424 138.281 177.13 138.281Z" fill="white"/>
<path d="M185.195 138.369H179.175C178.881 138.369 178.643 138.606 178.643 138.898C178.643 139.19 178.881 139.427 179.175 139.427H185.195C185.488 139.427 185.726 139.19 185.726 138.898C185.726 138.606 185.488 138.369 185.195 138.369Z" fill="white"/>
<path d="M180.084 135.892H179.116C178.822 135.892 178.584 136.129 178.584 136.421C178.584 136.713 178.822 136.95 179.116 136.95H180.084C180.378 136.95 180.616 136.713 180.616 136.421C180.616 136.129 180.378 135.892 180.084 135.892Z" fill="white"/>
<path d="M191.162 135.892H190.193C189.9 135.892 189.662 136.129 189.662 136.421C189.662 136.713 189.9 136.95 190.193 136.95H191.162C191.456 136.95 191.694 136.713 191.694 136.421C191.694 136.129 191.456 135.892 191.162 135.892Z" fill="white"/>
<path d="M194.301 135.892H193.332C193.038 135.892 192.8 136.129 192.8 136.421C192.8 136.713 193.038 136.95 193.332 136.95H194.301C194.594 136.95 194.832 136.713 194.832 136.421C194.832 136.129 194.594 135.892 194.301 135.892Z" fill="white"/>
<path d="M188.149 135.98H182.129C181.835 135.98 181.597 136.217 181.597 136.509C181.597 136.801 181.835 137.038 182.129 137.038H188.149C188.442 137.038 188.681 136.801 188.681 136.509C188.681 136.217 188.442 135.98 188.149 135.98Z" fill="white"/>
<path d="M183.038 133.503H182.07C181.776 133.503 181.538 133.74 181.538 134.032C181.538 134.324 181.776 134.561 182.07 134.561H183.038C183.332 134.561 183.57 134.324 183.57 134.032C183.57 133.74 183.332 133.503 183.038 133.503Z" fill="white"/>
<path d="M194.116 133.503H193.147C192.854 133.503 192.616 133.74 192.616 134.032C192.616 134.324 192.854 134.561 193.147 134.561H194.116C194.41 134.561 194.648 134.324 194.648 134.032C194.648 133.74 194.41 133.503 194.116 133.503Z" fill="white"/>
<path d="M197.255 133.503H196.286C195.993 133.503 195.754 133.74 195.754 134.032C195.754 134.324 195.993 134.561 196.286 134.561H197.255C197.548 134.561 197.786 134.324 197.786 134.032C197.786 133.74 197.548 133.503 197.255 133.503Z" fill="white"/>
<path d="M191.103 133.591H185.083C184.789 133.591 184.551 133.828 184.551 134.12C184.551 134.413 184.789 134.65 185.083 134.65H191.103C191.397 134.65 191.635 134.413 191.635 134.12C191.635 133.828 191.397 133.591 191.103 133.591Z" fill="white"/>
<path d="M185.992 131.114H185.024C184.73 131.114 184.492 131.351 184.492 131.643C184.492 131.935 184.73 132.172 185.024 132.172H185.992C186.286 132.172 186.524 131.935 186.524 131.643C186.524 131.351 186.286 131.114 185.992 131.114Z" fill="white"/>
<path d="M197.07 131.114H196.102C195.808 131.114 195.57 131.351 195.57 131.643C195.57 131.935 195.808 132.172 196.102 132.172H197.07C197.364 132.172 197.602 131.935 197.602 131.643C197.602 131.351 197.364 131.114 197.07 131.114Z" fill="white"/>
<path d="M200.209 131.114H199.24C198.947 131.114 198.708 131.351 198.708 131.643C198.708 131.935 198.947 132.172 199.24 132.172H200.209C200.502 132.172 200.741 131.935 200.741 131.643C200.741 131.351 200.502 131.114 200.209 131.114Z" fill="white"/>
<path d="M194.057 131.202H188.037C187.743 131.202 187.505 131.439 187.505 131.731C187.505 132.024 187.743 132.261 188.037 132.261H194.057C194.351 132.261 194.589 132.024 194.589 131.731C194.589 131.439 194.351 131.202 194.057 131.202Z" fill="white"/>
<path d="M171.981 166.277L167.434 159.124L181.706 147.8L187.597 141.304C188.362 140.46 189.337 139.831 190.423 139.479C191.509 139.128 192.669 139.066 193.787 139.3C194.905 139.534 195.941 140.057 196.792 140.814C197.644 141.572 198.281 142.539 198.639 143.619C199.17 145.218 199.056 146.961 198.32 148.478C197.585 149.996 196.286 151.169 194.698 151.752L185.383 155.167L171.981 166.277Z" fill="#FFB6B6"/>
<path d="M65.2918 114.409V149.177H89.7648V114.409C89.7652 114.159 89.685 113.915 89.536 113.714C89.3871 113.512 89.1771 113.364 88.9371 113.29C88.8239 113.253 88.7054 113.235 88.5863 113.236H66.4737C66.3187 113.235 66.1652 113.266 66.0219 113.324C65.8786 113.383 65.7483 113.47 65.6385 113.578C65.5288 113.687 65.4416 113.817 65.3822 113.959C65.3227 114.102 65.292 114.254 65.2918 114.409ZM74.8426 126.355C74.849 125.67 75.127 125.015 75.6163 124.532C76.1055 124.05 76.7664 123.779 77.4551 123.779C78.1438 123.779 78.8046 124.05 79.2939 124.532C79.7831 125.015 80.0612 125.67 80.0676 126.355V130.39C80.064 131.077 79.7872 131.735 79.2977 132.22C78.8081 132.704 78.1456 132.977 77.4551 132.977C76.7645 132.977 76.102 132.704 75.6125 132.22C75.1229 131.735 74.8461 131.077 74.8426 130.39V126.355Z" fill="#2F2E41"/>
<path d="M65.2169 148.065V151.418C65.2175 151.592 65.2868 151.758 65.4099 151.881C65.5329 152.005 65.6998 152.074 65.8743 152.076H89.1823C89.357 152.075 89.5242 152.005 89.6474 151.882C89.7706 151.759 89.8398 151.592 89.8397 151.418V148.065H65.2169Z" fill="#3F3D56"/>
<path d="M26.7925 62.0252V125.508C26.7931 126.317 27.1163 127.093 27.6911 127.665C28.2658 128.237 29.0452 128.558 29.858 128.559H124.378C125.191 128.558 125.97 128.237 126.545 127.665C127.119 127.093 127.443 126.317 127.443 125.508V62.0252C127.441 61.2169 127.118 60.4423 126.543 59.8711C125.968 59.2999 125.19 58.9786 124.378 58.9775H29.858C29.0459 58.9786 28.2673 59.2999 27.6927 59.8711C27.1181 60.4423 26.7944 61.2169 26.7925 62.0252Z" fill="#3F3D56"/>
<path d="M29.0099 62.8151V124.725C29.0106 125.157 29.1835 125.571 29.4906 125.877C29.7977 126.183 30.2139 126.355 30.6482 126.355H123.591C124.025 126.355 124.441 126.183 124.749 125.877C125.056 125.571 125.229 125.157 125.229 124.725V62.8151C125.229 62.3823 125.057 61.9672 124.75 61.6609C124.442 61.3545 124.026 61.182 123.591 61.181H30.6482C30.2134 61.182 29.7967 61.3545 29.4896 61.6609C29.1824 61.9672 29.0099 62.3823 29.0099 62.8151Z" fill="white"/>
<path d="M46.2584 151.849C46.353 151.967 46.4733 152.062 46.6102 152.127C46.747 152.192 46.8969 152.226 47.0487 152.225H102.344C102.495 152.225 102.644 152.191 102.781 152.126C102.917 152.062 103.037 151.967 103.133 151.85C103.228 151.733 103.296 151.597 103.331 151.451C103.367 151.304 103.369 151.152 103.338 151.005L102.48 146.947C102.444 146.781 102.368 146.627 102.257 146.499C102.146 146.37 102.005 146.271 101.846 146.211C101.731 146.166 101.609 146.143 101.485 146.143H47.9036C47.7801 146.143 47.6576 146.166 47.5426 146.211C47.3837 146.271 47.2425 146.37 47.1318 146.499C47.0212 146.627 46.9446 146.781 46.909 146.947L46.0507 151.005C46.0201 151.152 46.0229 151.304 46.0589 151.45C46.0948 151.596 46.163 151.732 46.2584 151.849Z" fill="#2F2E41"/>
<path d="M120.575 69.7094H33.6085C33.5181 69.7074 33.4321 69.6703 33.3689 69.606C33.3057 69.5416 33.2703 69.4552 33.2703 69.3652C33.2703 69.2752 33.3057 69.1888 33.3689 69.1245C33.4321 69.0601 33.5181 69.023 33.6085 69.021H120.575C120.665 69.023 120.751 69.0601 120.814 69.1245C120.877 69.1888 120.913 69.2752 120.913 69.3652C120.913 69.4552 120.877 69.5416 120.814 69.606C120.751 69.6703 120.665 69.7074 120.575 69.7094Z" fill="#3F3D56"/>
<path d="M39.5284 67.2636C40.6478 67.2636 41.5552 66.3403 41.5552 65.2014C41.5552 64.0624 40.6478 63.1392 39.5284 63.1392C38.4091 63.1392 37.5016 64.0624 37.5016 65.2014C37.5016 66.3403 38.4091 67.2636 39.5284 67.2636Z" fill="#3F3D56"/>
<path d="M46.53 67.2636C47.6494 67.2636 48.5568 66.3403 48.5568 65.2014C48.5568 64.0624 47.6494 63.1392 46.53 63.1392C45.4107 63.1392 44.5033 64.0624 44.5033 65.2014C44.5033 66.3403 45.4107 67.2636 46.53 67.2636Z" fill="#3F3D56"/>
<path d="M53.5317 67.2636C54.651 67.2636 55.5584 66.3403 55.5584 65.2014C55.5584 64.0624 54.651 63.1392 53.5317 63.1392C52.4123 63.1392 51.5049 64.0624 51.5049 65.2014C51.5049 66.3403 52.4123 67.2636 53.5317 67.2636Z" fill="#3F3D56"/>
<path d="M116.358 63.649H111.386C111.287 63.6513 111.194 63.6918 111.125 63.7618C111.056 63.8318 111.018 63.9258 111.018 64.0236C111.018 64.1215 111.056 64.2155 111.125 64.2855C111.194 64.3555 111.287 64.396 111.386 64.3983H116.358C116.457 64.3969 116.552 64.3568 116.621 64.2867C116.691 64.2166 116.73 64.1221 116.73 64.0236C116.73 63.9252 116.691 63.8307 116.621 63.7606C116.552 63.6905 116.457 63.6504 116.358 63.649Z" fill="#3F3D56"/>
<path d="M116.358 65.0559H111.386C111.287 65.0581 111.194 65.0985 111.125 65.1685C111.056 65.2385 111.017 65.3326 111.017 65.4305C111.017 65.5285 111.056 65.6225 111.125 65.6925C111.194 65.7625 111.287 65.8029 111.386 65.8051H116.358C116.458 65.8039 116.552 65.7639 116.622 65.6938C116.691 65.6237 116.73 65.5291 116.73 65.4305C116.73 65.3319 116.691 65.2373 116.622 65.1672C116.552 65.0971 116.458 65.0571 116.358 65.0559Z" fill="#3F3D56"/>
<path d="M116.358 66.4628H111.386C111.287 66.465 111.194 66.5055 111.125 66.5755C111.056 66.6455 111.018 66.7395 111.018 66.8374C111.018 66.9352 111.056 67.0292 111.125 67.0992C111.194 67.1692 111.287 67.2097 111.386 67.212H116.358C116.457 67.2106 116.552 67.1705 116.621 67.1004C116.691 67.0303 116.73 66.9358 116.73 66.8374C116.73 66.7389 116.691 66.6444 116.621 66.5743C116.552 66.5042 116.457 66.4642 116.358 66.4628Z" fill="#3F3D56"/>
<path d="M236.247 149.537C236.397 149.972 236.681 150.348 237.06 150.612C237.438 150.876 237.891 151.013 238.353 151.005L247.376 150.774C247.841 150.765 248.291 150.606 248.659 150.322C249.026 150.037 249.291 149.642 249.413 149.195L250.69 135.605C251.143 135.81 251.637 135.91 252.134 135.901C252.566 135.89 252.991 135.794 253.386 135.62C253.781 135.445 254.138 135.195 254.436 134.883C254.734 134.572 254.967 134.205 255.122 133.803C255.277 133.402 255.352 132.974 255.341 132.544C255.33 132.114 255.234 131.69 255.059 131.297C254.884 130.904 254.632 130.549 254.319 130.253C254.006 129.956 253.637 129.724 253.234 129.57C252.831 129.415 252.401 129.341 251.969 129.352C251.77 129.351 251.572 129.372 251.377 129.413C251.166 129.186 250.909 129.005 250.623 128.882C250.337 128.759 250.028 128.697 249.717 128.7L235.837 129.057C235.722 129.061 235.607 129.075 235.495 129.099C235.19 129.156 234.902 129.277 234.648 129.453C234.394 129.63 234.182 129.859 234.025 130.125C233.867 130.39 233.769 130.686 233.736 130.992C233.703 131.299 233.737 131.609 233.835 131.901L236.247 149.537ZM250.952 134.683L251.861 131.444C251.964 131.07 251.967 130.675 251.868 130.3C251.912 130.3 251.951 130.279 251.995 130.279C252.618 130.266 253.22 130.5 253.671 130.929C254.121 131.357 254.382 131.946 254.397 132.566C254.411 133.186 254.178 133.787 253.749 134.236C253.319 134.686 252.728 134.947 252.105 134.963C251.702 134.976 251.304 134.879 250.952 134.683Z" fill="#2F2E41"/>
<path d="M235.495 129.099C235.79 130.782 239.115 131.965 243.113 131.76C246.789 131.591 249.795 130.306 250.345 128.784C250.141 128.724 249.93 128.696 249.717 128.7L235.837 129.057C235.722 129.061 235.607 129.075 235.495 129.099Z" fill="#3F3D56"/>
<path d="M243.845 142.069C243.864 142.065 243.881 142.057 243.897 142.047L245.856 140.77C245.88 140.755 245.899 140.734 245.913 140.709C245.926 140.684 245.933 140.656 245.934 140.628C245.934 140.6 245.926 140.572 245.913 140.548C245.9 140.523 245.88 140.502 245.856 140.487L243.82 139.159C243.801 139.146 243.78 139.138 243.758 139.134C243.736 139.129 243.713 139.13 243.691 139.134C243.669 139.139 243.649 139.147 243.63 139.16C243.612 139.172 243.596 139.188 243.583 139.207C243.571 139.226 243.563 139.247 243.558 139.269C243.554 139.291 243.555 139.313 243.559 139.335C243.564 139.357 243.573 139.377 243.585 139.396C243.598 139.414 243.614 139.43 243.633 139.442L245.452 140.628L243.71 141.763C243.677 141.785 243.652 141.818 243.64 141.857C243.629 141.895 243.631 141.936 243.648 141.973C243.664 142.01 243.693 142.039 243.729 142.057C243.765 142.075 243.806 142.079 243.845 142.069Z" fill="#6C63FF"/>
<path d="M240.75 142.211C240.783 142.203 240.813 142.185 240.835 142.16C240.858 142.135 240.873 142.103 240.877 142.07C240.882 142.037 240.876 142.002 240.861 141.972C240.846 141.942 240.823 141.917 240.793 141.9L238.987 140.869L240.733 139.579C240.751 139.565 240.766 139.549 240.777 139.53C240.789 139.51 240.796 139.489 240.8 139.467C240.803 139.445 240.802 139.423 240.796 139.401C240.791 139.38 240.781 139.359 240.768 139.342C240.755 139.324 240.738 139.309 240.719 139.297C240.699 139.286 240.678 139.278 240.656 139.275C240.634 139.272 240.611 139.273 240.59 139.278C240.568 139.284 240.548 139.293 240.53 139.307L238.575 140.752C238.552 140.768 238.534 140.791 238.522 140.816C238.51 140.842 238.505 140.87 238.507 140.898C238.508 140.926 238.517 140.953 238.532 140.977C238.547 141.001 238.567 141.021 238.592 141.035L240.624 142.194C240.662 142.216 240.707 142.222 240.75 142.211Z" fill="#6C63FF"/>
<path d="M243.65 143.188C243.667 143.184 243.683 143.177 243.697 143.168C243.716 143.157 243.733 143.142 243.746 143.124C243.759 143.106 243.769 143.085 243.774 143.064C243.779 143.042 243.78 143.02 243.777 142.998C243.774 142.975 243.766 142.954 243.754 142.935L240.976 138.39C240.953 138.351 240.915 138.324 240.871 138.313C240.827 138.303 240.781 138.31 240.742 138.333C240.704 138.357 240.676 138.395 240.665 138.438C240.655 138.482 240.662 138.528 240.685 138.566L243.463 143.112C243.482 143.143 243.51 143.167 243.544 143.181C243.578 143.194 243.615 143.197 243.65 143.188Z" fill="#6C63FF"/>
<path d="M87.4825 88.4225H72.4306C71.8166 88.4225 71.3188 88.9179 71.3188 89.5291V90.9927C71.3188 91.6038 71.8166 92.0993 72.4306 92.0993H87.4825C88.0966 92.0993 88.5943 91.6038 88.5943 90.9927V89.5291C88.5943 88.9179 88.0966 88.4225 87.4825 88.4225Z" fill="#93C89C"/>
<path d="M96.2562 95.7761H63.657C63.0429 95.7761 62.5452 96.2716 62.5452 96.8827V98.3463C62.5452 98.9575 63.0429 99.4529 63.657 99.4529H96.2562C96.8702 99.4529 97.368 98.9575 97.368 98.3463V96.8827C97.368 96.2716 96.8702 95.7761 96.2562 95.7761Z" fill="#E6E6E6"/>
<path d="M96.2562 103.13H63.657C63.0429 103.13 62.5452 103.625 62.5452 104.236V105.7C62.5452 106.311 63.0429 106.806 63.657 106.806H96.2562C96.8702 106.806 97.368 106.311 97.368 105.7V104.236C97.368 103.625 96.8702 103.13 96.2562 103.13Z" fill="#E6E6E6"/>
<path d="M99.0196 127.754L99.0934 127.986L99.0973 127.994L101.32 134.719L103.877 142.469L108.687 157.033L108.734 159.295V159.303L109.091 177.503L108.1 179.97L109.215 184.015C109.215 184.015 108.702 177.9 105.951 181.412C104.393 183.408 102.571 185.449 101.075 187.364C103.255 188.242 105.47 189.036 107.719 189.746C108.205 189.901 108.695 190.048 109.184 190.195C109.289 190.226 109.394 190.256 109.499 190.287C116.957 192.482 124.666 193.716 132.44 193.957C132.844 193.969 133.24 193.977 133.625 193.985C133.761 193.988 133.893 193.992 134.025 193.992C134.46 193.996 134.891 194 135.326 194C136.205 194 137.079 193.987 137.949 193.961C144.391 193.781 150.796 192.919 157.055 191.39C157.012 188.818 156.895 185.813 156.728 182.603C156.651 181.029 154.906 179.324 154.801 177.676C154.727 176.439 156.293 175.275 156.212 174.018C155.683 166.279 155.023 169.25 154.533 163.77C154.482 163.232 154.436 162.718 154.393 162.227C154.078 158.708 153.861 156.507 153.861 156.507L155.951 143.393L159.235 122.804L158.982 122.39L158.698 122.251L141.38 113.719L140.44 111.322C140.166 110.631 139.691 110.037 139.075 109.618C138.459 109.198 137.732 108.971 136.986 108.966L125.578 108.92C124.986 108.917 124.401 109.055 123.874 109.322C123.346 109.589 122.89 109.978 122.543 110.455L119.454 114.713L99.0196 127.754Z" fill="#93C89C"/>
<path d="M111.317 153.792L108.734 159.295L106.97 163.054L103.935 178.868L102.416 180.473L101.114 174.791L87.4903 177.802C87.0434 175.331 87.3706 177.885 87.0947 175.174C87.1725 175.097 87.254 175.02 87.3357 174.942C87.5532 174.741 87.7359 174.552 87.732 174.37C87.5766 165.019 88.0428 149.105 91.9362 139.464C92.546 137.89 93.35 136.397 94.3297 135.02C94.4074 134.916 94.4812 134.812 94.5551 134.707C96.3502 132.205 97.4848 129.742 99.0934 127.99V127.986C99.1034 127.978 99.1126 127.969 99.1206 127.959C99.1265 127.956 99.1317 127.952 99.1362 127.947L110.187 122.115L110.661 135.372L110.999 144.901L111.317 153.792Z" fill="#93C89C"/>
<path d="M151.164 155.355L154.392 162.229L155.518 164.622L158.552 180.434L160.066 182.035L161.371 176.355L161.984 176.23L173.04 173.951L176.262 184.137C176.988 182.933 177.274 181.516 177.072 180.125C176.87 178.735 176.191 177.457 175.151 176.507C174.931 176.309 174.748 176.116 174.753 175.934C174.936 164.935 174.26 144.852 168.156 136.587C166.217 133.963 165.054 131.351 163.362 129.525C163.357 129.52 163.357 129.515 163.351 129.515L159.233 122.803L158.981 122.391L158.699 122.25L151.164 155.355Z" fill="#93C89C"/>
<path d="M131.611 105.689C139.993 105.689 146.788 98.9258 146.788 90.5832C146.788 82.2406 139.993 75.4775 131.611 75.4775C123.229 75.4775 116.434 82.2406 116.434 90.5832C116.434 98.9258 123.229 105.689 131.611 105.689Z" fill="#FFB6B6"/>
<path d="M152.125 80.0319C152.007 79.9068 151.865 79.8066 151.708 79.7373C151.55 79.668 151.381 79.631 151.208 79.6285L151.437 78.9979C151.511 78.7993 151.531 78.5846 151.495 78.3757C151.459 78.1668 151.367 77.9713 151.23 77.8091C151.093 77.647 150.915 77.5241 150.714 77.453C150.513 77.3819 150.297 77.3652 150.088 77.4046L149.257 77.5639L149.335 77.0113C149.365 76.8055 149.341 76.5955 149.265 76.4019C149.188 76.2082 149.063 76.0377 148.9 75.907C148.738 75.7764 148.544 75.6901 148.337 75.6566C148.131 75.6232 147.92 75.6438 147.724 75.7163C147.546 75.7861 147.354 75.8153 147.163 75.8018C146.972 75.7883 146.787 75.7325 146.62 75.6384C146.453 75.5471 146.308 75.4206 146.195 75.2678C146.082 75.115 146.004 74.9395 145.966 74.7535L145.677 73.3636L145.646 73.289C144.236 70.9499 141.525 69.248 138.207 68.6243C135.254 68.0649 132.226 68.3497 129.307 68.6175C128.149 68.726 126.841 68.848 125.751 69.5125C124.825 70.082 124.041 71.2211 124.201 72.3703C121.323 71.4923 118.237 73.2449 116.708 75.4553C114.896 78.086 114.6 81.3811 114.552 83.9576C114.422 90.053 115.686 95.0398 118.299 98.7824C118.489 99.0536 118.537 99.6198 118.915 99.8096L118.837 99.6842C119.259 99.8944 119.688 100.233 119.528 100.596C119.068 101.64 122.124 103.949 124.276 104.712C128.204 106.105 133.425 105.986 137.097 105.485L137.226 104.62C138.551 104.44 139.485 104.098 139.747 103.562C140.21 103.169 140.605 102.817 140.949 102.491L140.953 102.488C140.959 102.481 140.973 102.471 140.98 102.464C142.639 100.881 143.024 99.9791 143.197 98.6061C143.364 97.2603 143.068 95.8941 142.765 94.6635C149.148 95.6466 140.251 87.8969 146.198 86.3985C146.266 86.3775 146.336 86.3606 146.406 86.3476C146.58 86.3069 146.753 86.2663 146.92 86.2188C147.725 86.0014 148.495 85.674 149.209 85.2458C150.871 84.239 151.42 82.9033 152.278 81.3981C152.402 81.1838 152.454 80.9357 152.426 80.69C152.399 80.4443 152.293 80.2137 152.125 80.0319Z" fill="#2F2E41"/>
<path d="M185.29 156.431C185.287 157.024 185.28 157.855 185.253 158.882C185.249 159.024 185.246 159.17 185.242 159.319C185.198 161.207 185.154 162.791 185.082 164.55C185.079 164.672 185.075 164.791 185.069 164.913C184.973 167.367 184.823 170.225 184.565 174.751C184.084 183.111 183.246 175.9 182.405 178.832C182.364 178.978 182.32 179.151 182.279 179.355C182.152 180.093 181.937 180.813 181.639 181.5C181.193 181.765 180.733 182.019 180.28 182.273C178.989 182.989 177.677 183.677 176.356 184.331C175.613 184.697 174.867 185.057 174.118 185.402C173.999 185.457 173.883 185.511 173.767 185.562C169.93 187.328 165.975 188.83 161.931 190.057C161.141 190.294 160.354 190.525 159.557 190.738C158.726 190.969 157.895 191.186 157.053 191.389C150.795 192.919 144.39 193.781 137.948 193.962C137.08 193.989 136.205 194 135.326 194C134.89 194 134.461 193.996 134.025 193.993C133.892 193.993 133.759 193.989 133.626 193.986C133.241 193.976 132.843 193.969 132.441 193.959C124.668 193.718 116.958 192.484 109.501 190.288L109.184 190.196C108.693 190.047 108.206 189.901 107.719 189.745C105.471 189.037 103.256 188.243 101.074 187.365C99.4083 186.697 97.762 185.981 96.135 185.216C96.1201 185.212 96.1062 185.205 96.0941 185.196C95.7535 185.04 95.4095 184.877 95.0689 184.711C95.0246 184.687 94.9769 184.663 94.9292 184.64C93.6587 184.023 92.4019 183.376 91.1587 182.701C90.113 180.31 88.6415 179.853 87.7287 177.751C87.463 177.127 87.271 176.474 87.1565 175.805C87.1565 175.798 87.1531 175.792 87.1531 175.781C87.2484 177.042 86.7477 173.544 87.1497 175.768C87.1463 175.727 87.1429 175.683 87.1395 175.632C87.1292 175.51 87.1156 175.361 87.0952 175.175C85.9269 163.821 86.0018 150.837 85.4943 140.138C85.4602 139.446 85.425 138.784 85.3887 138.151C85.3785 137.941 85.3649 137.734 85.3512 137.531C85.3751 137.47 85.4023 137.406 85.433 137.345C85.4395 137.327 85.4475 137.31 85.4568 137.294C85.4669 137.273 85.4783 137.252 85.4909 137.233C85.4977 137.223 85.5079 137.209 85.5147 137.199C85.5197 137.187 85.5254 137.176 85.5318 137.165C85.5624 137.117 85.5965 137.067 85.6339 137.019C85.651 136.999 85.6646 136.982 85.6816 136.965C85.6934 136.948 85.7071 136.932 85.7225 136.917C85.733 136.901 85.7456 136.886 85.76 136.873C85.7736 136.86 85.7872 136.843 85.8043 136.826C85.8115 136.815 85.8208 136.806 85.8315 136.799C85.8584 136.768 85.8881 136.74 85.9201 136.714C86.0416 136.603 86.1714 136.501 86.3084 136.409C86.356 136.378 86.4071 136.348 86.4548 136.314C86.7981 136.11 87.1595 135.937 87.5346 135.799C87.664 135.751 87.7934 135.707 87.9331 135.66C87.9842 135.646 88.0319 135.629 88.0829 135.612C88.1579 135.589 88.2328 135.565 88.3112 135.548C88.6995 135.433 89.1184 135.334 89.5714 135.243C89.6259 135.233 89.6838 135.222 89.7417 135.209C89.8235 135.192 89.9086 135.178 89.9938 135.165C90.1096 135.144 90.2288 135.124 90.348 135.104C91.3596 134.944 92.5075 134.826 93.7746 134.748C93.8938 134.741 94.013 134.734 94.1322 134.728C94.2719 134.721 94.4115 134.714 94.5546 134.707C94.6738 134.7 94.7964 134.697 94.919 134.694C95.0382 134.687 95.1609 134.683 95.2869 134.68C95.6309 134.67 95.9851 134.66 96.3462 134.653C97.3748 134.633 98.458 134.639 99.5956 134.663C100.124 134.677 100.662 134.69 101.214 134.714C101.251 134.714 101.285 134.717 101.319 134.717C101.799 134.734 102.283 134.755 102.78 134.782C103.128 134.799 103.479 134.816 103.829 134.836C104.16 134.856 104.494 134.877 104.831 134.9C105.093 134.914 105.355 134.934 105.621 134.951C105.846 134.968 106.071 134.985 106.295 134.999L106.602 135.019C106.769 135.033 106.936 135.043 107.106 135.06C107.481 135.09 107.855 135.121 108.237 135.151C108.615 135.185 109 135.219 109.385 135.253C109.77 135.287 110.158 135.324 110.546 135.361C110.587 135.365 110.625 135.368 110.662 135.372C111.016 135.409 111.371 135.443 111.728 135.48C111.81 135.487 111.895 135.494 111.977 135.504C112.318 135.538 112.665 135.578 113.01 135.614C113.115 135.626 113.22 135.637 113.326 135.648C113.596 135.677 113.861 135.703 114.133 135.734C114.491 135.775 114.855 135.812 115.209 135.86C115.485 135.89 115.761 135.921 116.037 135.955C116.469 136.006 116.909 136.06 117.348 136.117C117.515 136.138 117.682 136.158 117.849 136.182C119.102 136.338 120.369 136.511 121.657 136.69C123.609 136.965 125.591 137.263 127.587 137.585C129.586 137.907 131.597 138.248 133.619 138.606C134.13 138.697 134.641 138.789 135.155 138.884C135.387 138.928 135.619 138.972 135.85 139.016C136.245 139.087 136.64 139.162 137.036 139.236C137.431 139.311 137.826 139.385 138.221 139.463C138.691 139.555 139.164 139.646 139.634 139.738C142.731 140.348 145.81 140.999 148.814 141.681C149.308 141.792 149.802 141.908 150.292 142.02C151.273 142.247 152.245 142.477 153.208 142.711C153.474 142.772 153.736 142.837 153.998 142.901C154.652 143.064 155.306 143.226 155.95 143.393L156.062 143.423C156.536 143.538 156.999 143.657 157.462 143.779C158.555 144.064 159.631 144.352 160.688 144.643C161.389 144.837 162.083 145.032 162.769 145.23C163.794 145.525 164.799 145.823 165.776 146.125C166.018 146.2 166.26 146.274 166.498 146.345C167.214 146.566 167.919 146.789 168.603 147.013C169.148 147.189 169.68 147.369 170.204 147.549C170.729 147.728 171.243 147.908 171.747 148.088C172.071 148.203 172.391 148.325 172.711 148.44C173.171 148.61 173.624 148.779 174.067 148.949C174.203 149 174.336 149.054 174.469 149.105C174.554 149.142 174.636 149.173 174.717 149.207C174.878 149.271 175.041 149.332 175.198 149.396C175.358 149.457 175.514 149.522 175.671 149.59C175.824 149.651 175.981 149.715 176.131 149.779C176.284 149.84 176.434 149.905 176.584 149.973C176.71 150.024 176.833 150.078 176.952 150.132C177.194 150.237 177.436 150.342 177.671 150.451C177.786 150.505 177.902 150.556 178.018 150.61L178.284 150.732C178.321 150.752 178.359 150.769 178.396 150.786C178.481 150.827 178.57 150.871 178.655 150.912C178.852 151.003 179.047 151.102 179.237 151.193C179.493 151.322 179.741 151.451 179.98 151.576C180.222 151.705 180.457 151.834 180.682 151.959C180.719 151.98 180.753 152 180.791 152.02C180.842 152.047 180.893 152.078 180.944 152.105C181.118 152.203 181.284 152.305 181.451 152.403C181.778 152.603 182.088 152.8 182.378 152.997C182.443 153.041 182.504 153.085 182.569 153.125C182.783 153.278 182.988 153.427 183.178 153.58C183.178 153.583 183.178 153.583 183.182 153.583C183.246 153.631 183.308 153.681 183.369 153.729C183.42 153.776 183.475 153.817 183.526 153.864C183.703 154.017 183.866 154.163 184.016 154.312C184.066 154.358 184.114 154.407 184.159 154.458C184.179 154.474 184.197 154.492 184.214 154.512C184.282 154.58 184.343 154.648 184.401 154.715C184.41 154.725 184.418 154.735 184.425 154.746C184.507 154.841 184.582 154.936 184.653 155.031C184.687 155.078 184.725 155.126 184.755 155.173C184.796 155.231 184.837 155.292 184.871 155.349C184.902 155.397 184.929 155.448 184.956 155.495C185.029 155.617 185.09 155.745 185.14 155.878C185.178 155.968 185.209 156.061 185.232 156.156C185.258 156.246 185.277 156.338 185.29 156.431Z" fill="#2F2E41"/>
<path opacity="0.2" d="M185.29 156.431C185.287 157.024 185.28 157.855 185.253 158.882C185.249 159.024 185.242 159.17 185.239 159.319C185.205 160.76 185.154 162.54 185.082 164.55C185.079 164.672 185.075 164.791 185.069 164.913C184.973 167.367 184.823 170.225 184.565 174.751C184.084 183.111 183.246 175.9 182.405 178.833C180.068 177.402 177.507 175.903 174.769 174.364C174.275 174.086 173.776 173.807 173.273 173.527C167.796 170.486 161.679 167.299 155.292 164.143C155.04 164.018 154.785 163.892 154.533 163.77C139.904 156.573 123.936 149.573 110.999 144.901C108.503 143.999 106.118 143.186 103.877 142.47C99.1562 140.969 95.0757 139.918 91.9352 139.463C88.6654 138.989 86.4071 139.158 85.4943 140.138C85.4602 139.447 85.425 138.784 85.3887 138.152C85.375 137.941 85.3614 137.735 85.3478 137.531C85.3688 137.475 85.3961 137.422 85.4226 137.368C85.4264 137.361 85.4291 137.352 85.433 137.345C85.4395 137.327 85.4475 137.31 85.4568 137.294C85.4669 137.273 85.4782 137.252 85.4909 137.233C85.5019 137.209 85.5157 137.186 85.5317 137.165C85.5624 137.118 85.5965 137.067 85.6339 137.019C85.6615 136.984 85.691 136.95 85.7225 136.918C85.7329 136.901 85.7455 136.886 85.76 136.873C85.7736 136.86 85.7872 136.843 85.8042 136.826C85.8115 136.815 85.8208 136.806 85.8315 136.799C85.8584 136.768 85.8881 136.74 85.92 136.714C86.0416 136.603 86.1714 136.501 86.3083 136.409C86.356 136.379 86.4071 136.348 86.4548 136.314C86.7981 136.11 87.1595 135.937 87.5345 135.799C87.664 135.751 87.7934 135.707 87.933 135.66C87.9841 135.646 88.0318 135.629 88.0829 135.612C88.1579 135.589 88.2328 135.565 88.3111 135.548C88.6994 135.433 89.1184 135.334 89.5714 135.243C89.7076 135.216 89.8507 135.189 89.9938 135.165C90.1096 135.145 90.2288 135.124 90.348 135.104C91.3596 134.945 92.5075 134.826 93.7745 134.748C93.8938 134.741 94.013 134.734 94.1322 134.728C94.2718 134.721 94.4115 134.714 94.5545 134.707C94.6738 134.7 94.7964 134.697 94.919 134.694C95.0382 134.687 95.1608 134.683 95.2869 134.68C95.6309 134.67 95.9851 134.66 96.3462 134.653C97.3748 134.636 98.458 134.643 99.5956 134.667C100.124 134.677 100.662 134.694 101.214 134.717C101.248 134.717 101.285 134.721 101.319 134.721C101.799 134.734 102.286 134.758 102.78 134.782C103.128 134.799 103.479 134.816 103.829 134.836C104.16 134.856 104.494 134.877 104.831 134.9C105.093 134.914 105.355 134.934 105.621 134.951C105.846 134.968 106.071 134.985 106.295 134.999C106.564 135.019 106.834 135.039 107.106 135.06C107.481 135.09 107.855 135.121 108.237 135.151C108.615 135.185 109 135.219 109.385 135.253C109.77 135.287 110.158 135.324 110.546 135.361C110.587 135.365 110.625 135.368 110.662 135.372C111.016 135.409 111.371 135.443 111.728 135.48C113.711 135.68 115.751 135.914 117.849 136.182C119.102 136.341 120.372 136.512 121.657 136.694C123.609 136.968 125.591 137.267 127.587 137.585C129.586 137.907 131.597 138.248 133.619 138.606C134.13 138.697 134.641 138.789 135.155 138.884C135.782 138.999 136.409 139.117 137.036 139.236C137.431 139.311 137.826 139.386 138.221 139.463C138.691 139.555 139.164 139.647 139.634 139.738C142.731 140.348 145.81 140.999 148.814 141.681C149.308 141.792 149.802 141.908 150.292 142.02C151.273 142.247 152.245 142.477 153.208 142.711C153.474 142.776 153.736 142.84 153.998 142.904C154.655 143.067 155.306 143.23 155.95 143.393V143.396C155.987 143.403 156.025 143.413 156.062 143.423C156.532 143.542 156.999 143.66 157.462 143.782C158.555 144.067 159.631 144.354 160.688 144.644C161.389 144.84 162.084 145.033 162.769 145.23C163.794 145.528 164.799 145.827 165.776 146.125C166.018 146.2 166.26 146.274 166.499 146.345C167.214 146.569 167.915 146.792 168.603 147.013C169.148 147.189 169.68 147.369 170.204 147.549C170.729 147.729 171.243 147.908 171.747 148.088C172.074 148.203 172.394 148.322 172.711 148.437C173.174 148.607 173.624 148.776 174.067 148.949C174.203 149 174.336 149.054 174.469 149.105C174.717 149.2 174.959 149.298 175.198 149.396C175.358 149.457 175.515 149.522 175.671 149.59C175.824 149.651 175.981 149.715 176.131 149.78C176.284 149.841 176.434 149.905 176.584 149.973C176.71 150.024 176.833 150.078 176.952 150.132C177.194 150.237 177.436 150.342 177.671 150.451C177.786 150.505 177.902 150.556 178.018 150.61L178.284 150.732C178.321 150.752 178.359 150.769 178.396 150.786C178.686 150.922 178.965 151.058 179.237 151.193C179.493 151.322 179.741 151.451 179.98 151.576C180.263 151.725 180.532 151.871 180.791 152.02C180.842 152.047 180.893 152.078 180.944 152.105C181.118 152.203 181.284 152.305 181.451 152.403C181.778 152.603 182.088 152.8 182.378 152.997C182.664 153.193 182.93 153.387 183.178 153.58C183.178 153.583 183.178 153.583 183.182 153.583C183.301 153.678 183.417 153.773 183.526 153.865C183.703 154.017 183.866 154.163 184.016 154.312C184.066 154.358 184.114 154.407 184.159 154.458C184.179 154.474 184.197 154.492 184.214 154.512C184.285 154.59 184.357 154.668 184.425 154.746C184.507 154.841 184.582 154.936 184.653 155.031C184.687 155.078 184.725 155.126 184.755 155.173C184.796 155.231 184.837 155.292 184.871 155.349C184.902 155.397 184.929 155.448 184.956 155.495C185.029 155.617 185.09 155.746 185.14 155.878C185.177 155.969 185.208 156.062 185.232 156.156C185.258 156.246 185.277 156.338 185.29 156.431Z" fill="black"/>
</g>
</g>
<defs>
<clipPath id="clip0_0_1">
<rect width="847" height="1894" fill="white" transform="translate(-324 -1415)"/>
</clipPath>
<clipPath id="clip1_0_1">
<rect width="268" height="194" fill="white"/>
</clipPath>
</defs>
</svg>
