<svg width="24" height="24" viewBox="0 0 24 24" fill="none" xmlns="http://www.w3.org/2000/svg">
<g clip-path="url(#clip0_382_7549)">
<path d="M16.7439 13.1504C16.7439 13.3886 16.937 13.5816 17.1752 13.5816C17.4134 13.5816 17.6064 13.3886 17.6064 13.1504L16.7439 13.1504ZM6.39395 13.1504C6.39395 13.3886 6.58702 13.5816 6.8252 13.5816C7.06337 13.5816 7.25645 13.3886 7.25645 13.1504L6.39395 13.1504ZM12.0002 8.40664C14.6201 8.40664 16.7439 10.5305 16.7439 13.1504L17.6064 13.1504C17.6064 10.0541 15.0964 7.54414 12.0002 7.54414L12.0002 8.40664ZM7.25645 13.1504C7.25645 10.5305 9.38029 8.40664 12.0002 8.40664L12.0002 7.54414C8.90395 7.54414 6.39395 10.0541 6.39395 13.1504L7.25645 13.1504Z" fill="#008FFD"/>
<path d="M9.7002 12.4043L12.0002 10.2762L14.3002 12.4043" stroke="#008FFD" stroke-width="0.8625" stroke-linecap="round" stroke-linejoin="round"/>
<path d="M12 10.4421L12 16.0254" stroke="#008FFD" stroke-width="0.8625" stroke-linecap="round"/>
</g>
<rect x="0.93125" y="0.93125" width="22.1375" height="22.1375" rx="11.0688" stroke="#008FFD" stroke-width="0.8625"/>
<defs>
<clipPath id="clip0_382_7549">
<rect width="13.8" height="13.8" fill="white" transform="translate(18.9004 18.9004) rotate(-180)"/>
</clipPath>
</defs>
</svg>
