<svg width="40" height="40" viewBox="0 0 40 40" fill="none" xmlns="http://www.w3.org/2000/svg">
<g clip-path="url(#clip0_151_2134)">
<path d="M28.25 22C28.25 22.4142 28.5858 22.75 29 22.75C29.4142 22.75 29.75 22.4142 29.75 22L28.25 22ZM10.25 22C10.25 22.4142 10.5858 22.75 11 22.75C11.4142 22.75 11.75 22.4142 11.75 22L10.25 22ZM20 13.75C24.5564 13.75 28.25 17.4437 28.25 22L29.75 22C29.75 16.6152 25.3848 12.25 20 12.25L20 13.75ZM11.75 22C11.75 17.4437 15.4437 13.75 20 13.75L20 12.25C14.6152 12.25 10.25 16.6152 10.25 22L11.75 22Z" fill="#141416"/>
<path d="M16 20.7012L20 17.0002L24 20.7012" stroke="#141416" stroke-width="1.5" stroke-linecap="round" stroke-linejoin="round"/>
<path d="M20 17.2899L20 27" stroke="#141416" stroke-width="1.5" stroke-linecap="round"/>
</g>
<rect x="0.75" y="0.75" width="38.5" height="38.5" rx="19.25" stroke="#008FFD" stroke-width="1.5"/>
<path d="M36.1003 9.4897L35.4706 9.89705V9.89705L36.1003 9.4897ZM39.0569 17.5269L38.3133 17.6243L39.0569 17.5269ZM26.7699 38.0074L27.0321 38.7101L26.7699 38.0074ZM18.3104 39.1427L18.3775 38.3957L18.3104 39.1427ZM10.1618 36.515L9.78028 37.1607L10.1618 36.515ZM29.5813 4.12616C31.9472 5.5893 33.9596 7.56116 35.4706 9.89705L36.73 9.08235C35.0983 6.55981 32.9253 4.43046 30.3702 2.8504L29.5813 4.12616ZM35.4706 9.89705C36.9816 12.2329 37.9528 14.8733 38.3133 17.6243L39.8006 17.4295C39.4111 14.4569 38.3618 11.6049 36.73 9.08235L35.4706 9.89705ZM38.3133 17.6243C38.6737 20.3753 38.4144 23.1671 37.5546 25.795L38.9802 26.2614C39.9099 23.4198 40.1901 20.402 39.8006 17.4295L38.3133 17.6243ZM37.5546 25.795C36.6948 28.4228 35.2564 30.8202 33.345 32.8117L34.4272 33.8504C36.4949 31.6961 38.0505 29.103 38.9802 26.2614L37.5546 25.795ZM33.345 32.8117C31.4337 34.8032 29.0975 36.3384 26.5078 37.3047L27.0321 38.7101C29.8327 37.6651 32.3596 36.0046 34.4272 33.8504L33.345 32.8117ZM26.5078 37.3047C23.918 38.271 21.14 38.644 18.3775 38.3957L18.2433 39.8897C21.2285 40.1579 24.2315 39.755 27.0321 38.7101L26.5078 37.3047ZM18.3775 38.3957C15.615 38.1475 12.9381 37.2844 10.5434 35.8693L9.78028 37.1607C12.3665 38.6889 15.2581 39.6215 18.2433 39.8897L18.3775 38.3957ZM10.5434 35.8693C8.1486 34.4543 6.09699 32.5233 4.53912 30.2182L3.29633 31.0581C4.97864 33.5474 7.19409 35.6326 9.78028 37.1607L10.5434 35.8693Z" fill="#141416"/>
<defs>
<clipPath id="clip0_151_2134">
<rect width="24" height="24" fill="white" transform="translate(32 32) rotate(-180)"/>
</clipPath>
</defs>
</svg>
