<svg width="48" height="48" viewBox="0 0 48 48" fill="none" xmlns="http://www.w3.org/2000/svg">
<g clip-path="url(#clip0_1798_29664)">
<path d="M12.7586 37.954L12.6091 39.4465L12.7586 37.954C11.3238 37.8102 10.189 36.6755 10.0453 35.2407C10.0185 34.9734 10.05 34.5908 10.1769 33.3618C10.1795 33.3362 10.1822 33.311 10.1847 33.286C10.2331 32.8186 10.2694 32.4679 10.2659 32.1247C10.25 30.5681 9.63274 29.0779 8.54328 27.9659C8.30309 27.7208 8.02946 27.4985 7.66472 27.2022C7.64527 27.1863 7.62555 27.1703 7.60556 27.1541C6.64682 26.3748 6.354 26.1265 6.18394 25.9186C5.27104 24.8024 5.27104 23.1976 6.18394 22.0814C6.354 21.8735 6.64682 21.6252 7.60557 20.8459C7.62554 20.8297 7.64525 20.8137 7.66469 20.7979C8.02945 20.5015 8.30308 20.2792 8.54328 20.0341L7.47183 18.9843L8.54328 20.0341C9.63274 18.9221 10.25 17.4319 10.2659 15.8753C10.2694 15.5321 10.2331 15.1814 10.1847 14.714C10.1822 14.689 10.1795 14.6638 10.1769 14.6382C10.05 13.4092 10.0185 13.0266 10.0453 12.7593C10.189 11.3245 11.3238 10.1898 12.7586 10.046C13.0258 10.0192 13.4085 10.0507 14.6374 10.1776C14.663 10.1803 14.6883 10.1829 14.7132 10.1855C15.1807 10.2338 15.5314 10.2701 15.8746 10.2666C17.4312 10.2507 18.9214 9.63347 20.0333 8.54401L18.9836 7.47257L20.0333 8.54401C20.2785 8.30381 20.5008 8.03018 20.7971 7.66542C20.8129 7.64598 20.829 7.62627 20.8452 7.6063C21.6245 6.64755 21.8728 6.35473 22.0807 6.18467C23.1968 5.27178 24.8017 5.27178 25.9179 6.18467C26.1258 6.35473 26.3741 6.64755 27.1534 7.6063C27.1696 7.62628 27.1856 7.646 27.2014 7.66546C27.4977 8.0302 27.72 8.30382 27.9652 8.54401C29.0771 9.63347 30.5673 10.2507 32.124 10.2666C32.4672 10.2701 32.8178 10.2338 33.2853 10.1855C33.3102 10.1829 33.3355 10.1803 33.3611 10.1776C34.5901 10.0507 34.9727 10.0192 35.24 10.046C36.6747 10.1898 37.8095 11.3245 37.9533 12.7593L39.4458 12.6098L37.9533 12.7593C37.98 13.0266 37.9485 13.4092 37.8216 14.6382L37.8138 14.714C37.7654 15.1815 37.7291 15.5321 37.7326 15.8753C37.7485 17.4319 38.3658 18.9221 39.4553 20.0341C39.6954 20.2792 39.9691 20.5015 40.3338 20.7978L40.393 20.8459C41.3517 21.6252 41.6445 21.8735 41.8146 22.0814C42.7275 23.1976 42.7275 24.8024 41.8146 25.9186L42.9757 26.8682L41.8146 25.9186C41.6445 26.1265 41.3517 26.3748 40.393 27.1541L40.3337 27.2022C39.969 27.4985 39.6954 27.7208 39.4553 27.9659C38.3658 29.0779 37.7485 30.5681 37.7326 32.1247C37.7291 32.4679 37.7654 32.8185 37.8138 33.286L37.8216 33.3618C37.9485 34.5908 37.98 34.9734 37.9533 35.2407L39.4458 35.3902L37.9533 35.2407C37.8095 36.6755 36.6747 37.8102 35.24 37.954L35.3895 39.4465L35.24 37.954C34.9727 37.9808 34.59 37.9493 33.3611 37.8224L33.2852 37.8145C32.8178 37.7661 32.4671 37.7299 32.124 37.7334C30.5673 37.7493 29.0771 38.3665 27.9652 39.456C27.7201 39.6962 27.4978 39.9698 27.2015 40.3344L27.1534 40.3937C26.3741 41.3524 26.1258 41.6453 25.9179 41.8153L26.8675 42.9764L25.9179 41.8153C24.8017 42.7282 23.1968 42.7282 22.0807 41.8153C21.8728 41.6453 21.6244 41.3524 20.8452 40.3937L20.7971 40.3345C20.5008 39.9698 20.2785 39.6962 20.0333 39.456C18.9214 38.3665 17.4312 37.7493 15.8746 37.7334C15.5314 37.7299 15.1807 37.7662 14.7133 37.8145L14.6374 37.8224C13.4085 37.9493 13.0259 37.9808 12.7586 37.954Z" stroke="#FCFCFD" stroke-width="3"/>
<path d="M18 24L22 28L30 20" stroke="#FCFCFD" stroke-width="3" stroke-linecap="round" stroke-linejoin="round"/>
</g>
<defs>
<clipPath id="clip0_1798_29664">
<rect width="48" height="48" fill="white"/>
</clipPath>
</defs>
</svg>
