<svg width="32" height="32" viewBox="0 0 32 32" fill="none" xmlns="http://www.w3.org/2000/svg">
<path d="M16 32C24.8366 32 32 24.8366 32 16C32 7.16344 24.8366 0 16 0C7.16344 0 0 7.16344 0 16C0 24.8366 7.16344 32 16 32Z" fill="#F4F5F6"/>
<path fill-rule="evenodd" clip-rule="evenodd" d="M21.1772 17.3496C21.1772 16.1615 20.1967 15.6445 19.4144 15.2322C18.8914 14.9565 18.457 14.7275 18.4635 14.3759C18.4635 14.0997 18.7235 13.8072 19.276 13.7422C19.9326 13.6802 20.594 13.7923 21.1935 14.0672L21.5347 12.4422C20.9571 12.2292 20.3466 12.1192 19.731 12.1172C17.7973 12.1172 16.4811 13.1409 16.4811 14.6034C16.4811 15.6653 17.4369 16.2174 18.1656 16.6383L18.1873 16.6509C18.9185 17.0734 19.1948 17.2521 19.1948 17.5771C19.1948 17.9021 18.5935 18.3083 18.041 18.3083C17.3427 18.3393 16.6483 18.1881 16.0261 17.8696L15.6686 19.4946C16.3616 19.7462 17.0925 19.8781 17.8298 19.8846C19.8773 19.8846 21.2097 18.8771 21.2097 17.3171L21.1772 17.3496ZM15.9119 12.2797L14.2869 19.8034H12.3532L13.9782 12.2797H15.9119ZM24.0403 17.1552L25.0641 14.3277L25.7791 17.1389L24.0403 17.1552ZM27.9997 19.8195H26.2122L25.9359 18.6983H23.4497L23.0435 19.8195H20.996L23.921 12.8484C24.0595 12.5131 24.3869 12.2948 24.7497 12.2959H26.3747L27.9997 19.8195ZM9.97967 19.8034L13.1321 12.2797H11.1496L8.97218 17.3984L8.14344 13.0597C8.07921 12.6146 7.69943 12.2831 7.24971 12.2797H3.99976V12.5072C4.62836 12.6492 5.2389 12.8618 5.81973 13.141C6.07247 13.2739 6.24289 13.5234 6.27472 13.8072L7.8997 19.8034H9.97967Z" fill="#141416"/>
</svg>
