<svg width="32" height="33" viewBox="0 0 32 33" fill="none" xmlns="http://www.w3.org/2000/svg">
<g clip-path="url(#clip0_1361_26433)">
<rect x="3.6665" y="9.0835" width="24.6667" height="19.3333" rx="4.33333" stroke="#141416" stroke-width="2"/>
<path d="M23.4375 17.6693C23.5506 17.7824 23.6461 17.9062 23.7238 18.0405C23.8334 18.2138 23.9148 18.4082 23.9607 18.6027C24.1269 19.2567 23.9537 19.9815 23.4375 20.4977C23.0733 20.8619 22.6066 21.0528 22.1328 21.074C21.9349 21.0881 21.7333 21.0705 21.5424 21.021C21.1995 20.9397 20.8742 20.7629 20.609 20.4977C20.2272 20.1159 20.0292 19.6138 20.0221 19.1118C20.0151 18.5885 20.2131 18.0653 20.609 17.6693C21.0262 17.2521 21.5849 17.0541 22.1293 17.0895C22.6066 17.1142 23.0768 17.3087 23.4375 17.6693Z" stroke="#141416" stroke-width="2" stroke-miterlimit="10" stroke-linecap="round" stroke-linejoin="round"/>
<path d="M5.5 9.75L19.3755 5.01201C22.6241 3.90276 26 6.31732 26 9.75V9.75" stroke="#141416" stroke-width="2"/>
<path d="M13.3332 24.4168C13.3332 24.8435 13.2798 25.2568 13.1732 25.6568C13.0532 26.1902 12.8399 26.7102 12.5599 27.1635C11.6399 28.7102 9.9465 29.7502 7.99984 29.7502C6.6265 29.7502 5.3865 29.2301 4.45317 28.3768C4.05317 28.0301 3.70649 27.6168 3.43982 27.1635C2.94649 26.3635 2.6665 25.4168 2.6665 24.4168C2.6665 22.9768 3.23984 21.6569 4.17318 20.6969C5.14651 19.6969 6.5065 19.0835 7.99984 19.0835C9.57317 19.0835 10.9998 19.7635 11.9598 20.8569C12.8132 21.8035 13.3332 23.0568 13.3332 24.4168Z" fill="#F4F5F6" stroke="#141416" stroke-width="2" stroke-miterlimit="10" stroke-linecap="round" stroke-linejoin="round"/>
<path d="M6 24.4168L7.33333 25.7502L10 23.0835" stroke="#141416" stroke-width="2" stroke-linecap="round" stroke-linejoin="round"/>
</g>
<defs>
<clipPath id="clip0_1361_26433">
<rect width="32" height="32" fill="white" transform="translate(0 0.75)"/>
</clipPath>
</defs>
</svg>
