<svg width="216" height="64" viewBox="0 0 216 64" fill="none" xmlns="http://www.w3.org/2000/svg">
<path d="M208 0H8C3.58172 0 0 3.58172 0 8V56C0 60.4183 3.58172 64 8 64H208C212.418 64 216 60.4183 216 56V8C216 3.58172 212.418 0 208 0Z" fill="black"/>
<path d="M208 1.28C209.782 1.28 211.492 1.988 212.752 3.24824C214.012 4.50849 214.72 6.21775 214.72 8V56C214.72 57.7823 214.012 59.4915 212.752 60.7518C211.492 62.012 209.782 62.72 208 62.72H8C6.21775 62.72 4.50849 62.012 3.24824 60.7518C1.988 59.4915 1.28 57.7823 1.28 56V8C1.28 6.21775 1.988 4.50849 3.24824 3.24824C4.50849 1.988 6.21775 1.28 8 1.28H208ZM208 0H8C5.87827 0 3.84344 0.842855 2.34315 2.34315C0.842855 3.84344 0 5.87827 0 8V56C0 58.1217 0.842855 60.1566 2.34315 61.6569C3.84344 63.1571 5.87827 64 8 64H208C210.122 64 212.157 63.1571 213.657 61.6569C215.157 60.1566 216 58.1217 216 56V8C216 5.87827 215.157 3.84344 213.657 2.34315C212.157 0.842855 210.122 0 208 0Z" fill="#A6A6A6"/>
<g clip-path="url(#clip0_1800_33958)">
<rect x="19.3709" y="17.2978" width="29.4046" height="29.4046" rx="9.9896" stroke="#FCFCFD" stroke-width="2.38416"/>
<path d="M31.549 39.6685L31.5008 34.5721L26.4045 34.524" stroke="#FCFCFD" stroke-width="2.38416" stroke-linecap="round" stroke-linejoin="round"/>
<path d="M31.3038 34.7698L26.1241 39.9495" stroke="#FCFCFD" stroke-width="2.38416" stroke-linecap="round"/>
</g>
<path d="M71.5846 49.3282L67.5046 35.3282H70.3046L73.0046 46.0882L75.7446 35.3282H78.8246L81.5846 46.0882L84.2846 35.3282H87.0846L83.0446 49.3282H80.1646L77.3046 39.0682L74.4246 49.3282H71.5846Z" fill="#FCFCFD"/>
<path d="M96.8848 43.9482C96.8848 44.3482 96.8715 44.6815 96.8448 44.9482H89.3648C89.4715 45.7082 89.7581 46.3015 90.2248 46.7282C90.6915 47.1549 91.2848 47.3682 92.0048 47.3682C92.5915 47.3682 93.0848 47.2349 93.4848 46.9682C93.8848 46.7015 94.1515 46.3215 94.2848 45.8282L96.6448 46.4682C96.3648 47.4149 95.8115 48.1549 94.9848 48.6882C94.1581 49.2215 93.1515 49.4882 91.9648 49.4882C90.3781 49.4882 89.1248 48.9749 88.2048 47.9482C87.2981 46.9082 86.8448 45.6882 86.8448 44.2882C86.8448 42.8749 87.2781 41.6549 88.1448 40.6282C89.0248 39.6015 90.2515 39.0882 91.8248 39.0882C93.4248 39.0882 94.6648 39.5815 95.5448 40.5682C96.4381 41.5415 96.8848 42.6682 96.8848 43.9482ZM89.4248 43.1082H94.1848C94.1181 42.4815 93.8848 41.9749 93.4848 41.5882C93.0848 41.2015 92.5315 41.0082 91.8248 41.0082C91.1981 41.0082 90.6715 41.1882 90.2448 41.5482C89.8315 41.9082 89.5581 42.4282 89.4248 43.1082Z" fill="#FCFCFD"/>
<path d="M103.991 49.4882C103.364 49.4882 102.791 49.3682 102.271 49.1282C101.751 48.8882 101.364 48.5682 101.111 48.1682V49.3282H98.591V35.1682H101.111V40.3682C101.764 39.5149 102.738 39.0882 104.031 39.0882C105.498 39.0882 106.658 39.5682 107.511 40.5282C108.364 41.4749 108.791 42.7282 108.791 44.2882C108.791 45.8482 108.364 47.1082 107.511 48.0682C106.658 49.0149 105.484 49.4882 103.991 49.4882ZM103.631 47.3082C104.431 47.3082 105.071 47.0349 105.551 46.4882C106.044 45.9282 106.291 45.1949 106.291 44.2882C106.291 43.3815 106.044 42.6549 105.551 42.1082C105.071 41.5482 104.431 41.2682 103.631 41.2682C102.818 41.2682 102.164 41.5482 101.671 42.1082C101.191 42.6549 100.951 43.3815 100.951 44.2882C100.951 45.1949 101.191 45.9282 101.671 46.4882C102.164 47.0349 102.818 47.3082 103.631 47.3082Z" fill="#FCFCFD"/>
<path d="M118.425 49.3282V37.6682H114.205V35.3282H125.365V37.6682H121.145V49.3282H118.425Z" fill="#FCFCFD"/>
<path d="M132.147 41.6882C131.787 41.5282 131.361 41.4482 130.867 41.4482C130.094 41.4482 129.447 41.7949 128.927 42.4882C128.421 43.1682 128.167 44.2149 128.167 45.6282V49.3282H125.647V39.2482H128.167V41.0882C128.421 40.5149 128.834 40.0415 129.407 39.6682C129.994 39.2815 130.594 39.0882 131.207 39.0882C131.621 39.0882 131.987 39.1415 132.307 39.2482L132.147 41.6882Z" fill="#FCFCFD"/>
<path d="M137.179 39.0882C138.526 39.0882 139.599 39.4482 140.399 40.1682C141.212 40.8749 141.619 41.8815 141.619 43.1882V49.3282H139.179V47.8682C138.899 48.3615 138.479 48.7549 137.919 49.0482C137.372 49.3415 136.786 49.4882 136.159 49.4882C135.172 49.4882 134.366 49.2082 133.739 48.6482C133.112 48.0749 132.799 47.3549 132.799 46.4882C132.799 44.5682 134.299 43.4482 137.299 43.1282L139.179 42.9482V42.8482C139.179 42.2749 138.999 41.8282 138.639 41.5082C138.279 41.1749 137.792 41.0082 137.179 41.0082C136.632 41.0082 136.172 41.1682 135.799 41.4882C135.439 41.8082 135.232 42.2349 135.179 42.7682L132.939 42.3682C133.099 41.3815 133.572 40.5882 134.359 39.9882C135.159 39.3882 136.099 39.0882 137.179 39.0882ZM136.719 47.6282C137.479 47.6282 138.079 47.3749 138.519 46.8682C138.959 46.3615 139.179 45.7282 139.179 44.9682V44.7482L137.259 44.9682C136.606 45.0482 136.106 45.2149 135.759 45.4682C135.412 45.7215 135.239 46.0349 135.239 46.4082C135.239 46.7682 135.372 47.0615 135.639 47.2882C135.906 47.5149 136.266 47.6282 136.719 47.6282Z" fill="#FCFCFD"/>
<path d="M148.14 49.4882C146.647 49.4882 145.473 49.0149 144.62 48.0682C143.767 47.1082 143.34 45.8482 143.34 44.2882C143.34 42.7282 143.767 41.4749 144.62 40.5282C145.473 39.5682 146.633 39.0882 148.1 39.0882C149.393 39.0882 150.367 39.5149 151.02 40.3682V35.1682H153.54V49.3282H151.02V48.1682C150.767 48.5682 150.38 48.8882 149.86 49.1282C149.34 49.3682 148.767 49.4882 148.14 49.4882ZM148.5 47.3082C149.313 47.3082 149.96 47.0349 150.44 46.4882C150.933 45.9282 151.18 45.1949 151.18 44.2882C151.18 43.3815 150.933 42.6549 150.44 42.1082C149.96 41.5482 149.313 41.2682 148.5 41.2682C147.7 41.2682 147.053 41.5482 146.56 42.1082C146.08 42.6549 145.84 43.3815 145.84 44.2882C145.84 45.1949 146.08 45.9282 146.56 46.4882C147.053 47.0349 147.7 47.3082 148.5 47.3082Z" fill="#FCFCFD"/>
<path d="M165.289 43.9482C165.289 44.3482 165.276 44.6815 165.249 44.9482H157.769C157.876 45.7082 158.163 46.3015 158.629 46.7282C159.096 47.1549 159.689 47.3682 160.409 47.3682C160.996 47.3682 161.489 47.2349 161.889 46.9682C162.289 46.7015 162.556 46.3215 162.689 45.8282L165.049 46.4682C164.769 47.4149 164.216 48.1549 163.389 48.6882C162.563 49.2215 161.556 49.4882 160.369 49.4882C158.783 49.4882 157.529 48.9749 156.609 47.9482C155.703 46.9082 155.249 45.6882 155.249 44.2882C155.249 42.8749 155.683 41.6549 156.549 40.6282C157.429 39.6015 158.656 39.0882 160.229 39.0882C161.829 39.0882 163.069 39.5815 163.949 40.5682C164.843 41.5415 165.289 42.6682 165.289 43.9482ZM157.829 43.1082H162.589C162.523 42.4815 162.289 41.9749 161.889 41.5882C161.489 41.2015 160.936 41.0082 160.229 41.0082C159.603 41.0082 159.076 41.1882 158.649 41.5482C158.236 41.9082 157.963 42.4282 157.829 43.1082Z" fill="#FCFCFD"/>
<path d="M173.496 41.6882C173.136 41.5282 172.709 41.4482 172.216 41.4482C171.442 41.4482 170.796 41.7949 170.276 42.4882C169.769 43.1682 169.516 44.2149 169.516 45.6282V49.3282H166.996V39.2482H169.516V41.0882C169.769 40.5149 170.182 40.0415 170.756 39.6682C171.342 39.2815 171.942 39.0882 172.556 39.0882C172.969 39.0882 173.336 39.1415 173.656 39.2482L173.496 41.6882Z" fill="#FCFCFD"/>
<path d="M67.5048 25.2003V14.0003H68.9608V23.8883H74.5128V25.2003H67.5048Z" fill="#FCFCFD"/>
<path d="M78.695 17.0083C79.687 17.0083 80.487 17.2803 81.095 17.8243C81.703 18.3683 82.007 19.1043 82.007 20.0323V25.2003H80.663V23.8243C80.4283 24.283 80.0657 24.651 79.575 24.9283C79.095 25.195 78.5617 25.3283 77.975 25.3283C77.175 25.3283 76.519 25.1096 76.007 24.6723C75.5057 24.2243 75.255 23.6483 75.255 22.9443C75.255 21.4296 76.535 20.5443 79.095 20.2883L80.663 20.1123V19.9523C80.663 19.3976 80.4817 18.9603 80.119 18.6403C79.767 18.3096 79.2923 18.1443 78.695 18.1443C78.1403 18.1443 77.6817 18.299 77.319 18.6083C76.9563 18.9176 76.7483 19.3443 76.695 19.8883L75.431 19.6483C75.5483 18.8483 75.9057 18.2083 76.503 17.7283C77.111 17.2483 77.8417 17.0083 78.695 17.0083ZM78.183 24.2083C78.9617 24.2083 79.5697 23.9683 80.007 23.4883C80.4443 23.0083 80.663 22.363 80.663 21.5523V21.1683L79.095 21.3443C77.4417 21.5256 76.615 22.0536 76.615 22.9283C76.615 23.3016 76.759 23.611 77.047 23.8563C77.3457 24.091 77.7243 24.2083 78.183 24.2083Z" fill="#FCFCFD"/>
<path d="M91.0194 17.1363V25.2003H89.6594V23.6803C89.3714 24.1816 88.9874 24.5816 88.5074 24.8803C88.0274 25.179 87.4887 25.3283 86.8914 25.3283C86.0487 25.3283 85.3554 25.067 84.8114 24.5443C84.2781 24.0216 84.0114 23.3336 84.0114 22.4803V17.1363H85.3714V22.2243C85.3714 22.779 85.5367 23.2323 85.8674 23.5843C86.1981 23.9256 86.6407 24.0963 87.1954 24.0963C87.9527 24.0963 88.5501 23.7923 88.9874 23.1843C89.4354 22.5656 89.6594 21.7283 89.6594 20.6723V17.1363H91.0194Z" fill="#FCFCFD"/>
<path d="M93.0701 25.2003V17.1363H94.4301V18.6563C94.7181 18.155 95.1021 17.755 95.5821 17.4563C96.0621 17.1576 96.6008 17.0083 97.1981 17.0083C98.0408 17.0083 98.7288 17.2696 99.2621 17.7923C99.8061 18.315 100.078 19.003 100.078 19.8563V25.2003H98.7181V20.1123C98.7181 19.5576 98.5528 19.1096 98.2221 18.7683C97.8915 18.4163 97.4488 18.2403 96.8941 18.2403C96.1368 18.2403 95.5341 18.5496 95.0861 19.1683C94.6488 19.7763 94.4301 20.6083 94.4301 21.6643V25.2003H93.0701Z" fill="#FCFCFD"/>
<path d="M105.665 25.3283C104.47 25.3283 103.505 24.9496 102.769 24.1923C102.033 23.4243 101.665 22.4163 101.665 21.1683C101.665 19.9203 102.033 18.9176 102.769 18.1603C103.505 17.3923 104.47 17.0083 105.665 17.0083C106.604 17.0083 107.388 17.2483 108.017 17.7283C108.657 18.1976 109.052 18.8323 109.201 19.6323L107.857 19.9043C107.772 19.4136 107.532 19.0136 107.137 18.7043C106.742 18.3843 106.262 18.2243 105.697 18.2243C104.908 18.2243 104.273 18.4963 103.793 19.0403C103.324 19.5736 103.089 20.283 103.089 21.1683C103.089 22.0536 103.324 22.7683 103.793 23.3123C104.273 23.8456 104.908 24.1123 105.697 24.1123C106.273 24.1123 106.753 23.963 107.137 23.6643C107.532 23.3656 107.782 22.9496 107.889 22.4163L109.217 22.6883C109.046 23.5203 108.641 24.171 108.001 24.6403C107.372 25.099 106.593 25.3283 105.665 25.3283Z" fill="#FCFCFD"/>
<path d="M110.75 25.2003V13.8723H112.11V18.7203C112.697 17.579 113.614 17.0083 114.862 17.0083C115.779 17.0083 116.51 17.2696 117.054 17.7923C117.609 18.315 117.886 19.0136 117.886 19.8883V25.2003H116.526V20.1443C116.526 19.547 116.35 19.083 115.998 18.7523C115.657 18.411 115.177 18.2403 114.558 18.2403C113.811 18.2403 113.214 18.555 112.766 19.1843C112.329 19.8136 112.11 20.667 112.11 21.7443V25.2003H110.75Z" fill="#FCFCFD"/>
<path d="M123.537 13.8723H125.105V15.6003H123.537V13.8723ZM123.633 25.2003V17.1363H124.993V25.2003H123.633Z" fill="#FCFCFD"/>
<path d="M131.324 25.1363C130.972 25.2643 130.55 25.3283 130.06 25.3283C129.334 25.3283 128.753 25.1203 128.316 24.7043C127.889 24.2776 127.676 23.6376 127.676 22.7843V18.3363H126.172V17.1363H127.676V14.6883H129.036V17.1363H131.196V18.3363H129.036V22.8323C129.036 23.2483 129.142 23.563 129.356 23.7763C129.569 23.9896 129.857 24.0963 130.22 24.0963C130.614 24.0963 130.95 24.027 131.228 23.8883L131.324 25.1363Z" fill="#FCFCFD"/>
<path d="M143.026 24.1603C142.258 24.939 141.277 25.3283 140.082 25.3283C138.887 25.3283 137.906 24.939 137.138 24.1603C136.37 23.371 135.986 22.3736 135.986 21.1683C135.986 19.963 136.37 18.971 137.138 18.1923C137.906 17.403 138.887 17.0083 140.082 17.0083C141.277 17.0083 142.258 17.403 143.026 18.1923C143.805 18.971 144.194 19.963 144.194 21.1683C144.194 22.3736 143.805 23.371 143.026 24.1603ZM138.13 23.2963C138.631 23.8403 139.282 24.1123 140.082 24.1123C140.882 24.1123 141.533 23.8403 142.034 23.2963C142.535 22.7416 142.786 22.0323 142.786 21.1683C142.786 20.3043 142.535 19.6003 142.034 19.0563C141.533 18.5016 140.882 18.2243 140.082 18.2243C139.282 18.2243 138.631 18.5016 138.13 19.0563C137.629 19.6003 137.378 20.3043 137.378 21.1683C137.378 22.0323 137.629 22.7416 138.13 23.2963Z" fill="#FCFCFD"/>
<path d="M145.775 25.2003V17.1363H147.135V18.6563C147.423 18.155 147.807 17.755 148.287 17.4563C148.767 17.1576 149.305 17.0083 149.903 17.0083C150.745 17.0083 151.433 17.2696 151.967 17.7923C152.511 18.315 152.783 19.003 152.783 19.8563V25.2003H151.423V20.1123C151.423 19.5576 151.257 19.1096 150.927 18.7683C150.596 18.4163 150.153 18.2403 149.599 18.2403C148.841 18.2403 148.239 18.5496 147.791 19.1683C147.353 19.7763 147.135 20.6083 147.135 21.6643V25.2003H145.775Z" fill="#FCFCFD"/>
<defs>
<clipPath id="clip0_1800_33958">
<rect width="38.1465" height="38.1465" fill="white" transform="translate(15 12.9268)"/>
</clipPath>
</defs>
</svg>
