<svg width="33" height="32" viewBox="0 0 33 32" fill="none" xmlns="http://www.w3.org/2000/svg">
<path fill-rule="evenodd" clip-rule="evenodd" d="M16.3721 31C24.1041 31 30.3721 24.732 30.3721 17C30.3721 9.26801 24.1041 3 16.3721 3C8.64008 3 2.37207 9.26801 2.37207 17C2.37207 19.5109 3.03307 21.8674 4.19054 23.905L2.37207 31L9.68693 29.3038C11.6734 30.3854 13.951 31 16.3721 31ZM16.3721 28.8462C22.9145 28.8462 28.2182 23.5425 28.2182 17C28.2182 10.4576 22.9145 5.15385 16.3721 5.15385C9.82962 5.15385 4.52592 10.4576 4.52592 17C4.52592 19.5261 5.31657 21.8675 6.66391 23.7902L5.60284 27.7692L9.652 26.7569C11.5614 28.0746 13.8766 28.8462 16.3721 28.8462Z" fill="#BFC8D0"/>
<path d="M28.3721 16C28.3721 22.6274 22.9995 28 16.3721 28C13.8442 28 11.499 27.2184 9.56473 25.8837L5.46298 26.9091L6.53783 22.8784C5.17299 20.9307 4.37207 18.5589 4.37207 16C4.37207 9.37258 9.74465 4 16.3721 4C22.9995 4 28.3721 9.37258 28.3721 16Z" fill="url(#paint0_linear_924_22291)"/>
<path fill-rule="evenodd" clip-rule="evenodd" d="M16.3721 30C24.1041 30 30.3721 23.732 30.3721 16C30.3721 8.26801 24.1041 2 16.3721 2C8.64008 2 2.37207 8.26801 2.37207 16C2.37207 18.5109 3.03307 20.8674 4.19054 22.905L2.37207 30L9.68693 28.3038C11.6734 29.3854 13.951 30 16.3721 30ZM16.3721 27.8462C22.9145 27.8462 28.2182 22.5425 28.2182 16C28.2182 9.45755 22.9145 4.15385 16.3721 4.15385C9.82962 4.15385 4.52592 9.45755 4.52592 16C4.52592 18.5261 5.31657 20.8675 6.66391 22.7902L5.60284 26.7692L9.652 25.7569C11.5614 27.0746 13.8766 27.8462 16.3721 27.8462Z" fill="white"/>
<path d="M12.8721 9.4994C12.5392 8.83082 12.0286 8.89001 11.5127 8.89001C10.5908 8.89001 9.15332 9.99429 9.15332 12.0495C9.15332 13.7338 9.89552 15.5775 12.3965 18.3356C14.8101 20.9974 17.9815 22.3743 20.6143 22.3275C23.2471 22.2806 23.7888 20.015 23.7888 19.2498C23.7888 18.9107 23.5783 18.7415 23.4333 18.6955C22.5361 18.265 20.8814 17.4627 20.5049 17.3119C20.1284 17.1612 19.9318 17.3651 19.8096 17.476C19.4681 17.8014 18.7913 18.7603 18.5596 18.976C18.3278 19.1917 17.9824 19.0825 17.8386 19.001C17.3095 18.7887 15.875 18.1506 14.7315 17.0421C13.3174 15.6713 13.2344 15.1997 12.968 14.7798C12.7548 14.444 12.9112 14.2379 12.9893 14.1478C13.294 13.7963 13.7147 13.2535 13.9033 12.9838C14.092 12.714 13.9422 12.3045 13.8524 12.0495C13.4658 10.9525 13.1384 10.0343 12.8721 9.4994Z" fill="white"/>
<defs>
<linearGradient id="paint0_linear_924_22291" x1="26.8721" y1="7" x2="4.37207" y2="28" gradientUnits="userSpaceOnUse">
<stop stop-color="#5BD066"/>
<stop offset="1" stop-color="#27B43E"/>
</linearGradient>
</defs>
</svg>
