<svg width="25" height="24" viewBox="0 0 25 24" fill="none" xmlns="http://www.w3.org/2000/svg">
<g clip-path="url(#clip0_1034_26622)">
<path d="M10.9106 13.9967C10.9106 13.5824 10.5749 13.2467 10.1606 13.2467C9.74643 13.2467 9.41064 13.5824 9.41064 13.9967H10.9106ZM15.0356 10.0592C15.0356 10.4734 15.3714 10.8092 15.7856 10.8092C16.1999 10.8092 16.5356 10.4734 16.5356 10.0592H15.0356ZM13.7499 7.27344H12.1562V8.77344H13.7499V7.27344ZM12.1562 12.7645H13.8035V11.2645H12.1562V12.7645ZM13.8035 15.2288H12.1428V16.7288H13.8035V15.2288ZM12.1428 15.2288C11.4623 15.2288 10.9106 14.6771 10.9106 13.9967H9.41064C9.41064 15.5056 10.6339 16.7288 12.1428 16.7288V15.2288ZM15.0356 13.9967C15.0356 14.6771 14.484 15.2288 13.8035 15.2288V16.7288C15.3124 16.7288 16.5356 15.5056 16.5356 13.9967H15.0356ZM13.8035 12.7645C14.484 12.7645 15.0356 13.3162 15.0356 13.9967H16.5356C16.5356 12.4877 15.3124 11.2645 13.8035 11.2645V12.7645ZM9.41064 10.019C9.41064 11.5353 10.6399 12.7645 12.1562 12.7645V11.2645C11.4683 11.2645 10.9106 10.7069 10.9106 10.019H9.41064ZM12.1562 7.27344C10.6399 7.27344 9.41064 8.50266 9.41064 10.019H10.9106C10.9106 9.33108 11.4683 8.77344 12.1562 8.77344V7.27344ZM16.5356 10.0592C16.5356 8.52064 15.2884 7.27344 13.7499 7.27344V8.77344C14.46 8.77344 15.0356 9.34907 15.0356 10.0592H16.5356Z" fill="#141416"/>
<path d="M12.9731 6V18" stroke="#141416" stroke-width="1.5" stroke-linecap="round"/>
<path d="M14.8361 3.19305C14.235 3.06653 13.6119 3 12.9731 3C8.00258 3 3.97314 7.02944 3.97314 12C3.97314 16.9706 8.00258 21 12.9731 21C17.9437 21 21.9731 16.9706 21.9731 12C21.9731 11.0757 21.8338 10.1839 21.575 9.34448" stroke="#141416" stroke-width="1.5" stroke-linecap="round"/>
<path d="M18.865 2.55916C18.4511 2.54309 18.1026 2.86559 18.0865 3.27949C18.0704 3.6934 18.3929 4.04196 18.8068 4.05803L18.865 2.55916ZM21.5587 3.41431L22.3081 3.38521C22.2929 2.99385 21.9791 2.68007 21.5878 2.66488L21.5587 3.41431ZM20.9149 6.16612C20.931 6.58002 21.2796 6.90253 21.6935 6.88646C22.1074 6.87039 22.4299 6.52183 22.4138 6.10792L20.9149 6.16612ZM18.8068 4.05803L21.5296 4.16375L21.5878 2.66488L18.865 2.55916L18.8068 4.05803ZM20.8092 3.44341L20.9149 6.16612L22.4138 6.10792L22.3081 3.38521L20.8092 3.44341Z" fill="#141416"/>
<path d="M21.456 3.51617L18.0229 6.94922" stroke="#141416" stroke-width="1.5" stroke-linecap="round"/>
</g>
<defs>
<clipPath id="clip0_1034_26622">
<rect width="24" height="24" fill="white" transform="translate(0.973145)"/>
</clipPath>
</defs>
</svg>
