<svg width="24" height="24" viewBox="0 0 24 24" fill="none" xmlns="http://www.w3.org/2000/svg">
<g clip-path="url(#clip0_207_9171)">
<path d="M9.9375 13.9956C9.9375 13.5813 9.60171 13.2456 9.1875 13.2456C8.77329 13.2456 8.4375 13.5813 8.4375 13.9956H9.9375ZM14.0625 10.0581C14.0625 10.4723 14.3983 10.8081 14.8125 10.8081C15.2267 10.8081 15.5625 10.4723 15.5625 10.0581H14.0625ZM12.7768 7.27234H11.183V8.77234H12.7768V7.27234ZM11.183 12.7634H12.8304V11.2634H11.183V12.7634ZM12.8304 15.2277H11.1696V16.7277H12.8304V15.2277ZM11.1696 15.2277C10.4891 15.2277 9.9375 14.676 9.9375 13.9956H8.4375C8.4375 15.5045 9.66072 16.7277 11.1696 16.7277V15.2277ZM14.0625 13.9956C14.0625 14.676 13.5109 15.2277 12.8304 15.2277V16.7277C14.3393 16.7277 15.5625 15.5045 15.5625 13.9956H14.0625ZM12.8304 12.7634C13.5109 12.7634 14.0625 13.3151 14.0625 13.9956H15.5625C15.5625 12.4866 14.3393 11.2634 12.8304 11.2634V12.7634ZM8.4375 10.0179C8.4375 11.5342 9.66672 12.7634 11.183 12.7634V11.2634C10.4951 11.2634 9.9375 10.7058 9.9375 10.0179H8.4375ZM11.183 7.27234C9.66672 7.27234 8.4375 8.50156 8.4375 10.0179H9.9375C9.9375 9.32998 10.4951 8.77234 11.183 8.77234V7.27234ZM15.5625 10.0581C15.5625 8.51955 14.3153 7.27234 12.7768 7.27234V8.77234C13.4869 8.77234 14.0625 9.34797 14.0625 10.0581H15.5625Z" fill="#FCFCFD"/>
<path d="M12 6V18" stroke="#FCFCFD" stroke-width="1.5" stroke-linecap="round"/>
<path d="M13.863 3.19305C13.2619 3.06653 12.6387 3 12 3C7.02944 3 3 7.02944 3 12C3 16.9706 7.02944 21 12 21C16.9706 21 21 16.9706 21 12C21 11.0757 20.8607 10.1839 20.6018 9.34448" stroke="#FCFCFD" stroke-width="1.5" stroke-linecap="round"/>
<path d="M17.8918 2.55916C17.4779 2.54309 17.1294 2.86559 17.1133 3.27949C17.0972 3.6934 17.4197 4.04196 17.8336 4.05803L17.8918 2.55916ZM20.5854 3.41431L21.3349 3.38521C21.3197 2.99385 21.0059 2.68007 20.6145 2.66488L20.5854 3.41431ZM19.9417 6.16612C19.9578 6.58002 20.3064 6.90253 20.7203 6.88646C21.1342 6.87039 21.4567 6.52183 21.4406 6.10792L19.9417 6.16612ZM17.8336 4.05803L20.5564 4.16375L20.6145 2.66488L17.8918 2.55916L17.8336 4.05803ZM19.836 3.44341L19.9417 6.16612L21.4406 6.10792L21.3349 3.38521L19.836 3.44341Z" fill="#FCFCFD"/>
<path d="M20.4831 3.51678L17.05 6.94983" stroke="#FCFCFD" stroke-width="1.5" stroke-linecap="round"/>
</g>
<defs>
<clipPath id="clip0_207_9171">
<rect width="24" height="24" fill="white"/>
</clipPath>
</defs>
</svg>
