<svg width="33" height="32" viewBox="0 0 33 32" fill="none" xmlns="http://www.w3.org/2000/svg">
<path d="M2.81677 9.94111C2.9453 7.96233 4.53621 6.41157 6.51673 6.31345C9.38465 6.17136 13.4837 6 16.5723 6C19.6608 6 23.7599 6.17136 26.6278 6.31345C28.6083 6.41157 30.1992 7.96233 30.3278 9.94111C30.4509 11.8369 30.5723 14.1697 30.5723 16C30.5723 17.8303 30.4509 20.1631 30.3278 22.0589C30.1992 24.0377 28.6083 25.5884 26.6278 25.6866C23.7599 25.8286 19.6608 26 16.5723 26C13.4837 26 9.38465 25.8286 6.51673 25.6866C4.53621 25.5884 2.9453 24.0377 2.81677 22.0589C2.69363 20.1631 2.57227 17.8303 2.57227 16C2.57227 14.1697 2.69363 11.8369 2.81677 9.94111Z" fill="#FC0D1B"/>
<path d="M13.5723 12V20L21.5723 16L13.5723 12Z" fill="white"/>
</svg>
