<svg width="55" height="20" viewBox="0 0 55 20" fill="none" xmlns="http://www.w3.org/2000/svg">
<path d="M11.2088 3.05229C11.9752 2.24743 12.4938 1.12995 12.3519 0.015625C11.2478 0.0543691 9.90913 0.65137 9.11657 1.45622C8.406 2.16873 7.78388 3.30766 7.94985 4.40005C9.18192 4.48192 10.4411 3.85593 11.2088 3.05229ZM13.5606 10.7482C13.537 8.24985 15.5773 7.05 15.6677 6.99201C14.5206 5.29555 12.7343 5.06333 12.0982 5.03726C10.577 4.88057 9.13223 5.9408 8.36004 5.9408C7.59084 5.9408 6.40126 5.05772 5.13962 5.0816C3.48121 5.10841 1.95299 6.05557 1.1013 7.55684C-0.621705 10.5767 0.659805 15.0503 2.33859 17.5C3.15922 18.6993 4.13638 20.0444 5.41938 19.9957C6.65815 19.9472 7.12499 19.1879 8.61942 19.1879C10.1146 19.1879 10.533 19.9957 11.8411 19.9715C13.1718 19.9472 14.0143 18.7493 14.8277 17.5463C15.7693 16.1556 16.1577 14.8093 16.1795 14.7411C16.1512 14.7245 13.5882 13.7357 13.5606 10.7482Z" fill="#101828"/>
<path d="M24.1794 16.3594V2.35938H29.6994C31.0861 2.35938 32.1928 2.73937 33.0194 3.49938C33.8594 4.25938 34.2794 5.27271 34.2794 6.53938C34.2794 7.80604 33.8594 8.81938 33.0194 9.57938C32.1928 10.3394 31.0861 10.7194 29.6994 10.7194H26.5394V16.3594H24.1794ZM26.5394 8.67938H29.5394C30.2728 8.67938 30.8461 8.49271 31.2594 8.11938C31.6861 7.73271 31.8994 7.20604 31.8994 6.53938C31.8994 5.87271 31.6861 5.35271 31.2594 4.97938C30.8461 4.59271 30.2728 4.39937 29.5394 4.39937H26.5394V8.67938Z" fill="#101828"/>
<path d="M39.3648 6.11938C40.6714 6.11938 41.7181 6.47271 42.5048 7.17938C43.2914 7.87271 43.6848 8.83938 43.6848 10.0794V16.3594H41.5448V14.8194C41.2514 15.326 40.8181 15.7394 40.2448 16.0594C39.6714 16.366 39.0514 16.5194 38.3848 16.5194C37.3848 16.5194 36.5714 16.2394 35.9448 15.6794C35.3181 15.1194 35.0048 14.406 35.0048 13.5394C35.0048 11.6194 36.5514 10.4994 39.6448 10.1794L41.5448 9.97938V9.83938C41.5448 9.22604 41.3448 8.73938 40.9448 8.37938C40.5581 8.01938 40.0314 7.83938 39.3648 7.83938C38.7514 7.83938 38.2448 8.01271 37.8448 8.35938C37.4448 8.69271 37.2114 9.15938 37.1448 9.75938L35.1848 9.39938C35.3448 8.41271 35.8114 7.61938 36.5848 7.01938C37.3581 6.41938 38.2848 6.11938 39.3648 6.11938ZM38.8248 14.8394C39.6648 14.8394 40.3248 14.5794 40.8048 14.0594C41.2848 13.5394 41.5314 12.8594 41.5448 12.0194V11.5994L39.6248 11.8194C37.9714 12.006 37.1448 12.5594 37.1448 13.4794C37.1448 13.8794 37.2981 14.206 37.6048 14.4594C37.9114 14.7127 38.3181 14.8394 38.8248 14.8394Z" fill="#101828"/>
<path d="M52.4768 6.27938H54.7168L49.4168 19.9994H47.1768L48.6968 16.0594L44.7768 6.27938H47.1368L49.7768 13.2594L52.4768 6.27938Z" fill="#101828"/>
</svg>
