<svg width="91" height="20" viewBox="0 0 91 20" fill="none" xmlns="http://www.w3.org/2000/svg">
<g clip-path="url(#clip0_3137_7179)">
<path d="M36.6744 7.74179C36.5973 7.78825 36.506 7.80472 36.4177 7.78811C36.3294 7.7715 36.2502 7.72295 36.1948 7.65158C35.9253 7.26193 35.5639 6.94597 35.1431 6.73214C34.7223 6.5183 34.2554 6.41331 33.7844 6.42661C31.9484 6.42661 30.8211 7.89153 30.8211 9.98245C30.8211 12.0734 31.9699 13.5671 33.8041 13.5671C34.2815 13.579 34.754 13.4677 35.1767 13.2438C35.5995 13.02 35.9586 12.691 36.2199 12.2881C36.2708 12.2109 36.3491 12.1565 36.4388 12.136C36.5284 12.1155 36.6224 12.1306 36.7013 12.178L37.5727 12.6886C37.619 12.7131 37.6596 12.7471 37.6919 12.7884C37.7243 12.8298 37.7476 12.8776 37.7604 12.9286C37.7733 12.9797 37.7753 13.0329 37.7664 13.0847C37.7575 13.1366 37.7378 13.1861 37.7087 13.2298C37.2827 13.8742 36.7011 14.3988 36.0188 14.7545C35.3364 15.1101 34.5755 15.2851 33.8077 15.263C30.8729 15.263 28.8831 13.1161 28.8831 9.98606C28.8831 6.85599 30.8729 4.73619 33.7629 4.73619C34.5181 4.71491 35.267 4.88057 35.9439 5.21867C36.6209 5.55677 37.2053 6.057 37.6461 6.67558C37.6764 6.71716 37.698 6.76459 37.7094 6.8149C37.7208 6.86522 37.7218 6.91736 37.7124 6.9681C37.703 7.01884 37.6834 7.06709 37.6548 7.10987C37.6261 7.15265 37.5891 7.18904 37.5459 7.2168L36.6744 7.74179Z" fill="black"/>
<path fill-rule="evenodd" clip-rule="evenodd" d="M41.5865 11.7836C42.1662 11.6807 42.6923 11.5869 42.9912 11.3596V12.2201C42.9912 13.3441 42.1877 13.8276 41.3288 13.8276C40.6345 13.8276 40.1549 13.5155 40.1549 12.8462C40.1549 12.1245 40.706 11.9441 41.3699 11.8214L41.5865 11.7836ZM43.0896 14.2768V14.7025C43.0898 14.7526 43.1 14.8021 43.1197 14.8481C43.1393 14.894 43.1679 14.9355 43.2039 14.9701C43.2398 15.0046 43.2823 15.0315 43.3287 15.0491C43.3752 15.0666 43.4247 15.0746 43.4743 15.0724H44.4263C44.5221 15.07 44.6131 15.03 44.68 14.9609C44.7469 14.8918 44.7843 14.7991 44.7842 14.7025V9.86762C44.7842 8.11587 43.5495 7.39062 41.8012 7.39062C40.8175 7.39631 39.85 7.64402 38.9828 8.11226C38.8999 8.15885 38.8379 8.23572 38.8096 8.32702C38.7813 8.41833 38.7889 8.5171 38.8307 8.60297L39.1456 9.26506C39.1666 9.3099 39.1965 9.3499 39.2335 9.38257C39.2705 9.41524 39.3137 9.43988 39.3606 9.45494C39.4074 9.47001 39.4568 9.47518 39.5057 9.47014C39.5547 9.46509 39.602 9.44994 39.6449 9.42562C40.2648 9.10127 40.9508 8.92591 41.6491 8.91327C42.2575 8.91327 42.9751 9.08285 42.9751 9.70887C42.9751 10.3655 42.1895 10.4774 41.2196 10.6109L40.9852 10.6452C39.9849 10.7859 38.3618 11.1016 38.3618 12.9364C38.3618 14.4103 39.4212 15.2492 40.944 15.2492C41.9909 15.2438 42.6369 14.8721 43.0896 14.2768Z" fill="black"/>
<path d="M53.2109 14.7012V5.2839C53.2109 5.18736 53.2483 5.09463 53.3152 5.02553C53.3821 4.95642 53.4731 4.91642 53.5688 4.91407H54.6264C54.6747 4.91383 54.7226 4.92322 54.7674 4.9417C54.8121 4.96018 54.8527 4.98738 54.887 5.02175C54.9212 5.05612 54.9484 5.09697 54.967 5.14195C54.9855 5.18694 54.995 5.23518 54.995 5.2839V8.50057C55.2584 8.14635 55.6018 7.86069 55.9968 7.66738C56.3918 7.47408 56.8269 7.37872 57.2659 7.38926C58.8317 7.38926 59.7497 8.51501 59.7497 10.1206V14.7012C59.7497 14.7499 59.7401 14.7981 59.7216 14.8431C59.703 14.8881 59.6759 14.929 59.6416 14.9633C59.6073 14.9977 59.5667 15.0249 59.522 15.0434C59.4773 15.0619 59.4294 15.0713 59.381 15.071H58.3235C58.2262 15.071 58.1329 15.0321 58.0641 14.9627C57.9953 14.8933 57.9566 14.7993 57.9566 14.7012V10.541C57.9566 9.74178 57.7025 9.01834 56.6879 9.01834C55.7269 9.01834 54.995 9.70028 54.995 10.8387V14.7066C54.9927 14.8034 54.9528 14.8955 54.8838 14.9629C54.8149 15.0304 54.7225 15.0679 54.6264 15.0674H53.5688C53.5214 15.0674 53.4744 15.0579 53.4306 15.0394C53.3868 15.021 53.3472 14.9939 53.3139 14.9598C53.2805 14.9257 53.2543 14.8853 53.2366 14.8409C53.219 14.7965 53.2102 14.749 53.2109 14.7012ZM46.3769 13.1551C46.439 13.0829 46.5262 13.0376 46.6205 13.0285C46.7148 13.0195 46.8089 13.0473 46.8834 13.1064C47.4969 13.574 48.2493 13.8187 49.0182 13.801C49.8091 13.801 50.3943 13.5448 50.3943 12.9206C50.3943 12.3505 49.8575 12.2368 48.5583 12.0077C47.1822 11.7768 45.8651 11.3131 45.8651 9.73096C45.8651 8.08203 47.2753 7.38565 48.8858 7.38565C49.8944 7.37088 50.879 7.69666 51.6827 8.31115C51.723 8.34214 51.7564 8.3812 51.781 8.42587C51.8055 8.47054 51.8206 8.51985 51.8253 8.5707C51.83 8.62154 51.8242 8.67282 51.8083 8.72129C51.7924 8.76977 51.7667 8.8144 51.7328 8.85237L51.2747 9.39359C51.214 9.4665 51.1279 9.51326 51.0341 9.52433C50.9403 9.5354 50.8459 9.50992 50.7701 9.45313C50.2047 9.03453 49.5192 8.81346 48.8178 8.8235C48.1414 8.8235 47.549 9.02195 47.549 9.56137C47.549 10.1603 48.3794 10.274 49.2133 10.4165C50.992 10.7214 52.1211 11.2356 52.1211 12.7257C52.1211 14.2899 50.8793 15.2514 48.9001 15.2514C47.8228 15.2841 46.7679 14.937 45.917 14.27C45.8776 14.2384 45.8449 14.199 45.821 14.1543C45.797 14.1096 45.7824 14.0604 45.7779 14.0098C45.7733 13.9592 45.7791 13.9082 45.7947 13.8599C45.8103 13.8116 45.8355 13.767 45.8687 13.7288L46.3769 13.1551Z" fill="black"/>
<path fill-rule="evenodd" clip-rule="evenodd" d="M88.3525 11.3011C88.3525 12.5946 87.7584 13.6626 86.5165 13.6626C85.2746 13.6626 84.5964 12.5964 84.5964 11.3011C84.5964 10.0058 85.2871 8.96664 86.5165 8.96664C87.7459 8.96664 88.3525 10.0076 88.3525 11.3011ZM84.5946 8.51381V7.92929C84.5984 7.87891 84.5916 7.8283 84.5748 7.78072C84.5579 7.73315 84.5313 7.68967 84.4968 7.6531C84.4622 7.61654 84.4204 7.5877 84.374 7.56846C84.3277 7.54922 84.2779 7.54001 84.2278 7.54142H83.1684C83.0727 7.54377 82.9816 7.58377 82.9148 7.65288C82.8479 7.72198 82.8105 7.81471 82.8105 7.91125V17.1662C82.8128 17.2611 82.8512 17.3516 82.9179 17.4188C82.9845 17.4859 83.0742 17.5247 83.1684 17.527H84.2278C84.3235 17.527 84.4155 17.4893 84.4841 17.4219C84.5526 17.3544 84.5923 17.2627 84.5946 17.1662V14.0992C84.8539 14.4653 85.1996 14.7604 85.6005 14.9579C86.0013 15.1554 86.4447 15.2491 86.8905 15.2304C88.9251 15.2304 90.2368 13.5165 90.2368 11.2975C90.2368 9.07849 88.9251 7.38446 86.8905 7.38446C86.4453 7.36702 86.0028 7.46103 85.6025 7.65811C85.2022 7.85518 84.8565 8.14917 84.5964 8.51381H84.5946ZM79.8114 11.3011C79.8114 12.5946 79.2172 13.6645 77.9753 13.6645C76.7335 13.6645 76.057 12.5964 76.057 11.3011C76.057 10.0058 76.746 8.96664 77.9753 8.96664C79.2047 8.96664 79.8131 10.0076 79.8131 11.3011H79.8114ZM76.0535 8.51381V7.92929C76.0559 7.87998 76.0484 7.83068 76.0316 7.7843C76.0148 7.73792 75.989 7.6954 75.9556 7.65925C75.9223 7.6231 75.8821 7.59406 75.8374 7.57382C75.7928 7.55358 75.7445 7.54256 75.6956 7.54142H74.638C74.5897 7.54118 74.5418 7.55057 74.497 7.56905C74.4523 7.58753 74.4117 7.61473 74.3774 7.6491C74.3432 7.68347 74.316 7.72432 74.2974 7.7693C74.2789 7.81429 74.2694 7.86253 74.2694 7.91125V17.1662C74.2717 17.263 74.3116 17.355 74.3806 17.4225C74.4495 17.49 74.5419 17.5275 74.638 17.527H75.6956C75.7898 17.5247 75.8795 17.4859 75.9461 17.4188C76.0127 17.3516 76.0512 17.2611 76.0535 17.1662V14.0992C76.3138 14.4655 76.6605 14.7607 77.0622 14.9581C77.464 15.1556 77.9082 15.2492 78.3547 15.2304C80.384 15.2304 81.6975 13.5165 81.6975 11.2975C81.6975 9.07849 80.384 7.38446 78.3547 7.38446C77.9093 7.36704 77.4665 7.46105 77.0659 7.65811C76.6653 7.85517 76.3193 8.14915 76.0588 8.51381H76.0535ZM67.251 10.9728L68.7327 6.57082L70.1643 10.98L67.251 10.9728ZM70.6385 12.5531L71.4008 14.8209C71.4227 14.8952 71.4678 14.9604 71.5294 15.0069C71.5909 15.0533 71.6657 15.0786 71.7426 15.0788H73.0579C73.1178 15.0815 73.1774 15.0689 73.2312 15.0422C73.285 15.0156 73.3313 14.9757 73.3658 14.9264C73.4004 14.877 73.4221 14.8196 73.4289 14.7596C73.4358 14.6995 73.4276 14.6387 73.405 14.5827L69.9514 5.16544C69.9244 5.09441 69.8769 5.0332 69.815 4.98976C69.7531 4.94632 69.6796 4.92267 69.6042 4.92189H67.9078C67.8341 4.92117 67.762 4.9428 67.7007 4.98399C67.6394 5.02518 67.5919 5.08401 67.5642 5.15282L64.0962 14.5719C64.0757 14.6278 64.069 14.6878 64.0764 14.7469C64.0839 14.8059 64.1055 14.8623 64.1392 14.9112C64.1729 14.9601 64.2179 15 64.2702 15.0277C64.3225 15.0553 64.3807 15.0697 64.4398 15.0698H65.6817C65.7584 15.0713 65.8335 15.0479 65.896 15.0031C65.9585 14.9583 66.0051 14.8944 66.0288 14.8209L66.7947 12.5531H70.6385Z" fill="black"/>
<path fill-rule="evenodd" clip-rule="evenodd" d="M13.6778 0C15.6802 0 16.6644 -1.09682e-06 17.7453 0.342774C18.3251 0.554967 18.8515 0.892933 19.2875 1.33279C19.7235 1.77265 20.0584 2.30366 20.2684 2.88832C20.6067 3.97077 20.6067 4.97023 20.6067 6.97817V13.0218C20.6067 15.028 20.6067 16.0292 20.2684 17.1117C20.0582 17.6965 19.7231 18.2276 19.2868 18.6675C18.8504 19.1074 18.3236 19.4453 17.7435 19.6572C16.6698 20 15.6784 20 13.6868 20H7.67413C5.68603 20 4.69108 20 3.6174 19.6572C3.03729 19.4453 2.51045 19.1074 2.07414 18.6675C1.63783 18.2276 1.3027 17.6965 1.09245 17.1117C0.763183 16.0292 0.763184 15.0388 0.763184 13.0218V6.96915C0.763184 4.96302 0.763183 3.96175 1.10318 2.87931C1.3127 2.29434 1.64737 1.76304 2.08343 1.32311C2.51949 0.883176 3.04626 0.545401 3.62634 0.333755C4.68929 1.09682e-06 5.68603 0 7.67592 0H13.6778Z" fill="#00D54B"/>
<path d="M11.1822 6.55679C12.1575 6.55669 13.1011 6.90577 13.8449 7.54181C13.9216 7.61195 14.0221 7.64974 14.1257 7.64739C14.2292 7.64504 14.3279 7.60273 14.4014 7.52918L15.1691 6.75343C15.2073 6.71482 15.2373 6.66868 15.257 6.6179C15.2767 6.56711 15.2859 6.51277 15.2839 6.45826C15.2819 6.40375 15.2687 6.35024 15.2453 6.30108C15.2218 6.25191 15.1886 6.20815 15.1476 6.17252C14.5459 5.65611 13.8499 5.26327 13.0987 5.0161L13.3277 3.87412C13.3397 3.81554 13.3386 3.75501 13.3244 3.69693C13.3103 3.63885 13.2834 3.58468 13.2459 3.53837C13.2084 3.49206 13.161 3.45477 13.1074 3.42921C13.0538 3.40365 12.9952 3.39047 12.9358 3.39063H11.4613C11.3696 3.39046 11.2807 3.42184 11.2091 3.47957C11.1375 3.53731 11.0876 3.61794 11.0676 3.70815L10.8618 4.72925C8.89342 4.82667 7.231 5.8117 7.231 7.81783C7.231 9.55516 8.6071 10.3021 10.0619 10.8252C11.4398 11.3412 12.1699 11.5324 12.1699 12.2595C12.1699 12.9865 11.4416 13.4448 10.3697 13.4448C9.33064 13.4622 8.32628 13.0676 7.57279 12.3461C7.49791 12.2723 7.39739 12.2311 7.29273 12.2311C7.18807 12.2311 7.08757 12.2723 7.01269 12.3461L6.19131 13.1561C6.15283 13.1933 6.12221 13.238 6.10129 13.2874C6.08037 13.3369 6.06958 13.3901 6.06958 13.4439C6.06958 13.4976 6.08037 13.5508 6.10129 13.6003C6.12221 13.6497 6.15283 13.6944 6.19131 13.7316C6.86056 14.3636 7.67741 14.8147 8.56595 15.0432L8.33689 16.1004C8.32485 16.1595 8.32579 16.2205 8.33966 16.2792C8.35353 16.3379 8.37999 16.3928 8.41717 16.4401C8.45436 16.4874 8.50136 16.5259 8.55489 16.5529C8.60842 16.58 8.66716 16.5948 8.727 16.5965H10.2069C10.2989 16.5963 10.3882 16.5646 10.4601 16.5066C10.5319 16.4486 10.5821 16.3677 10.6024 16.2771L10.8153 15.2741C13.1703 15.1298 14.609 13.8525 14.609 11.9834C14.609 10.2606 13.1774 9.53532 11.4327 8.94358C10.4359 8.56472 9.57521 8.31757 9.57521 7.57248C9.57521 6.8274 10.3787 6.55679 11.1822 6.55679Z" fill="white"/>
</g>
<defs>
<clipPath id="clip0_3137_7179">
<rect width="89.4737" height="20" fill="white" transform="translate(0.763184)"/>
</clipPath>
</defs>
</svg>
