<svg width="34" height="24" viewBox="0 0 34 24" fill="none" xmlns="http://www.w3.org/2000/svg">
<rect x="0.5" y="0.5" width="33" height="23" rx="3.5" fill="white"/>
<rect x="0.5" y="0.5" width="33" height="23" rx="3.5" stroke="#F2F4F7"/>
<path fill-rule="evenodd" clip-rule="evenodd" d="M16.0579 15.5259V12.5912H17.5725C18.1931 12.5912 18.717 12.3833 19.1441 11.9731L19.2466 11.8691C20.0266 11.0199 19.9754 9.69701 19.1441 8.91135C18.7284 8.49542 18.159 8.27012 17.5725 8.28167H15.1411V15.5259H16.0579ZM16.058 11.7015V9.17125H17.5956C17.9259 9.17125 18.2391 9.29835 18.4726 9.52942C18.9681 10.0147 18.9795 10.8234 18.5011 11.326C18.2676 11.5744 17.9373 11.7131 17.5956 11.7015H16.058ZM23.5228 10.9563C23.1299 10.5924 22.5947 10.4075 21.9171 10.4075C21.0459 10.4075 20.3911 10.731 19.9583 11.3723L20.7669 11.8864C21.063 11.4474 21.4673 11.2279 21.9797 11.2279C22.3043 11.2279 22.6175 11.3492 22.8623 11.5687C23.1015 11.7767 23.2381 12.0771 23.2381 12.3948V12.6085C22.8851 12.4121 22.441 12.3081 21.8943 12.3081C21.2566 12.3081 20.7441 12.4583 20.3626 12.7645C19.9811 13.0707 19.7875 13.4751 19.7875 13.9892C19.7761 14.4571 19.9754 14.9019 20.3285 15.2023C20.6872 15.5258 21.1427 15.6876 21.6779 15.6876C22.31 15.6876 22.8111 15.4045 23.1926 14.8384H23.2324V15.5258H24.1093V12.4699C24.1093 11.8286 23.9157 11.3203 23.5228 10.9563ZM21.0347 14.6131C20.8467 14.4745 20.7328 14.2492 20.7328 14.0065C20.7328 13.735 20.8581 13.5097 21.103 13.3307C21.3536 13.1516 21.6668 13.0591 22.037 13.0591C22.5495 13.0534 22.9482 13.1689 23.2329 13.4C23.2329 13.7928 23.0792 14.1336 22.7773 14.4225C22.504 14.6998 22.1338 14.8557 21.7465 14.8557C21.4903 14.8615 21.2397 14.7749 21.0347 14.6131ZM26.0795 17.7037L29.1429 10.5693H28.1464L26.7286 14.1278H26.7115L25.2595 10.5693H24.2631L26.2731 15.2081L25.1343 17.7037H26.0795Z" fill="#3C4043"/>
<path d="M12.8929 11.9528C12.8929 11.6697 12.8701 11.3867 12.8245 11.1094H8.95825V12.7096H11.1733C11.0821 13.2237 10.7861 13.6859 10.3533 13.9747V15.0145H11.6743C12.4487 14.2924 12.8929 13.2237 12.8929 11.9528Z" fill="#4285F4"/>
<path d="M8.95842 16.0184C10.0631 16.0184 10.9969 15.6487 11.6745 15.0132L10.3535 13.9734C9.98335 14.2276 9.51074 14.372 8.95842 14.372C7.88793 14.372 6.98257 13.6383 6.65801 12.6562H5.29712V13.7307C5.9918 15.1345 7.40962 16.0184 8.95842 16.0184Z" fill="#34A853"/>
<path d="M6.65822 12.6631C6.48737 12.149 6.48737 11.5886 6.65822 11.0687V10H5.29712C4.71053 11.1727 4.71053 12.5592 5.29712 13.7319L6.65822 12.6631Z" fill="#FBBC04"/>
<path d="M8.95842 9.34978C9.54491 9.33823 10.1086 9.56353 10.53 9.97369L11.703 8.78365C10.957 8.07887 9.97766 7.69182 8.95842 7.70338C7.40962 7.70338 5.9918 8.59301 5.29712 9.99679L6.65801 11.0713C6.98257 10.0834 7.88793 9.34978 8.95842 9.34978Z" fill="#EA4335"/>
</svg>
