<svg width="59" height="20" viewBox="0 0 59 20" fill="none" xmlns="http://www.w3.org/2000/svg">
<g clip-path="url(#clip0_3137_2113)">
<path d="M20.0364 10.2273C20.0364 9.54751 19.9813 8.86406 19.8637 8.19531H10.4314V12.0461H15.8328C15.6087 13.2881 14.8885 14.3868 13.8339 15.0849V17.5835H17.0564C18.9488 15.8418 20.0364 13.2697 20.0364 10.2273Z" fill="#4285F4"/>
<path d="M10.4314 19.9978C13.1284 19.9978 15.4029 19.1123 17.0601 17.5837L13.8376 15.0851C12.941 15.6951 11.7836 16.0405 10.435 16.0405C7.82619 16.0405 5.61417 14.2804 4.82049 11.9141H1.49512V14.4898C3.19271 17.8667 6.65036 19.9978 10.4314 19.9978Z" fill="#34A853"/>
<path d="M4.81685 11.9202C4.39796 10.6782 4.39796 9.33337 4.81685 8.09141V5.51562H1.49515C0.0768126 8.34127 0.0768126 11.6703 1.49515 14.496L4.81685 11.9202Z" fill="#FBBC04"/>
<path d="M10.4314 3.95805C11.857 3.936 13.235 4.47247 14.2675 5.45722L17.1225 2.60218C15.3147 0.904587 12.9153 -0.0287217 10.4314 0.000673888C6.65036 0.000673888 3.19271 2.13185 1.49512 5.51234L4.81681 8.08813C5.60682 5.71811 7.82251 3.95805 10.4314 3.95805Z" fill="#EA4335"/>
</g>
<path d="M28.2314 15.1797V1.17969H33.7514C35.1381 1.17969 36.2448 1.55969 37.0714 2.31969C37.9114 3.07969 38.3314 4.09302 38.3314 5.35969C38.3314 6.62635 37.9114 7.63969 37.0714 8.39969C36.2448 9.15969 35.1381 9.53969 33.7514 9.53969H30.5914V15.1797H28.2314ZM30.5914 7.49969H33.5914C34.3248 7.49969 34.8981 7.31302 35.3114 6.93969C35.7381 6.55302 35.9514 6.02635 35.9514 5.35969C35.9514 4.69302 35.7381 4.17302 35.3114 3.79969C34.8981 3.41302 34.3248 3.21969 33.5914 3.21969H30.5914V7.49969Z" fill="#101828"/>
<path d="M43.4168 4.93969C44.7234 4.93969 45.7701 5.29302 46.5568 5.99969C47.3434 6.69302 47.7368 7.65969 47.7368 8.89969V15.1797H45.5968V13.6397C45.3034 14.1464 44.8701 14.5597 44.2968 14.8797C43.7234 15.1864 43.1034 15.3397 42.4368 15.3397C41.4368 15.3397 40.6234 15.0597 39.9968 14.4997C39.3701 13.9397 39.0568 13.2264 39.0568 12.3597C39.0568 10.4397 40.6034 9.31969 43.6968 8.99969L45.5968 8.79969V8.65969C45.5968 8.04635 45.3968 7.55969 44.9968 7.19969C44.6101 6.83969 44.0834 6.65969 43.4168 6.65969C42.8034 6.65969 42.2968 6.83302 41.8968 7.17969C41.4968 7.51302 41.2634 7.97969 41.1968 8.57969L39.2368 8.21969C39.3968 7.23302 39.8634 6.43969 40.6368 5.83969C41.4101 5.23969 42.3368 4.93969 43.4168 4.93969ZM42.8768 13.6597C43.7168 13.6597 44.3768 13.3997 44.8568 12.8797C45.3368 12.3597 45.5834 11.6797 45.5968 10.8397V10.4197L43.6768 10.6397C42.0234 10.8264 41.1968 11.3797 41.1968 12.2997C41.1968 12.6997 41.3501 13.0264 41.6568 13.2797C41.9634 13.533 42.3701 13.6597 42.8768 13.6597Z" fill="#101828"/>
<path d="M56.5288 5.09969H58.7688L53.4688 18.8197H51.2288L52.7488 14.8797L48.8288 5.09969H51.1888L53.8288 12.0797L56.5288 5.09969Z" fill="#101828"/>
<defs>
<clipPath id="clip0_3137_2113">
<rect width="20" height="20" fill="white" transform="translate(0.231445)"/>
</clipPath>
</defs>
</svg>
