<svg width="20" height="20" viewBox="0 0 20 20" fill="none" xmlns="http://www.w3.org/2000/svg">
<path d="M5.83154 7.5C4.45071 7.5 3.33154 8.61917 3.33154 10V15.8333C3.33154 17.2142 4.45071 18.3333 5.83154 18.3333H14.1649C15.5457 18.3333 16.6649 17.2142 16.6649 15.8333V10C16.6649 8.61917 15.5457 7.5 14.1649 7.5C13.3334 7.50003 6.66671 7.50002 5.83154 7.5ZM9.99821 10C10.919 10 11.6649 10.7458 11.6649 11.6667C11.6649 12.2583 11.2957 12.6733 10.8315 12.9683V15C10.8315 15.46 10.4582 15.8333 9.99821 15.8333C9.53821 15.8333 9.16488 15.46 9.16488 15V12.9683C8.70071 12.6725 8.33154 12.2583 8.33154 11.6667C8.33154 10.7458 9.07738 10 9.99821 10Z" fill="#98A2B3"/>
<path fill-rule="evenodd" clip-rule="evenodd" d="M9.99992 3.33464C8.61921 3.33464 7.49992 4.45392 7.49992 5.83464V7.5013H5.83325V5.83464C5.83325 3.53345 7.69873 1.66797 9.99992 1.66797C12.3011 1.66797 14.1666 3.53345 14.1666 5.83464V7.5013H12.4999V5.83464C12.4999 4.45392 11.3806 3.33464 9.99992 3.33464Z" fill="#98A2B3"/>
</svg>
