<svg width="34" height="24" viewBox="0 0 34 24" fill="none" xmlns="http://www.w3.org/2000/svg">
<rect width="34" height="24" rx="4" fill="#00D54B"/>
<path d="M17.6015 7.86189C18.7811 7.86178 19.9224 8.28068 20.8219 9.04392C20.9147 9.12809 21.0363 9.17344 21.1615 9.17062C21.2867 9.1678 21.4061 9.11702 21.495 9.02877L22.4235 8.09787C22.4698 8.05154 22.5059 7.99617 22.5298 7.93523C22.5537 7.87428 22.5648 7.80907 22.5624 7.74366C22.5599 7.67825 22.544 7.61404 22.5157 7.55504C22.4873 7.49605 22.4471 7.44353 22.3976 7.40077C21.6698 6.78108 20.828 6.30968 19.9194 6.01307L20.1965 4.6427C20.2109 4.5724 20.2096 4.49976 20.1924 4.43007C20.1753 4.36037 20.1429 4.29537 20.0975 4.23979C20.0521 4.18422 19.9949 4.13947 19.93 4.1088C19.8651 4.07813 19.7942 4.06231 19.7225 4.0625H17.9391C17.8282 4.0623 17.7206 4.09996 17.634 4.16924C17.5474 4.23852 17.4871 4.33528 17.4629 4.44352L17.214 5.66886C14.8333 5.78576 12.8227 6.96779 12.8227 9.37515C12.8227 11.4599 14.487 12.3562 16.2466 12.984C17.9131 13.6032 18.7961 13.8327 18.7961 14.7051C18.7961 15.5776 17.9153 16.1275 16.6189 16.1275C15.3621 16.1484 14.1474 15.6749 13.236 14.809C13.1455 14.7206 13.0239 14.671 12.8973 14.671C12.7707 14.671 12.6492 14.7206 12.5586 14.809L11.5652 15.7811C11.5187 15.8257 11.4816 15.8793 11.4563 15.9387C11.431 15.998 11.418 16.0619 11.418 16.1264C11.418 16.1909 11.431 16.2547 11.4563 16.3141C11.4816 16.3734 11.5187 16.427 11.5652 16.4717C12.3746 17.23 13.3626 17.7714 14.4372 18.0456L14.1602 19.3142C14.1456 19.3851 14.1468 19.4584 14.1635 19.5288C14.1803 19.5993 14.2123 19.6652 14.2573 19.7219C14.3023 19.7787 14.3591 19.8249 14.4239 19.8573C14.4886 19.8897 14.5597 19.9075 14.632 19.9095H16.4219C16.5332 19.9093 16.6412 19.8713 16.7281 19.8017C16.815 19.732 16.8757 19.635 16.9002 19.5263L17.1578 18.3226C20.006 18.1495 21.7461 16.6167 21.7461 14.3739C21.7461 12.3064 20.0147 11.4361 17.9045 10.726C16.6989 10.2714 15.6579 9.97483 15.6579 9.08073C15.6579 8.18663 16.6297 7.86189 17.6015 7.86189Z" fill="white"/>
</svg>
