<svg width="34" height="24" viewBox="0 0 34 24" fill="none" xmlns="http://www.w3.org/2000/svg">
<rect x="0.5" y="0.5" width="33" height="23" rx="3.5" fill="white"/>
<rect x="0.5" y="0.5" width="33" height="23" rx="3.5" stroke="#F2F4F7"/>
<path fill-rule="evenodd" clip-rule="evenodd" d="M10.7503 15.8598H8.69056L7.146 9.79394C7.07269 9.51491 6.91703 9.26823 6.68806 9.15197C6.11664 8.85979 5.48696 8.62727 4.80005 8.50999V8.27646H8.11813C8.57607 8.27646 8.91953 8.62727 8.97677 9.03469L9.77817 13.4102L11.8369 8.27646H13.8394L10.7503 15.8598ZM14.9843 15.8598H13.039L14.6408 8.27646H16.5861L14.9843 15.8598ZM19.1028 10.3773C19.16 9.96884 19.5035 9.7353 19.9042 9.7353C20.5338 9.67667 21.2197 9.79394 21.7922 10.0851L22.1356 8.45237C21.5632 8.21884 20.9335 8.10156 20.3621 8.10156C18.4741 8.10156 17.1003 9.15197 17.1003 10.6098C17.1003 11.7188 18.0734 12.3012 18.7603 12.652C19.5035 13.0018 19.7897 13.2353 19.7324 13.5851C19.7324 14.1098 19.16 14.3433 18.5886 14.3433C17.9017 14.3433 17.2147 14.1684 16.5861 13.8763L16.2426 15.51C16.9295 15.8012 17.6727 15.9185 18.3596 15.9185C20.4766 15.9761 21.7922 14.9267 21.7922 13.3516C21.7922 11.368 19.1028 11.2518 19.1028 10.3773ZM28.6 15.8598L27.0555 8.27646H25.3965C25.053 8.27646 24.7095 8.50999 24.5951 8.85979L21.7349 15.8598H23.7374L24.1371 14.7518H26.5976L26.8265 15.8598H28.6ZM25.6827 10.3186L26.2541 13.1767H24.6523L25.6827 10.3186Z" fill="#172B85"/>
</svg>
