<svg width="34" height="24" viewBox="0 0 34 24" fill="none" xmlns="http://www.w3.org/2000/svg">
<rect width="34" height="24" rx="4" fill="white"/>
<g clip-path="url(#clip0_3137_6156)">
<path fill-rule="evenodd" clip-rule="evenodd" d="M11.9058 5.0678L9.01214 11.1459C9.00113 11.1685 8.99764 11.1941 9.00218 11.2188C9.00673 11.2435 9.01906 11.2662 9.03739 11.2834L16.8525 18.7721C16.8747 18.7934 16.9042 18.8053 16.935 18.8053C16.9657 18.8053 16.9953 18.7934 17.0175 18.7721L24.8326 11.2839C24.8509 11.2666 24.8632 11.244 24.8678 11.2193C24.8723 11.1945 24.8688 11.169 24.8578 11.1464L21.9642 5.06827C21.9548 5.04786 21.9398 5.03057 21.9209 5.01846C21.902 5.00636 21.88 4.99995 21.8576 5.00001H12.0133C11.9908 4.99973 11.9686 5.00598 11.9495 5.01801C11.9305 5.03004 11.9153 5.04733 11.9058 5.0678Z" fill="#50AF95"/>
<path fill-rule="evenodd" clip-rule="evenodd" d="M17.9392 11.772C17.8831 11.7762 17.5932 11.7935 16.9466 11.7935C16.4323 11.7935 16.0671 11.778 15.939 11.772C13.9514 11.6845 12.4679 11.3386 12.4679 10.9243C12.4679 10.5101 13.9514 10.1645 15.939 10.0757V11.4274C16.069 11.4367 16.4411 11.4587 16.9554 11.4587C17.5726 11.4587 17.8817 11.433 17.9373 11.4279V10.0766C19.9206 10.165 21.4009 10.511 21.4009 10.9243C21.4009 11.3376 19.9211 11.6836 17.9373 11.7715L17.9392 11.772ZM17.9392 9.93684V8.72729H20.7071V6.88281H13.1711V8.72729H15.9385V9.93637C13.6891 10.0397 11.9976 10.4853 11.9976 11.0192C11.9976 11.5532 13.6891 11.9983 15.9385 12.1021V15.978H17.9387V12.1007C20.1829 11.9973 21.8717 11.5522 21.8717 11.0187C21.8717 10.4853 20.1843 10.0402 17.9387 9.93637L17.9392 9.93684Z" fill="white"/>
</g>
<defs>
<clipPath id="clip0_3137_6156">
<rect width="15.87" height="13.8053" fill="white" transform="translate(9 5)"/>
</clipPath>
</defs>
</svg>
