<svg width="24" height="24" viewBox="0 0 24 24" fill="none" xmlns="http://www.w3.org/2000/svg">
<path d="M22.125 8.67392V19.8744C22.1244 20.471 21.8872 21.0429 21.4653 21.4648C21.0435 21.8866 20.4716 22.1238 19.875 22.1244H16.125C15.7272 22.1244 15.3456 21.9664 15.0643 21.6851C14.783 21.4038 14.625 21.0222 14.625 20.6244V16.4994C14.625 16.3005 14.546 16.1097 14.4053 15.9691C14.2647 15.8284 14.0739 15.7494 13.875 15.7494H10.125C9.92609 15.7494 9.73532 15.8284 9.59467 15.9691C9.45402 16.1097 9.375 16.3005 9.375 16.4994V20.6244C9.375 21.0222 9.21696 21.4038 8.93566 21.6851C8.65436 21.9664 8.27282 22.1244 7.875 22.1244H4.125C3.52845 22.1238 2.9565 21.8866 2.53467 21.4648C2.11284 21.0429 1.8756 20.471 1.875 19.8744V8.67392C1.87556 8.4149 1.94287 8.1604 2.07043 7.93497C2.19799 7.70954 2.3815 7.52078 2.60325 7.38692L11.2282 2.21192C11.4614 2.07198 11.7282 1.99805 12.0002 1.99805C12.2721 1.99805 12.539 2.07198 12.7721 2.21192L21.3971 7.38692C21.6188 7.52083 21.8022 7.7096 21.9297 7.93503C22.0572 8.16046 22.1245 8.41494 22.125 8.67392Z" fill="#777E90"/>
</svg>
