<svg width="24" height="24" viewBox="0 0 24 24" fill="none" xmlns="http://www.w3.org/2000/svg">
<path d="M8.57141 12.0002C9.41918 12.0002 10.2479 11.7488 10.9528 11.2778C11.6577 10.8068 12.2071 10.1373 12.5315 9.35409C12.8559 8.57084 12.9407 7.70898 12.7752 6.87751C12.6098 6.04603 12.2015 5.2823 11.602 4.68288C11.0025 4.08347 10.2387 3.67531 9.40715 3.51C8.57565 3.3447 7.71381 3.42969 6.93061 3.75422C6.14741 4.07875 5.47804 4.62825 5.00715 5.33322C4.53627 6.03819 4.28501 6.86696 4.28516 7.71474C4.28635 8.85109 4.73834 9.94054 5.54193 10.744C6.34552 11.5474 7.43506 11.9992 8.57141 12.0002Z" fill="#777E90"/>
<path d="M14.1788 15.5404C13.0926 14.4264 11.699 13.6614 10.176 13.3432C8.65303 13.0249 7.06973 13.1679 5.62839 13.7539C4.18705 14.3398 2.95309 15.3422 2.08414 16.6328C1.21519 17.9234 0.750703 19.4438 0.75 20.9997C0.75 21.1986 0.829018 21.3894 0.96967 21.53C1.11032 21.6707 1.30109 21.7497 1.5 21.7497H15.645C15.8439 21.7497 16.0347 21.6707 16.1753 21.53C16.316 21.3894 16.395 21.1986 16.395 20.9997C16.3979 20.2044 16.2751 19.4137 16.0312 18.6567C15.6681 17.4864 15.0333 16.4186 14.1788 15.5404Z" fill="#777E90"/>
<path d="M17.625 12.375C19.3854 12.375 20.8125 10.9479 20.8125 9.1875C20.8125 7.42709 19.3854 6 17.625 6C15.8646 6 14.4375 7.42709 14.4375 9.1875C14.4375 10.9479 15.8646 12.375 17.625 12.375Z" fill="#777E90"/>
<path d="M17.625 13.2529C16.6197 13.2567 15.6338 13.5305 14.7705 14.0457C14.9333 14.1912 15.0975 14.3344 15.2513 14.4919C16.2725 15.5416 17.0311 16.8178 17.4653 18.2164C17.6139 18.6769 17.7236 19.1491 17.793 19.6279H22.5C22.6989 19.6279 22.8897 19.5489 23.0303 19.4083C23.171 19.2676 23.25 19.0768 23.25 18.8779C23.2484 17.3866 22.6553 15.9568 21.6007 14.9022C20.5462 13.8477 19.1164 13.2545 17.625 13.2529Z" fill="#777E90"/>
</svg>
