<svg width="24" height="24" viewBox="0 0 24 24" fill="none" xmlns="http://www.w3.org/2000/svg">
<g clip-path="url(#clip0_238_12447)">
<path d="M9.89044 7.26555C4.46264 7.26555 4.93638e-05 10.9981 4.93638e-05 15.5861C4.93638e-05 17.4201 0.711424 19.284 2.016 20.7287L0.173768 22.8339C-0.00749751 23.0412 -0.0514663 23.3358 0.0632369 23.5871C0.177237 23.8384 0.427174 23.9998 0.703174 23.9998H10.5936C14.6011 23.9998 19.7808 20.5488 19.7808 15.5861C19.7808 10.9981 15.3182 7.26555 9.89044 7.26555ZM5.62491 16.8749C4.84969 16.8749 4.21871 16.2439 4.21871 15.4687C4.21871 14.6935 4.84974 14.0625 5.62491 14.0625C6.40008 14.0625 7.03111 14.6935 7.03111 15.4687C7.03116 16.2439 6.40013 16.8749 5.62491 16.8749ZM9.89044 16.8749C9.11522 16.8749 8.48424 16.2439 8.48424 15.4687C8.48424 14.6935 9.11527 14.0625 9.89044 14.0625C10.6656 14.0625 11.2966 14.6935 11.2966 15.4687C11.2966 16.2439 10.6657 16.8749 9.89044 16.8749ZM14.156 16.8749C13.3808 16.8749 12.7498 16.2439 12.7498 15.4687C12.7498 14.6935 13.3808 14.0625 14.156 14.0625C14.9311 14.0625 15.5622 14.6935 15.5622 15.4687C15.5622 16.2439 14.9312 16.8749 14.156 16.8749Z" fill="#777E90"/>
<path d="M23.8299 14.3073L22.1744 12.3758C23.3561 11.0424 23.9995 9.41639 23.9995 7.73419C23.9995 3.46955 19.899 0 14.8591 0C10.3017 0 6.42976 2.84011 5.74609 6.53672C7.01772 6.10462 8.44379 5.859 9.89049 5.859C16.0477 5.859 21.1063 10.1595 21.1802 15.4684H23.2964C23.897 15.4684 24.2196 14.7612 23.8299 14.3073Z" fill="#777E90"/>
</g>
<defs>
<clipPath id="clip0_238_12447">
<rect width="24" height="24" fill="white"/>
</clipPath>
</defs>
</svg>
