<svg width="27" height="24" viewBox="0 0 27 24" fill="none" xmlns="http://www.w3.org/2000/svg">
<g clip-path="url(#clip0_238_12506)">
<path d="M11.9361 6.13322e-07C14.5316 0.00179299 16.5428 2.48514 16.2457 5.33368C16.1399 6.34906 15.768 7.24212 15.138 7.99581C15.0294 8.12576 15.0058 8.21135 15.0928 8.37401C16.1562 10.3613 17.2119 12.3535 18.2663 14.3462C18.3363 14.4784 18.3961 14.5317 18.5528 14.4905C21.047 13.8358 23.4489 15.5525 23.9266 18.3231C24.3812 20.9606 22.6704 23.5833 20.2555 23.9507C18.0376 24.2881 16.0455 22.8744 15.3928 20.4954C15.3574 20.3668 15.302 20.3157 15.1787 20.3157C13.0149 20.3189 10.8515 20.3189 8.68775 20.3157C8.56241 20.3157 8.51195 20.3722 8.47573 20.4981C7.82989 22.7346 5.98027 24.0905 3.87305 23.8781C2.0507 23.6944 0.447698 22.0987 0.0891694 20.1123C-0.366622 17.5855 0.962498 15.1985 3.21704 14.5071C3.917 14.2925 4.62511 14.2938 5.32833 14.4923C5.46751 14.5317 5.53343 14.4999 5.60384 14.3668C6.66599 12.3526 7.73181 10.3411 8.79967 8.33099C8.8603 8.21673 8.85827 8.14593 8.77362 8.04331C6.87517 5.7401 7.32323 2.28618 9.72712 0.66587C10.3506 0.244661 11.1653 -0.000447482 11.9361 6.13322e-07ZM11.9349 17.931C12.9995 17.931 14.0636 17.9287 15.1282 17.9337C15.2756 17.9341 15.3557 17.8996 15.4025 17.7217C15.5861 17.0227 15.9076 16.4034 16.3634 15.8747C16.4622 15.76 16.4643 15.6762 16.3947 15.5458C15.3277 13.5446 14.2631 11.542 13.2029 9.53637C13.1301 9.39835 13.0589 9.38133 12.925 9.41897C12.2625 9.60493 11.5963 9.61165 10.935 9.41269C10.8039 9.37326 10.7404 9.40866 10.6749 9.53278C9.61602 11.5389 8.55468 13.5437 7.48845 15.5458C7.41357 15.686 7.42049 15.7725 7.52142 15.8908C7.95523 16.3989 8.26981 16.9909 8.44684 17.659C8.50788 17.8884 8.60351 17.9382 8.80211 17.9364C9.84595 17.9261 10.8902 17.9314 11.9345 17.9314L11.9349 17.931ZM6.50118 19.131C6.5024 17.8109 5.54117 16.7377 4.35407 16.7355C3.14053 16.7332 2.1675 17.8033 2.16872 19.1395C2.16994 20.4345 3.14216 21.5063 4.3207 21.5126C5.52652 21.5193 6.49955 20.4565 6.50077 19.131H6.50118ZM21.7002 19.122C21.699 17.8104 20.7235 16.7323 19.5405 16.7355C18.3224 16.7386 17.3616 17.8055 17.3677 19.1485C17.3738 20.4511 18.3395 21.5108 19.523 21.5131C20.7239 21.5153 21.7014 20.4421 21.7002 19.1225V19.122ZM11.9178 2.39597C10.7087 2.41748 9.75398 3.49022 9.76497 4.81434C9.77555 6.11919 10.7685 7.19059 11.9507 7.17266C13.1586 7.15429 14.1222 6.07214 14.1031 4.75519C14.084 3.43913 13.0983 2.37491 11.9178 2.39597Z" fill="#777E90"/>
</g>
<defs>
<clipPath id="clip0_238_12506">
<rect width="26.426" height="24" fill="white"/>
</clipPath>
</defs>
</svg>
