<svg width="24" height="24" viewBox="0 0 24 24" fill="none" xmlns="http://www.w3.org/2000/svg">
<g clip-path="url(#clip0_238_12492)">
<path d="M0.986328 8.8586C1.01257 5.30383 3.06261 2.07887 6.18584 0.704452C10.8107 -1.33076 16.0886 1.20876 17.6093 6.20054C18.6825 9.72323 17.4976 13.6317 14.6784 15.8833C14.5611 15.9771 14.4928 15.9815 14.3856 15.8664C13.977 15.4267 13.5606 14.9944 13.1419 14.5648C12.3112 13.7127 11.2215 13.5886 10.2304 14.2354C8.89111 15.1098 7.55366 15.9869 6.21883 16.8688C6.10262 16.9455 6.01416 16.9482 5.89496 16.8868C3.13196 15.4662 1.53436 13.1599 1.08079 9.98732C1.02756 9.61447 1.01707 9.23497 0.986328 8.8586ZM10.2541 5.21736C10.2541 5.11995 10.2548 5.04287 10.2541 4.96619C10.2522 4.76431 10.2631 4.56087 10.2439 4.36017C10.2046 3.94115 9.87471 3.64303 9.4815 3.65242C9.09091 3.66181 8.77941 3.98145 8.76067 4.4032C8.7513 4.61134 8.74755 4.82104 8.75954 5.02879C8.76929 5.19311 8.71494 5.2604 8.55937 5.3097C7.71109 5.57769 7.18106 6.17159 7.03787 7.08474C6.82346 8.45406 7.79318 9.61604 9.14788 9.65086C9.41628 9.65751 9.68579 9.64577 9.95343 9.66455C10.2466 9.68528 10.47 9.93528 10.4985 10.2408C10.5258 10.5366 10.3571 10.8238 10.0869 10.9114C9.98192 10.9455 9.86534 10.9505 9.75439 10.9513C9.11077 10.9548 8.46716 10.9509 7.82355 10.9541C7.34637 10.9564 7.00938 11.2788 7.00451 11.7287C6.99963 12.1861 7.33775 12.51 7.82767 12.5155C8.05895 12.5178 8.29098 12.5288 8.52114 12.5124C8.71793 12.4983 8.77454 12.5781 8.75917 12.771C8.74567 12.9392 8.75354 13.1098 8.75804 13.2792C8.77004 13.7432 9.07217 14.0707 9.48975 14.0769C9.91782 14.0828 10.2361 13.7569 10.2522 13.2874C10.2593 13.0789 10.2597 12.8699 10.2522 12.6614C10.2477 12.53 10.2859 12.4744 10.4182 12.4372C11.3973 12.1634 12.0346 11.2514 11.999 10.1955C11.9649 9.18528 11.244 8.31439 10.2597 8.12934C9.98604 8.07769 9.69966 8.09999 9.4189 8.08982C9.30645 8.08552 9.19324 8.09334 9.08191 8.08082C8.73368 8.04287 8.4934 7.75962 8.50502 7.40868C8.51664 7.06009 8.77903 6.78661 9.12689 6.78348C9.80162 6.77683 10.4763 6.78153 11.1514 6.78035C11.2324 6.78035 11.3153 6.78231 11.394 6.76588C11.7729 6.68724 12.0338 6.31948 11.9986 5.92198C11.9645 5.53661 11.6477 5.22675 11.2665 5.21893C10.937 5.21189 10.6072 5.21736 10.2541 5.21736Z" fill="#777E90"/>
<path d="M20.988 16.0793C20.4846 16.6098 20.0033 17.1207 19.5182 17.6282C18.4416 18.7546 17.3636 19.8797 16.2851 21.0042C15.7881 21.5222 15.2172 21.5229 14.7213 21.0065C13.6421 19.8825 12.5629 18.7589 11.489 17.6297C11.3836 17.519 11.312 17.5167 11.1891 17.5965C8.02649 19.645 4.8609 21.6884 1.69794 23.7362C1.41943 23.9165 1.13754 24.0574 0.799804 23.9764C0.390845 23.8782 0.0827203 23.5417 0.0141232 23.1251C-0.0552236 22.7053 0.134074 22.2898 0.510047 22.0464C1.40706 21.4658 2.30519 20.8876 3.20258 20.3078C5.76728 18.6509 8.33162 16.9932 10.8967 15.3363C11.3952 15.0143 11.8586 15.0679 12.2713 15.4979C13.2924 16.5621 14.3123 17.6274 15.333 18.692C15.3851 18.7463 15.4399 18.7976 15.4807 18.8379C16.8429 17.4165 18.1927 16.0077 19.5561 14.5848C19.5171 14.5417 19.4683 14.4846 19.417 14.4306C19.0508 14.0476 18.6808 13.6681 18.3179 13.2815C18.0102 12.9537 17.9127 12.5679 18.075 12.1325C18.2306 11.7154 18.5893 11.4772 19.0489 11.4764C20.3549 11.4744 21.6604 11.4736 22.9664 11.4764C23.5673 11.4776 23.9972 11.9243 23.9984 12.5468C24.0006 13.9161 24.0002 15.2855 23.9984 16.6548C23.998 17.1266 23.7903 17.4721 23.375 17.654C22.963 17.8344 22.5889 17.7319 22.2737 17.4099C21.903 17.0315 21.5398 16.6454 21.1728 16.2632C21.1207 16.2088 21.0663 16.1567 20.988 16.0789V16.0793Z" fill="#777E90"/>
</g>
<defs>
<clipPath id="clip0_238_12492">
<rect width="24" height="24" fill="white"/>
</clipPath>
</defs>
</svg>
