<svg width="24" height="24" viewBox="0 0 24 24" fill="none" xmlns="http://www.w3.org/2000/svg">
<g clip-path="url(#clip0_238_12470)">
<path d="M1.18496 6.95993C1.24152 7.00787 1.28536 7.04008 1.32357 7.07829C1.96418 7.71761 2.60217 8.35956 3.24615 8.99552C3.34018 9.0884 3.35104 9.17192 3.31995 9.29477C3.20419 9.75357 3.0712 10.2109 3.00114 10.6772C2.90599 11.3116 2.87339 11.9521 2.9206 12.5978C2.97267 13.3113 3.09929 14.0071 3.30796 14.6888C3.517 15.3708 3.80696 16.0176 4.17222 16.6319C4.50564 17.1922 4.89263 17.7105 5.33618 18.1869C5.9176 18.8116 6.57357 19.3435 7.30522 19.7865C8.06946 20.2491 8.88239 20.5888 9.74516 20.8113C10.6023 21.0322 11.4744 21.1326 12.3585 21.0918C13.3045 21.048 14.2238 20.8674 15.1173 20.5431C16.0962 20.1877 16.9826 19.6749 17.785 19.0184C18.3567 18.551 18.8602 18.0146 19.3037 17.4217C19.751 16.8236 20.1152 16.1775 20.4055 15.4929C20.6318 14.9588 20.8 14.4019 20.9143 13.8319C21.0517 13.145 21.1244 12.451 21.0989 11.7498C21.0634 10.7648 20.8843 9.80825 20.5456 8.87941C20.2939 8.18915 19.9649 7.54008 19.5562 6.93334C19.1333 6.30525 18.6391 5.73746 18.0723 5.23034C17.5767 4.7869 17.0421 4.40038 16.4656 4.07341C15.6961 3.63708 14.879 3.31798 14.0133 3.12847C13.1808 2.94607 12.3428 2.86592 11.4872 2.92098C10.8735 2.96068 10.2745 3.05881 9.67997 3.203C9.53462 3.23821 9.39226 3.28577 9.2499 3.33184C9.16374 3.35993 9.09555 3.34607 9.02962 3.28015C8.36429 2.61274 7.69708 1.94682 7.03137 1.28015C7.01039 1.25918 6.99615 1.23109 6.97068 1.19401C7.01001 1.1648 7.03923 1.13334 7.07557 1.11798C7.45544 0.960301 7.83157 0.790264 8.21893 0.653185C8.83069 0.436705 9.45595 0.262922 10.0981 0.161049C10.4918 0.0985025 10.8885 0.0269669 11.2852 0.0187272C11.9457 0.005244 12.6088 0.0123601 13.2674 0.0606748C13.9391 0.109739 14.5992 0.255806 15.248 0.441574C16.1393 0.696631 16.9889 1.05094 17.8 1.50075C18.9175 2.12098 19.9084 2.90188 20.7794 3.83446C21.429 4.53034 21.9883 5.29364 22.4581 6.12285C22.8874 6.88053 23.2354 7.67342 23.4861 8.506C23.6153 8.93484 23.7101 9.37492 23.8041 9.8135C23.9828 10.6476 24.0117 11.4948 23.997 12.3446C23.9858 12.9944 23.912 13.6363 23.7903 14.2753C23.5644 15.4618 23.1545 16.582 22.587 17.6446C22.1561 18.4506 21.6332 19.1944 21.0308 19.8835C20.2362 20.7929 19.3251 21.5641 18.3031 22.2038C17.6779 22.5952 17.0189 22.9221 16.3311 23.1907C15.7429 23.4203 15.1405 23.6 14.525 23.7386C13.4453 23.9821 12.3507 24.0352 11.2508 23.9821C10.3509 23.9386 9.46643 23.7776 8.60442 23.5158C7.31683 23.1251 6.12215 22.5424 5.02787 21.7543C4.34642 21.2633 3.71967 20.712 3.15399 20.0937C2.52462 19.4056 1.97954 18.6551 1.52212 17.8401C0.968797 16.8543 0.558207 15.8135 0.302712 14.7135C0.173092 14.1554 0.0584564 13.5918 0.0415982 13.0157C0.0258639 12.4798 -0.000734508 11.9431 0.0105043 11.4075C0.0213684 10.8839 0.0831817 10.3614 0.209431 9.8517C0.347293 9.29589 0.488527 8.73971 0.660105 8.19364C0.77549 7.82623 0.94557 7.47567 1.09317 7.11836C1.1134 7.06892 1.14674 7.0251 1.18496 6.96031V6.95993Z" fill="#777E90"/>
<path d="M18.3638 11.9869C18.3417 13.3225 17.9585 14.5378 17.1954 15.6247C16.4173 16.733 15.3852 17.5165 14.1039 17.976C13.2356 18.2877 12.3425 18.4008 11.4332 18.3169C10.2479 18.2075 9.16863 17.7944 8.20997 17.0749C7.50042 16.5423 6.925 15.8948 6.48519 15.1281C6.07085 14.4056 5.81161 13.6273 5.70597 12.8011C5.62805 12.1914 5.6288 11.5798 5.7498 10.976C5.81686 10.6412 5.92513 10.3142 6.01391 9.98352C6.03676 9.89775 6.09071 9.86405 6.17837 9.86517C6.39078 9.86817 6.6032 9.85918 6.81486 9.87004C6.88192 9.87341 6.96134 9.90974 7.00967 9.9573C7.49855 10.4393 7.98107 10.9277 8.46883 11.4109C8.54526 11.4865 8.56099 11.567 8.54825 11.6648C8.35607 13.136 9.23831 14.5959 10.5926 15.1862C12.1462 15.8633 13.9548 15.3453 14.8925 13.9341C15.4878 13.0378 15.6422 12.0573 15.3451 11.0356C15.0233 9.92734 14.3017 9.15169 13.2116 8.73783C12.7133 8.54869 12.2005 8.47041 11.6693 8.54794C11.5629 8.5633 11.4804 8.53895 11.4007 8.45805C10.9267 7.97865 10.4487 7.50337 9.96996 7.02884C9.89915 6.95842 9.86169 6.88352 9.86469 6.78127C9.87031 6.58801 9.86993 6.39438 9.86469 6.20075C9.86206 6.09887 9.89765 6.04045 9.99768 6.00749C10.5862 5.81161 11.1849 5.68052 11.809 5.66067C12.4769 5.63932 13.1314 5.71872 13.7687 5.90786C14.4977 6.12397 15.1705 6.4573 15.7826 6.91648C16.4922 7.44869 17.068 8.09588 17.5093 8.8618C17.8768 9.49963 18.1267 10.1843 18.2462 10.9109C18.3046 11.2667 18.326 11.6281 18.3638 11.9873V11.9869Z" fill="#777E90"/>
<path d="M2.85056 2.80861C2.85056 2.7146 2.85056 2.64756 2.85056 2.58052C2.85094 1.95019 2.84719 1.32022 2.85356 0.689887C2.85693 0.345693 3.10868 0.059176 3.43648 0.0104869C3.69235 -0.0273408 3.9175 0.035955 4.10369 0.225093C4.3884 0.514232 4.67687 0.79925 4.96196 1.08727C6.04163 2.17828 7.1183 3.27228 8.20135 4.35992C8.41713 4.57678 8.52203 4.81648 8.51641 5.12659C8.5033 5.83146 8.51716 6.5367 8.50892 7.24157C8.50704 7.41123 8.55612 7.53183 8.67637 7.65168C9.92875 8.89662 11.1759 10.1472 12.4253 11.3951C12.5987 11.5685 12.7261 11.7577 12.7186 12.0176C12.71 12.3019 12.5721 12.5041 12.332 12.6359C12.1008 12.7625 11.8618 12.7521 11.637 12.6172C11.5423 12.5603 11.4576 12.4824 11.3786 12.4037C10.1325 11.161 8.88691 9.91797 7.64615 8.67003C7.53039 8.55355 7.41388 8.50749 7.25205 8.50898C6.51553 8.5161 5.77902 8.50861 5.04288 8.51385C4.79562 8.51573 4.59258 8.42958 4.42175 8.2588C3.03563 6.87415 1.65026 5.48876 0.264521 4.10337C0.105304 3.94382 -0.00221317 3.76329 3.45844e-05 3.52622C0.00415547 3.11872 0.278382 2.82135 0.685226 2.81236C1.08458 2.80374 1.48393 2.80936 1.88328 2.80899C2.19459 2.80899 2.50591 2.80899 2.85056 2.80899V2.80861Z" fill="#777E90"/>
</g>
<defs>
<clipPath id="clip0_238_12470">
<rect width="24" height="24" fill="white"/>
</clipPath>
</defs>
</svg>
