<svg width="24" height="24" viewBox="0 0 24 24" fill="none" xmlns="http://www.w3.org/2000/svg">
<g clip-path="url(#clip0_238_11063)">
<path d="M17.7621 22.0753C17.2436 22.006 16.5202 21.9168 15.8 21.8089C15.4695 21.7594 15.2044 21.8336 14.9636 22.0577C14.4216 22.5621 13.8875 23.0771 13.3146 23.5474C12.5776 24.1527 11.4194 24.15 10.6795 23.5433C10.1161 23.0812 9.58978 22.5764 9.05994 22.0783C8.80422 21.8381 8.52777 21.7571 8.1735 21.8119C7.4986 21.9168 6.82175 22.018 6.14137 22.0768C4.96128 22.1791 4.01227 21.4806 3.78431 20.3653C3.65918 19.7529 3.54618 19.1379 3.44529 18.5214C3.39016 18.186 3.23141 17.9499 2.90881 17.7944C2.33871 17.5193 1.77603 17.23 1.21726 16.9347C0.0774407 16.3328 -0.303412 15.2025 0.251836 14.0733C0.529459 13.5089 0.816077 12.9483 1.10817 12.3906C1.24815 12.123 1.24659 11.8708 1.1066 11.6036C0.814513 11.046 0.527504 10.4857 0.250271 9.92091C-0.303412 8.79361 0.0805689 7.66182 1.22039 7.06032C1.77955 6.76538 2.34223 6.47606 2.91194 6.20098C3.2271 6.04882 3.38547 5.81872 3.44334 5.49117C3.56416 4.80235 3.67482 4.10978 3.84296 3.43071C4.07483 2.49417 5.00624 1.84395 6.01116 1.91928C6.74354 1.97437 7.47162 2.08717 8.19931 2.19061C8.52972 2.23745 8.79562 2.1655 9.03531 1.94026C9.54716 1.45944 10.0457 0.962123 10.5939 0.522148C11.5269 -0.22701 12.6956 -0.158428 13.5786 0.653316C14.0392 1.0768 14.5022 1.49879 14.9546 1.93089C15.1974 2.16287 15.468 2.23933 15.8066 2.18986C16.5143 2.08642 17.2233 1.97099 17.9365 1.92227C19.0771 1.84432 19.9839 2.53427 20.2122 3.61547C20.3424 4.23308 20.4531 4.85482 20.5551 5.47768C20.6103 5.81347 20.771 6.04845 21.0932 6.20398C21.6629 6.47906 22.226 6.76838 22.7847 7.06369C23.9249 7.66669 24.3042 8.79511 23.7482 9.92541C23.4706 10.4898 23.1836 11.0501 22.8923 11.6081C22.7527 11.8757 22.7554 12.1287 22.895 12.3955C23.184 12.9479 23.4667 13.5029 23.7427 14.0613C24.3093 15.2081 23.9261 16.3384 22.7632 16.947C22.2088 17.2371 21.6523 17.5242 21.0885 17.797C20.7737 17.9492 20.615 18.1789 20.5575 18.5072C20.4386 19.19 20.3295 19.8766 20.1622 20.5493C19.9221 21.5139 19.009 22.1315 17.7637 22.0753H17.7621ZM17.4782 7.45757C17.4817 7.04683 17.1587 6.74402 16.7458 6.74701C16.4874 6.74889 16.3118 6.8883 16.1421 7.05095C13.0417 10.0243 9.94013 12.9962 6.83934 15.9693C6.77483 16.0311 6.70835 16.0926 6.65596 16.1634C6.49095 16.3864 6.46866 16.6292 6.59691 16.8713C6.72438 17.1119 6.93632 17.2412 7.2245 17.2506C7.49078 17.2592 7.67534 17.122 7.85052 16.9534C9.84003 15.0443 11.8311 13.1368 13.8218 11.2285C14.9417 10.1551 16.0608 9.08143 17.1818 8.00923C17.348 7.85033 17.4849 7.68131 17.4778 7.45757H17.4782ZM14.8932 13.1574C13.4417 13.1536 12.2491 14.2854 12.2428 15.6724C12.2366 17.07 13.4241 18.2182 14.8799 18.2227C16.3282 18.2272 17.5173 17.0951 17.5259 15.7039C17.5345 14.2978 16.3591 13.1608 14.8932 13.1574ZM9.11664 10.841C10.5779 10.838 11.7623 9.69642 11.7576 8.29592C11.7529 6.91191 10.5564 5.77225 9.10999 5.77375C7.65266 5.77525 6.46631 6.92165 6.47374 8.32103C6.48117 9.71741 7.66244 10.8436 9.11703 10.8406L9.11664 10.841Z" fill="#777E90"/>
<path d="M14.8803 16.8348C14.2203 16.8311 13.6901 16.3229 13.6865 15.6907C13.683 15.0577 14.2332 14.5323 14.8936 14.5371C15.549 14.542 16.0862 15.0577 16.0894 15.685C16.0925 16.3199 15.547 16.8386 14.8799 16.8348H14.8803Z" fill="#777E90"/>
<path d="M9.10988 7.16211C9.77695 7.16099 10.3189 7.68079 10.3126 8.31602C10.3064 8.94526 9.76952 9.45869 9.11535 9.46094C8.45727 9.46319 7.9028 8.93027 7.91023 8.30253C7.91766 7.67105 8.45179 7.16324 9.10988 7.16211Z" fill="#777E90"/>
</g>
<defs>
<clipPath id="clip0_238_11063">
<rect width="24" height="24" fill="white"/>
</clipPath>
</defs>
</svg>
