<svg width="24" height="22" viewBox="0 0 24 22" fill="none" xmlns="http://www.w3.org/2000/svg">
<g clip-path="url(#clip0_238_12497)">
<path d="M18.1896 18.1891C18.1896 18.8247 18.184 19.4598 18.1933 20.095C18.1959 20.2627 18.1412 20.3511 17.9963 20.4196C17.57 20.6216 17.1331 20.7909 16.6832 20.9267C15.7999 21.1933 14.8985 21.3505 13.983 21.4319C13.0929 21.5109 12.2009 21.5218 11.3108 21.4584C10.4773 21.3988 9.65087 21.2727 8.8297 21.1065C7.99618 20.938 7.17951 20.7037 6.36658 20.4534C6.17253 20.3935 6.15942 20.3818 6.15942 20.1701C6.15829 18.9772 6.15455 17.7843 6.16054 16.5914C6.16429 15.8644 6.29391 15.1635 6.60334 14.5034C6.91765 13.8332 7.35483 13.2692 7.91863 12.8081C8.32509 12.4757 8.77651 12.2289 9.26426 12.0592C9.72167 11.9001 10.1959 11.8172 10.6796 11.8156C11.6779 11.8125 12.6767 11.8028 13.675 11.8175C14.9012 11.8358 15.9681 12.2865 16.8439 13.1805C17.4044 13.7526 17.7962 14.438 18.012 15.2316C18.1356 15.6858 18.1892 16.1443 18.1892 16.6128C18.1892 17.1379 18.1892 17.6633 18.1892 18.1883L18.1896 18.1891Z" fill="#777E90"/>
<path d="M7.84528 8.07653C7.90784 9.29783 8.34877 10.3284 9.18754 11.2049C9.09501 11.2469 9.03732 11.2789 8.97588 11.3003C7.92657 11.6673 7.07881 12.3242 6.41573 13.2389C5.88002 13.9776 5.54849 14.812 5.42524 15.7251C5.37017 16.1333 5.38365 16.5521 5.37017 16.9662C5.36417 17.1476 5.37129 17.3293 5.36829 17.5107C5.36567 17.6749 5.34132 17.696 5.17424 17.6816C4.9195 17.6598 4.66364 17.6454 4.41077 17.6088C3.83685 17.5255 3.26181 17.4465 2.69239 17.336C1.84051 17.1705 1.00435 16.9327 0.176071 16.6677C0.0029972 16.6124 0.00262258 16.6074 0.00262258 16.4264C0.00262258 15.1428 -0.00561904 13.8589 0.00711801 12.5753C0.0172327 11.5836 0.346898 10.7017 0.917443 9.91121C1.30929 9.36789 1.79742 8.9386 2.36797 8.61634C2.83025 8.35519 3.32138 8.16254 3.85109 8.11116C4.17326 8.08003 4.4973 8.05356 4.8206 8.05006C5.61292 8.0415 6.40561 8.04539 7.19831 8.0485C7.40323 8.04928 7.60777 8.06563 7.84528 8.07614V8.07653Z" fill="#777E90"/>
<path d="M15.1748 11.2192C15.228 11.1472 15.2572 11.0989 15.2947 11.0584C15.9057 10.3999 16.2841 9.61878 16.4339 8.71856C16.4613 8.55315 16.4792 8.3854 16.489 8.21805C16.4957 8.10557 16.5377 8.04914 16.6467 8.04953C16.6965 8.04953 16.7467 8.04758 16.7965 8.04758C17.5956 8.04758 18.3947 8.04291 19.1937 8.04914C19.7684 8.05342 20.3393 8.08494 20.8919 8.28305C21.664 8.55938 22.3226 9.00618 22.8665 9.63979C23.4251 10.2901 23.7757 11.0452 23.9315 11.8979C23.9686 12.1007 23.9922 12.3089 23.993 12.5148C23.9994 13.8054 23.9964 15.096 24.0009 16.3866C24.0012 16.5068 23.9634 16.5695 23.857 16.6232C23.0767 17.0182 22.2495 17.2506 21.4032 17.4304C20.6615 17.588 19.9104 17.6526 19.1581 17.7118C19.0162 17.7231 18.9817 17.6954 18.9794 17.539C18.975 17.2276 18.9727 16.9163 18.9787 16.6049C18.9896 16.0164 18.9143 15.4416 18.7442 14.8807C18.5104 14.109 18.1321 13.4236 17.608 12.8238C17.1753 12.3292 16.6763 11.9244 16.1042 11.62C15.8941 11.5083 15.6708 11.4231 15.4524 11.3281C15.373 11.2935 15.2913 11.2647 15.1748 11.2192Z" fill="#777E90"/>
<path d="M8.64062 7.94298C8.64812 5.88295 10.238 4.26777 12.1748 4.2666C14.1498 4.26543 15.7161 5.93627 15.7138 7.93792C15.7112 9.94619 14.1648 11.6116 12.1804 11.612C10.1874 11.6127 8.64662 9.9458 8.641 7.94298H8.64062Z" fill="#777E90"/>
<path d="M2.47148 4.16228C2.51531 2.83472 3.04914 1.78894 4.13441 1.06231C4.62591 0.733046 5.16312 0.55596 5.74977 0.513148C6.43532 0.462942 7.07892 0.596826 7.67906 0.935041C8.33239 1.30283 8.83213 1.83292 9.16479 2.52803C9.41916 3.05929 9.55178 3.61818 9.53642 4.21443C9.53342 4.33392 9.50045 4.41954 9.4098 4.49855C8.80816 5.02085 8.3706 5.66615 8.10275 6.4317C8.03082 6.63759 7.98137 6.85398 7.93979 7.06921C7.91132 7.21594 7.84576 7.30779 7.71802 7.37823C6.89048 7.83438 6.02961 7.97099 5.11367 7.7219C4.27452 7.49383 3.60845 7.00733 3.11283 6.28069C2.68501 5.65253 2.45987 4.94574 2.4711 4.16306L2.47148 4.16228Z" fill="#777E90"/>
<path d="M21.5417 4.09287C21.4675 5.67807 20.8179 6.8048 19.5094 7.48162C18.6279 7.93737 17.7104 7.9615 16.784 7.61823C16.7196 7.59449 16.6581 7.56179 16.5945 7.53533C16.5248 7.50614 16.4888 7.45788 16.4768 7.37693C16.4558 7.23642 16.4248 7.09709 16.3944 6.95815C16.1681 5.91976 15.641 5.07793 14.8472 4.4124C14.7648 4.34351 14.679 4.27696 14.588 4.2213C14.488 4.1602 14.4625 4.07613 14.4674 3.96171C14.4936 3.36623 14.6652 2.81746 14.9517 2.30528C15.2664 1.74327 15.7017 1.30348 16.2412 0.980832C16.678 0.71968 17.1489 0.562833 17.6561 0.516129C18.2139 0.464755 18.7515 0.53481 19.2715 0.744978C19.9791 1.03143 20.5377 1.51131 20.9573 2.1675C21.1731 2.50532 21.3334 2.87195 21.4184 3.26621C21.4821 3.56122 21.5091 3.8648 21.5421 4.09248L21.5417 4.09287Z" fill="#777E90"/>
</g>
<defs>
<clipPath id="clip0_238_12497">
<rect width="24" height="21" fill="white" transform="translate(0 0.5)"/>
</clipPath>
</defs>
</svg>
