<svg width="25" height="24" viewBox="0 0 25 24" fill="none" xmlns="http://www.w3.org/2000/svg">
<g clip-path="url(#clip0_238_12518)">
<path d="M11.9939 23.9908C5.61426 24.2583 -0.281105 18.4123 0.0103751 11.9758C-0.267652 5.62456 5.60231 -0.293229 12.0418 0.0102089C18.408 -0.249881 24.2854 5.60214 23.991 12.061C24.2226 18.4198 18.4229 24.2539 11.9939 23.9908ZM10.8624 13.9175C10.2839 13.345 9.75776 12.8249 9.2316 12.3047C8.89528 11.9713 8.56942 11.629 8.22264 11.3077C7.93265 11.0386 7.57092 11.0371 7.24655 11.1986C6.9177 11.3615 6.7473 11.656 6.76374 12.0551C6.77719 12.3615 6.94162 12.5588 7.13893 12.7546C8.10903 13.7217 9.07166 14.6948 10.0448 15.6574C10.6442 16.2509 11.112 16.2568 11.704 15.6679C13.7324 13.647 15.7548 11.6216 17.7757 9.59317C17.9147 9.45416 18.0463 9.2987 18.1404 9.1283C18.3303 8.786 18.2959 8.4138 18.0403 8.15969C17.8011 7.92202 17.4872 7.78002 17.1614 7.93099C16.8773 8.06253 16.5993 8.24339 16.3781 8.46313C14.7847 10.0371 13.2062 11.6276 11.6202 13.2105C11.3975 13.4332 11.1584 13.641 10.8609 13.916L10.8624 13.9175Z" fill="#777E90"/>
</g>
<defs>
<clipPath id="clip0_238_12518">
<rect width="24.0015" height="24" fill="white"/>
</clipPath>
</defs>
</svg>
