<svg width="25" height="24" viewBox="0 0 25 24" fill="none" xmlns="http://www.w3.org/2000/svg">
<g clip-path="url(#clip0_238_12480)">
<path d="M12.0114 23.9999C5.4053 24.0093 0.00470158 18.6168 3.07107e-06 12.0066C-0.00469544 5.39719 5.38248 0.00464055 11.9953 -5.79618e-05C18.6088 -0.00475647 24.0013 5.37839 24.0074 11.9905C24.0134 18.6 18.6289 23.9912 12.0121 23.9999H12.0114ZM2.52445 11.9717C2.51169 17.1998 6.74975 21.4634 11.9758 21.4809C17.1979 21.4983 21.4695 17.2509 21.4829 12.0268C21.4964 6.79667 17.263 2.53848 12.0315 2.51969C6.80882 2.50089 2.5372 6.74767 2.52445 11.9711V11.9717Z" fill="#777E90"/>
<path d="M13.7976 9.39986C13.5385 9.28374 13.2599 9.19849 13.025 9.04545C12.625 8.78502 12.2122 8.69978 11.749 8.80314C11.4201 8.87631 11.2637 9.09244 11.1926 9.40053C11.1214 9.70929 11.3121 9.86568 11.5457 9.96905C12.2088 10.2624 12.8773 10.5443 13.5479 10.8215C14.7353 11.3128 15.4964 12.1666 15.6824 13.4486C15.922 15.0985 15.0615 16.6342 13.5425 17.335C13.3405 17.4283 13.264 17.5263 13.2579 17.7531C13.2398 18.4109 12.733 18.9244 12.0974 18.9707C11.447 19.0177 10.855 18.5693 10.7677 17.9028C10.7321 17.629 10.6046 17.5874 10.3865 17.5041C9.90923 17.3229 9.43737 17.1088 8.99907 16.849C8.39027 16.4879 8.22448 15.7408 8.5715 15.1508C8.9212 14.5561 9.68975 14.3326 10.2912 14.7146C10.8167 15.0481 11.3658 15.1891 11.9752 15.1629C12.5424 15.1381 12.9451 14.8582 13.1297 14.3508C13.3224 13.8212 13.1452 13.3936 12.6243 13.1728C12.0075 12.9117 11.3725 12.6902 10.767 12.4056C9.924 12.0095 9.16955 11.5055 8.82992 10.5631C8.29765 9.08506 9.0098 7.31372 10.4455 6.61095C10.6469 6.51228 10.7402 6.4116 10.7583 6.16929C10.8046 5.53969 11.3503 5.05239 11.9672 5.03561C12.6055 5.01882 13.1599 5.47391 13.2485 6.127C13.2767 6.33844 13.3633 6.41496 13.5452 6.50154C13.9164 6.67807 14.2849 6.87541 14.6158 7.11772C15.0588 7.44125 15.1917 8.02386 14.9997 8.53734C14.8198 9.01861 14.356 9.33408 13.7989 9.39919L13.7976 9.39986Z" fill="#777E90"/>
</g>
<defs>
<clipPath id="clip0_238_12480">
<rect width="24.0074" height="24" fill="white"/>
</clipPath>
</defs>
</svg>
