<svg width="24" height="24" viewBox="0 0 24 24" fill="none" xmlns="http://www.w3.org/2000/svg">
<path d="M20.8726 4.91978C20.6885 5.04389 20.5424 5.14168 20.3964 5.23571C17.6468 7.02227 14.8973 8.80506 12.1509 10.5954C12.0334 10.6706 11.9445 10.6744 11.8238 10.5954C8.99171 8.8201 6.15959 7.04859 3.32747 5.27709C3.26714 5.23947 3.21317 5.1981 3.12109 5.13792C3.27349 5.04765 3.39097 4.97243 3.51162 4.90473C6.28024 3.29119 9.04569 1.68141 11.8143 0.0641102C11.9508 -0.0148743 12.062 -0.0223966 12.1985 0.0565879C15.002 1.63252 17.8088 3.20092 20.6155 4.76933C20.6885 4.8107 20.7583 4.85207 20.8758 4.91978H20.8726Z" fill="#777E90"/>
<path d="M11.2775 14.0437V23.9995C10.9695 23.8077 10.6837 23.6347 10.398 23.4541C7.74683 21.7955 5.09886 20.1368 2.44454 18.4819C2.30484 18.3954 2.25086 18.2976 2.25404 18.1058C2.26039 16.4471 2.25721 14.7884 2.25721 13.1297V12.8477C2.34294 12.8928 2.40326 12.9229 2.45724 12.9605C4.4194 14.2919 6.38157 15.6234 8.34373 16.9511C8.83904 17.2858 9.13431 17.2181 9.49309 16.684C10.0265 15.8904 10.5599 15.0968 11.0933 14.3032C11.1409 14.2318 11.1949 14.1603 11.2775 14.0399V14.0437Z" fill="#777E90"/>
<path d="M12.7095 23.9657V14.0475C12.9762 14.4424 13.2143 14.7922 13.4493 15.142C13.8144 15.6873 14.1795 16.2327 14.5478 16.7743C14.8336 17.1956 15.1733 17.2708 15.5733 17C17.5577 15.6535 19.5421 14.3108 21.5233 12.9643C21.5741 12.9304 21.6313 12.9003 21.717 12.8477V13.1222C21.717 14.7057 21.717 16.2891 21.717 17.8726C21.717 18.0381 21.6853 18.1396 21.5519 18.2224C18.6531 20.0992 15.7607 21.9835 12.8619 23.8679C12.8174 23.8942 12.773 23.9205 12.7031 23.9619L12.7095 23.9657Z" fill="#777E90"/>
<path d="M13.0686 11.8927C16.1103 9.91812 19.1392 7.94727 22.1841 5.97266C22.7905 7.10477 23.3874 8.22183 24.0002 9.36523C23.7303 9.55329 23.4605 9.73758 23.1938 9.91812C20.6315 11.6558 18.0693 13.3934 15.507 15.1349C15.3641 15.2326 15.2879 15.2176 15.1863 15.0634C14.5259 14.0704 13.8592 13.0813 13.1924 12.0921C13.1543 12.0357 13.1194 11.9755 13.0654 11.8927H13.0686Z" fill="#777E90"/>
<path d="M1.79389 6.19824C4.83874 8.10515 7.86136 9.99326 10.9157 11.9039L8.66464 15.2514C5.77219 13.2918 2.89245 11.3398 0 9.37643L1.79389 6.19824Z" fill="#777E90"/>
</svg>
