<svg width="81" height="81" viewBox="0 0 81 81" fill="none" xmlns="http://www.w3.org/2000/svg">
<rect x="0.333252" y="0.971924" width="80" height="80" rx="40" fill="#141518"/>
<g clip-path="url(#clip0_1109_42113)">
<path d="M58.2368 24.3219C54.8945 22.7569 51.3208 21.6195 47.5848 20.9719C47.1258 21.8021 46.5898 22.9188 46.2203 23.8071C42.2487 23.2094 38.3135 23.2094 34.415 23.8071C34.0455 22.9188 33.4972 21.8021 33.0343 20.9719C29.2941 21.6195 25.7164 22.7611 22.3742 24.3302C15.633 34.5253 13.8055 44.4673 14.7193 54.2679C19.1904 57.6096 23.5235 59.6394 27.7834 60.9678C28.8352 59.5191 29.7733 57.9791 30.5815 56.3559C29.0423 55.7706 27.5682 55.0484 26.1753 54.2098C26.5448 53.9359 26.9063 53.6494 27.2555 53.3548C35.7512 57.3314 44.9817 57.3314 53.3758 53.3548C53.729 53.6494 54.0905 53.9359 54.456 54.2098C53.059 55.0524 51.5808 55.7748 50.0417 56.3601C50.8498 57.9791 51.7838 59.5233 52.8397 60.9719C57.1037 59.6436 61.4408 57.6138 65.912 54.2679C66.9842 42.9064 64.0805 33.0558 58.2368 24.3219ZM31.7388 48.2406C29.1885 48.2406 27.0971 45.8578 27.0971 42.9563C27.0971 40.0546 29.1439 37.6678 31.7388 37.6678C34.3338 37.6678 36.4252 40.0504 36.3805 42.9563C36.3847 45.8578 34.3338 48.2406 31.7388 48.2406ZM48.8925 48.2406C46.3422 48.2406 44.2507 45.8578 44.2507 42.9563C44.2507 40.0546 46.2975 37.6678 48.8925 37.6678C51.4873 37.6678 53.5788 40.0504 53.5342 42.9563C53.5342 45.8578 51.4873 48.2406 48.8925 48.2406Z" fill="#5865F2"/>
</g>
<defs>
<clipPath id="clip0_1109_42113">
<rect width="51.6667" height="40" fill="white" transform="translate(14.5 20.9719)"/>
</clipPath>
</defs>
</svg>
