<svg width="80" height="81" viewBox="0 0 80 81" fill="none" xmlns="http://www.w3.org/2000/svg">
<rect x="0.00012207" y="0.971924" width="80" height="80" rx="40" fill="#141518"/>
<g clip-path="url(#clip0_1109_42225)">
<path d="M30.1431 60.8305C27.7643 60.7223 26.472 60.3264 25.6125 59.9911C24.4736 59.5477 23.6617 59.0199 22.8069 58.1663C21.9522 57.3128 21.4231 56.5008 20.9821 55.3619C20.6468 54.5024 20.251 53.2102 20.1428 50.8313C20.0239 48.2599 20.0001 47.4884 20.0001 40.9737C20.0001 34.459 20.0263 33.6887 20.1416 31.1149C20.2498 28.7361 20.648 27.4462 20.9809 26.5843C21.4243 25.4454 21.9533 24.6335 22.8057 23.7775C23.6593 22.924 24.4712 22.3937 25.6113 21.9527C26.4708 21.6174 27.7631 21.2216 30.1419 21.1134C32.7145 20.9957 33.4872 20.9719 39.9995 20.9719C46.5142 20.9719 47.2846 20.9981 49.8584 21.1134C52.2372 21.2216 53.527 21.6198 54.3889 21.9527C55.5278 22.3937 56.3398 22.924 57.1945 23.7775C58.0493 24.6311 58.5759 25.4442 59.0193 26.5831C59.3546 27.4426 59.7505 28.7349 59.8587 31.1137C59.9763 33.6875 60.0001 34.4578 60.0001 40.9725C60.0001 47.4848 59.9763 48.2576 59.8587 50.8313C59.7505 53.2102 59.3522 54.5024 59.0193 55.3619C58.5759 56.5008 58.0481 57.3128 57.1945 58.1663C56.341 59.0199 55.5278 59.5477 54.3889 59.9911C53.5294 60.3264 52.2372 60.7223 49.8584 60.8305C47.287 60.9481 46.5142 60.9719 39.9995 60.9719C33.4872 60.9719 32.7145 60.9493 30.1431 60.8305Z" fill="url(#paint0_radial_1109_42225)"/>
<path d="M30.1431 60.8305C27.7643 60.7223 26.472 60.3264 25.6125 59.9911C24.4736 59.5477 23.6617 59.0199 22.8069 58.1663C21.9522 57.3128 21.4231 56.5008 20.9821 55.3619C20.6468 54.5024 20.251 53.2102 20.1428 50.8313C20.0239 48.2599 20.0001 47.4884 20.0001 40.9737C20.0001 34.459 20.0263 33.6887 20.1416 31.1149C20.2498 28.7361 20.648 27.4462 20.9809 26.5843C21.4243 25.4454 21.9533 24.6335 22.8057 23.7775C23.6593 22.924 24.4712 22.3937 25.6113 21.9527C26.4708 21.6174 27.7631 21.2216 30.1419 21.1134C32.7145 20.9957 33.4872 20.9719 39.9995 20.9719C46.5142 20.9719 47.2846 20.9981 49.8584 21.1134C52.2372 21.2216 53.527 21.6198 54.3889 21.9527C55.5278 22.3937 56.3398 22.924 57.1945 23.7775C58.0493 24.6311 58.5759 25.4442 59.0193 26.5831C59.3546 27.4426 59.7505 28.7349 59.8587 31.1137C59.9763 33.6875 60.0001 34.4578 60.0001 40.9725C60.0001 47.4848 59.9763 48.2576 59.8587 50.8313C59.7505 53.2102 59.3522 54.5024 59.0193 55.3619C58.5759 56.5008 58.0481 57.3128 57.1945 58.1663C56.341 59.0199 55.5278 59.5477 54.3889 59.9911C53.5294 60.3264 52.2372 60.7223 49.8584 60.8305C47.287 60.9481 46.5142 60.9719 39.9995 60.9719C33.4872 60.9719 32.7145 60.9493 30.1431 60.8305Z" fill="url(#paint1_radial_1109_42225)"/>
<path d="M35.0891 41.0572C35.0891 38.3216 37.3061 36.1034 40.0417 36.1034C42.7773 36.1034 44.9955 38.3216 44.9955 41.0572C44.9955 43.7928 42.7773 46.011 40.0417 46.011C37.3061 46.011 35.0891 43.7928 35.0891 41.0572ZM32.4112 41.0572C32.4112 45.2715 35.8273 48.6877 40.0417 48.6877C44.256 48.6877 47.6722 45.2715 47.6722 41.0572C47.6722 36.8428 44.256 33.4267 40.0417 33.4267C35.8273 33.4267 32.4113 36.8426 32.4113 41.0572M46.1912 33.1241C46.191 33.4768 46.2955 33.8216 46.4913 34.1149C46.6871 34.4083 46.9655 34.6369 47.2913 34.772C47.6171 34.9071 47.9757 34.9426 48.3216 34.8739C48.6675 34.8053 48.9853 34.6356 49.2348 34.3863C49.4843 34.137 49.6543 33.8193 49.7232 33.4734C49.7922 33.1275 49.757 32.769 49.6222 32.4431C49.4873 32.1172 49.2589 31.8386 48.9657 31.6425C48.6725 31.4465 48.3278 31.3418 47.9751 31.3416H47.9744C47.5016 31.3418 47.0483 31.5297 46.714 31.8639C46.3796 32.1981 46.1916 32.6514 46.1912 33.1241ZM34.0382 53.1531C32.5894 53.0872 31.8019 52.8458 31.2786 52.6419C30.5848 52.3718 30.0898 52.0501 29.5693 51.5304C29.0488 51.0107 28.7267 50.5161 28.4578 49.8223C28.2538 49.2992 28.0124 48.5115 27.9466 47.0627C27.8745 45.4963 27.8602 45.0258 27.8602 41.0574C27.8602 37.0891 27.8757 36.6198 27.9466 35.0521C28.0126 33.6033 28.2557 32.8172 28.4578 32.2925C28.7279 31.5988 29.0496 31.1037 29.5693 30.5833C30.0891 30.0628 30.5836 29.7406 31.2786 29.4717C31.8017 29.2677 32.5894 29.0264 34.0382 28.9605C35.6046 28.8885 36.0751 28.8741 40.0417 28.8741C44.0083 28.8741 44.4793 28.8894 46.047 28.9608C47.4958 29.0268 48.2819 29.2699 48.8066 29.472C49.5004 29.7409 49.9954 30.0638 50.5158 30.5835C51.0363 31.1033 51.3573 31.599 51.6274 32.2928C51.8314 32.8159 52.0727 33.6036 52.1386 35.0524C52.2106 36.6201 52.225 37.0893 52.225 41.0577C52.225 45.026 52.2106 45.4953 52.1386 47.063C52.0726 48.5118 51.8301 49.2992 51.6274 49.8226C51.3573 50.5163 51.0356 51.0114 50.5158 51.5306C49.9961 52.0499 49.5004 52.3721 48.8066 52.6422C48.2835 52.8462 47.4958 53.0875 46.047 53.1534C44.4806 53.2254 44.0101 53.2398 40.0417 53.2398C36.0733 53.2398 35.6041 53.2254 34.0382 53.1534M33.9151 26.287C32.3332 26.3591 31.2522 26.6099 30.3082 26.9772C29.3311 27.3566 28.5028 27.8655 27.6758 28.6913C26.8487 29.517 26.3411 30.3454 25.9617 31.3237C25.5944 32.2683 25.3436 33.3487 25.2715 34.9306C25.1983 36.5151 25.1815 37.0216 25.1815 41.0572C25.1815 45.0927 25.1983 45.5993 25.2715 47.1837C25.3436 48.7658 25.5944 49.8461 25.9617 50.7907C26.3411 51.7678 26.8488 52.5977 27.6758 53.4231C28.5027 54.2485 29.3299 54.7567 30.3082 55.1371C31.254 55.5045 32.3332 55.7553 33.9151 55.8274C35.5004 55.8994 36.0061 55.9174 40.0417 55.9174C44.0772 55.9174 44.5838 55.9006 46.1682 55.8274C47.7503 55.7553 48.8306 55.5045 49.7752 55.1371C50.7523 54.7567 51.5805 54.2489 52.4076 53.4231C53.2347 52.5974 53.7412 51.7678 54.1216 50.7907C54.489 49.8461 54.741 48.7657 54.8119 47.1837C54.8839 45.5981 54.9007 45.0927 54.9007 41.0572C54.9007 37.0216 54.8839 36.5151 54.8119 34.9306C54.7398 33.3486 54.489 32.2677 54.1216 31.3237C53.7412 30.3466 53.2334 29.5183 52.4076 28.6913C51.5819 27.8642 50.7523 27.3566 49.7764 26.9772C48.8306 26.6099 47.7502 26.3579 46.1694 26.287C44.5847 26.2146 44.0784 26.197 40.0435 26.197C36.0085 26.197 35.501 26.2138 33.9157 26.287" fill="white"/>
</g>
<defs>
<radialGradient id="paint0_radial_1109_42225" cx="0" cy="0" r="1" gradientUnits="userSpaceOnUse" gradientTransform="translate(22.5889 60.0956) scale(50.7852)">
<stop offset="0.09" stop-color="#FA8F21"/>
<stop offset="0.78" stop-color="#D82D7E"/>
</radialGradient>
<radialGradient id="paint1_radial_1109_42225" cx="0" cy="0" r="1" gradientUnits="userSpaceOnUse" gradientTransform="translate(47.7067 58.8113) scale(44.6914)">
<stop offset="0.64" stop-color="#8C3AAA" stop-opacity="0"/>
<stop offset="1" stop-color="#8C3AAA"/>
</radialGradient>
<clipPath id="clip0_1109_42225">
<rect width="40" height="40" fill="white" transform="translate(20.0001 20.9719)"/>
</clipPath>
</defs>
</svg>
